<svg xmlns="http://www.w3.org/2000/svg" height="220" width="220" version="1.1" viewBox="0 0 58.208332 58.208335">
 <defs>
  <clipPath id="clipPath50539" clipPathUnits="userSpaceOnUse">
   <path d="m664.18 315.83c0-5.116 4.215-9.26 9.415-9.26 5.202 0 9.414 4.144 9.414 9.26 0 5.107-4.212 9.261-9.414 9.261-5.2 0-9.415-4.154-9.415-9.261"/>
  </clipPath>
  <mask id="mask50557" height="1" width="1" y="0" x="0" maskUnits="userSpaceOnUse">
   <g clip-path="url(#clipPath50547)">
    <path fill="url(#radialGradient50555)" d="m-32768 32767h65535v-65535h-65535z"/>
   </g>
  </mask>
  <clipPath id="clipPath50547" clipPathUnits="userSpaceOnUse">
   <path d="m-32768 32767h65535v-65535h-65535z"/>
  </clipPath>
  <radialGradient id="radialGradient50555" gradientUnits="userSpaceOnUse" cy="0" cx="0" gradientTransform="matrix(9.4141 0 0 9.2606 673.59 315.83)" r="1">
   <stop stop-opacity="0" stop-color="#fff" offset="0"/>
   <stop stop-opacity="0" stop-color="#fff" offset=".875"/>
   <stop stop-color="#fff" offset="1"/>
  </radialGradient>
  <radialGradient id="radialGradient50579" gradientUnits="userSpaceOnUse" cy="0" cx="0" gradientTransform="matrix(9.4141 0 0 9.2606 673.59 315.83)" r="1">
   <stop stop-color="#dc1e25" offset="0"/>
   <stop stop-color="#dc1e25" offset=".875"/>
   <stop stop-color="#dc1e25" offset="1"/>
  </radialGradient>
  <clipPath id="clipPath50515" clipPathUnits="userSpaceOnUse">
   <path d="m0 841.89h1190.6v-841.89h-1190.6z"/>
  </clipPath>
  <clipPath id="clipPath50465" clipPathUnits="userSpaceOnUse">
   <path d="m549.55 315.78c0-5.116 4.215-9.26 9.415-9.26 5.202 0 9.413 4.144 9.413 9.26 0 5.107-4.211 9.261-9.413 9.261-5.2 0-9.415-4.154-9.415-9.261"/>
  </clipPath>
  <mask id="mask50483" height="1" width="1" y="0" x="0" maskUnits="userSpaceOnUse">
   <g clip-path="url(#clipPath50473)">
    <path fill="url(#radialGradient50481)" d="m-32768 32767h65535v-65535h-65535z"/>
   </g>
  </mask>
  <clipPath id="clipPath50473" clipPathUnits="userSpaceOnUse">
   <path d="m-32768 32767h65535v-65535h-65535z"/>
  </clipPath>
  <radialGradient id="radialGradient50481" gradientUnits="userSpaceOnUse" cy="0" cx="0" gradientTransform="matrix(9.4142 0 0 9.2606 558.96 315.78)" r="1">
   <stop stop-opacity="0" stop-color="#fff" offset="0"/>
   <stop stop-opacity="0" stop-color="#fff" offset=".875"/>
   <stop stop-color="#fff" offset="1"/>
  </radialGradient>
  <radialGradient id="radialGradient50505" gradientUnits="userSpaceOnUse" cy="0" cx="0" gradientTransform="matrix(9.4142 0 0 9.2606 558.96 315.78)" r="1">
   <stop stop-color="#dc1e25" offset="0"/>
   <stop stop-color="#dc1e25" offset=".875"/>
   <stop stop-color="#dc1e25" offset="1"/>
  </radialGradient>
  <clipPath id="clipPath50449" clipPathUnits="userSpaceOnUse">
   <path d="m0 841.89h1190.6v-841.89h-1190.6z"/>
  </clipPath>
  <clipPath id="clipPath50427" clipPathUnits="userSpaceOnUse">
   <path d="m626.75 256.2s0.141-0.447 1.101-0.411c0.367 0.025 0.417 0.116 0.545 0.137 0.283 0.051 0.694-0.236 0.652-0.714-0.044-0.337-0.326-0.756-1.306-0.756s-2.12 0.798-2.698 1.544c0 0-0.585-0.137-1.194-0.167 0 0 1.886-2.635 5.593-2.635 4.069 0 5.585 3.653 6.217 4.82-2.622-0.695-4.495-1.282-8.91-1.818"/>
  </clipPath>
  <radialGradient id="radialGradient50439" gradientUnits="userSpaceOnUse" cy="0" cx="0" gradientTransform="matrix(-5.0592 0 0 4.5489 629.75 255.6)" r="1">
   <stop stop-color="#f9e806" offset="0"/>
   <stop stop-color="#f9e806" offset=".5"/>
   <stop stop-color="#e14220" offset="1"/>
  </radialGradient>
  <clipPath id="clipPath50415" clipPathUnits="userSpaceOnUse">
   <path d="m0 841.89h1190.6v-841.89h-1190.6z"/>
  </clipPath>
  <clipPath id="clipPath50393" clipPathUnits="userSpaceOnUse">
   <path d="m672.47 361.51c-0.325-0.449-0.722-1.093-1.799-1.621 0.604-1.056 2.13-3.603 5.989-7.22 0.641-0.601 2.24-1.112 3.147-0.094 0.34 0.395 0.564 0.949 0.53 1.591-0.044 0.745-0.49 1.61-0.938 1.99-0.779 0.657-4.093 4.004-6.45 6.638-0.066-0.481-0.479-1.284-0.479-1.284"/>
  </clipPath>
  <linearGradient id="linearGradient50405" gradientUnits="userSpaceOnUse" gradientTransform="matrix(-2.194 -2.4116 -2.4116 2.194 676.73 358.07)">
   <stop stop-color="#f9e806" offset="0"/>
   <stop stop-color="#f9e806" offset=".5"/>
   <stop stop-color="#e14220" offset="1"/>
  </linearGradient>
  <clipPath id="clipPath50371" clipPathUnits="userSpaceOnUse">
   <path d="m668.26 364.35c-1.137-1.59-0.837-4.606-0.68-5.3 0 0 2.091-3.641 8.062-9.572l0.01 2.63c-4.487 4.118-6.602 8.257-6.602 8.257s1.649 0.621 2.387 1.56c0.366 0.522 0.506 1.234 0.445 1.712-0.143 0.897-0.842 1.352-1.079 1.454-0.24 0.103-0.573 0.266-0.969 0.266-0.458 0-1-0.219-1.574-1.007"/>
  </clipPath>
  <radialGradient id="radialGradient50383" gradientUnits="userSpaceOnUse" cy="0" cx="0" gradientTransform="matrix(-4.4755 7.8378 6.8948 3.937 673.34 356.45)" r="1">
   <stop stop-color="#f9e806" offset="0"/>
   <stop stop-color="#f9e806" offset=".5"/>
   <stop stop-color="#e14220" offset="1"/>
  </radialGradient>
  <clipPath id="clipPath50349" clipPathUnits="userSpaceOnUse">
   <path d="m614.68 389.86c-0.653-0.928 1.627-0.907 1.627-0.907-0.149-0.908-1.195-1.779-2.252-1.779-1.059 0-1.377 0.171-1.377 0.171-0.16-0.25-0.302-0.443-0.468-0.713 0.96 0.038 3.189 0.099 4.082 0.099 0.891 0 3.36-0.128 3.892-0.166-0.86 2.014-2.516 4.801-3.66 4.801-0.041 0-0.09 0.005-0.151 0.005-0.269 0-1.196-0.805-1.693-1.511"/>
  </clipPath>
  <radialGradient id="radialGradient50361" gradientUnits="userSpaceOnUse" cy="0" cx="0" gradientTransform="matrix(4.3698 0 0 4.1768 616.09 388.49)" r="1">
   <stop stop-color="#f9e806" offset="0"/>
   <stop stop-color="#f9e806" offset=".5"/>
   <stop stop-color="#e14220" offset="1"/>
  </radialGradient>
  <clipPath id="clipPath50327" clipPathUnits="userSpaceOnUse">
   <path d="m623.13 386.06c5.856-0.52 9.449-1.76 14.203-3.351-0.354 2.031-0.831 3.248-1.653 4.45 0.066-1.049-0.807-2.185-2.51-2.185-1.736 0-2.68 0.995-2.68 1.59s0.352 1.462 1.289 1.462c0.921 0 1.125-0.671 1.056-0.934-0.066-0.25 0.127-0.33 0.397-0.399 0.257-0.062 0.984 0.339 0.718 1.26-0.286 1.012-1.524 1.565-2.973 1.565-2.754 0-5.148-1.585-7.847-3.458"/>
  </clipPath>
  <radialGradient id="radialGradient50339" gradientUnits="userSpaceOnUse" cy="0" cx="0" gradientTransform="matrix(-5.7841 0 0 5.5073 631.3 385.82)" r="1">
   <stop stop-color="#f9e806" offset="0"/>
   <stop stop-color="#f9e806" offset=".5"/>
   <stop stop-color="#e14220" offset="1"/>
  </radialGradient>
  <clipPath id="clipPath50281" clipPathUnits="userSpaceOnUse">
   <path d="m553.71 344.22-0.079-0.062v-0.117c0.094-2.954 0.975-12.715 8.066-14.52 4.907-1.248 10.015 1.792 16.047 9.844l-10.344 19.392c-7.008-9.935-11.19-12.806-13.69-14.537"/>
  </clipPath>
  <mask id="mask50297" height="1" width="1" y="0" x="0" maskUnits="userSpaceOnUse">
   <g clip-path="url(#clipPath50289)">
    <path fill="url(#linearGradient50295)" d="m-32768 32767h65535v-65535h-65535z"/>
   </g>
  </mask>
  <clipPath id="clipPath50289" clipPathUnits="userSpaceOnUse">
   <path d="m-32768 32767h65535v-65535h-65535z"/>
  </clipPath>
  <linearGradient id="linearGradient50295" gradientUnits="userSpaceOnUse" gradientTransform="matrix(8.684 9.1642 9.1642 -8.684 557.03 332.4)">
   <stop stop-color="#fff" offset="0"/>
   <stop stop-opacity="0" stop-color="#fff" offset="1"/>
  </linearGradient>
  <linearGradient id="linearGradient50317" gradientUnits="userSpaceOnUse" gradientTransform="matrix(8.684 9.1642 9.1642 -8.684 557.03 332.4)">
   <stop stop-color="#701418" offset="0"/>
   <stop stop-color="#dc1e25" offset="1"/>
  </linearGradient>
  <clipPath id="clipPath50235" clipPathUnits="userSpaceOnUse">
   <path d="m654.44 339.37c6.032-8.052 11.139-11.092 16.046-9.844 7.092 1.805 7.972 11.566 8.067 14.52v0.117l-0.079 0.062c-2.5 1.731-6.682 4.602-13.691 14.537z"/>
  </clipPath>
  <mask id="mask50251" height="1" width="1" y="0" x="0" maskUnits="userSpaceOnUse">
   <g clip-path="url(#clipPath50243)">
    <path fill="url(#linearGradient50249)" d="m-32768 32767h65535v-65535h-65535z"/>
   </g>
  </mask>
  <clipPath id="clipPath50243" clipPathUnits="userSpaceOnUse">
   <path d="m-32768 32767h65535v-65535h-65535z"/>
  </clipPath>
  <linearGradient id="linearGradient50249" gradientUnits="userSpaceOnUse" gradientTransform="matrix(-8.2017 7.7172 -7.7172 -8.2017 675.91 333.22)">
   <stop stop-color="#fff" offset="0"/>
   <stop stop-opacity="0" stop-color="#fff" offset="1"/>
  </linearGradient>
  <linearGradient id="linearGradient50271" gradientUnits="userSpaceOnUse" gradientTransform="matrix(-8.2017 7.7172 -7.7172 -8.2017 675.91 333.22)">
   <stop stop-color="#701418" offset="0"/>
   <stop stop-color="#dc1e25" offset="1"/>
  </linearGradient>
  <clipPath id="clipPath50189" clipPathUnits="userSpaceOnUse">
   <path d="m658.05 299.63c-11.853-13.5-27.946-21.844-42.089-21.844v-19.755c12.206 0 23.994 3.173 35.034 9.452 13.696 7.794 21.38 20.344 21.851 25.193 0.325 3.55-1.029 5.865-2.238 7.178-1.605 1.769-4.026 2.912-6.161 2.912-3.655 0-5.19-1.764-6.397-3.136"/>
  </clipPath>
  <mask id="mask50205" height="1" width="1" y="0" x="0" maskUnits="userSpaceOnUse">
   <g clip-path="url(#clipPath50197)">
    <path fill="url(#linearGradient50203)" d="m-32768 32767h65535v-65535h-65535z"/>
   </g>
  </mask>
  <clipPath id="clipPath50197" clipPathUnits="userSpaceOnUse">
   <path d="m-32768 32767h65535v-65535h-65535z"/>
  </clipPath>
  <linearGradient id="linearGradient50203" gradientUnits="userSpaceOnUse" gradientTransform="matrix(-15.155 -17.394 -17.394 15.155 663.74 305.04)">
   <stop stop-color="#fff" offset="0"/>
   <stop stop-opacity="0" stop-color="#fff" offset="1"/>
  </linearGradient>
  <linearGradient id="linearGradient50225" gradientUnits="userSpaceOnUse" gradientTransform="matrix(-15.155 -17.394 -17.394 15.155 663.74 305.04)">
   <stop stop-color="#701418" offset="0"/>
   <stop stop-color="#dc1e25" offset="1"/>
  </linearGradient>
  <clipPath id="clipPath50143" clipPathUnits="userSpaceOnUse">
   <path d="m561.32 299.86c-1.208-1.313-2.564-3.628-2.238-7.178 0.47-4.849 8.155-17.399 21.851-25.193 11.04-6.279 22.828-9.452 35.034-9.452v19.755c-14.143 0-30.236 8.344-42.09 21.844-1.206 1.372-2.741 3.136-6.396 3.136-2.135 0-4.556-1.143-6.161-2.912"/>
  </clipPath>
  <mask id="mask50159" height="1" width="1" y="0" x="0" maskUnits="userSpaceOnUse">
   <g clip-path="url(#clipPath50151)">
    <path fill="url(#linearGradient50157)" d="m-32768 32767h65535v-65535h-65535z"/>
   </g>
  </mask>
  <clipPath id="clipPath50151" clipPathUnits="userSpaceOnUse">
   <path d="m-32768 32767h65535v-65535h-65535z"/>
  </clipPath>
  <linearGradient id="linearGradient50157" gradientUnits="userSpaceOnUse" gradientTransform="matrix(15.155 -17.394 17.394 15.155 568.19 305.04)">
   <stop stop-color="#fff" offset="0"/>
   <stop stop-opacity="0" stop-color="#fff" offset="1"/>
  </linearGradient>
  <linearGradient id="linearGradient50179" gradientUnits="userSpaceOnUse" gradientTransform="matrix(15.155 -17.394 17.394 15.155 568.19 305.04)">
   <stop stop-color="#701418" offset="0"/>
   <stop stop-color="#dc1e25" offset="1"/>
  </linearGradient>
  <clipPath id="clipPath50121" clipPathUnits="userSpaceOnUse">
   <path d="m552.78 356.15c-0.448-0.38-0.895-1.245-0.938-1.99-0.034-0.642 0.19-1.196 0.529-1.591 0.908-1.018 2.507-0.507 3.148 0.094 3.859 3.617 5.384 6.164 5.989 7.22-1.077 0.528-1.474 1.172-1.799 1.621 0 0-0.413 0.803-0.479 1.284-2.357-2.634-5.672-5.981-6.45-6.638"/>
  </clipPath>
  <linearGradient id="linearGradient50133" gradientUnits="userSpaceOnUse" gradientTransform="matrix(2.194 -2.4116 2.4116 2.194 555.45 358.07)">
   <stop stop-color="#f9e806" offset="0"/>
   <stop stop-color="#f9e806" offset=".5"/>
   <stop stop-color="#e14220" offset="1"/>
  </linearGradient>
  <clipPath id="clipPath50099" clipPathUnits="userSpaceOnUse">
   <path d="m561.38 365.09c-0.237-0.102-0.936-0.557-1.079-1.454-0.061-0.478 0.079-1.19 0.445-1.712 0.738-0.939 2.386-1.56 2.386-1.56s-2.115-4.139-6.601-8.257l0.01-2.63c5.97 5.931 8.062 9.572 8.062 9.572 0.157 0.694 0.456 3.71-0.681 5.3-0.573 0.788-1.115 1.007-1.573 1.007-0.396 0-0.73-0.163-0.969-0.266"/>
  </clipPath>
  <radialGradient id="radialGradient50111" gradientUnits="userSpaceOnUse" cy="0" cx="0" gradientTransform="matrix(4.4755 7.8378 -6.8948 3.937 558.84 356.45)" r="1">
   <stop stop-color="#f9e806" offset="0"/>
   <stop stop-color="#f9e806" offset=".5"/>
   <stop stop-color="#e14220" offset="1"/>
  </radialGradient>
  <clipPath id="clipPath50071" clipPathUnits="userSpaceOnUse">
   <path d="m0 841.89h1190.6v-841.89h-1190.6z"/>
  </clipPath>
  <clipPath id="clipPath50049" clipPathUnits="userSpaceOnUse">
   <path d="m598.23 387.95c-0.266-0.921 0.461-1.322 0.718-1.26 0.27 0.069 0.463 0.149 0.397 0.399-0.069 0.263 0.135 0.934 1.056 0.934 0.936 0 1.289-0.867 1.289-1.462s-0.945-1.59-2.681-1.59c-1.702 0-2.575 1.136-2.509 2.185-0.822-1.202-1.3-2.419-1.653-4.45 4.753 1.591 8.347 2.831 14.203 3.351-2.7 1.873-5.094 3.458-7.848 3.458-1.449 0-2.686-0.553-2.972-1.565"/>
  </clipPath>
  <radialGradient id="radialGradient50061" gradientUnits="userSpaceOnUse" cy="0" cx="0" gradientTransform="matrix(5.7841 0 0 5.5073 600.88 385.82)" r="1">
   <stop stop-color="#f9e806" offset="0"/>
   <stop stop-color="#f9e806" offset=".5"/>
   <stop stop-color="#e14220" offset="1"/>
  </radialGradient>
  <clipPath id="clipPath50031" clipPathUnits="userSpaceOnUse">
   <path d="m0 841.89h1190.6v-841.89h-1190.6z"/>
  </clipPath>
  <clipPath id="clipPath50009" clipPathUnits="userSpaceOnUse">
   <path d="m610.32 328.74h-2.73s1.313-1.987 1.994-3.032c0.665-1.05 2.047-3.788 2.284-5.089 0.073-0.369 0.073-0.983-0.466-1.425-0.547-0.443-2.062-1.609-2.062-3.292 0-1.688 0.736-2.357 0.945-2.706 0.2-0.343 1.073-1.445 1.073-1.952 0-0.504-0.26-1.112-0.26-1.112s-1.053-2.23-1.377-2.766c-0.35-0.537-1.422-1.222-1.764 0.536-0.335 1.757-0.564 6.548-0.51 7.048 0.069 0.502 0.175 1.149 0.458 1.603 0.262 0.487 1.369 2.413 1.842 3.621 0 0-3.143 0.333-4.349 7.587-0.038 0.201-0.332 0.441-0.568-0.063-0.242-0.504-0.409-0.578-0.545-0.772-0.144-0.204-0.478-0.236-0.88-0.069-0.402 0.16-0.807 0.43-1.243 0.533-0.442 0.098-0.977 0.241-1.308-0.396-0.338-0.645-0.997-2.088-1.333-2.772-0.324-0.663-1-1.012-1.711-0.798-0.704 0.186-1.454 0.498-1.781 0.633-0.342 0.131-0.542 0-0.342-0.339 0.204-0.338 0.808-1.613 0.986-2.288 0.161-0.669 0.433-2.599 0.391-3.012-0.035-0.385 0.248-0.385 0.576-0.028 0.339 0.361 1.654 1.687 2.902 2.29 1.244 0.609 3.104 0.776 3.578-0.031 0.468-0.806-0.798-2.102-1.853-2.616-0.402-0.214-0.382-0.812 0.033-0.914 0.399-0.117 1.346-0.278 1.58-1.153 0.24-0.885 0.323-9.323 0.424-12.857 0.104-3.544 1.315-4.392 2.776-4.447 1.468-0.042 2.48 0 2.48 0s0.096-1.872-0.307-4.807c-0.399-2.942-0.399-4.097 0.559-5.367 0.971-1.265 1.669-2.32 1.718-3.082 0.056-0.748 0.056-1.266-0.095-2.116-0.158-0.86-0.158-2.428 2.125-1.979 2.268 0.454 6.07 1.979 4.3 4.248-1.776 2.274-2.639 4.107-2.381 4.703 0.248 0.615 1.515 0.964 2.167 1.616 0.664 0.661 0.714 1.369-0.046 2.334-0.754 0.964-3.091 4.087-2.53 5.918 0 0 8.447-9.003 9.05-9.609 0.611-0.615 1.2-0.462 1.261 0.496 0.056 0.713-0.143 1.322-0.247 1.874-0.1 0.571-0.153 1.578-0.153 2.576 0 1.008 0.357 2.629 0.456 3.393 0.101 0.761-0.099 2.122-1.317 2.229-0.603 0.053-1.411-0.107-1.411 0.611 0 0.7 0.25 1.703 0.407 2.329 0.137 0.596 0.037 0.693-0.362 0.947-0.406 0.256-1.11 0.15-1.454-0.254-0.349-0.405-1.275-0.822-1.871-0.405 0 0 0.843 2.381 2.215 3.752 0 0 3.737-1.18 5.111-2.683v-15.124c0-0.896 2.426-0.998 2.426 0.049v15.423s1.058 1.321 1.155 2.169c0.109 0.832 0.158 1.216-0.097 2.136 0 0 0.764 0.496 0.764 1.669 0 1.145-0.863 3.089-1.778 3.948v2.985h4.031l-0.033 6.452 0.707 1.119-1.771 3.139-1.775-3.139 0.726-1.119v-3.375h-2.052v3.375l0.697 1.119-1.762 3.139-1.77-3.139 0.702-1.119v-3.375h-2.038v3.375l0.699 1.119-1.774 3.163-1.763-3.143 0.705-1.139v-6.462h4.001v-2.034s-1.417 0.117-2.474-0.343c-1.062-0.455-2.328-1.12-2.939-1.316-0.605-0.214-0.901-0.158-1.014 0.143-0.093 0.313 0 0.504 0.357 0.821 0.161 0.135 1.74 0.848 1.925 1.365 0.107 0.308-0.055 0.379-0.205 0.496-0.356 0.308-2.682 2.08-2.682 2.08s0.355 1.168 0.355 1.875v1.663c0 1.525 0.659 3.813 2.27 5.325h-2.679l-1.616 3.603-2.064-3.603-1.998 0.017-1.913 3.668zm6.54-4.492c-0.429 0.234-0.352 0.845-0.05 1.333 0.314 0.478 0.975 1.012 1.159 0.933 0.203-0.082 0.058-1.001-0.016-1.445-0.106-0.585-0.459-0.893-0.809-0.893-0.096 0-0.193 0.024-0.284 0.072m-3.996 0.821c-0.067 0.444-0.191 1.363 0.006 1.445 0.192 0.079 0.82-0.455 1.121-0.933 0.315-0.488 0.389-1.099-0.036-1.333-0.093-0.049-0.193-0.072-0.293-0.072-0.357 0-0.718 0.304-0.798 0.893m1.371-4.42h2.575s-0.373-1.53-1.264-3.003c-0.899 1.437-1.311 3.003-1.311 3.003m8.422-8.139c0 0.343 0.816 0.753 2.179 0.753 1.367 0 1.919-0.853 1.919-0.853v-2.075c-2.877 0-4.098 1.613-4.098 2.175"/>
  </clipPath>
  <linearGradient id="linearGradient50021" gradientUnits="userSpaceOnUse" gradientTransform="matrix(0 -26.56 26.56 0 614.77 332.56)">
   <stop stop-color="#8c191d" offset="0"/>
   <stop stop-color="#b31d23" offset=".24960"/>
   <stop stop-color="#dc1e25" offset="1"/>
  </linearGradient>
  <clipPath id="clipPath49997" clipPathUnits="userSpaceOnUse">
   <path d="m593.24 353.58c-1.153-0.809-3.462-2.757-3.861-3.186v-55.838l26.698-17.155 26.696 17.155 0.04 55.753c-0.855 0.754-2.631 2.406-4.021 3.271z"/>
  </clipPath>
  <clipPath id="clipPath49953" clipPathUnits="userSpaceOnUse">
   <path d="m0 841.89h1190.6v-841.89h-1190.6z"/>
  </clipPath>
  <clipPath id="clipPath49931" clipPathUnits="userSpaceOnUse">
   <path d="m603.59 253.2c3.706 0 5.593 2.635 5.593 2.635-0.609 0.03-1.194 0.167-1.194 0.167-0.578-0.746-1.718-1.544-2.698-1.544s-1.262 0.419-1.306 0.756c-0.042 0.478 0.369 0.765 0.652 0.714 0.127-0.021 0.178-0.112 0.544-0.137 0.96-0.036 1.102 0.411 1.102 0.411-4.415 0.536-6.288 1.123-8.91 1.818 0.631-1.167 2.148-4.82 6.217-4.82"/>
  </clipPath>
  <radialGradient id="radialGradient49943" gradientUnits="userSpaceOnUse" cy="0" cx="0" gradientTransform="matrix(5.0592 0 0 4.5488 603.28 255.6)" r="1">
   <stop stop-color="#f9e806" offset="0"/>
   <stop stop-color="#f9e806" offset=".5"/>
   <stop stop-color="#e14220" offset="1"/>
  </radialGradient>
  <clipPath id="clipPath49909" clipPathUnits="userSpaceOnUse">
   <path d="m620.93 256.15c-0.3-0.871-1.428-2.917-2.904-2.917-0.649 0-1.044 0.393-1.062 0.877-0.006 0.615 0.589 0.948 1.004 0.948 0.799 0 1.254-0.049 1.931 0.919-0.584-0.01-1.822-0.028-3.766-0.028-1.939 0-5.34 0.207-5.34 0.207s1.645-4.572 5.679-4.572c4.028 0 5.576 4.627 5.576 4.627-0.252-0.026-1.118-0.061-1.118-0.061"/>
  </clipPath>
  <radialGradient id="radialGradient49921" gradientUnits="userSpaceOnUse" cy="0" cx="0" gradientTransform="matrix(4.7844 0 0 3.5566 616.42 253.96)" r="1">
   <stop stop-color="#f9e806" offset="0"/>
   <stop stop-color="#f9e806" offset=".5"/>
   <stop stop-color="#e14220" offset="1"/>
  </radialGradient>
 </defs>
 <g transform="translate(0 -238.79)">
  <g transform="translate(-5.8333e-8 -.0000018318)">
   <g transform="matrix(1.1499 0 0 1.1499 78.002 -51.247)">
    <g transform="matrix(.35278 0 0 -.35278 -259.91 391.11)">
     <g clip-path="url(#clipPath49909)">
      <path d="m620.93 256.15c-0.3-0.871-1.428-2.917-2.904-2.917-0.649 0-1.044 0.393-1.062 0.877-0.006 0.615 0.589 0.948 1.004 0.948 0.799 0 1.254-0.049 1.931 0.919-0.584-0.01-1.822-0.028-3.766-0.028-1.939 0-5.34 0.207-5.34 0.207s1.645-4.572 5.679-4.572c4.028 0 5.576 4.627 5.576 4.627-0.252-0.026-1.118-0.061-1.118-0.061" fill="url(#radialGradient49921)"/>
     </g>
    </g>
    <g transform="matrix(.35278 0 0 -.35278 -259.91 391.11)">
     <g clip-path="url(#clipPath49931)">
      <path d="m603.59 253.2c3.706 0 5.593 2.635 5.593 2.635-0.609 0.03-1.194 0.167-1.194 0.167-0.578-0.746-1.718-1.544-2.698-1.544s-1.262 0.419-1.306 0.756c-0.042 0.478 0.369 0.765 0.652 0.714 0.127-0.021 0.178-0.112 0.544-0.137 0.96-0.036 1.102 0.411 1.102 0.411-4.415 0.536-6.288 1.123-8.91 1.818 0.631-1.167 2.148-4.82 6.217-4.82" fill="url(#radialGradient49943)"/>
     </g>
    </g>
    <g transform="matrix(.35278 0 0 -.35278 -259.91 391.11)">
     <g clip-path="url(#clipPath49953)">
      <g transform="translate(616.08 279.7)">
       <path d="m0 0c14.056 0 29.627 8.627 40.56 21.064 1.19 1.345 3.184 3.9 7.932 3.9 4.756 0 11.078-4.335 10.338-12.224-0.552-5.746-8.764-18.71-22.826-26.684-14.058-8.006-27.008-9.719-36.004-9.719-9.004 0-21.943 1.713-36.008 9.719-14.06 7.974-22.27 20.938-22.818 26.684-0.74 7.889 5.584 12.224 10.33 12.224 4.76 0 6.762-2.555 7.948-3.9 10.917-12.437 26.496-21.064 40.548-21.064z" fill="#f9e706"/>
      </g>
      <g transform="translate(567.58 304.16)">
       <path d="m0 0c-2.557 0-5.323-1.294-7.221-3.378-1.399-1.537-2.987-4.223-2.605-8.293 0.556-5.83 8.911-18.548 22.564-26.292 11.252-6.405 23.283-9.652 35.758-9.652 12.479 0 24.508 3.247 35.754 9.652 13.652 7.742 22.012 20.461 22.572 26.293 0.382 4.069-1.206 6.755-2.604 8.291-1.9 2.084-4.67 3.379-7.232 3.379-4.286 0-6.217-2.205-7.371-3.522l-0.183-0.208c-11.513-13.097-27.2-21.234-40.938-21.234-13.747 0-29.43 8.137-40.928 21.235l-0.17 0.195c-1.155 1.322-3.088 3.534-7.398 3.534m48.496-48.627c-12.653 0-24.852 3.292-36.258 9.784-13.948 7.911-22.495 21.032-23.071 27.077-0.416 4.439 1.328 7.382 2.864 9.069 2.083 2.288 5.137 3.709 7.969 3.709 4.77 0 6.892-2.429 8.16-3.88l0.168-0.192c11.312-12.887 26.703-20.892 40.168-20.892 13.456 0 28.852 8.005 40.18 20.891l0.18 0.205c1.267 1.447 3.388 3.868 8.132 3.868 2.838 0 5.895-1.421 7.978-3.71 1.536-1.686 3.28-4.629 2.863-9.068-0.58-6.047-9.133-19.168-23.079-27.077-11.399-6.492-23.597-9.784-36.254-9.784" fill="#110f0d"/>
      </g>
      <g transform="translate(615.96 277.79)">
       <path d="m0 0c-14.143 0-30.236 8.345-42.089 21.845-1.207 1.371-2.742 3.135-6.397 3.135-2.135 0-4.556-1.143-6.161-2.911-1.208-1.313-2.563-3.628-2.238-7.178 0.47-4.849 8.155-17.399 21.851-25.193 11.04-6.279 22.828-9.452 35.034-9.452 12.218 0 24.006 3.173 35.046 9.452 13.692 7.794 21.389 20.344 21.841 25.193 0.339 3.549-1.026 5.865-2.218 7.178-1.613 1.768-4.04 2.911-6.165 2.911-3.671 0-5.204-1.764-6.4-3.135-11.846-13.5-27.959-21.845-42.104-21.845" fill="#dc1e25"/>
      </g>
      <g transform="translate(676.8 348.19)">
       <path d="m0 0 0.05 3.278c1.01-0.772 2.908-0.784 4.019 0.401 0.506 0.539 0.794 1.375 0.752 2.234-0.047 0.97-0.488 1.978-1.212 2.688-4.103 4.01-7.748 8.014-7.748 8.014-0.377 0.595-0.966 1.026-1.307 1.173-0.502 0.24-2.288 1.055-3.649-1.012-1.228-1.873-1.046-4.514-0.81-5.478l3.847-5.244c1.318-1.671 5.03-5.225 6.058-6.054" fill="#110f0d"/>
      </g>
      <g transform="translate(594.57 382.18)">
       <path d="m0 0c4.843 1.627 9.272 2.972 15.24 3.5l0.905 0.508c-3.331 2.629-6.641 4.423-9.937 4.423-2.069 0-6.279-1.407-7.218-8.836z" fill="#110f0d"/>
      </g>
      <g transform="translate(637.6 382.18)">
       <path d="m0 0c-4.845 1.627-9.27 2.972-15.232 3.5l-0.917 0.508c3.345 2.629 6.647 4.423 9.947 4.423 2.071 0 6.264-1.407 7.222-8.836z" fill="#110f0d"/>
      </g>
      <g transform="translate(610.61 385.93)">
       <path d="m0 0c2.437 4.685 4.665 6.379 5.911 6.379 1.539 0 3.353-2.448 4.777-5.617l0.3-0.718-1.252 0.097c-0.821 0.155-3.161 0.184-4.054 0.184-0.916 0-2.892 0-4.083-0.111z" fill="#110f0d"/>
      </g>
      <g transform="translate(605.83 275.23)">
       <path d="m0 0-2.177-8.135-4.073 9.812-2.534 0.68-3.087-11.518 2.76-0.732 2.194 8.203 4.135-9.895 2.478-0.669 3.076 11.522zm9.488-1.455-3.125 0.17-0.625-11.905 3.127-0.166zm2.826 0.097 0.216-1.554 3.337 0.472 1.443-10.246 3.103 0.431-1.439 10.24 3.288 0.456-0.226 1.576zm32.299 4.857c1.514-2.652 1.207-4.587-1.125-5.922l-1.111-0.647-4.389 7.583 1.195 0.693c2.799 1.609 4.389 0.176 5.43-1.707m-6.101 3.155-4.038-2.327 5.979-10.367 4.021 2.325c4.157 2.397 4.552 6.028 2.915 8.941-1.97 3.456-5.222 3.535-8.877 1.428m-7.577-14.667-1.189 3.659 3.54 1.143-0.49 1.522-3.544-1.149-1.008 3.127 3.623 1.189-0.488 1.505-6.633-2.156 3.687-11.334 7.311 2.371-0.482 1.512zm-45.366 13.139-3.527-6.377c-1.066-1.917-2.163-3.133-3.963-2.102-1.772 1.002-1.361 2.455-0.273 4.435l3.537 6.385-2.853 1.583-3.738-6.748c-2.058-3.714 0.532-6.018 2.56-7.135 2.164-1.198 5.315-2.089 7.355 1.597l3.764 6.778z" fill="#f9e706"/>
      </g>
      <g transform="translate(589.38 350.4)">
       <path d="m0 0v-55.837l26.698-17.155 26.697 17.155 0.04 55.752c-0.855 0.754-2.631 2.406-4.022 3.271h-45.552c-1.153-0.809-3.462-2.757-3.861-3.186" fill="#f9e706"/>
      </g>
     </g>
    </g>
    <g transform="matrix(.35278 0 0 -.35278 -259.91 391.11)">
     <g clip-path="url(#clipPath49997)">
      <g transform="translate(616.08 274.54)">
       <path d="m0 0-29.11 18.704v79.835h4.823v-77.201l24.287-15.605 24.285 15.606 0.04 77.116 4.823-0.002-0.04-79.749z" fill="#b33620"/>
      </g>
     </g>
    </g>
    <g transform="matrix(.35278 0 0 -.35278 -259.91 391.11)">
     <g clip-path="url(#clipPath50009)">
      <path d="m610.32 328.74h-2.73s1.313-1.987 1.994-3.032c0.665-1.05 2.047-3.788 2.284-5.089 0.073-0.369 0.073-0.983-0.466-1.425-0.547-0.443-2.062-1.609-2.062-3.292 0-1.688 0.736-2.357 0.945-2.706 0.2-0.343 1.073-1.445 1.073-1.952 0-0.504-0.26-1.112-0.26-1.112s-1.053-2.23-1.377-2.766c-0.35-0.537-1.422-1.222-1.764 0.536-0.335 1.757-0.564 6.548-0.51 7.048 0.069 0.502 0.175 1.149 0.458 1.603 0.262 0.487 1.369 2.413 1.842 3.621 0 0-3.143 0.333-4.349 7.587-0.038 0.201-0.332 0.441-0.568-0.063-0.242-0.504-0.409-0.578-0.545-0.772-0.144-0.204-0.478-0.236-0.88-0.069-0.402 0.16-0.807 0.43-1.243 0.533-0.442 0.098-0.977 0.241-1.308-0.396-0.338-0.645-0.997-2.088-1.333-2.772-0.324-0.663-1-1.012-1.711-0.798-0.704 0.186-1.454 0.498-1.781 0.633-0.342 0.131-0.542 0-0.342-0.339 0.204-0.338 0.808-1.613 0.986-2.288 0.161-0.669 0.433-2.599 0.391-3.012-0.035-0.385 0.248-0.385 0.576-0.028 0.339 0.361 1.654 1.687 2.902 2.29 1.244 0.609 3.104 0.776 3.578-0.031 0.468-0.806-0.798-2.102-1.853-2.616-0.402-0.214-0.382-0.812 0.033-0.914 0.399-0.117 1.346-0.278 1.58-1.153 0.24-0.885 0.323-9.323 0.424-12.857 0.104-3.544 1.315-4.392 2.776-4.447 1.468-0.042 2.48 0 2.48 0s0.096-1.872-0.307-4.807c-0.399-2.942-0.399-4.097 0.559-5.367 0.971-1.265 1.669-2.32 1.718-3.082 0.056-0.748 0.056-1.266-0.095-2.116-0.158-0.86-0.158-2.428 2.125-1.979 2.268 0.454 6.07 1.979 4.3 4.248-1.776 2.274-2.639 4.107-2.381 4.703 0.248 0.615 1.515 0.964 2.167 1.616 0.664 0.661 0.714 1.369-0.046 2.334-0.754 0.964-3.091 4.087-2.53 5.918 0 0 8.447-9.003 9.05-9.609 0.611-0.615 1.2-0.462 1.261 0.496 0.056 0.713-0.143 1.322-0.247 1.874-0.1 0.571-0.153 1.578-0.153 2.576 0 1.008 0.357 2.629 0.456 3.393 0.101 0.761-0.099 2.122-1.317 2.229-0.603 0.053-1.411-0.107-1.411 0.611 0 0.7 0.25 1.703 0.407 2.329 0.137 0.596 0.037 0.693-0.362 0.947-0.406 0.256-1.11 0.15-1.454-0.254-0.349-0.405-1.275-0.822-1.871-0.405 0 0 0.843 2.381 2.215 3.752 0 0 3.737-1.18 5.111-2.683v-15.124c0-0.896 2.426-0.998 2.426 0.049v15.423s1.058 1.321 1.155 2.169c0.109 0.832 0.158 1.216-0.097 2.136 0 0 0.764 0.496 0.764 1.669 0 1.145-0.863 3.089-1.778 3.948v2.985h4.031l-0.033 6.452 0.707 1.119-1.771 3.139-1.775-3.139 0.726-1.119v-3.375h-2.052v3.375l0.697 1.119-1.762 3.139-1.77-3.139 0.702-1.119v-3.375h-2.038v3.375l0.699 1.119-1.774 3.163-1.763-3.143 0.705-1.139v-6.462h4.001v-2.034s-1.417 0.117-2.474-0.343c-1.062-0.455-2.328-1.12-2.939-1.316-0.605-0.214-0.901-0.158-1.014 0.143-0.093 0.313 0 0.504 0.357 0.821 0.161 0.135 1.74 0.848 1.925 1.365 0.107 0.308-0.055 0.379-0.205 0.496-0.356 0.308-2.682 2.08-2.682 2.08s0.355 1.168 0.355 1.875v1.663c0 1.525 0.659 3.813 2.27 5.325h-2.679l-1.616 3.603-2.064-3.603-1.998 0.017-1.913 3.668zm6.54-4.492c-0.429 0.234-0.352 0.845-0.05 1.333 0.314 0.478 0.975 1.012 1.159 0.933 0.203-0.082 0.058-1.001-0.016-1.445-0.106-0.585-0.459-0.893-0.809-0.893-0.096 0-0.193 0.024-0.284 0.072m-3.996 0.821c-0.067 0.444-0.191 1.363 0.006 1.445 0.192 0.079 0.82-0.455 1.121-0.933 0.315-0.488 0.389-1.099-0.036-1.333-0.093-0.049-0.193-0.072-0.293-0.072-0.357 0-0.718 0.304-0.798 0.893m1.371-4.42h2.575s-0.373-1.53-1.264-3.003c-0.899 1.437-1.311 3.003-1.311 3.003m8.422-8.139c0 0.343 0.816 0.753 2.179 0.753 1.367 0 1.919-0.853 1.919-0.853v-2.075c-2.877 0-4.098 1.613-4.098 2.175" fill="url(#linearGradient50021)"/>
     </g>
    </g>
    <g transform="matrix(.35278 0 0 -.35278 -259.91 391.11)">
     <g clip-path="url(#clipPath50031)">
      <g transform="translate(591.48 336.47)">
       <path d="m0 0v-3.361h49.258v3.361h-3.633v-0.543h-41.992v0.543z" fill="#dc1e25"/>
      </g>
      <path d="m591.48 351.58h49.248v-13.39h-49.25z" fill="#dc1e25"/>
      <g transform="translate(631.03 338.73)">
       <path d="m0 0v1.747h-3.56v1.468h2.909v6.477h-2.68l-0.917 1.781-0.895-1.781h-2.688v-6.477h2.92v-1.468h-7.002v1.468h2.913v6.477h-2.685l-0.906 1.781-0.917-1.781h-2.677v-6.477h2.927v-1.468h-7.147v1.468h2.919v6.477h-2.689l-0.898 1.781-0.923-1.781h-2.679v-6.477h2.929v-1.468l-5.655-0.018-5.625 1.314 1.127-3.043zm-31.085 3.344 3.771-0.927 2.036 5.673v1.436z" fill="#f9e706"/>
      </g>
     </g>
    </g>
    <g transform="matrix(.35278 0 0 -.35278 -259.91 391.11)">
     <g clip-path="url(#clipPath50049)">
      <path d="m598.23 387.95c-0.266-0.921 0.461-1.322 0.718-1.26 0.27 0.069 0.463 0.149 0.397 0.399-0.069 0.263 0.135 0.934 1.056 0.934 0.936 0 1.289-0.867 1.289-1.462s-0.945-1.59-2.681-1.59c-1.702 0-2.575 1.136-2.509 2.185-0.822-1.202-1.3-2.419-1.653-4.45 4.753 1.591 8.347 2.831 14.203 3.351-2.7 1.873-5.094 3.458-7.848 3.458-1.449 0-2.686-0.553-2.972-1.565" fill="url(#radialGradient50061)"/>
     </g>
    </g>
    <g transform="matrix(.35278 0 0 -.35278 -259.91 391.11)">
     <g clip-path="url(#clipPath50071)">
      <g transform="translate(561.72 354.24)">
       <path d="m0 0 3.861 5.244c0.222 0.964 0.399 3.603-0.835 5.476-1.349 2.07-3.127 1.252-3.649 1.012-0.329-0.147-0.929-0.575-1.298-1.172 0 0-3.712-4.088-7.797-8.11-0.578-0.573-1.213-1.621-1.266-2.591-0.05-0.861 0.297-1.726 0.797-2.266 1.118-1.19 3.07-1.143 4.068-0.369l0.069-3.278c1.028 0.828 4.735 4.383 6.05 6.054" fill="#110f0d"/>
      </g>
      <g transform="translate(616.08 361.88)">
       <path d="m0 0c21.984 0 34.492-20.635 37.222-24.258 4.85-6.472 10.786-11.726 17.665-9.99 10.105 2.585 9.579 17.554 9.579 17.554-2.438 1.755-6.593 3.966-14.168 14.704-7.419 10.526-24.207 26.119-50.298 26.119-26.097 0-42.881-15.593-50.282-26.119-7.583-10.738-11.752-12.949-14.167-14.704 0 0-0.545-14.969 9.568-17.554 6.875-1.736 12.808 3.518 17.665 9.99 2.72 3.623 15.236 24.258 37.216 24.258" fill="#f9e706"/>
      </g>
      <g transform="translate(616.08 362.38)">
       <path d="m0 0c20.412 0 32.708-17.486 36.749-23.232 0.359-0.512 0.652-0.928 0.878-1.227 5.991-7.997 11.597-11.204 17.136-9.805 8.896 2.276 9.206 14.875 9.201 16.8-0.194 0.137-0.399 0.278-0.615 0.427-2.482 1.709-6.635 4.569-13.465 14.249-4.282 6.078-20.538 25.905-49.884 25.905-29.372 0-45.595-19.827-49.868-25.904-6.803-9.633-10.952-12.507-13.431-14.224-0.228-0.158-0.444-0.307-0.647-0.452-0.008-1.919 0.284-14.524 9.19-16.801 5.532-1.396 11.137 1.81 17.135 9.804 0.222 0.295 0.508 0.704 0.861 1.205 4.038 5.752 16.325 23.255 36.76 23.255m52.222-35.597c-5.05 0-10.116 3.472-15.405 10.53-0.229 0.304-0.528 0.73-0.896 1.253-3.966 5.64-16.034 22.802-35.921 22.802-19.909 0-31.969-17.179-35.932-22.824-0.36-0.513-0.653-0.931-0.88-1.232-6.27-8.356-12.223-11.683-18.193-10.177-10.389 2.656-9.955 17.909-9.949 18.063l0.009 0.246 0.199 0.145c0.268 0.195 0.558 0.395 0.871 0.612 2.424 1.679 6.481 4.489 13.18 13.975 4.343 6.177 20.836 26.333 50.695 26.333 29.833 0 46.357-20.156 50.712-26.333 6.724-9.533 10.785-12.329 13.211-14 0.3-0.207 0.579-0.399 0.839-0.586l0.201-0.145 0.009-0.248c0.005-0.153 0.42-15.406-9.959-18.061-0.931-0.235-1.861-0.353-2.791-0.353" fill="#110f0d"/>
      </g>
      <g transform="translate(616.08 363.84)">
       <path d="m0 0c21.195 0 33.8-17.978 38.358-24.465 6.033-8.053 11.14-11.093 16.047-9.845 7.091 1.806 7.972 11.566 8.067 14.52v0.117l-0.079 0.062c-2.5 1.732-6.683 4.603-13.691 14.538-4.18 5.932-20.051 25.303-48.702 25.303-28.641 0-44.526-19.371-48.705-25.303-6.95-9.871-11.321-12.881-13.662-14.489l-0.099-0.081 0.011-0.103c0.096-2.96 0.979-12.772 8.052-14.564 4.913-1.248 10.03 1.792 16.047 9.845 4.554 6.487 17.171 24.465 38.356 24.465" fill="#dc1e25"/>
      </g>
      <g transform="translate(570.5 355.55)">
       <path d="m0 0-2.218-2.641 4.145-8.571-8.889 2.91-1.913-2.265 9.133-7.669 1.387 1.647-6.455 5.432 8.651-2.817 0.911 1.079-4.125 8.266 6.482-5.435 2.024 2.395zm11.55 1.799-2.07-2.222-2.127 4.087zm-4.818 5.409-2.038-2.186l5.713-11.36 1.395 1.493-1.552 3.021 2.758 2.967 3.127-1.326 2.298 2.461zm13.941 10.782 4.476-7.135-9.966 3.72-2.219-1.393 6.32-10.125 2.407 1.516-4.506 7.208 10.069-3.738 2.175 1.363-6.332 10.119zm37.736-5.84 1.262 3.635 3.51-1.21 0.522 1.512-3.516 1.208 1.069 3.113 3.617-1.24 0.508 1.504-6.589 2.268-3.873-11.288 7.262-2.486 0.516 1.504zm20.403 0.756-1.064-1.167 2.5-2.26-6.928-7.686 2.337-2.102 6.919 7.689 2.468-2.222 1.059 1.166zm3.42-17.91 2.967 2.462 2.379-2.831 1.23 1.026-2.393 2.843 2.51 2.113 2.45-2.919 1.217 1.014-4.477 5.336-9.125-7.663 4.929-5.883 1.23 1.022zm13.82-3.045c0.829-0.92 0.843-2.014-0.121-2.863-0.939-0.865-2.137-0.667-3.048 0.333l-0.53 0.594 2.998 2.708zm-1.581-5.871c0.021-0.03 1.837-0.926 3.855 0.885 1.686 1.516 1.121 3.593-0.641 5.544l-3.248 3.609-8.855-7.98 2.093-2.322 3.526 3.163 1.018-1.149-2.233-5.036 2.673-2.135zm-44.856 37.847-0.089-4.857-4.671 0.067 0.07 4.875-3.131 0.058-0.209-11.919 3.137-0.067 0.1 5.464 4.678-0.085-0.089-5.455 3.133-0.047 0.204 11.918zm16.981-17.726c2.224-1.339 4.65-1.111 5.785 0.768 0.826 1.314 0.834 2.405-0.158 4.359-0.256 0.554-0.592 0.951-0.816 1.455-0.438 0.817-0.843 1.486-0.466 2.119 0.416 0.686 1.381 0.742 2.254 0.208 0.914-0.554 1.293-1.468 1.486-2.093l1.434 0.619c-0.44 1.178-1.093 2.236-2.585 3.119-2.55 1.536-4.623 1.131-5.486-0.308-0.875-1.446-0.627-2.651 0.032-3.885 0 0 0.408-0.7 0.644-1.178 0.578-0.965 1.25-2.181 0.778-2.941-0.571-0.958-1.555-1.166-2.514-0.571-1.228 0.774-1.516 1.674-1.771 2.553l-1.578-0.674c0.347-1.211 1.163-2.465 2.96-3.55m-32.523 17.1c-3.889-0.823-6.451-3.69-5.611-7.577 0.488-2.099 2.361-5.962 8.285-4.703 1.645 0.314 2.534 0.969 3.395 1.792l-1.079 1.24c-0.407-0.452-1.014-1.111-2.377-1.395-2.867-0.605-4.572 1.715-4.996 3.717-0.631 2.966 1.097 5.01 3.049 5.432 1.395 0.308 2.24-0.071 2.776-0.28h0.018l0.363 1.52c-0.94 0.377-2.069 0.627-3.823 0.254" fill="#f9e706"/>
      </g>
     </g>
    </g>
    <g transform="matrix(.35278 0 0 -.35278 -259.91 391.11)">
     <g clip-path="url(#clipPath50099)">
      <path d="m561.38 365.09c-0.237-0.102-0.936-0.557-1.079-1.454-0.061-0.478 0.079-1.19 0.445-1.712 0.738-0.939 2.386-1.56 2.386-1.56s-2.115-4.139-6.601-8.257l0.01-2.63c5.97 5.931 8.062 9.572 8.062 9.572 0.157 0.694 0.456 3.71-0.681 5.3-0.573 0.788-1.115 1.007-1.573 1.007-0.396 0-0.73-0.163-0.969-0.266" fill="url(#radialGradient50111)"/>
     </g>
    </g>
    <g transform="matrix(.35278 0 0 -.35278 -259.91 391.11)">
     <g clip-path="url(#clipPath50121)">
      <path d="m552.78 356.15c-0.448-0.38-0.895-1.245-0.938-1.99-0.034-0.642 0.19-1.196 0.529-1.591 0.908-1.018 2.507-0.507 3.148 0.094 3.859 3.617 5.384 6.164 5.989 7.22-1.077 0.528-1.474 1.172-1.799 1.621 0 0-0.413 0.803-0.479 1.284-2.357-2.634-5.672-5.981-6.45-6.638" fill="url(#linearGradient50133)"/>
     </g>
    </g>
    <g transform="matrix(.35278 0 0 -.35278 -259.91 391.11)">
     <g clip-path="url(#clipPath50143)">
      <g mask="url(#mask50159)">
       <path d="m561.32 299.86c-1.208-1.313-2.564-3.628-2.238-7.178 0.47-4.849 8.155-17.399 21.851-25.193 11.04-6.279 22.828-9.452 35.034-9.452v19.755c-14.143 0-30.236 8.344-42.09 21.844-1.206 1.372-2.741 3.136-6.396 3.136-2.135 0-4.556-1.143-6.161-2.912" fill="url(#linearGradient50179)"/>
      </g>
     </g>
    </g>
    <g transform="matrix(.35278 0 0 -.35278 -259.91 391.11)">
     <g clip-path="url(#clipPath50189)">
      <g mask="url(#mask50205)">
       <path d="m658.05 299.63c-11.853-13.5-27.946-21.844-42.089-21.844v-19.755c12.206 0 23.994 3.173 35.034 9.452 13.696 7.794 21.38 20.344 21.851 25.193 0.325 3.55-1.029 5.865-2.238 7.178-1.605 1.769-4.026 2.912-6.161 2.912-3.655 0-5.19-1.764-6.397-3.136" fill="url(#linearGradient50225)"/>
      </g>
     </g>
    </g>
    <g transform="matrix(.35278 0 0 -.35278 -259.91 391.11)">
     <g clip-path="url(#clipPath50235)">
      <g mask="url(#mask50251)">
       <path d="m654.44 339.37c6.032-8.052 11.139-11.092 16.046-9.844 7.092 1.805 7.972 11.566 8.067 14.52v0.117l-0.079 0.062c-2.5 1.731-6.682 4.602-13.691 14.537z" fill="url(#linearGradient50271)"/>
      </g>
     </g>
    </g>
    <g transform="matrix(.35278 0 0 -.35278 -259.91 391.11)">
     <g clip-path="url(#clipPath50281)">
      <g mask="url(#mask50297)">
       <path d="m553.71 344.22-0.079-0.062v-0.117c0.094-2.954 0.975-12.715 8.066-14.52 4.907-1.248 10.015 1.792 16.047 9.844l-10.344 19.392c-7.008-9.935-11.19-12.806-13.69-14.537" fill="url(#linearGradient50317)"/>
      </g>
     </g>
    </g>
    <g transform="matrix(.35278 0 0 -.35278 -259.91 391.11)">
     <g clip-path="url(#clipPath50327)">
      <path d="m623.13 386.06c5.856-0.52 9.449-1.76 14.203-3.351-0.354 2.031-0.831 3.248-1.653 4.45 0.066-1.049-0.807-2.185-2.51-2.185-1.736 0-2.68 0.995-2.68 1.59s0.352 1.462 1.289 1.462c0.921 0 1.125-0.671 1.056-0.934-0.066-0.25 0.127-0.33 0.397-0.399 0.257-0.062 0.984 0.339 0.718 1.26-0.286 1.012-1.524 1.565-2.973 1.565-2.754 0-5.148-1.585-7.847-3.458" fill="url(#radialGradient50339)"/>
     </g>
    </g>
    <g transform="matrix(.35278 0 0 -.35278 -259.91 391.11)">
     <g clip-path="url(#clipPath50349)">
      <path d="m614.68 389.86c-0.653-0.928 1.627-0.907 1.627-0.907-0.149-0.908-1.195-1.779-2.252-1.779-1.059 0-1.377 0.171-1.377 0.171-0.16-0.25-0.302-0.443-0.468-0.713 0.96 0.038 3.189 0.099 4.082 0.099 0.891 0 3.36-0.128 3.892-0.166-0.86 2.014-2.516 4.801-3.66 4.801-0.041 0-0.09 0.005-0.151 0.005-0.269 0-1.196-0.805-1.693-1.511" fill="url(#radialGradient50361)"/>
     </g>
    </g>
    <g transform="matrix(.35278 0 0 -.35278 -259.91 391.11)">
     <g clip-path="url(#clipPath50371)">
      <path d="m668.26 364.35c-1.137-1.59-0.837-4.606-0.68-5.3 0 0 2.091-3.641 8.062-9.572l0.01 2.63c-4.487 4.118-6.602 8.257-6.602 8.257s1.649 0.621 2.387 1.56c0.366 0.522 0.506 1.234 0.445 1.712-0.143 0.897-0.842 1.352-1.079 1.454-0.24 0.103-0.573 0.266-0.969 0.266-0.458 0-1-0.219-1.574-1.007" fill="url(#radialGradient50383)"/>
     </g>
    </g>
    <g transform="matrix(.35278 0 0 -.35278 -259.91 391.11)">
     <g clip-path="url(#clipPath50393)">
      <path d="m672.47 361.51c-0.325-0.449-0.722-1.093-1.799-1.621 0.604-1.056 2.13-3.603 5.989-7.22 0.641-0.601 2.24-1.112 3.147-0.094 0.34 0.395 0.564 0.949 0.53 1.591-0.044 0.745-0.49 1.61-0.938 1.99-0.779 0.657-4.093 4.004-6.45 6.638-0.066-0.481-0.479-1.284-0.479-1.284" fill="url(#linearGradient50405)"/>
     </g>
    </g>
    <g transform="matrix(.35278 0 0 -.35278 -259.91 391.11)">
     <g clip-path="url(#clipPath50415)">
      <g transform="translate(589.89 294.83)">
       <path d="m0 0 26.192-16.83 26.191 16.83l0.04 55.249-0.259 0.231c-0.912 0.816-2.275 2.034-3.404 2.762h-45.243c-1.081-0.779-2.933-2.34-3.517-2.891zm26.192-18.033-27.204 17.481v56.312l0.136 0.146c0.433 0.466 2.758 2.425 3.94 3.256l0.131 0.092h45.857l0.122-0.077c1.226-0.762 2.694-2.075 3.665-2.943l0.596-0.53v-0.229l-0.04-56.028z" fill="#110f0d"/>
      </g>
     </g>
    </g>
    <g transform="matrix(.35278 0 0 -.35278 -259.91 391.11)">
     <g clip-path="url(#clipPath50427)">
      <path d="m626.75 256.2s0.141-0.447 1.101-0.411c0.367 0.025 0.417 0.116 0.545 0.137 0.283 0.051 0.694-0.236 0.652-0.714-0.044-0.337-0.326-0.756-1.306-0.756s-2.12 0.798-2.698 1.544c0 0-0.585-0.137-1.194-0.167 0 0 1.886-2.635 5.593-2.635 4.069 0 5.585 3.653 6.217 4.82-2.622-0.695-4.495-1.282-8.91-1.818" fill="url(#radialGradient50439)"/>
     </g>
    </g>
    <g transform="matrix(.35278 0 0 -.35278 -259.91 391.11)">
     <g clip-path="url(#clipPath50449)">
      <g transform="translate(546.76 315.33)">
       <path d="m0 0c0 6.736 5.466 12.214 12.21 12.214 6.746 0 12.209-5.478 12.209-12.214 0-6.748-5.463-12.214-12.209-12.214-6.744 0-12.21 5.466-12.21 12.214" fill="#f9e706"/>
      </g>
      <g transform="translate(558.97 327.04)">
       <path d="m0 0c-6.454 0-11.705-5.252-11.705-11.708s5.251-11.709 11.705-11.709c6.453 0 11.702 5.253 11.702 11.709s-5.249 11.708-11.702 11.708m0-24.429c-7.012 0-12.716 5.707-12.716 12.721s5.704 12.72 12.716 12.72c7.011 0 12.714-5.706 12.714-12.72s-5.703-12.721-12.714-12.721" fill="#110f0d"/>
      </g>
     </g>
    </g>
    <g transform="matrix(.35278 0 0 -.35278 -259.91 391.11)">
     <g clip-path="url(#clipPath50465)">
      <g mask="url(#mask50483)">
       <path d="m549.55 315.78c0-5.116 4.215-9.26 9.415-9.26 5.202 0 9.413 4.144 9.413 9.26 0 5.107-4.211 9.261-9.413 9.261-5.2 0-9.415-4.154-9.415-9.261" fill="url(#radialGradient50505)"/>
      </g>
     </g>
    </g>
    <g transform="matrix(.35278 0 0 -.35278 -259.91 391.11)">
     <g clip-path="url(#clipPath50515)">
      <g transform="translate(559.03 325.59)">
       <path d="m0 0c-5.673 0-10.266-4.595-10.266-10.264 0-5.673 4.593-10.266 10.266-10.266 5.669 0 10.272 4.593 10.272 10.266 0 5.669-4.603 10.264-10.272 10.264m5.44-2.435c0.169-0.136 0.616-0.498 0.616-0.498 0.88-0.803 1.676-1.72 2.138-2.819 0.578-1.385-1.214-3.482-1.74-3.966-2.373-2.228-3.859-2.187-4.7-2.308-0.841-0.123-1.387 0.405-1.365 1.038 0.053 1.853 1.373 5.047 1.752 5.649 0.242 0.387 0.663 0.627 0.663 0.627 0.881 0.244 1.736 0.611 2.178 1.115 0.433 0.512 0.458 1.162 0.458 1.162m-8.527 1.344c0.946 0.313 1.956 0.49 2.996 0.49 1.581 0 3.117-0.288 4.398-1.105 0.33-0.215 0.423-0.465 0.423-0.836 0-1.208-1.889-1.613-3.139-1.613-1.258 0-2.805 0.498-3.901 0.845-1.091 0.342-1.329 0.973-1.329 1.26 0 0.276 0.212 0.848 0.552 0.959m-4.034-14.679c-1.278 1.262-2.189 3.548-2.189 5.954 0 0.935 0.139 1.83 0.387 2.679 0 0 0.228 0.381 0.427 0.058 0.153-0.239 0.363-0.479 0.534-0.796 0.19-0.318 1.178-1.069 1.095-1.683-0.345-2.252-0.036-5.244 0.071-5.748 0.096-0.498-0.041-0.71-0.325-0.464m0.254 7.734c-0.451 0.238-0.992 1.401-1.175 1.74-0.123 0.244-0.123 0.943 0.054 1.24 0.754 1.32 1.823 2.542 3.2 3.179 0.169 0.073 0.405 0.087 0.405-0.317 0-0.217 0.117-0.554 0.121-0.768 0-0.217 0.091-0.659-0.183-1.008-0.287-0.351-1.519-2.536-1.835-3.76-0.051-0.274-0.135-0.562-0.587-0.306m6.976-11.002c-0.065 0-0.139-0.008-0.2-0.008-1.689 0-3.548 0.645-4.649 1.272-1.141 0.621-1.57 3.55-1.57 5.03 0 4.819 1.977 7.688 2.298 8.252 0.314 0.571 1.02 0.631 1.538 0.492 0.535-0.155 0.726-0.248 1.343-0.431 0.321-0.105 0.974-0.238 1.464-0.325 0.49-0.117 1.018-0.22 0.701-1.135-0.314-0.917-1.381-3.119-1.488-5.73-0.104-2.363 0.21-4.71 0.744-6.153 0.351-0.932 0.351-1.282-0.181-1.264m2.419 0.379c-0.536-0.17-0.768 0.205-1.012 0.474-0.951 1.094-1.195 4.004-1.195 4.389 0 0.387 0.143 0.812 0.415 0.822 2.292 0.043 3.929 0.708 5.431 1.956 1.5 1.226 2.15 2.633 2.283 2.883 0.131 0.278 0.443 0.228 0.5-0.157 0.064-0.321 0.185-0.898 0.185-1.523 0-4.195-2.828-7.621-6.607-8.844" fill="#dc1e25"/>
      </g>
      <g transform="translate(661.24 315.35)">
       <path d="m0 0c0 6.736 5.466 12.194 12.21 12.194 6.748 0 12.211-5.458 12.211-12.194 0-6.748-5.463-12.216-12.211-12.216-6.744 0-12.21 5.468-12.21 12.216" fill="#f9e706"/>
      </g>
      <g transform="translate(673.45 327.04)">
       <path d="m0 0c-6.454 0-11.704-5.244-11.704-11.689 0-6.457 5.25-11.71 11.704-11.71s11.704 5.253 11.704 11.71c0 6.445-5.25 11.689-11.704 11.689m0-24.411c-7.012 0-12.716 5.707-12.716 12.722 0 7.004 5.704 12.701 12.716 12.701s12.716-5.697 12.716-12.701c0-7.015-5.704-12.722-12.716-12.722" fill="#110f0d"/>
      </g>
      <g transform="translate(673.48 325.62)">
       <path d="m0 0c-5.667 0-10.262-4.597-10.262-10.252 0-5.687 4.595-10.266 10.262-10.266 5.677 0 10.272 4.579 10.272 10.266 0 5.655-4.595 10.252-10.272 10.252m-4.302-1.698c1.3 0.821 2.816 1.109 4.399 1.109 1.048 0 2.044-0.179 2.998-0.492 0.351-0.109 0.558-0.675 0.558-0.959 0-0.279-0.232-0.918-1.332-1.262-1.095-0.337-2.636-0.841-3.892-0.841-1.264 0-3.147 0.411-3.147 1.613 0 0.363 0.091 0.627 0.416 0.832m-3.873-4.048c0.451 1.099 1.25 2.032 2.131 2.817 0 0 0.437 0.369 0.605 0.498 0 0 0.036-0.656 0.475-1.148 0.436-0.496 1.283-0.885 2.164-1.117 0 0 0.415-0.252 0.663-0.639 0.391-0.584 1.7-3.774 1.758-5.641 0.016-0.635-0.524-1.163-1.367-1.042-0.845 0.113-2.327 0.087-4.699 2.304-0.523 0.486-2.315 2.579-1.73 3.968m5.663-12.901c-3.79 1.228-6.611 4.653-6.611 8.843 0 0.618 0.121 1.189 0.17 1.522 0.074 0.385 0.364 0.449 0.508 0.165 0.133-0.258 0.792-1.663 2.284-2.893 1.512-1.238 3.133-1.915 5.439-1.962 0.279-0.014 0.41-0.425 0.41-0.82 0-0.391-0.236-3.295-1.182-4.381-0.252-0.277-0.494-0.658-1.018-0.474m7.268 0.881c-1.103-0.617-2.962-1.268-4.659-1.268h-0.196c-0.522-0.014-0.534 0.349-0.177 1.278 0.518 1.431 0.841 3.788 0.734 6.145-0.107 2.623-1.16 4.801-1.488 5.724-0.317 0.915 0.212 1.026 0.708 1.129 0.493 0.097 1.143 0.24 1.467 0.343 0.607 0.185 0.803 0.278 1.339 0.431 0.522 0.135 1.224 0.067 1.544-0.49 0.313-0.572 2.293-3.459 2.293-8.266 0-1.472-0.432-4.397-1.565-5.026m1.542 10.042c-0.318 1.22-1.558 3.414-1.838 3.764-0.281 0.337-0.192 0.785-0.188 1.002 0 0.214 0.123 0.557 0.123 0.779 0 0.387 0.234 0.379 0.401 0.306 1.384-0.637 2.448-1.841 3.21-3.173 0.169-0.303 0.173-0.998 0.048-1.234-0.179-0.341-0.717-1.504-1.177-1.75-0.46-0.252-0.528 0.042-0.579 0.306m0.827-8.03c-0.268-0.264-0.419-0.034-0.306 0.46 0.094 0.49 0.405 3.492 0.058 5.744-0.085 0.611 0.909 1.361 1.091 1.683 0.183 0.315 0.391 0.561 0.538 0.792 0.204 0.333 0.421-0.04 0.421-0.04 0.261-0.859 0.388-1.758 0.388-2.689 0-2.414-0.922-4.692-2.19-5.95" fill="#dc1e25"/>
      </g>
     </g>
    </g>
    <g transform="matrix(.35278 0 0 -.35278 -259.91 391.11)">
     <g clip-path="url(#clipPath50539)">
      <g mask="url(#mask50557)">
       <path d="m664.18 315.83c0-5.116 4.215-9.26 9.415-9.26 5.202 0 9.414 4.144 9.414 9.26 0 5.107-4.212 9.261-9.414 9.261-5.2 0-9.415-4.154-9.415-9.261" fill="url(#radialGradient50579)"/>
      </g>
     </g>
    </g>
   </g>
  </g>
 </g>
</svg>
