<svg xmlns="http://www.w3.org/2000/svg" height="220" width="220" version="1.1" viewBox="0 0 58.208332 58.208335">
 <g transform="translate(0 -238.79)">
  <g transform="translate(-5.8333e-8 -.0000018318)">
   <g stroke-width=".26458" transform="translate(45.924 -11.717)">
    <path d="m-16.82 308.25 25.479-25.48-8.3869-19.23h4.7361v-12.57h-43.656v12.568h4.736l-8.3873 19.235z" class="g42_1" display="block" fill="#ed2429"/>
    <path d="m-36.267 261.16h38.894v-7.8052h-38.894z" class="g43_1" display="block" fill="#f4ec25"/>
    <path d="m-16.82 263.54h-14.473c-2.2225 5.1065-7.3025 16.722-8.1492 18.706 1.9315 1.9579 19.817 19.844 22.622 22.648z" class="g27_1" display="block" fill="#050604"/>
    <path d="m-2.3208 263.54h-14.499v41.354l22.648-22.648c-0.87312-1.9844-5.9267-13.6-8.1492-18.706z" class="g43_1" display="block" fill="#f4ec25"/>
    <g fill="#050604">
     <path d="m-30.711 256.24 0.84667 3.9423h1.1112l1.2965-5.5562h-1.0054l-0.84667 4.2598-0.84667-4.2598h-1.0583l-0.84667 4.2598-0.87312-4.2598h-1.0054l1.2965 5.5562h1.1377z" class="g27_1" display="block"/>
     <path d="m-23.726 260.18h1.0583l-1.7727-4.8683h-1.0583l-1.7727 4.8683h1.0583l0.37042-1.1377h1.7727zm-1.8521-1.9844 0.60854-1.8785 0.60854 1.8785z" class="g27_1" display="block"/>
     <path d="m-22.641 255.31v0.84667h1.3229v4.0217h1.0319v-4.0217h1.2965l0.18521-0.84667z" class="g27_1" display="block"/>
     <path d="m-17.931 255.31v4.8683h0.97896v-2.1167h1.4817v-0.84667h-1.4817v-1.0583h1.7198l0.18521-0.84667z" class="g27_1" display="block"/>
     <path d="m-12.163 255.26c-1.6404 0-2.3283 1.1377-2.3283 2.5135s0.68792 2.5136 2.3283 2.5136 2.3283-1.1377 2.3283-2.5136c0-1.3758-0.68792-2.5135-2.3283-2.5135m0 4.2598c-0.97896 0-1.2171-0.79375-1.2171-1.7462 0-0.97895 0.23812-1.7727 1.2171-1.7727 0.9525 0 1.2171 0.79375 1.2171 1.7727 0 0.9525-0.26458 1.7462-1.2171 1.7462z" class="g27_1" display="block"/>
     <path d="m-6.2631 258.12v-0.0529c0.3175 0 1.1377-0.29105 1.1377-1.3494 0-1.0319-0.79375-1.4023-1.6933-1.4023h-1.8521v4.8683h1.0054v-2.0373h0.07937c0.34396 0 1.5346 2.0373 1.5346 2.0373h1.27zm-0.635-0.68791h-0.76729v-1.27h0.76729c0.26458 0 0.68792 0.0529 0.68792 0.60854 0 0.52916-0.42333 0.66146-0.68792 0.66146z" class="g27_1" display="block"/>
     <path d="m-2.0297 255.31h-1.7198v4.8683h1.7198c1.5346 0 2.196-1.0583 2.196-2.4077 0-1.3758-0.66146-2.4606-2.196-2.4606m0.02646 4.0217h-0.76729v-3.175h0.76729c0.66146 0 1.0583 0.635 1.0583 1.5875 0 0.97895-0.39688 1.5875-1.0583 1.5875z" class="g27_1" display="block"/>
     <path d="m-25.022 267.35c0 0.15875 0.02646 0.23813 0.05292 0.34396 0 0.0794 0.02646 0.18521 0.02646 0.39687 0 0.74084-0.18521 1.0848-0.29104 1.0848h-0.05292s-0.02646-0.0529-0.05292-0.0794c-0.21167-0.26458-0.47625-0.58208-1.2171-0.58208-0.68792 0-1.1377 0.47625-1.1377 1.2171 0 1.0583 0.26458 1.905 0.47625 2.5929 0.13229 0.39687 0.23812 0.74083 0.23812 0.97896 0 0.1852-0.07938 0.37041-0.13229 0.39687-0.26458 0-0.37042-0.0794-0.55562-0.26458-0.23812-0.26459-0.60854-0.60854-1.3758-0.60854-0.34396 0-1.1112 0.10583-1.1112 1.1906 0 0.44979 0.15875 0.84667 0.3175 1.2435 0.15875 0.39688 0.3175 0.82021 0.3175 1.3758 0 0.0265 0 0.42333-0.13229 0.42333-0.50271 0-0.68792-0.3175-0.97896-0.84667-0.23812-0.47625-0.55562-1.0848-1.2965-1.0848-1.1906 0-1.1906 1.7992-1.1906 2.4606 0 3.81 3.5983 5.1858 6.0325 5.1858 0.47625 0 0.74083-0.0529 1.0054-0.0794 0.26458-0.0529 0.50271-0.0794 1.0054-0.0794 1.4817 0 2.5929 0.29104 3.2544 0.84667-0.37042-0.1323-0.79375-0.23813-1.3229-0.23813-1.27 0-1.7462 0.3175-2.1696 0.66146-0.18521 0.15875-0.29104 0.23812-0.52917 0.3175l-1.7992 0.50271 1.8256 0.42333c0.76729 0.15875 1.1906 0.76729 1.6404 1.4023 0.47625 0.66146 1.0054 1.4288 2.0108 1.4288h0.26458c-0.10583 0.44979-0.15875 1.0583-0.15875 1.7198 0 1.0054 0.23812 1.3758 0.55562 1.7992l0.15875 0.18521c0.13229 0.21167 0.29104 0.42333 0.42333 0.60854 0.52917 0.68792 1.0319 1.3494 1.0319 2.249 0 0.47625 0 0.84667 0.02646 1.2171 0.02646 0.37042 0.05292 0.71438 0.05292 1.1642 0 1.3229 0.89958 1.7198 1.4023 1.9579 0.05292 0.0265 0.10583 0.0529 0.15875 0.0529 0.07937 0.44979 0.52917 0.60854 0.82021 0.68792l0.07937 0.0529 0.10583 0.0265c0.13229 0.0529 0.34396 0.15875 0.68792 0.15875 0.89958 0 1.2965-0.68791 1.4023-1.2435 0-0.0265 0.02646-0.0265 0.02646-0.0265 0.42333-0.1852 1.2435-0.55562 1.2435-1.7198 0-0.60854-0.07938-1.0848-0.13229-1.4817-0.05292-0.3175-0.10583-0.58209-0.10583-0.84667 0-0.74083 0.3175-1.1112 0.71438-1.6404 0.58208-0.68791 1.27-1.561 1.27-3.5454 0-0.68792-0.02646-1.2171-0.07938-1.614 0.10583 0.0265 0.23812 0.0265 0.34396 0.0265 1.3229 0 1.7727-0.7673 2.0902-1.4288 0.60854-1.2171 1.7992-1.1377 1.7992-1.1377s-0.92604-1.614-3.175-1.614c-0.66146 0-1.1906 0.13229-1.5875 0.3175 0.18521-0.52917 0.50271-0.76729 0.74083-0.89958 0.635-0.3175 1.5346-0.34396 2.3548-0.34396 0.50271 0 0.84667 0.0265 1.1906 0.0529 0.3175 0.0529 0.635 0.0794 1.0848 0.0794 3.2808 0 4.1275-1.0583 5.0535-2.1431 0.76729-0.9525 1.2965-1.8521 1.2965-3.2544 0-0.9525-0.29104-1.9579-1.0583-1.9579-0.66146 0-0.92604 0.635-1.1642 1.1112-0.26458 0.60854-0.42333 0.84667-0.71438 0.84667-0.37042 0-0.66146-0.34396-0.66146-0.79375 0-0.42333 0.26458-0.9525 0.52917-1.4552 0.29104-0.55562 0.60854-1.1642 0.60854-1.7462 0-0.34396-0.13229-0.635-0.37042-0.84667-0.21167-0.15875-0.47625-0.26458-0.76729-0.26458-0.58208 0-1.0583 0.47625-1.5081 0.9525-0.29104 0.29104-0.66146 0.71438-0.89958 0.71438-0.05292-0.0265-0.13229-0.18521-0.13229-0.3175 0-0.42334 0.18521-1.0319 0.37042-1.614 0.18521-0.635 0.37042-1.2171 0.37042-1.6933 0-1.0319-0.60854-1.4817-1.1906-1.4817-0.55562 0-0.89958 0.23812-1.1906 0.44979-0.21167 0.15875-0.34396 0.23812-0.50271 0.23812h-0.02646v-0.5027-0.42334c0-1.1112-0.02646-1.8521-0.44979-2.2754-0.21167-0.18521-0.47625-0.29105-0.82021-0.29105-1.4817 0-2.1431 1.9579-2.1431 3.9158 0 0.89958 0.02646 1.7198 0.05292 2.4871 0.05292 0.74083 0.07938 1.4288 0.07938 2.196 0 1.7992-0.37042 3.2808-0.68792 4.0746-0.10583-0.87313-0.26458-2.1696-1.27-2.1696-0.82021 0-1.0319 1.0583-1.2435 2.3019-0.21167 1.1112-0.50271 2.6194-1.1906 2.6194-0.55562 0-0.74083-1.0583-0.89958-2.4342-0.15875-1.3494-0.3175-2.884-1.5346-2.884-1.2965 0-1.4023 1.6933-1.4552 2.8046 0 0.15875 0 0.3175-0.02646 0.47625-0.3175-0.635-0.68792-1.6933-0.68792-2.6988 0-1.2435 0.05292-2.249 0.13229-3.2015 0.07938-0.89958 0.15875-1.8521 0.15875-2.9898 0-2.54-0.635-3.2279-1.1906-3.81l-0.02646-0.0529c-0.37042-0.39687-0.71438-0.79375-1.27-0.79375-0.79375 0-1.2171 0.7673-1.2171 1.4817z" class="g27_1" display="block"/>
    </g>
    <g fill="#ed2429">
     <path d="m-2.0562 275.9c-0.79375 0-0.74083 1.9579-1.905 1.9579-0.635 0-1.1377-0.55563-1.1377-1.27 0-1.0583 1.1377-2.249 1.1377-3.2015 0-0.42333-0.34396-0.635-0.66146-0.635-0.76729 0-1.561 1.6933-2.4342 1.6933-0.39688 0-0.58208-0.52916-0.58208-0.8202 0-0.9525 0.74083-2.4606 0.74083-3.3073 0-0.66145-0.3175-1.0054-0.71438-1.0054-0.76729 0-1.0319 0.71437-1.7462 0.71437-0.26458 0-0.42333-0.3175-0.42333-0.50271 0-1.8785 0.07937-3.0162-0.79375-3.0162-1.1642 0-1.6933 1.7198-1.6933 3.4396 0 1.7462 0.13229 3.0956 0.13229 4.6831 0 2.4342-0.58208 4.4715-1.0848 4.9212 0 0-0.13229 1.4023 0.42333 1.4023 1.1377 0 2.9633-3.175 5.2652-3.175 1.0319 0 1.0848 0.635 1.0848 0.89959 0 0.82021-1.1642 1.2435-1.1642 1.7727 0 0.26458 0.42333 0.29104 0.92604 0.29104 1.4817 0 2.5929-0.92604 2.5929-0.92604s-1.0848 1.2964-2.7781 1.2964c-0.71438 0-1.2965-0.23812-1.2965-0.68791 0-0.68792 1.4023-1.2171 1.4023-1.9315 0-0.18521-0.23812-0.50271-0.76729-0.50271-1.8785 0-3.8365 3.5454-5.371 3.5454-0.3175 0-0.74083-0.21167-0.74083-1.0319 0-0.66146-0.05292-3.4925-0.92604-3.4925-1.0054 0-0.52917 4.9212-2.4077 4.9212-2.0108 0-0.82021-5.3181-2.4606-5.3181-0.97896 0-0.82021 1.4288-0.97896 2.7252-0.13229 1.0583-0.44979 2.0373-1.0848 2.0373-0.87312 0-1.4817-0.39688-2.2225-0.84667-0.44979-0.29104-0.9525-0.58208-1.3494-0.87312-0.68792-0.50271-1.0583-1.0054-1.6933-1.0054-0.37042 0-0.74083 0.18521-0.74083 0.55562 0 0.68792 0.74083 0.97896 0.74083 1.561 0 0.34395-0.50271 0.635-1.0848 0.635-1.7462 0-2.7781-1.1377-2.7781-1.614 0 0 0.87312 1.2435 2.8575 1.2435 0.42333 0 0.58208-0.10583 0.58208-0.3175 0-0.39688-0.58208-0.74083-0.58208-1.5081 0-0.47625 0.37042-0.87312 0.89958-0.87312 0.71438 0 1.1642 0.50271 1.8785 1.0319 1.0319 0.74084 2.3812 1.5875 3.4131 1.5875 0.39688 0 0.66146-0.1852 0.66146-0.58208 0-0.39687-1.1642-1.4552-1.1642-3.6512 0-2.4871 0.29104-3.8894 0.29104-6.1912 0-2.4077-0.58208-2.9633-1.0848-3.5454-0.39688-0.42333-0.60854-0.635-0.92604-0.635-0.55562 0-0.74083 0.60855-0.74083 1.0054 0 0.26458 0.07937 0.26458 0.07937 0.74083 0 0.84667-0.21167 1.561-0.76729 1.561-0.66146 0-0.3175-0.66146-1.3229-0.66146-0.47625 0-0.66146 0.34396-0.66146 0.74083 0 1.6404 0.71438 2.8046 0.71438 3.5719 0 0.37041-0.21167 0.87312-0.58208 0.87312-1.0054 0-0.82021-0.87312-1.9579-0.87312-0.50271 0-0.635 0.29104-0.635 0.68791 0 0.82021 0.66146 1.4552 0.66146 2.6194 0 0.52916-0.18521 0.92604-0.60854 0.92604-1.4817 0-1.2965-1.9315-2.3019-1.9315-0.47625 0-0.71438 0.66146-0.71438 1.9844 0 3.5454 3.466 4.6831 5.5563 4.6831 0.89958 0 0.97896-0.13229 2.0108-0.13229 4.8683 0 4.4715 2.9633 4.4715 2.9633s-0.635-1.4023-2.54-1.4023c-1.8785 0-1.6669 0.68792-2.5665 0.9525 1.8785 0.42333 2.0373 2.831 3.5454 2.831 0.66146 0 1.0054-0.52916 1.0054-0.52916s-0.42333 1.1112-0.42333 2.7252c0 1.1112 0.3175 1.27 0.635 1.7198 0.635 0.9525 1.5346 1.7727 1.5346 3.0956 0.21167 0 0.37042-0.97896 0.47625-0.97896 0.07937 0 0.15875 0.15875 0.15875 0.37042 0 0.50271-0.55562 1.4023-0.55562 3.0162 0 0.9525 0.60854 1.27 1.0583 1.4817 0.10583 0 0.74083-1.3229 0.74083-1.3229-0.37042 1.0319-0.26458 1.614-0.26458 1.6669 0 0.29105 0.26458 0.34396 0.60854 0.4498 0.21167 0.0794 0.29104 0.15875 0.635 0.15875 0.79375 0 0.92604-0.68792 0.92604-0.97896 0-0.26459-0.26458-0.79375-0.26458-1.1112 0 0-0.02646-0.21167 0.02646-0.21167 0.10583 0 0.52917 1.1112 0.52917 1.1112 0.37042-0.15875 0.97896-0.39687 0.97896-1.2965 0-1.0583-0.635-2.4871-0.635-3.1221 0-0.13229 0.05292-0.23813 0.10583-0.23813 0.13229 0 0.34396 0.58209 0.34396 0.58209 0.26458-1.614 1.9579-1.7727 1.9579-4.736 0-1.8786-0.29104-2.4871-0.29104-2.4871s0.50271 0.42334 1.0319 0.42334c1.7992 0 1.3758-1.7992 2.8046-2.4077 0-0.18521-0.76729-0.82021-2.0902-0.82021-1.6933 0-2.249 0.89958-2.249 0.89958 0-2.6458 1.8521-2.8046 3.7306-2.8046 1.0054 0 1.4288 0.15875 2.2754 0.15875 3.0692 0 3.81-0.92604 4.6831-1.9844 0.79375-0.9525 1.1906-1.7462 1.1906-2.9369 0-0.635-0.15875-1.4817-0.55562-1.4817m-19.791 10.134c0 0.10584 0.37042 0.21167 0.60854 0.21167 0 0.13229-0.26458 0.34396-0.52917 0.34396-0.97896 0-0.50271-1.5346-2.4871-1.9315 0 0 0.10583-0.0529 0.37042-0.0529 1.561 0 2.0108 1.2171 2.8575 1.2171-0.26458 0.0265-0.82021 0.0529-0.82021 0.21166m3.3602 6.3236v-0.7673c0-0.21166-0.10583-0.3175-0.29104-0.3175l0.50271-1.1112v-0.10583c-0.87312 0-1.6404-0.18521-1.6404-0.79375h-0.23812c-0.05292 0-0.15875-0.0794-0.15875-0.18521 0-0.0794 0.29104-0.39687 0.97896-0.39687 0.52917 0 0.84667 0.21166 0.84667 0.21166s-0.3175-0.68791-1.1112-0.68791c-0.47625 0-0.58208 0.0529-0.58208 0.0529s0.26458-0.37041 0.66146-0.37041c1.2171 0 1.5346 0.76729 1.5346 2.1167 0 1.4023-0.50271 2.3548-0.50271 2.3548m7.8846-7.4612c0.21167 0 0.3175 0.0265 0.3175 0.0265-1.1906 0.21167-1.1642 1.6404-2.1167 1.6404-0.21167 0-0.34396-0.0794-0.34396-0.0794 0.13229-0.26459 0.58208-0.34396 0.58208-0.68792-0.29104 0-0.52917 0.0265-0.82021 0.10583 0-0.13229 0.92604-1.0054 2.3812-1.0054m-2.6988 3.519-0.07937 0.1323s-0.44979-0.15875-0.87312-0.15875c-0.74083 0-1.0054 0.52916-1.0054 0.52916s0.23812-0.15875 0.71438-0.15875c0.66146 0 1.1112 0.34396 1.1112 0.47625s-0.18521 0.21167-0.34396 0.21167c0 0.3175-0.42333 0.74083-1.6933 0.74083 0 0.635 0.37042 1.0319 0.37042 1.2171-0.3175 0-0.37042 0.3175-0.37042 0.87312 0 0-0.42333-1.7727-0.42333-2.4871 0-1.0319 0.42333-1.8256 1.2965-1.8256 0.66146 0 1.2965 0.44979 1.2965 0.44979z" class="g42_1" display="block"/>
     <path d="m-15.312 289.63-0.07938 0.15875s0.15875 0.10583 0.47625 0.10583c0.635 0 0.89958-0.52917 0.84667-0.58208-0.07937-0.0529-0.34396 0.39687-0.84667 0.39687-0.29104 0-0.39688-0.0794-0.39688-0.0794z" class="g42_1" display="block"/>
     <path d="m-14.624 289.44c0 0.0529-0.07937 0.10583-0.15875 0.10583-0.05292 0-0.13229-0.0529-0.13229-0.10583 0-0.0265 0.05292-0.0794 0.13229-0.0794s0.15875 0.0529 0.15875 0.0794z" class="g42_1" display="block"/>
     <path d="m-19.466 289.2c0.05292 0.0529 0.18521 0.39688 0.52917 0.39688 0.26458 0 0.29104-0.10583 0.37042-0.13229 0.07937-0.0529 0.15875 0.0265 0.10583 0.10583-0.02646 0.0794-0.13229 0.15875-0.44979 0.15875-0.42333 0-0.66146-0.34396-0.68792-0.42333-0.05292-0.13229 0-0.18521 0.13229-0.10584z" class="g42_1" display="block"/>
     <path d="m-18.857 289.31c0 0.0529-0.05292 0.0794-0.13229 0.0794-0.05292 0-0.10583-0.0265-0.10583-0.0794 0-0.0265 0.05292-0.0794 0.10583-0.0794 0.07937 0 0.13229 0.0529 0.13229 0.0794z" class="g42_1" display="block"/>
    </g>
   </g>
  </g>
 </g>
</svg>
