<svg xmlns="http://www.w3.org/2000/svg" height="220" width="220" version="1.1" viewBox="0 0 58.208332 58.208335">
 <g transform="translate(0 -238.79)">
  <g transform="translate(-5.8333e-8 -.0000018318)">
   <g stroke-width=".26458" transform="translate(50.082 -18.899)">
    <path d="m-20.978 285.8l0.02646 0.0265zm25.612-25.64c-7.7788-1.1906-16.457-1.8521-25.612-1.8521-9.1546 0-17.833 0.66146-25.612 1.8521v21.351c0 18.071 10.478 28.231 25.188 33.629l0.42333 0.13229 0.42333-0.13229c14.711-5.3975 25.188-15.558 25.188-33.629v-21.325z" class="g2_1" display="block" fill="#2cafe4"/>
    <path d="m2.8613 261.94v-0.0264c-7.2496-1.0848-15.319-1.6933-23.839-1.6933-8.5196 0-16.589 0.60854-23.839 1.6933v20.267c0 16.828 9.7631 26.273 23.442 31.3l0.39688 0.13229 0.39688-0.13229c13.679-5.03 23.442-14.47 23.442-31.3v-20.214z" class="g3_1" display="block" fill="#7d2d3c"/>
    <path d="m-9.2037 304.32c0.37042 0.37042 0.97896-0.0265 1.5875-0.635 0.635-0.635 1.0319-1.2171 0.635-1.614l-23.628-23.04c-0.37042-0.37042-1.0583-0.3175-1.5081 0.13229-0.44979 0.47625-0.52917 1.1377-0.13229 1.5081z" class="g4_1" display="block" fill="#d7ab38"/>
    <path d="m-29.868 278.69 1.9315-2.2754s0.18521-0.23812-0.10583-0.58208c-0.74083-0.92604-2.249-2.249-2.249-2.249-0.21167-0.15875-0.37042-0.10583-0.60854 0.10583-1.1642 1.1377-4.1804 4.0481-4.3656 4.2333-0.23812 0.23812-0.34396 0.39687-0.26458 0.79375 0.07938 0.42333 0.29104 1.0848-0.07938 1.7462l-2.0373 3.2015c-0.26458 0.39687-0.3175 0.74083-0.13229 0.92604 0.10583 0.10583 0.34396 0.21166 0.87312-0.15875 0.26458-0.15875 3.0162-2.0373 3.9158-2.7517 0.50271-0.42333 0.89958-0.82021 0.89958-0.82021l1.6669-1.6404s0.37042-0.34396 0.55562-0.52917z" class="g5_1" display="block" fill="#f8d841"/>
    <g fill="#d7ab38">
     <path d="m-36.879 284.24c-0.58208 0.39687-0.58208 0.44979-0.50271 0.42333 0.13229-0.0265 0.29104-0.0794 0.47625-0.21166 0.26458-0.18521 3.0162-2.0638 3.9158-2.7781 0.37042-0.29104 0.66146-0.58208 0.82021-0.71437-0.47625 0.10583-1.0583 0.3175-1.4023 0.60854-0.47625 0.39687-2.4871 2.1167-3.3073 2.6723z" class="g4_1" display="block"/>
     <path d="m-29.868 278.69 1.9315-2.2754s0.10583-0.15875 0-0.39687c0 0-0.15875-0.15875-0.71438 0.47625-0.44979 0.55562-0.68792 0.76729-1.0848 1.2435-0.29104 0.37042-0.52917 0.97896-0.60854 1.4288 0.10583-0.10583 0.3175-0.34396 0.47625-0.47625z" class="g4_1" display="block"/>
     <path d="m-32.699 304.32c-0.37042 0.37042-0.97896-0.0265-1.5875-0.635-0.635-0.635-1.0319-1.2171-0.66146-1.614l23.654-23.045c0.39688-0.37042 1.0583-0.3175 1.5081 0.13229 0.47625 0.44979 0.52917 1.1377 0.15875 1.5081z" class="g4_1" display="block"/>
    </g>
    <path d="m-32.937 304.11 22.093-22.675c0.37042-0.37042 0.29104-1.0583-0.15875-1.5081-0.23812-0.23812-0.52917-0.37042-0.82021-0.39687l-23.125 22.542c-0.34396 0.37041 0 0.92604 0.55562 1.5346 0.58208 0.52917 1.1112 0.84667 1.4552 0.50271z" class="g5_1" display="block" fill="#f8d841"/>
    <path d="m-12.008 278.69-1.9315-2.2754s-0.18521-0.26458 0.07937-0.60854c0.76729-0.89958 2.249-2.2225 2.249-2.2225 0.21167-0.15875 0.37042-0.13229 0.60854 0.10583 1.1906 1.1377 4.1804 4.0481 4.3656 4.2333 0.23812 0.23812 0.34396 0.39687 0.26458 0.79375-0.07937 0.39687-0.29104 1.0848 0.07937 1.7462l2.0373 3.2015c0.26458 0.39687 0.34396 0.74083 0.13229 0.92604-0.07938 0.10583-0.34396 0.21166-0.87312-0.15875-0.26458-0.15875-3.0162-2.0373-3.9158-2.7517-0.50271-0.42333-0.89958-0.82021-0.89958-0.82021l-1.6669-1.6404-0.52917-0.52917z" class="g5_1" display="block" fill="#f8d841"/>
    <g fill="#d7ab38">
     <path d="m-5.0233 284.21c0.58208 0.39688 0.58208 0.44979 0.50271 0.44979-0.13229-0.0265-0.29104-0.10583-0.47625-0.23812-0.26458-0.15875-3.0162-2.0373-3.9158-2.7517-0.34396-0.3175-0.66146-0.58208-0.79375-0.71437 0.44979 0.0794 1.0319 0.3175 1.3758 0.60854 0.47625 0.39687 2.4871 2.0902 3.3073 2.6458z" class="g4_1" display="block"/>
     <path d="m-12.008 278.69-1.9315-2.2754s-0.13229-0.15875-0.02646-0.39687c0 0 0.15875-0.18521 0.71438 0.47625 0.47625 0.55562 0.68792 0.76729 1.0848 1.2171 0.29104 0.37042 0.52917 0.97896 0.60854 1.4552-0.10583-0.13229-0.3175-0.34396-0.44979-0.47625z" class="g4_1" display="block"/>
     <path d="m-8.3041 279.32c-0.15875 0.18521-0.47625 0.18521-0.66146 0l-0.97896-0.97896c-0.18521-0.18521-0.18521-0.47625 0-0.66146s0.47625-0.18521 0.66146 0l0.97896 1.0054c0.18521 0.15875 0.18521 0.47625 0 0.635z" class="g4_1" display="block"/>
    </g>
    <path d="m-9.8123 278.34c-0.18521-0.18521-0.18521-0.47625 0-0.66146 0.07938-0.0794 0.15875-0.10583 0.26458-0.13229-0.13229-0.0265-0.29104 0.0265-0.39688 0.13229-0.18521 0.18521-0.18521 0.47625 0 0.66146l0.97896 0.97896c0.13229 0.13229 0.26458 0.15875 0.39688 0.13229-0.07938 0-0.18521-0.0529-0.26458-0.13229z" class="g6_1" display="block" fill="#ceab37"/>
    <g fill="#d7ab38">
     <path d="m-9.3625 278.71c-0.02646 0-0.05292 0.0265-0.07937 0-0.02646-0.0265-0.02646-0.0529 0-0.0794l0.44979-0.44979c0.02646-0.0265 0.05292-0.0265 0.07937 0v0.0794z" class="g4_1" display="block"/>
     <path d="m-9.2302 278.84c-0.02646 0.0265-0.05292 0.0265-0.05292 0-0.02646 0-0.02646-0.0265 0-0.0529 0-0.0265 0.02646-0.0265 0.05292 0s0.02646 0.0529 0 0.0529z" class="g4_1" display="block"/>
     <path d="m-9.5477 278.55h-0.05292c-0.02646-0.0265-0.02646-0.0529 0-0.0794 0-0.0265 0.05292-0.0265 0.05292 0 0.02646 0.0265 0.02646 0.0529 0 0.0794z" class="g4_1" display="block"/>
     <path d="m-9.1773 277.92-0.15875-0.13229c0-0.0265-0.05292-0.0265-0.05292 0-0.02646 0-0.02646 0.0529 0 0.0529l0.02646 0.0265v0.0265l-0.42333 0.42333v0.0529c0.02646 0.0265 0.05292 0.0265 0.07937 0l0.39688-0.39688h0.05292l0.02646 0.0265c0 0.0265 0.02646 0.0265 0.05292 0s0.02646-0.0529 0-0.0794z" class="g4_1" display="block"/>
     <path d="m-8.3306 278.76c-0.02646-0.0265-0.05292-0.0265-0.07937 0l-0.26458 0.18521h-0.02646l-0.02646-0.0265 0.07937-0.10583c0-0.0265 0-0.0529-0.02646-0.0794h-0.05292l-0.10583 0.0529h-0.02646c-0.02646-0.0265-0.02646-0.0265 0-0.0529l0.18521-0.26459s0-0.0529-0.02646-0.0529c-0.02646-0.0265-0.05292-0.0265-0.05292 0l-0.39688 0.52916c0 0.0265 0 0.0529 0.02646 0.0529 0 0.0265 0.02646 0.0265 0.05292 0.0265l0.18521-0.10584h0.02646v0.0529l-0.07937 0.18521c-0.02646 0 0 0.0265 0 0.0529 0.02646 0 0.05292 0.0265 0.07937 0l0.50271-0.37042c0.02646-0.0265 0.02646-0.0529 0.02646-0.0794z" class="g4_1" display="block"/>
    </g>
    <g fill="#f8d841">
     <path d="m-29.947 279.69c-0.29104 0-0.60854 0.10583-0.84667 0.34395-0.42333 0.42334-0.47625 1.0583-0.13229 1.4023l9.4456 9.6838 1.614-1.614z" class="g5_1" display="block"/>
     <path d="m-6.9812 302.07-11.906-11.61c-0.18521 0.0794-0.37042 0.21166-0.52917 0.37041-0.60854 0.60855-0.66146 1.5875-0.13229 2.2754l10.663 10.927c0.34396 0.34396 0.89958-0.0265 1.4817-0.60854 0.10583-0.0794 0.18521-0.18521 0.26458-0.29104 0.3175-0.39688 0.42333-0.79375 0.15875-1.0583z" class="g5_1" display="block"/>
     <path d="m-9.3889 278.69c-0.02646 0.0265-0.05292 0.0265-0.07937 0-0.02646-0.0265-0.02646-0.0529 0-0.0794l0.44979-0.44979c0.02646-0.0265 0.05292-0.0265 0.07937 0 0.02646 0.0265 0.02646 0.0529 0 0.0794z" class="g5_1" display="block"/>
     <path d="m-9.2566 278.84h-0.05292c-0.02646-0.0265-0.02646-0.0529 0-0.0794 0-0.0265 0.05292-0.0265 0.05292 0 0.02646 0.0265 0.02646 0.0529 0 0.0794z" class="g5_1" display="block"/>
     <path d="m-9.5477 278.53c-0.02646 0.0265-0.05292 0.0265-0.07937 0-0.02646-0.0265-0.02646-0.0529 0-0.0794s0.05292-0.0265 0.07937 0v0.0794z" class="g5_1" display="block"/>
     <path d="m-9.2037 277.92-0.13229-0.15875c-0.02646-0.0265-0.05292-0.0265-0.07937 0-0.02646 0-0.02646 0.0529 0 0.0529l0.02646 0.0265v0.0529l-0.39688 0.39687c-0.02646 0.0265-0.02646 0.0529 0 0.0794h0.05292l0.42333-0.42333h0.02646l0.02646 0.0265c0 0.0265 0.05292 0.0265 0.05292 0 0.02646 0 0.02646-0.0529 0-0.0529z" class="g5_1" display="block"/>
     <path d="m-8.3571 278.74c-0.02646-0.0265-0.05292-0.0265-0.07937 0l-0.26458 0.1852h-0.02646s-0.02646-0.0265 0-0.0265l0.05292-0.10584c0-0.0265 0-0.0529-0.02646-0.0529v-0.0265h-0.05292l-0.10583 0.0529h-0.02646c-0.02646 0-0.02646-0.0265 0-0.0265l0.18521-0.26459c0.02646-0.0265 0-0.0529 0-0.0794-0.02646-0.0265-0.07938 0-0.07938 0l-0.37042 0.52916c-0.02646 0.0265-0.02646 0.0529 0 0.0529v0.0265h0.05292l0.18521-0.10583s0.02646 0 0.02646 0.0265c0.02646 0 0.02646 0 0 0.0265l-0.07937 0.18521v0.0529c0.02646 0.0265 0.05292 0.0265 0.07937 0l0.50271-0.37042c0.02646-0.0265 0.02646-0.0529 0.02646-0.0794z" class="g5_1" display="block"/>
    </g>
    <path d="m-31.958 277.68c0.18521 0.18521 0.18521 0.47625 0 0.66146l-0.97896 1.0054c-0.18521 0.18521-0.47625 0.18521-0.66146 0s-0.18521-0.47625 0-0.66146l0.97896-1.0054c0.18521-0.15875 0.47625-0.15875 0.66146 0z" class="g4_1" display="block" fill="#d7ab38"/>
    <path d="m-33.519 278.76 0.97896-0.97895c0.18521-0.18521 0.44979-0.18521 0.635-0.0529-0.02646 0-0.02646-0.0265-0.05292-0.0529-0.18521-0.15875-0.47625-0.15875-0.66146 0l-0.97896 1.0054c-0.18521 0.18521-0.18521 0.47625 0 0.66146l0.02646 0.0265c-0.13229-0.18521-0.10583-0.4498 0.05292-0.60855z" class="g6_1" display="block" fill="#ceab37"/>
    <g fill="#d7ab38">
     <path d="m-32.593 278.84v0.0794h-0.07938l-0.44979-0.44979c-0.02646-0.0265-0.02646-0.0529 0-0.0794 0-0.0265 0.05292-0.0265 0.05292 0z" class="g4_1" display="block"/>
     <path d="m-32.461 278.69c0.02646 0.0265 0.02646 0.0529 0 0.0794 0 0.0265-0.05292 0.0265-0.05292 0-0.02646-0.0265-0.02646-0.0529 0-0.0794h0.05292z" class="g4_1" display="block"/>
     <path d="m-32.752 279v0.0794c-0.02646 0.0265-0.05292 0.0265-0.07937 0-0.02646-0.0265-0.02646-0.0529 0-0.0794s0.05292-0.0265 0.07937 0z" class="g4_1" display="block"/>
     <path d="m-33.387 278.63-0.15875 0.15875v0.0794c0.02646 0.0265 0.05292 0.0265 0.07938 0l0.02646-0.0265h0.02646l0.42333 0.39687c0 0.0265 0.02646 0.0265 0.05292 0s0.02646-0.0529 0-0.0794l-0.39688-0.39688v-0.0265l0.02646-0.0265c0.02646-0.0265 0.02646-0.0529 0-0.0794h-0.07938z" class="g4_1" display="block"/>
     <path d="m-32.54 277.81c-0.02646 0-0.02646 0.0529 0 0.0794l0.18521 0.23812v0.0529h-0.05292l-0.10583-0.0529h-0.05292v0.0265s-0.02646 0.0265 0 0.0529l0.05292 0.10583v0.0265h-0.05292l-0.26458-0.18521c-0.02646-0.0265-0.05292-0.0265-0.05292 0-0.02646 0.0265-0.02646 0.0529 0 0.0794l0.52917 0.37041c0.02646 0.0265 0.05292 0.0265 0.05292 0 0.02646-0.0265 0.02646-0.0529 0.02646-0.0529l-0.10583-0.18521v-0.0265c0.02646-0.0265 0.02646-0.0265 0.05292-0.0265l0.15875 0.10584c0.02646 0 0.05292 0 0.07938-0.0265v-0.0529l-0.37042-0.52917c-0.02646-0.0265-0.05292-0.0265-0.07938 0z" class="g4_1" display="block"/>
    </g>
    <g fill="#f8d841">
     <path d="m-32.593 278.79v0.0794c-0.02646 0.0265-0.05292 0.0265-0.07938 0l-0.44979-0.44979c-0.02646-0.0265-0.02646-0.0529 0-0.0794 0-0.0265 0.05292-0.0265 0.05292 0z" class="g5_1" display="block"/>
     <path d="m-32.461 278.63c0.02646 0.0265 0.02646 0.0529 0 0.0794 0 0.0265-0.05292 0.0265-0.05292 0-0.02646-0.0265-0.02646-0.0529 0-0.0794h0.05292z" class="g5_1" display="block"/>
     <path d="m-32.752 278.95v0.0794c-0.02646 0.0265-0.05292 0.0265-0.07937 0-0.02646-0.0265-0.02646-0.0529 0-0.0794s0.05292 0 0.07937 0z" class="g5_1" display="block"/>
     <path d="m-33.387 278.58-0.15875 0.15875v0.0794c0.02646 0.0265 0.05292 0.0265 0.07938 0l0.02646-0.0265h0.02646l0.42333 0.39688c0 0.0265 0.02646 0.0265 0.05292 0s0.02646-0.0529 0-0.0529l-0.39688-0.42333v-0.0265l0.02646-0.0265c0.02646-0.0265 0.02646-0.0529 0-0.0794h-0.07938z" class="g5_1" display="block"/>
     <path d="m-32.54 277.76c-0.02646 0.0265-0.02646 0.0529 0 0.0794l0.18521 0.26459v0.0265h-0.05292l-0.10583-0.0529h-0.05292v0.0265s-0.02646 0.0265 0 0.0529l0.05292 0.10584v0.0265h-0.05292l-0.26458-0.1852c-0.02646-0.0265-0.05292-0.0265-0.05292 0-0.02646 0.0265-0.02646 0.0529 0 0.0794l0.52917 0.37042c0.02646 0.0265 0.05292 0.0265 0.05292 0 0.02646-0.0265 0.02646-0.0265 0.02646-0.0529l-0.10583-0.18521v-0.0265c0.02646-0.0265 0.02646-0.0265 0.05292-0.0265l0.15875 0.10583h0.07938v-0.0265-0.0529l-0.37042-0.52916c-0.02646 0-0.05292-0.0265-0.07938 0z" class="g5_1" display="block"/>
    </g>
    <g fill="#fff">
     <path d="m-30.265 272.02c-0.89958 0.0794-1.7462-0.50271-1.7727-1.4552-0.02646-0.87312-0.05292-1.7198-0.07937-2.5929 0.39688-0.0264 0.60854-0.0529 1.0054-0.0794 0.02646 0.87312 0.05292 1.7462 0.07937 2.5929 0 0.44979 0.29104 0.635 0.71438 0.60854h0.15875c0.42333-0.0265 0.71438-0.26459 0.68792-0.71438 0-0.84666-0.02646-1.7198-0.05292-2.5929 0.39688-0.0265 0.60854-0.0265 1.0054-0.0529 0.02646 0.87312 0.05292 1.7462 0.07938 2.5929 0 0.9525-0.76729 1.6404-1.6933 1.6933h-0.13229z" class="g7_1" display="block"/>
     <path d="m-27.725 267.7c0.47625-0.0265 0.71438-0.0265 1.1642-0.0529 0.52917 0.84667 1.0583 1.7198 1.5875 2.5665h0.02646c-0.02646-0.87312-0.02646-1.7462-0.02646-2.6194 0.39688 0 0.60854-0.0265 1.0054-0.0265 0 1.3758 0.02646 2.7517 0.02646 4.101-0.44979 0.0265-0.68792 0.0265-1.1642 0.0265-0.50271-0.84667-1.0319-1.6933-1.561-2.54h-0.02646c0.02646 0.87312 0.02646 1.7462 0.05292 2.5929-0.39688 0.0264-0.60854 0.0264-1.0054 0.0529-0.02646-1.3758-0.05292-2.7252-0.07937-4.101z" class="g7_1" display="block"/>
     <path d="m-23.227 267.57c0.42333-0.0265 0.60854-0.0265 1.0319-0.0265v4.101c-0.39688 0.0265-0.60854 0.0265-1.0054 0.0265 0-1.3758 0-2.7517-0.02646-4.101z" class="g7_1" display="block"/>
     <path d="m-20.157 268.42h-1.2965v-0.87313c1.1906 0 2.4077 0 3.6248 0.0265v0.87312c-0.52917-0.0264-0.79375-0.0264-1.3229-0.0264v3.2544c-0.39688-0.0265-0.60854-0.0265-1.0054-0.0265v-3.2279z" class="g7_1" display="block"/>
     <path d="m-17.088 267.6c0.92604 0.0265 1.8256 0.0529 2.7517 0.10583v0.84667c-0.71438-0.0265-1.0583-0.0265-1.7462-0.0529v0.74083c0.55562 0.0265 0.84667 0.0265 1.4023 0.0529 0 0.34396 0 0.50271-0.02646 0.87313-0.55562-0.0265-0.82021-0.0529-1.4023-0.0794v0.79375c0.71438 0.0265 1.0848 0.0265 1.7992 0.0529 0 0.37041 0 0.52916-0.02646 0.87312-0.92604-0.0529-1.8521-0.0794-2.8046-0.10583 0.02646-1.3758 0.05292-2.7252 0.05292-4.101z" class="g7_1" display="block"/>
     <path d="m-12.061 271.07c0.68792 0.0529 1.1377-0.34396 1.1642-1.1377 0.02646-0.76729-0.42333-1.2171-1.1112-1.2435-0.21167-0.0265-0.3175-0.0265-0.55562-0.0265-0.02646 0.79375-0.02646 1.5875-0.05292 2.3812 0.21167 0 0.34396 0 0.55562 0.0265m-1.5081-3.3338c0.66146 0.0265 0.97896 0.0529 1.6404 0.0794 1.1642 0.0529 2.1167 1.0319 2.0637 2.196-0.02646 1.1642-1.0319 2.0373-2.1696 1.905-0.635-0.0265-0.97896-0.0529-1.614-0.0794 0.02646-1.3758 0.05292-2.7252 0.07938-4.101z" class="g7_1" display="block"/>
     <path d="m-40.636 262.92c0.52917-0.0529 0.79375-0.0794 1.3229-0.15875 0.23812 1.1642 0.47625 2.3283 0.71438 3.4925 0.29104-1.2171 0.55562-2.4342 0.82021-3.6512 0.44979-0.0529 0.68792-0.0794 1.1377-0.13229 0.26458 1.1642 0.52917 2.3548 0.79375 3.519h0.02646c0.26458-1.2171 0.50271-2.4342 0.76729-3.6512 0.52917-0.0529 0.79375-0.0794 1.2965-0.10583-0.42333 1.7462-0.87312 3.4925-1.2965 5.2652-0.60854 0.0529-0.92604 0.0794-1.5346 0.1323-0.21167-0.97896-0.39688-1.9579-0.60854-2.9633h-0.02646c-0.21167 1.0319-0.42333 2.0638-0.60854 3.0956-0.635 0.0794-0.92604 0.10583-1.561 0.18521-0.42333-1.6669-0.82021-3.3602-1.2435-5.0271z" class="g7_1" display="block"/>
     <path d="m-7.4046 262.28c0.55562 0.0529 0.84667 0.0794 1.4288 0.13229 0.37042 1.1112 0.74083 2.2225 1.1112 3.3338h0.02646l1.1112-3.0956c0.55562 0.0529 0.84667 0.10583 1.4023 0.15875 0.3175 1.7462 0.60854 3.519 0.92604 5.2652-0.52917-0.0529-0.76729-0.0794-1.2965-0.15875-0.15875-1.1377-0.3175-2.2754-0.44979-3.4396h-0.02646c-0.37042 1.0848-0.74083 2.1696-1.1112 3.2808-0.44979-0.0529-0.68792-0.0794-1.1377-0.13229-0.37042-1.1642-0.74083-2.3283-1.1377-3.4925-0.13229 1.1112-0.26458 2.2225-0.39688 3.3602-0.52917-0.0529-0.79375-0.0794-1.3229-0.13229l0.87312-5.08z" class="g7_1" display="block"/>
     <path d="m-33.254 262.18c1.1642-0.0794 2.3283-0.15875 3.4925-0.21167-0.02646 0.42334-0.02646 0.635-0.05292 1.0848-0.71438 0.0265-1.4552 0.0794-2.1696 0.1323v0.92604c0.71438-0.0529 1.0583-0.0529 1.7727-0.10584v1.0848c-0.71438 0.0265-1.0583 0.0529-1.7727 0.10583v0.97896c0.76729-0.0529 1.5081-0.10584 2.2754-0.13229v1.0848c-1.1906 0.0529-2.3548 0.13229-3.5454 0.21166z" class="g7_1" display="block"/>
     <path d="m-23.809 262.84c-0.66146 0-0.97896 0.0265-1.6404 0.0265v-1.0848c1.5081-0.0264 3.0162-0.0529 4.5244-0.0529v1.0848h-1.6404v4.0746c-0.50271 0.0265-0.74083 0.0265-1.2435 0.0265z" class="g7_1" display="block"/>
     <path d="m-18.808 261.75h1.2435v2.0638c0.74083 0.0264 1.4817 0.0529 2.196 0.0794v-2.0638c0.50271 0 0.76729 0.0265 1.27 0.0529v5.1594c-0.50271-0.0265-0.76729-0.0529-1.27-0.0529v-2.0373c-0.71438-0.0265-1.4552-0.0265-2.196-0.0529v2.0108h-1.2435z" class="g7_1" display="block"/>
     <path d="m-11.188 263.21c-0.18521 0.60855-0.37042 1.2171-0.55562 1.8521 0.44979 0.0265 0.68792 0.0265 1.1377 0.0794-0.18521-0.66146-0.37042-1.2965-0.55562-1.9315h-0.02646m0.87312 2.9369c-0.68792-0.0265-1.0319-0.0529-1.7462-0.10583-0.10583 0.42333-0.18521 0.66145-0.29104 1.0848-0.52917-0.0265-0.79375-0.0529-1.2965-0.0794 0.50271-1.6933 1.0319-3.3867 1.561-5.08 0.68792 0.0529 1.0054 0.0529 1.6933 0.10584 0.58208 1.7727 1.1377 3.519 1.6933 5.2917-0.50271-0.0529-0.76729-0.0529-1.2965-0.10583-0.13229-0.42333-0.18521-0.66146-0.3175-1.1112z" class="g7_1" display="block"/>
     <path d="m-27.354 261.75c-0.9525 0.0529-2.0108 0.60854-2.0373 1.6933 0 1.614 2.4342 1.1642 2.5665 2.0638 0.05292 0.23812-0.23812 0.44979-0.58208 0.44979-0.635 0-1.1642-0.13229-1.6933-0.42333-0.02646 0.44979-0.02646 0.68791-0.05292 1.0848 0.55562 0.37042 1.1112 0.44979 1.7198 0.47625 0.89958 0.0265 2.0108-0.60854 2.0108-1.6669 0.02646-1.614-2.3812-1.2435-2.5665-2.0902-0.05292-0.21167 0.21167-0.42334 0.60854-0.42334 0.58208-0.0529 1.0319 0.10584 1.3494 0.23813 0.02646-0.50271 0.02646-0.58209 0.05292-1.0848-0.29104-0.15875-0.74083-0.34396-1.3758-0.3175z" class="g7_1" display="block"/>
     <path d="m-28.439 304.38 0.60854 0.26458-0.87312 1.9844 1.0319 0.44979-0.23812 0.52917-1.6404-0.71438z" class="g7_1" display="block"/>
     <path d="m-26.005 307.6c0.39688 0.10583 0.82021-0.13229 0.92604-0.60854 0.13229-0.42334-0.10583-0.82021-0.50271-0.9525-0.39688-0.10584-0.79375 0.13229-0.92604 0.58208-0.10583 0.44979 0.10583 0.87312 0.50271 0.97896m0.58208-2.1431c0.79375 0.21167 1.2171 0.97896 1.0319 1.7198-0.23812 0.79375-0.97896 1.2436-1.7727 1.0054-0.79375-0.21167-1.2171-0.97896-1.0054-1.7462 0.21167-0.76729 0.9525-1.1906 1.7462-0.97896z" class="g7_1" display="block"/>
     <path d="m-23.756 305.91 0.66146 0.0794 0.635 1.3494c0.07938 0.18521 0.18521 0.47625 0.18521 0.47625s0-0.29104 0.02646-0.44979l0.13229-1.27 0.66146 0.0529-0.29104 2.7252-0.66146-0.0529-0.635-1.3494c-0.07938-0.21167-0.18521-0.50271-0.18521-0.50271s0 0.29104-0.02646 0.47625l-0.10583 1.27-0.68792-0.0794z" class="g7_1" display="block"/>
     <path d="m-19.919 308.27c0.44979-0.0265 0.71438-0.3175 0.68792-0.84667-0.02646-0.50271-0.3175-0.76729-0.76729-0.74083l-0.29104 0.0265 0.07938 1.5875zm-1.0583-2.1167 0.9525-0.0529c0.87312-0.0265 1.4552 0.42334 1.5081 1.2965 0.02646 0.87313-0.47625 1.4023-1.3494 1.4552l-0.97896 0.0529z" class="g7_1" display="block"/>
     <path d="m-16.612 307.84c0.39688-0.0794 0.635-0.50271 0.52917-0.9525-0.07937-0.44979-0.47625-0.71437-0.87312-0.60854-0.39688 0.0794-0.66146 0.47625-0.55562 0.92604 0.10583 0.44979 0.50271 0.71438 0.89958 0.635m-0.47625-2.1696c0.79375-0.18521 1.5346 0.29104 1.6933 1.0583 0.18521 0.79375-0.29104 1.5346-1.0848 1.7198-0.82021 0.15875-1.5346-0.3175-1.7198-1.1112-0.15875-0.76729 0.29104-1.4817 1.1112-1.6669z" class="g7_1" display="block"/>
     <path d="m-15.421 305.3 0.635-0.23812 1.1642 0.89958c0.18521 0.13229 0.39688 0.34396 0.39688 0.34396s-0.13229-0.26458-0.18521-0.42333l-0.47625-1.1906 0.60854-0.26458 1.0319 2.54-0.635 0.26458-1.1906-0.89958c-0.15875-0.13229-0.37042-0.34396-0.37042-0.34396h-0.02646s0.15875 0.26458 0.21167 0.42333l0.47625 1.1906-0.60854 0.23812z" class="g7_1" display="block"/>
    </g>
   </g>
  </g>
 </g>
</svg>
