<svg xmlns="http://www.w3.org/2000/svg" height="220" width="220" version="1.1" viewBox="0 0 58.208332 58.208335">
 <g transform="translate(0 -238.79)">
  <g transform="translate(-5.8333e-8 -.0000018318)">
   <g transform="matrix(.94228 0 0 .94228 64.201 -3.0565)">
    <g stroke-width=".26458">
     <path d="m-20.074 298.35s11.483-4.0217 8.3079-13.547c-1.2435-3.7836-8.3873-7.1967-12.144-9.6044-3.7571-2.4342-11.245-4.8419-8.3873-10.848 0.97896-2.0902 3.8894-2.5664 7.0908-1.3229 3.0956 1.1906 4.789 3.8629 9.0488 6.2706 0.29104 0.15875 0.26458-0.82021 0.21167-1.1642-0.13229-0.82021-1.27-1.614-1.3758-2.4606-0.07937-0.76729 1.1377-1.7727 0.76729-2.4342-0.9525-1.7198-4.154-2.9633-6.985-3.8629-5.8208-1.8521-11.377 1.0319-12.938 4.154-3.0692 6.1383 1.2435 12.065 9.6573 16.404 6.8527 3.5454 12.965 5.2388 12.065 11.615-0.34396 2.5135-5.3181 6.7998-5.3181 6.7998z" display="block" class="g27_1" fill="#050604"/>
     <path d="m-34.89 262.82s1.3494-1.8256 2.5135-2.4342c1.4552-0.76729 3.5719-1.27 4.3127-1.2435 0.60854 0.0529 1.1377-0.0794 1.7462-0.0265 0.66146 0.0265 1.4552 0.15875 2.1167 0.34396 1.1377 0.3175 3.0956 1.0319 4.0746 1.5081 0.84667 0.42333 2.831 1.6933 3.0427 2.2754 0.07937 0.18521-1.1906-0.13229-1.5081-0.3175-1.0848-0.635-1.3229-0.89958-2.3812-1.4288-1.1642-0.55562-3.2808-1.5875-4.8154-1.6933-0.9525-0.0529-1.9579-0.0794-3.0427 0-0.50271 0.0265-2.196 0.50271-3.4131 1.1642-1.4817 0.76729-2.6458 1.8521-2.6458 1.8521z" display="block" class="g7_1" fill="#fff"/>
     <path d="m-33.832 267.11s3.0956 4.4715 4.9212 5.6621c2.8046 1.8256 5.9002 3.2808 8.5725 5.0271 2.249 1.4288 5.7679 3.0427 7.0644 5.3446 0.89958 1.6404 1.2435 6.0854 1.2435 6.0854s-0.29104-2.7781-1.4552-5.0271c-0.50271-0.9525-1.5875-1.905-2.3283-2.4342-1.3494-1.0319-3.2544-2.0373-4.736-3.0162-1.6933-1.0848-2.7781-1.8256-4.8948-2.9369-1.6933-0.87312-4.1275-2.5665-5.9531-4.3656-1.0848-1.0848-2.4342-4.3392-2.4342-4.3392z" display="block" class="g7_1" fill="#fff"/>
     <path d="m-64.206 293.33s7.8052 2.0108 11.774 1.4023c6.8262-1.0583 10.372-9.3398 15.055-12.488 1.1112-0.74084 4.3392-1.2171 4.3392-1.2171s-3.7306-3.5719-8.0169-2.9369c-6.8792 1.0583-9.6308 8.6519-15.875 12.885-3.6777 2.5135-7.276 2.3548-7.276 2.3548z" display="block" class="g27_1" fill="#050604"/>
     <path d="m-60.264 293.14s1.6933-0.0265 2.54-0.37042c0.97896-0.39687 1.9315-1.0319 2.7781-1.7727 1.7992-1.561 3.6512-3.6512 5.424-5.6621 1.8256-2.0902 4.2862-4.5244 6.4029-5.5298 0.84667-0.42333 2.1431-0.3175 3.0956-0.3175 1.6404 0.0265 5.3975 0.76729 5.3975 0.76729s-2.8575-1.5346-4.3127-1.7992c-1.1112-0.21167-2.6723 0.15875-3.7042 0.66145-5.0006 2.4606-9.0488 9.525-13.758 12.515-0.42333 0.26458-1.0583 0.44979-1.5346 0.635-0.68792 0.29104-2.3283 0.87312-2.3283 0.87312z" display="block" class="g7_1" fill="#fff"/>
     <path d="m-56.136 298.04s7.8317 2.0108 11.774 1.4023c6.8262-1.0583 10.398-9.3398 15.055-12.488 1.1112-0.74083 4.3392-1.2171 4.3392-1.2171s-3.7306-3.5719-8.0169-2.9104c-6.8792 1.0319-9.6044 8.6254-15.875 12.859-3.6777 2.5135-7.276 2.3548-7.276 2.3548z" display="block" class="g27_1" fill="#050604"/>
     <path d="m-52.194 297.85s1.6933-0.0265 2.54-0.37041c0.97896-0.39688 1.9315-1.0054 2.7781-1.7462 1.7992-1.5875 3.6512-3.6777 5.424-5.6621 1.8521-2.1167 4.2862-4.5508 6.4029-5.5562 0.84667-0.42333 2.1431-0.3175 3.0956-0.29104 1.6404 0 5.3975 0.74084 5.3975 0.74084s-2.8575-1.5346-4.3127-1.7992c-1.1112-0.18521-2.6723 0.18521-3.6777 0.66146-5.0006 2.4871-9.0488 9.525-13.758 12.515-0.42333 0.26458-1.0848 0.47625-1.561 0.66146-0.68792 0.26458-2.3283 0.84666-2.3283 0.84666z" display="block" class="g7_1" fill="#fff"/>
     <path d="m-48.278 302.64s7.8317 2.0373 11.774 1.4023c6.8262-1.0583 10.398-9.3398 15.055-12.488 1.1112-0.74083 4.3392-1.2171 4.3392-1.2171s-3.7306-3.5719-8.0169-2.9104c-6.8792 1.0319-9.6044 8.6254-15.875 12.885-3.6777 2.4871-7.276 2.3283-7.276 2.3283z" display="block" class="g27_1" fill="#050604"/>
     <path d="m-44.336 302.45s1.6933-0.0264 2.54-0.37041c0.97896-0.39688 1.9315-1.0054 2.7781-1.7462 1.7992-1.5875 3.6512-3.6512 5.424-5.6621 1.8521-2.1167 4.2862-4.5508 6.4029-5.5562 0.84667-0.39687 2.1431-0.29104 3.0956-0.29104 1.6404 0 5.3975 0.74084 5.3975 0.74084s-2.8575-1.5346-4.3127-1.7992c-1.0848-0.18521-2.6723 0.18521-3.6777 0.66146-5.0006 2.4871-9.0488 9.525-13.758 12.515-0.42333 0.26458-1.0848 0.47625-1.561 0.66146-0.68792 0.26458-2.3283 0.84666-2.3283 0.84666z" display="block" class="g7_1" fill="#fff"/>
     <path d="m-7.162 300.34c-0.05292 0.18521-0.07937 0.37041-0.13229 0.50271-0.05292 0.15875-0.13229 0.29104-0.21167 0.42333-0.07937 0.15875-0.18521 0.29104-0.29104 0.42333-0.44979 0.60854-0.97896 0.92604-1.561 0.92604-0.55562 0-1.1113-0.21166-1.6669-0.635-0.55562-0.42333-0.87312-0.89958-1.0054-1.4817-0.13229-0.55563 0.02646-1.1377 0.50271-1.7462 0.23812-0.3175 0.58208-0.635 1.0319-1.0054l0.47625 0.37042c-0.39688 0.26458-0.66146 0.47625-0.79375 0.58208-0.13229 0.13229-0.23812 0.23813-0.34396 0.37042-0.3175 0.42333-0.42333 0.84666-0.29104 1.27 0.15875 0.42333 0.42333 0.79375 0.84667 1.1112 0.44979 0.34396 0.89958 0.50271 1.3229 0.50271 0.44979-0.0265 0.82021-0.23813 1.1377-0.635 0.10583-0.10584 0.18521-0.23813 0.23812-0.34396 0.07937-0.13229 0.13229-0.26459 0.15875-0.42334 0.05292-0.13229 0.10583-0.3175 0.13229-0.55562zm-4.9477 5.9531-3.175-3.2015 1.8256-1.7992 0.3175 0.34396-1.3494 1.3229 1.0848 1.0848 1.1112-1.1112 0.34396 0.34396-1.1377 1.1112 1.4552 1.4552zm-4.3921 1.3758 1.2171-0.92605-1.7727-1.0848zm0.02646 2.1696-1.3229-4.6831 0.50271-0.39687 4.154 2.5135-0.52917 0.42333-1.1642-0.68791-1.5346 1.1642 0.37042 1.2965zm-4.9477 2.7517-0.82021-1.6933-2.5135-1.7198 0.66146-0.3175 1.9315 1.3229 0.26458-2.3812 0.52917-0.26459-0.3175 3.0692 0.84667 1.7198zm-4.6831 1.8256-1.2435-3.8629-1.5346 0.50271-0.13229-0.44979 3.6777-1.1906 0.13229 0.44979-1.5346 0.50271 1.2435 3.8629zm-3.3867 0.87313-0.97896-4.4186 0.635-0.13229 0.97896 4.4185zm-2.0638 0.1852c-0.15875 0.1323-0.3175 0.21167-0.47625 0.26459-0.13229 0.0529-0.29104 0.10583-0.42333 0.15875-0.15875 0.0265-0.34396 0.0529-0.52917 0.0794-0.74083 0.0794-1.3229-0.10583-1.7198-0.50271-0.39688-0.42333-0.635-0.97895-0.68792-1.6404-0.07937-0.68792 0.05292-1.27 0.37042-1.7727 0.3175-0.47625 0.84667-0.74083 1.614-0.82021 0.39688-0.0529 0.87312-0.0265 1.4288 0.0529l0.05292 0.60854c-0.44979-0.13229-0.79375-0.18521-0.9525-0.18521-0.18521-0.0265-0.34396-0.0265-0.50271 0-0.52917 0.0529-0.89958 0.26458-1.1112 0.66146-0.21167 0.39687-0.29104 0.84667-0.23812 1.3758 0.05292 0.55563 0.23812 1.0054 0.55562 1.3229s0.74083 0.44979 1.2435 0.39687c0.13229-0.0265 0.29104-0.0529 0.42333-0.0794 0.13229-0.0529 0.26458-0.10583 0.39688-0.15875 0.13229-0.0794 0.3175-0.15875 0.50271-0.29104zm-9.9483-1.4023 1.5346 0.15875-0.55562-2.0373zm-1.4552 1.5875 2.2754-4.3127 0.635 0.0529 1.27 4.6831-0.68792-0.0529-0.37042-1.3229-1.905-0.18521-0.60854 1.1906zm-3.8365-0.89958 1.0583-4.3921 2.4606 0.58208-0.10583 0.47625-1.8256-0.44979-0.34396 1.4023 1.5346 0.39687-0.13229 0.4498-1.5346-0.37042-0.37042 1.5875 1.9579 0.47625-0.13229 0.47625zm-4.101-1.4817 0.21167-0.60854c0.29104 0.29104 0.50271 0.47625 0.635 0.55563 0.15875 0.10583 0.29104 0.15875 0.42333 0.21166 0.23812 0.10584 0.44979 0.10584 0.66146 0.0265 0.18521-0.0794 0.3175-0.21167 0.37042-0.39687 0.05292-0.15875 0.07938-0.29105 0.02646-0.4498-0.02646-0.13229-0.15875-0.34395-0.39688-0.60854l-0.21167-0.29104c-0.3175-0.37042-0.50271-0.66146-0.58208-0.89958-0.05292-0.23813-0.05292-0.44979 0.02646-0.68792 0.07938-0.18521 0.21167-0.37042 0.37042-0.50271s0.37042-0.21166 0.58208-0.26458c0.21167-0.0265 0.44979 0 0.74083 0.10583 0.3175 0.13229 0.635 0.29104 0.9525 0.55563l-0.18521 0.52916c-0.26458-0.23812-0.47625-0.37041-0.58208-0.44979-0.10583-0.0794-0.21167-0.13229-0.3175-0.15875-0.26458-0.10583-0.44979-0.10583-0.635-0.0265-0.15875 0.10584-0.26458 0.21167-0.3175 0.34396-0.02646 0.0794-0.02646 0.18521-0.02646 0.3175 0.02646 0.10584 0.07937 0.21167 0.15875 0.3175 0.05292 0.10584 0.15875 0.23813 0.29104 0.37042l0.23812 0.29104c0.3175 0.37042 0.50271 0.66146 0.55562 0.89958 0.07937 0.23813 0.05292 0.47625-0.02646 0.71438-0.13229 0.34396-0.34396 0.58208-0.68792 0.74083-0.34396 0.13229-0.76729 0.13229-1.2435-0.0529-0.15875-0.0529-0.3175-0.10584-0.44979-0.18521-0.13229-0.0794-0.3175-0.21167-0.58208-0.39688m-4.6302-2.1696 2.0902-4.0217 0.55562 0.29104 0.42333 4.154 1.614-3.0956 0.47625 0.26458-2.0902 3.9952-0.55562-0.29104-0.39688-4.154-1.6404 3.1221zm-2.6458-3.8894 1.27 0.92605 0.50271-2.0373zm-2.0373 0.66146 4.101-2.6194 0.52917 0.37041-1.2435 4.7096-0.55562-0.39688 0.34396-1.3229-1.561-1.1112-1.1377 0.71437zm-3.7306-3.5719 2.3548-4.0217 0.44979 0.44979-1.8785 3.175 3.1485-1.9315 0.42333 0.4498-1.9315 3.0692 3.2015-1.7992 0.37042 0.37041-4.101 2.3019-0.44979-0.44979 1.905-3.0427-3.0427 1.8785zm-3.3867-4.3921 0.52917-0.37041c0.07937 0.37041 0.15875 0.66146 0.21167 0.82021 0.07937 0.15875 0.15875 0.29104 0.23812 0.39687 0.15875 0.21167 0.34396 0.34396 0.52917 0.37042 0.21167 0.0265 0.39688 0 0.55562-0.13229 0.10583-0.0794 0.21167-0.18521 0.26458-0.3175 0.05292-0.1323 0.05292-0.39688 0.02646-0.7673l-0.05292-0.34395c-0.05292-0.47625-0.05292-0.82021 0.02646-1.0583 0.07937-0.23812 0.21167-0.42333 0.39688-0.55562s0.37042-0.21167 0.60854-0.21167c0.21167-0.0265 0.42333 0 0.60854 0.10583 0.21167 0.0794 0.39688 0.23813 0.55562 0.47625 0.21167 0.29105 0.37042 0.60855 0.50271 1.0054l-0.47625 0.34396c-0.07937-0.34396-0.15875-0.58208-0.21167-0.71438-0.05292-0.10583-0.10583-0.21166-0.18521-0.3175-0.15875-0.21166-0.3175-0.3175-0.50271-0.34395-0.18521-0.0265-0.34396 0-0.44979 0.0794-0.07937 0.0794-0.13229 0.15875-0.18521 0.26458-0.05292 0.10584-0.07937 0.21167-0.07937 0.34396s0.02646 0.29104 0.05292 0.47625l0.02646 0.37042c0.05292 0.47625 0.05292 0.84667-0.02646 1.0583-0.07937 0.23813-0.21167 0.42334-0.42333 0.58209-0.29104 0.21166-0.60854 0.29104-0.97896 0.21166-0.37042-0.0529-0.71438-0.29104-1.0319-0.71437l-0.23812-0.39688c-0.07937-0.13229-0.15875-0.37041-0.29104-0.66146z" display="block" class="g27_1" fill="#050604"/>
    </g>
    <path d="m-7.162 300.34c-0.05292 0.18521-0.07937 0.37041-0.13229 0.50271-0.05292 0.15875-0.13229 0.29104-0.21167 0.42333-0.07937 0.15875-0.18521 0.29104-0.29104 0.42333-0.44979 0.60854-0.97896 0.92604-1.561 0.92604-0.55562 0-1.1113-0.21166-1.6669-0.635-0.55562-0.42333-0.87312-0.89958-1.0054-1.4817-0.13229-0.55563 0.02646-1.1377 0.50271-1.7462 0.23812-0.3175 0.58208-0.635 1.0319-1.0054l0.47625 0.37042c-0.39688 0.26458-0.66146 0.47625-0.79375 0.58208-0.13229 0.13229-0.23812 0.23813-0.34396 0.37042-0.3175 0.42333-0.42333 0.84666-0.29104 1.27 0.15875 0.42333 0.42333 0.79375 0.84667 1.1112 0.44979 0.34396 0.89958 0.50271 1.3229 0.50271 0.44979-0.0265 0.82021-0.23813 1.1377-0.635 0.10583-0.10584 0.18521-0.23813 0.23812-0.34396 0.07937-0.13229 0.13229-0.26459 0.15875-0.42334 0.05292-0.13229 0.10583-0.3175 0.13229-0.55562zm-4.9477 5.9531-3.175-3.2015 1.8256-1.7992 0.3175 0.34396-1.3494 1.3229 1.0848 1.0848 1.1112-1.1112 0.34396 0.34396-1.1377 1.1112 1.4552 1.4552zm-4.3921 1.3758 1.2171-0.92605-1.7727-1.0848zm0.02646 2.1696-1.3229-4.6831 0.50271-0.39687 4.154 2.5135-0.52917 0.42333-1.1642-0.68791-1.5346 1.1642 0.37042 1.2965zm-4.9477 2.7517-0.82021-1.6933-2.5135-1.7198 0.66146-0.3175 1.9315 1.3229 0.26458-2.3812 0.52917-0.26459-0.3175 3.0692 0.84667 1.7198zm-4.6831 1.8256-1.2435-3.8629-1.5346 0.50271-0.13229-0.44979 3.6777-1.1906 0.13229 0.44979-1.5346 0.50271 1.2435 3.8629zm-3.3867 0.87313-0.97896-4.4186 0.635-0.13229 0.97896 4.4185zm-2.0638 0.1852c-0.15875 0.1323-0.3175 0.21167-0.47625 0.26459-0.13229 0.0529-0.29104 0.10583-0.42333 0.15875-0.15875 0.0265-0.34396 0.0529-0.52917 0.0794-0.74083 0.0794-1.3229-0.10583-1.7198-0.50271-0.39688-0.42333-0.635-0.97895-0.68792-1.6404-0.07937-0.68792 0.05292-1.27 0.37042-1.7727 0.3175-0.47625 0.84667-0.74083 1.614-0.82021 0.39688-0.0529 0.87312-0.0265 1.4288 0.0529l0.05292 0.60854c-0.44979-0.13229-0.79375-0.18521-0.9525-0.18521-0.18521-0.0265-0.34396-0.0265-0.50271 0-0.52917 0.0529-0.89958 0.26458-1.1112 0.66146-0.21167 0.39687-0.29104 0.84667-0.23812 1.3758 0.05292 0.55563 0.23812 1.0054 0.55562 1.3229s0.74083 0.44979 1.2435 0.39687c0.13229-0.0265 0.29104-0.0529 0.42333-0.0794 0.13229-0.0529 0.26458-0.10583 0.39688-0.15875 0.13229-0.0794 0.3175-0.15875 0.50271-0.29104zm-9.9483-1.4023 1.5346 0.15875-0.55562-2.0373zm-1.4552 1.5875 2.2754-4.3127 0.635 0.0529 1.27 4.6831-0.68792-0.0529-0.37042-1.3229-1.905-0.18521-0.60854 1.1906zm-3.8365-0.89958 1.0583-4.3921 2.4606 0.58208-0.10583 0.47625-1.8256-0.44979-0.34396 1.4023 1.5346 0.39687-0.13229 0.4498-1.5346-0.37042-0.37042 1.5875 1.9579 0.47625-0.13229 0.47625zm-4.101-1.4817 0.21167-0.60854c0.29104 0.29104 0.50271 0.47625 0.635 0.55563 0.15875 0.10583 0.29104 0.15875 0.42333 0.21166 0.23812 0.10584 0.44979 0.10584 0.66146 0.0265 0.18521-0.0794 0.3175-0.21167 0.37042-0.39687 0.05292-0.15875 0.07938-0.29105 0.02646-0.4498-0.02646-0.13229-0.15875-0.34395-0.39688-0.60854l-0.21167-0.29104c-0.3175-0.37042-0.50271-0.66146-0.58208-0.89958-0.05292-0.23813-0.05292-0.44979 0.02646-0.68792 0.07938-0.18521 0.21167-0.37042 0.37042-0.50271s0.37042-0.21166 0.58208-0.26458c0.21167-0.0265 0.44979 0 0.74083 0.10583 0.3175 0.13229 0.635 0.29104 0.9525 0.55563l-0.18521 0.52916c-0.26458-0.23812-0.47625-0.37041-0.58208-0.44979-0.10583-0.0794-0.21167-0.13229-0.3175-0.15875-0.26458-0.10583-0.44979-0.10583-0.635-0.0265-0.15875 0.10584-0.26458 0.21167-0.3175 0.34396-0.02646 0.0794-0.02646 0.18521-0.02646 0.3175 0.02646 0.10584 0.07937 0.21167 0.15875 0.3175 0.05292 0.10584 0.15875 0.23813 0.29104 0.37042l0.23812 0.29104c0.3175 0.37042 0.50271 0.66146 0.55562 0.89958 0.07937 0.23813 0.05292 0.47625-0.02646 0.71438-0.13229 0.34396-0.34396 0.58208-0.68792 0.74083-0.34396 0.13229-0.76729 0.13229-1.2435-0.0529-0.15875-0.0529-0.3175-0.10584-0.44979-0.18521-0.13229-0.0794-0.3175-0.21167-0.58208-0.39688zm-4.6302-2.1696 2.0902-4.0217 0.55562 0.29104 0.42333 4.154 1.614-3.0956 0.47625 0.26458-2.0902 3.9952-0.55562-0.29104-0.39688-4.154-1.6404 3.1221zm-2.6458-3.8894 1.27 0.92605 0.50271-2.0373zm-2.0373 0.66146 4.101-2.6194 0.52917 0.37041-1.2435 4.7096-0.55562-0.39688 0.34396-1.3229-1.561-1.1112-1.1377 0.71437zm-3.7306-3.5719 2.3548-4.0217 0.44979 0.44979-1.8785 3.175 3.1485-1.9315 0.42333 0.4498-1.9315 3.0692 3.2015-1.7992 0.37042 0.37041-4.101 2.3019-0.44979-0.44979 1.905-3.0427-3.0427 1.8785zm-3.3867-4.3921 0.52917-0.37041c0.07937 0.37041 0.15875 0.66146 0.21167 0.82021 0.07937 0.15875 0.15875 0.29104 0.23812 0.39687 0.15875 0.21167 0.34396 0.34396 0.52917 0.37042 0.21167 0.0265 0.39688 0 0.55562-0.13229 0.10583-0.0794 0.21167-0.18521 0.26458-0.3175 0.05292-0.1323 0.05292-0.39688 0.02646-0.7673l-0.05292-0.34395c-0.05292-0.47625-0.05292-0.82021 0.02646-1.0583 0.07937-0.23812 0.21167-0.42333 0.39688-0.55562s0.37042-0.21167 0.60854-0.21167c0.21167-0.0265 0.42333 0 0.60854 0.10583 0.21167 0.0794 0.39688 0.23813 0.55562 0.47625 0.21167 0.29105 0.37042 0.60855 0.50271 1.0054l-0.47625 0.34396c-0.07937-0.34396-0.15875-0.58208-0.21167-0.71438-0.05292-0.10583-0.10583-0.21166-0.18521-0.3175-0.15875-0.21166-0.3175-0.3175-0.50271-0.34395-0.18521-0.0265-0.34396 0-0.44979 0.0794-0.07937 0.0794-0.13229 0.15875-0.18521 0.26458-0.05292 0.10584-0.07937 0.21167-0.07937 0.34396s0.02646 0.29104 0.05292 0.47625l0.02646 0.37042c0.05292 0.47625 0.05292 0.84667-0.02646 1.0583-0.07937 0.23813-0.21167 0.42334-0.42333 0.58209-0.29104 0.21166-0.60854 0.29104-0.97896 0.21166-0.37042-0.0529-0.71438-0.29104-1.0319-0.71437l-0.23812-0.39688c-0.07937-0.13229-0.15875-0.37041-0.29104-0.66146z" display="block" stroke="#050604" stroke-width=".40422" class="g159_1" fill="none"/>
   </g>
  </g>
 </g>
</svg>
