<svg xmlns="http://www.w3.org/2000/svg" height="220" width="220" version="1.1" viewBox="0 0 58.208332 58.208335">
 <g transform="translate(0 -238.79)">
  <g transform="translate(-5.8333e-8 -.0000018318)">
   <g transform="translate(.37798 .56696)">
    <path d="m28.715 238.68c-5.7944 0-16.51 1.5081-21.96 4.6831-7.1967 25.453 2.5665 42.783 21.96 52.599 19.394-9.816 29.184-27.226 21.987-52.599-5.4504-3.175-16.166-4.6831-21.987-4.6831z" class="g147_1" stroke-width=".26458" display="block" fill="#9e834a"/>
    <path d="m28.715 238.68c-5.7944 0-16.51 1.5081-21.96 4.6831-7.1967 25.453 2.5665 42.783 21.96 52.599 19.394-9.816 29.184-27.226 21.987-52.599-5.4504-3.175-16.166-4.6831-21.987-4.6831z" display="block" class="g148_1" stroke="#9e834a" stroke-miterlimit="282" stroke-width=".32055" fill="none"/>
    <path d="m28.715 240.32c-5.6885 0-12.118 0.71438-20.532 4.154-6.2706 22.225 0.97896 40.058 20.532 49.768 19.553-9.7102 26.829-27.543 20.558-49.768-8.4138-3.4396-14.843-4.154-20.558-4.154z" class="g149_1" stroke-width=".26458" display="block" fill="#203971"/>
    <path d="m28.715 240.32c-5.6885 0-12.118 0.71438-20.532 4.154-6.2706 22.225 0.97896 40.058 20.532 49.768 19.553-9.7102 26.829-27.543 20.558-49.768-8.4138-3.4396-14.843-4.154-20.558-4.154z" display="block" class="g150_1" stroke="#203971" stroke-miterlimit="282" stroke-width=".32055" fill="none"/>
    <path d="m28.741 294.21c18.812-11.615 23.019-28.231 17.304-50.985-5.5033-2.0902-11.589-2.9369-17.277-2.9369zm-0.05292-53.922c-5.6621 0-11.774 0.84666-17.277 2.9369-5.715 22.754-1.5081 39.37 17.33 50.985z" class="g7_1" stroke-width=".26458" display="block" fill="#fff"/>
    <path d="m28.741 294.21c18.812-11.615 23.019-28.231 17.304-50.985-5.5033-2.0902-11.589-2.9369-17.277-2.9369zm-0.05292-53.922c-5.6621 0-11.774 0.84666-17.277 2.9369-5.715 22.754-1.5081 39.37 17.33 50.985z" display="block" class="g151_1" stroke="#fff" stroke-miterlimit="282" stroke-width=".32055" fill="none"/>
    <path d="m28.741 240.29c-5.715 0-11.509 0.84666-16.219 2.4871-5.9002 23.865-1.1642 39.979 16.219 50.985z" class="g152_1" stroke-width=".26458" display="block" fill="#ee1d23"/>
    <path d="m28.741 240.29c-5.715 0-11.509 0.84666-16.219 2.4871-5.9002 23.865-1.1642 39.979 16.219 50.985z" display="block" class="g153_1" stroke="#ee1d23" stroke-miterlimit="282" stroke-width=".32055" fill="none"/>
    <path d="m28.741 240.29c5.715 0 11.509 0.84666 16.192 2.4871 5.9267 23.865 1.1642 39.979-16.192 50.985z" class="g154_1" stroke-width=".26458" display="block" fill="#dd1f25"/>
    <path d="m28.741 240.29c5.715 0 11.509 0.84666 16.192 2.4871 5.9267 23.865 1.1642 39.979-16.192 50.985z" display="block" class="g155_1" stroke="#dd1f25" stroke-miterlimit="282" stroke-width=".32055" fill="none"/>
    <path d="m21.359 276.28c-2.54 1.7462-4.5508 2.3548-6.8792 2.9898l-1.4023-2.196c2.1431-1.0848 4.3656-2.5929 6.5881-4.789 0.18521 2.1431 1.1906 3.6248 1.6933 3.9952z" class="g7_1" stroke-width=".26458" display="block" fill="#fff"/>
    <path d="m21.015 276.2c-2.4077 1.6404-5.7415 2.7781-9.5515 3.3338l-0.76729-1.1642c3.2544-1.2436 6.4029-3.0692 8.8635-5.6356 0.37042 1.6669 0.92604 2.7517 1.4552 3.466z" class="g147_1" stroke-width=".26458" display="block" fill="#9e834a"/>
    <g stroke-width=".26458" fill="#fff">
     <path d="m14.639 266.17c0 0.89959-0.74083 1.6404-1.6669 1.6404-0.92604 0-1.6669-0.74083-1.6669-1.6404 0-0.92604 0.74083-1.6669 1.6669-1.6669 0.92604 0 1.6669 0.74083 1.6669 1.6669z" class="g7_1" display="block"/>
     <path d="m14.454 262.89v6.2706h4.9212c0.34396-2.1167 1.5346-4.3392 4.2333-6.2706z" class="g7_1" display="block"/>
     <path d="m14.665 269.16c-1.1113 0-2.0108-1.3758-2.0373-3.0956 0-1.7198 0.87312-3.1485 1.9844-3.175h0.02646z" class="g7_1" display="block"/>
    </g>
    <g stroke-width=".26458" fill="#9e834a">
     <path d="m13.924 266.17c0 0.71438-0.50271 1.27-1.1377 1.27-0.635 0-1.1377-0.55562-1.1377-1.27 0-0.71437 0.50271-1.2964 1.1377-1.2964 0.635 0 1.1377 0.58208 1.1377 1.2964z" class="g147_1" display="block"/>
     <path d="m14.586 263.23v5.6092h4.8948c0.39688-1.8521 1.3229-3.8629 3.7042-5.6092z" class="g147_1" display="block"/>
     <path d="m14.771 268.84c-1.0319 0.0264-1.8785-1.2171-1.905-2.7781 0-1.5346 0.82021-2.831 1.8521-2.831h0.05292z" class="g147_1" display="block"/>
    </g>
    <g stroke-width=".26458">
     <path d="m38.081 270.61c0 5.2388-4.2333 9.4456-9.4456 9.4456s-9.4456-4.2069-9.4456-9.4456c0-5.2123 4.2333-9.4456 9.4456-9.4456s9.4456 4.2333 9.4456 9.4456z" class="g7_1" display="block" fill="#fff"/>
     <path d="m37.605 270.61c0 4.9477-4.0217 8.9694-8.9694 8.9694s-8.9429-4.0217-8.9429-8.9694 3.9952-8.9694 8.9429-8.9694 8.9694 4.0217 8.9694 8.9694z" class="g147_1" display="block" fill="#9e834a"/>
     <path d="m36.097 270.61c0 4.1275-3.3337 7.4877-7.4612 7.4877s-7.4612-3.3602-7.4612-7.4877 3.3338-7.4612 7.4612-7.4612c4.1275 0 7.4612 3.3337 7.4612 7.4612z" class="g7_1" display="block" fill="#fff"/>
     <path d="m35.62 270.61c0 3.8629-3.1221 6.985-6.985 6.985-3.8365 0-6.9585-3.1221-6.9585-6.985s3.1221-6.9585 6.9585-6.9585c3.8629 0 6.985 3.0956 6.985 6.9585z" class="g147_1" display="block" fill="#9e834a"/>
     <path d="m31.546 270.61c0 1.614-1.2965 2.9104-2.9104 2.9104-1.614 0-2.9104-1.2965-2.9104-2.9104 0-1.614 1.2965-2.9104 2.9104-2.9104 1.614 0 2.9104 1.2965 2.9104 2.9104z" class="g7_1" display="block" fill="#fff"/>
     <path d="m31.202 270.61c0 1.4288-1.1377 2.5665-2.5665 2.5665-1.4023 0-2.5665-1.1377-2.5665-2.5665 0-1.4023 1.1642-2.5664 2.5665-2.5664 1.4288 0 2.5665 1.1377 2.5665 2.5664z" class="g147_1" display="block" fill="#9e834a"/>
     <path d="m29.958 270.61c0 0.74084-0.58208 1.3229-1.3229 1.3229-0.71438 0-1.3229-0.58208-1.3229-1.3229 0-0.71437 0.60854-1.3229 1.3229-1.3229 0.74083 0 1.3229 0.60854 1.3229 1.3229z" class="g7_1" display="block" fill="#fff"/>
     <path d="m29.588 270.61c0 0.52917-0.42333 0.9525-0.9525 0.9525s-0.9525-0.42333-0.9525-0.9525c0-0.52916 0.42333-0.9525 0.9525-0.9525s0.9525 0.42334 0.9525 0.9525z" class="g147_1" display="block" fill="#9e834a"/>
     <path d="m27.63 263.47h1.9844v4.6567h-1.9844z" class="g7_1" display="block" fill="#fff"/>
     <path d="m27.947 262.81h1.3758v5.9002h-1.3758z" class="g147_1" display="block" fill="#9e834a"/>
     <path d="m34.165 266.09 1.0848 1.6669-3.8894 2.54-1.0583-1.6669z" class="g7_1" display="block" fill="#fff"/>
     <path d="m34.906 265.98 0.74083 1.1642-4.9477 3.2015-0.74083-1.1377z" class="g147_1" display="block" fill="#9e834a"/>
     <path d="m25.857 270.98 1.0583 1.6933-3.9158 2.4606-1.0583-1.6669z" class="g7_1" display="block" fill="#fff"/>
     <path d="m26.519 270.9 0.74083 1.1642-4.9742 3.1485-0.74083-1.1642z" class="g147_1" display="block" fill="#9e834a"/>
     <path d="m27.63 273.29h1.9844v4.6302h-1.9844z" class="g7_1" display="block" fill="#fff"/>
     <path d="m27.947 272.62h1.3758v5.8738h-1.3758z" class="g147_1" display="block" fill="#9e834a"/>
    </g>
    <path d="m26.704 272.78c0.26458 0.21166 0.55562 0.42333 0.92604 0.58208v4.1275c-1.8785-0.23812-3.2808-1.1642-4.3656-2.4606l3.4396-2.249" display="block" class="g156_1" stroke="#ee1d23" stroke-miterlimit="282" stroke-width=".12571" fill="#ee1d23"/>
    <path d="m30.567 272.81c-0.26458 0.21166-0.55562 0.42333-0.92604 0.55562v4.154c1.8785-0.23813 3.2808-1.1642 4.3656-2.4871l-3.4396-2.2225" display="block" class="g157_1" stroke="#dd1f25" stroke-miterlimit="282" stroke-width=".12571" fill="#dd1f25"/>
    <path d="m31.519 271.06 4.101-0.50271c0.02646 1.0319-0.23812 1.9315-0.58208 2.8046l-3.5454-2.3019z" class="g154_1" stroke-width=".26458" display="block" fill="#dd1f25"/>
    <path d="m31.519 271.04c0-0.0529 0-0.10584 0.02646-0.29104l4.0481-0.52917c0.02646 0.18521 0 0.23812 0 0.34396z" class="g7_1" stroke-width=".26458" display="block" fill="#fff"/>
    <path d="m31.519 271.04c0-0.0529 0-0.10584 0.02646-0.29104l4.0481-0.52917c0.02646 0.18521 0 0.23812 0 0.34396z" display="block" class="g158_1" stroke="#fff" stroke-miterlimit="282" stroke-width=".12571" fill="none"/>
    <path d="m37.499 267.65h5.3181c-0.18521 0.60854-0.34396 1.2435-1.1112 1.5346-1.2171 0.4498-3.7306 0.89959-3.7306 0.89959-0.05292-0.68792-0.21167-1.6404-0.47625-2.4342z" class="g7_1" stroke-width=".26458" display="block" fill="#fff"/>
    <path d="m33.795 262.81h13.864l-0.47625 5.08-9.4721 0.5027c-0.50271-2.2754-2.2225-4.445-3.9158-5.5827z" class="g7_1" stroke-width=".26458" display="block" fill="#fff"/>
    <g stroke-width=".26458" fill="#9e834a">
     <path d="m34.297 263.15 17.701 0.0265-0.68792 4.1275-13.732 0.68792c-0.52917-2.0638-1.7727-3.5719-3.2808-4.8419z" class="g147_1" display="block"/>
     <path d="m37.499 267.65h4.8948c-0.15875 0.55563-0.29104 1.0583-1.0054 1.2965-1.1377 0.42333-3.4396 0.74083-3.4396 0.74083-0.10583-0.66146-0.23812-1.3494-0.44979-2.0373z" class="g147_1" display="block"/>
     <path d="m40.436 254.92c-0.44979 0-0.55562-0.3175-0.55562-0.55562 0-0.21167 0.07937-0.55563 0.79375-0.76729 0.02646 0.26458 0.05292 0.50271 0.05292 0.50271v0.21166c0.02646 0.18521 0.02646 0.34396 0.05292 0.50271-0.10583 0.0529-0.21167 0.0529-0.34396 0.10583m-8.89-0.76729c-0.50271 0.44979-0.87313 0.71438-1.4552 0.71438-0.47625-0.0529-0.76729-0.3175-0.92604-0.71438 0.47625-0.18521 2.4077-0.89958 2.9633-1.1377 0 0.4498 0.02646 0.9525 0.02646 0.9525v0.9525zm-2.7252-1.6404c0-0.7673 0.29104-1.1112 0.58208-1.1112 0.07937 0 0.29104-0.0529 0.39688 0.34395 0.05292 0.15875 0.07938 0.26459 0.07938 0.3175 0 0.23813-0.13229 0.29105-0.26458 0.29105v0.0529s-0.42333 0.10584-0.79375 0.29104v-0.1852m-14.605 0.60854c0.15875-0.37042 0.26458-0.71438 0.47625-1.3229 0.15875 0.60854 0.21167 1.0054 0.29104 1.27-0.29104 0.0529-0.42333 0.0529-0.76729 0.0529m17.912 2.3283c0 0.21167-0.05292 0.82021-0.07937 1.0054h2.7517c-0.15875-0.74084-0.23812-1.7462-0.26458-2.54 0 0.0529-0.02646-1.561-0.02646-1.561 0-0.10584 0.02646-0.29105 0.10583-0.34396 0.10583-0.10584 0.18521-0.10584 0.3175-0.10584 0.10583-0.0529 0.3175-0.0529 0.34396 0.39688l0.07937 1.6669c0.02646 0.79375 0.02646 1.8786-0.07937 2.4871h2.6458c-0.02646-0.23813-0.07937-0.79375-0.10583-0.9525 0.3175 0.71437 1.0583 1.1112 2.0108 1.1112 0.55562 0 1.0054-0.21167 1.3229-0.44979 0 0.0529 0.13229 0.29104 0.13229 0.29104h4.9212c-0.21167-0.74084-0.34396-1.7462-0.42333-2.54l-0.68792-5.5033-2.54-0.44979c0.21167 0.74084 0.37042 1.7992 0.44979 2.54l0.39688 3.5454c0.07937 0.60854 0.10583 1.27 0.10583 2.0108v0.0529l-0.07938-0.21167c-0.21167-0.44979-0.29104-1.0319-0.37042-1.8521l-0.07937-1.1377c-0.15875-1.7992-1.1377-2.5929-3.2808-2.5929-0.34396 0-1.27 0.0529-1.8256 0.23813l0.15875 2.0108 0.58208-0.3175c0.47625-0.29104 0.82021-0.39687 1.2435-0.39687 0.34396 0 0.55562 0.10583 0.66146 0.3175-0.42333 0.0794-0.87312 0.18521-1.3758 0.39687-0.74083 0.34396-1.2435 0.84667-1.4552 1.4023v-0.0529l-0.05292-1.8521c-0.05292-1.1906-0.82021-1.9579-1.9844-1.9579-0.52917 0-1.0054 0.15875-1.4287 0.44979-0.02646-0.0529-0.05292-0.10583-0.07938-0.18521l-0.10583-0.21167-2.196-0.10583c0.10583 0.39688 0.23812 1.5081 0.26458 1.905-0.10583-0.55562-0.42333-1.1906-1.0054-1.6404-0.44979-0.26458-1.0054-0.44979-1.614-0.44979-0.79375 0-1.6404 0.34396-2.196 0.89959-0.55562 0.55562-0.84667 1.3494-0.87312 2.249-0.21167-0.21166-0.50271-0.44979-0.84667-0.55562l-1.0054-0.50271h-0.02646c-0.23812-0.10583-0.26458-0.15875-0.26458-0.21167 0.02646-0.13229 0.26458-0.23812 0.55562-0.23812 0.44979 0 1.0319 0.23812 1.5081 0.50271l0.05292-1.7992c-0.37042-0.15875-0.84667-0.26458-1.5875-0.26458-0.37042 0-1.0848 0.0529-1.7198 0.37041-0.15875 0.1323-0.29104 0.23813-0.44979 0.34396l0.02646-0.50271c-0.55562-0.10583-1.1906-0.10583-1.9579 0.60855-0.02646-0.0529-0.05292-0.3175-0.10583-0.4498l-2.3548 0.1323c0.15875 0.66145 0.18521 1.614 0.13229 2.4606l-0.05292 0.89958v0.10584c-0.02646 0.44979-0.05292 0.9525-0.07937 1.4023-0.21167-0.60854-0.42333-1.4552-0.58208-2.1167l-1.1642-5.2917-3.3338 0.5027c0 0.0529 0.05292 0.23813 0.07938 0.39688 0.02646 0.21167 0.02646 0.66146-0.29104 1.6404-0.52917 1.5081-1.2965 3.81-2.0373 5.4504-0.10583 0.21167-0.29104 0.55563-0.29104 0.55563h2.5929c0.05292-0.39688 0.21167-1.0848 0.39688-1.5875 0.34396 0 1.27 0 1.6933-0.0529 0.10583 0.39688 0.21167 0.89958 0.23812 1.2435l0.02646 0.39688h5.2123c-0.10583-0.84667-0.07937-1.9579-0.02646-2.5929 0.05292-0.74083 0.18521-1.2435 0.50271-1.5081 0.23812-0.29105 0.50271-0.34396 0.68792-0.34396-0.02646 1.0054 0.635 1.4552 1.1906 1.7462l1.0319 0.50271c0.37042 0.23812 0.37042 0.29104 0.37042 0.39687-0.02646 0.15875-0.3175 0.21167-0.58208 0.21167-0.55562 0-1.2965-0.3175-2.0902-1.2171l-0.05292 2.3548c0.635 0.34395 1.4552 0.5027 2.1696 0.5027 1.1906 0 2.4606-0.55562 2.7781-1.6404 0.60854 1.1377 1.7727 1.6404 2.9104 1.6404 1.0319 0 1.7992-0.34395 2.4606-1.0583z" class="g147_1" display="block"/>
    </g>
    <g stroke-width=".26458" fill="#fff">
     <path d="m25.989 250.5c-0.23812-0.0529-0.60854-0.18521-1.1906-0.18521-0.44979 0-1.0319 0.1323-1.4817 0.34396-0.52917 0.34396-0.92604 0.79375-0.9525 1.2965-0.02646 0.79375 0.37042 1.1112 0.97896 1.4023 0.39688 0.23813 0.76729 0.44979 1.0054 0.55563 0.3175 0.18521 0.60854 0.34396 0.58208 0.74083-0.02646 0.39688-0.39688 0.66146-0.97896 0.66146-0.50271 0-1.2171-0.3175-1.7198-0.76729l-0.02646 1.1642c0.42333 0.23813 1.1377 0.34396 1.7727 0.34396 1.0848 0 2.4606-0.50271 2.4871-1.7462 0.02646-0.9525-0.66146-1.2965-1.0583-1.5081-0.39688-0.18521-0.82021-0.39688-1.0054-0.44979-0.18521-0.10584-0.58208-0.23813-0.55562-0.68792 0.05292-0.39688 0.50271-0.55563 0.97896-0.55563 0.42333 0 0.82021 0.10584 1.1377 0.29105z" class="g7_1" display="block"/>
     <path d="m13.633 253.52 1.1642-3.3073 0.68792 3.2544m0.68792-5.0536-2.54 0.34396c0.05292 0.34396-0.02646 1.0054-0.29104 1.7992-0.52917 1.5081-1.3758 4.0481-2.0638 5.5033h1.5875c0.07937-0.50271 0.21167-0.9525 0.44979-1.561l2.3283-0.0794c0.10583 0.44979 0.26458 1.1906 0.29104 1.6404h2.1167c-0.26458-0.60854-0.58208-1.905-0.79375-2.8046z" class="g7_1" display="block"/>
     <path d="m22.232 250.5-0.05292 1.1112c-0.37042-0.0529-0.84667 0.0529-1.2435 0.44979-0.3175 0.34396-0.52917 0.84667-0.58208 1.7462-0.05292 0.74084-0.07937 1.5875-0.02646 2.249h-1.7992c0.13229-0.66146 0.18521-1.4552 0.18521-2.196l0.05292-0.89958c0.05292-0.71438 0.05292-1.4552-0.05292-2.1431l1.561-0.0529c0.07937 0.23812 0.13229 0.635 0.10583 1.0319 0.68792-1.0848 1.3494-1.2965 1.8521-1.2965z" class="g7_1" display="block"/>
     <path d="m44.722 248.76-1.614-0.29104c0.15875 0.74083 0.21167 1.2435 0.3175 1.9844l0.37042 3.519c0.07937 0.74084 0.15875 1.4288 0.13229 2.0902h1.7727c-0.18521-0.66146-0.26458-1.3494-0.3175-2.0902z" class="g7_1" display="block"/>
     <path d="m37.446 256.06c-0.07937-0.66146-0.13229-1.3494-0.15875-2.0902l-0.07937-1.8521c-0.02646-1.0054-0.60854-1.561-1.561-1.561-0.52917 0-1.1377 0.15875-1.6669 0.84667-0.02646-0.18521-0.10583-0.635-0.21167-0.84667l-1.4288-0.0529c0.13229 0.66146 0.18521 1.3494 0.21167 2.0638l0.02646 1.4023c0 0.74084 0 1.4288-0.05292 2.0902h1.7727c-0.07937-0.66146-0.13229-1.3494-0.15875-2.0902l-0.05292-1.561c-0.02646-0.55562 0.42333-0.9525 0.84666-0.9525 0.50271 0 0.74083 0.34396 0.76729 0.84667l0.05292 1.6669c0.02646 0.74084 0.02646 1.4288-0.02646 2.0902z" class="g7_1" display="block"/>
     <path d="m40.436 255.32c-0.52917 0-0.9525-0.26458-0.97896-0.89958 0-0.60855 0.37042-1.1112 1.614-1.2965l0.05292 0.97896c0.02646 0.3175 0.02646 0.55562 0.07937 0.8202-0.15875 0.23813-0.44979 0.34396-0.76729 0.39688m2.5929 0.74083c-0.21167-0.55562-0.3175-1.2435-0.37042-1.9579l-0.10583-1.1377c-0.07938-1.3494-0.66146-2.249-2.8575-2.249-0.37042 0-0.92604 0.0529-1.3758 0.15875l0.07937 1.0319c0.44979-0.29104 0.89958-0.5027 1.4817-0.5027 0.58208 0 1.0848 0.26458 1.1377 1.1112-0.58208 0.0529-1.1112 0.15875-1.6933 0.44979-0.68792 0.29104-1.3758 0.84666-1.2965 1.7462 0.07937 1.0054 0.84667 1.4552 1.7992 1.4552 0.74083 0 1.2435-0.3175 1.5081-0.66146 0.05292 0.21166 0.13229 0.39687 0.21167 0.55562z" class="g7_1" display="block"/>
     <path d="m29.747 252.75-1.2965 0.50271c-0.02646-0.23813-0.02646-0.44979-0.02646-0.74083 0-1.2965 0.71438-1.5081 0.9525-1.5081 0.37042-0.0529 0.71438 0.15875 0.82021 0.60854 0.15875 0.50271 0.10583 0.9525-0.44979 1.1377m1.1112-2.0902c-0.39688-0.29104-0.87312-0.39687-1.3758-0.39687-1.1642 0-2.7252 0.84666-2.6723 2.9898 0.02646 2.196 1.6933 2.8575 2.8575 2.8575 1.0319 0 1.6669-0.39688 2.1696-0.89958l-0.37042-0.50271c-0.26458 0.21166-0.68792 0.55562-1.3758 0.55562-0.74083-0.0529-1.2171-0.55562-1.4817-1.3494l3.2279-1.1642c-0.07937-1.0848-0.47625-1.6933-0.97896-2.0902z" class="g7_1" display="block"/>
     <path d="m22.127 267.39 1.0848-1.6669 3.8629 2.54-1.0848 1.6669z" class="g7_1" display="block"/>
    </g>
    <g stroke-width=".26458">
     <path d="m21.756 266.8 0.74083-1.1377 4.9212 3.2279-0.74083 1.1377z" class="g147_1" display="block" fill="#9e834a"/>
     <path d="m30.382 272.65 1.0848-1.6404 3.8894 2.54-1.1112 1.6404z" class="g7_1" display="block" fill="#fff"/>
     <path d="m30.011 272.09 0.76729-1.1377 4.9212 3.2015-0.76729 1.1642z" class="g147_1" display="block" fill="#9e834a"/>
    </g>
   </g>
  </g>
 </g>
</svg>
