<svg xmlns="http://www.w3.org/2000/svg" height="220" width="220" version="1.1" viewBox="0 0 58.208332 58.208335">
 <g transform="translate(0 -238.79)">
  <g transform="translate(-5.8333e-8 -.0000018318)">
   <g stroke-width=".26458" transform="translate(40.254 -11.15)">
    <path d="m6.8943 291.36c-4.2862 5.08-10.689 8.3079-17.833 8.3079-7.0908 0-13.441-3.1485-17.701-8.1492l-5.08 6.0854c5.6885 6.1119 13.811 9.9219 22.807 9.9219 9.0488 0 17.198-3.8629 22.886-10.028z" class="g141_1" display="block" fill="#1f1c1e"/>
    <path d="m-33.481 297.61c5.8208 6.1912 14.049 9.7631 22.569 9.7631 8.5725 0 16.828-3.5983 22.675-9.869l-4.8683-5.8738c-4.4715 5.2123-10.98 8.2021-17.833 8.2021-6.7998 0-13.256-2.9369-17.701-8.0433zm22.569 10.081c-4.4185 0-8.7048-0.89958-12.726-2.6723-3.8629-1.7198-7.3025-4.1804-10.186-7.3025l-0.10583-0.10583 5.2652-6.35 0.13229 0.15875c4.4185 5.1329 10.821 8.0962 17.595 8.0962 6.8263 0 13.282-3.0162 17.701-8.255l0.13229-0.15875 5.2917 6.4029-0.07937 0.10583c-2.9104 3.1485-6.35 5.6356-10.239 7.3819-4.0481 1.7992-8.3344 2.6988-12.779 2.6988z" class="g7_1" display="block" fill="#fff"/>
    <path d="m2.8726 268.05v27.04c0 0.76729-0.50271 1.4552-1.1906 1.6933l-12.541 4.8683-12.568-4.8683c-0.68792-0.23812-1.1906-0.92604-1.1906-1.6933v-27.04z" class="g141_1" display="block" fill="#1f1c1e"/>
    <path d="m-24.432 268.21v26.882c0 0.68791 0.42333 1.2965 1.0583 1.561l12.515 4.8419 12.488-4.8419c0.635-0.26458 1.0848-0.87313 1.0848-1.561v-26.882zm13.573 33.629-12.621-4.8948c-0.76729-0.29104-1.2965-1.0319-1.2965-1.8521v-27.21h27.807v27.199c0 0.82021-0.50271 1.561-1.2965 1.8521z" class="g7_1" display="block" fill="#fff"/>
    <path d="m-23.956 288.93v-16.67h26.167v16.669z" class="g7_1" display="block" fill="#fff"/>
    <path d="m2.2112 287.34c-0.21167 0.37041-0.79375 0.635-1.4288 0.635-0.68792 0-1.2435-0.26459-1.4817-0.635-0.21167 0.37041-0.79375 0.635-1.4552 0.635-0.66146 0-1.2171-0.26459-1.4552-0.635-0.21167 0.37041-0.79375 0.635-1.4288 0.635-0.68792 0-1.2435-0.26459-1.4817-0.635-0.21167 0.37041-0.79375 0.635-1.4552 0.635-0.66146 0-1.2171-0.26459-1.4288-0.635-0.23812 0.37041-0.82021 0.635-1.4817 0.635-0.66146 0-1.2171-0.26459-1.4552-0.635h0.02646c-0.23812 0.37041-0.79375 0.635-1.4552 0.635-0.66146 0-1.2435-0.26459-1.4552-0.635-0.23812 0.37041-0.82021 0.635-1.4817 0.635-0.635 0-1.2171-0.26459-1.4288-0.635h-0.02646c-0.21167 0.37041-0.79375 0.635-1.4288 0.635-0.68792 0-1.2435-0.26459-1.4817-0.635v0.0265c-0.21167 0.37042-0.79375 0.60855-1.4288 0.60855-0.68792 0-1.2435-0.26459-1.4552-0.635v-0.0265 7.3554c0 0.7673 0.47625 1.4023 1.1377 1.6404l11.959 4.6567 11.959-4.6567c0.66146-0.23812 1.1112-0.87312 1.1112-1.6404v-7.3554z" class="g142_1" display="block" fill="#ec1e3b"/>
    <path d="m2.2112 286.57c-0.21167 0.37042-0.79375 0.635-1.4288 0.635-0.68792 0-1.2435-0.26458-1.4817-0.635-0.21167 0.37042-0.79375 0.635-1.4552 0.635-0.66146 0-1.2171-0.26458-1.4552-0.635-0.21167 0.37042-0.79375 0.635-1.4288 0.635-0.68792 0-1.2435-0.26458-1.4817-0.635-0.21167 0.37042-0.79375 0.635-1.4552 0.635-0.66146 0-1.2171-0.26458-1.4288-0.635-0.23812 0.37042-0.82021 0.635-1.4817 0.635-0.66146 0-1.2171-0.26458-1.4552-0.635h0.02646c-0.23812 0.37042-0.79375 0.635-1.4552 0.635-0.66146 0-1.2435-0.26458-1.4552-0.635-0.23812 0.37042-0.82021 0.635-1.4817 0.635-0.635 0-1.2171-0.26458-1.4288-0.635h-0.02646c-0.21167 0.37042-0.79375 0.635-1.4288 0.635-0.68792 0-1.2435-0.26458-1.4817-0.635v0.0265c-0.21167 0.37042-0.79375 0.60854-1.4288 0.60854-0.68792 0-1.2435-0.26458-1.4552-0.635v-0.89958c0.21167 0.37042 0.76729 0.635 1.4552 0.635 0.635 0 1.2171-0.26458 1.4288-0.635 0.23812 0.37042 0.79375 0.635 1.4817 0.635 0.635 0 1.2171-0.26458 1.4288-0.635h0.02646c0.21167 0.37042 0.79375 0.635 1.4288 0.635 0.66146 0 1.2435-0.26458 1.4817-0.635 0.21167 0.37042 0.79375 0.635 1.4552 0.635 0.66146 0 1.2171-0.26458 1.4552-0.635h-0.02646c0.23812 0.37042 0.79375 0.635 1.4552 0.635 0.66146 0 1.2435-0.26458 1.4817-0.635 0.21167 0.37042 0.76729 0.635 1.4288 0.635 0.66146 0 1.2435-0.26458 1.4552-0.635 0.23812 0.37042 0.79375 0.635 1.4817 0.635 0.635 0 1.2171-0.26458 1.4288-0.635 0.23812 0.37042 0.79375 0.635 1.4552 0.635 0.66146 0 1.2435-0.26458 1.4552-0.635 0.23812 0.37042 0.79375 0.635 1.4817 0.635 0.635 0 1.2171-0.26458 1.4288-0.635z" class="g143_1" display="block" fill="#29ace2"/>
    <path d="m2.2112 284.93c-0.21167 0.37041-0.79375 0.635-1.4288 0.635-0.68792 0-1.2435-0.26459-1.4817-0.635-0.21167 0.37041-0.79375 0.635-1.4552 0.635-0.66146 0-1.2171-0.26459-1.4552-0.635-0.21167 0.37041-0.79375 0.635-1.4288 0.635-0.68792 0-1.2435-0.26459-1.4817-0.635-0.21167 0.37041-0.79375 0.635-1.4552 0.635-0.66146 0-1.2171-0.26459-1.4288-0.635-0.23812 0.37041-0.82021 0.635-1.4817 0.635-0.66146 0-1.2171-0.26459-1.4552-0.635h0.02646c-0.23812 0.37041-0.79375 0.635-1.4552 0.635-0.66146 0-1.2435-0.26459-1.4552-0.635-0.23812 0.37041-0.82021 0.635-1.4817 0.635-0.635 0-1.2171-0.26459-1.4288-0.635h-0.02646c-0.21167 0.37041-0.79375 0.635-1.4288 0.635-0.68792 0-1.2435-0.26459-1.4817-0.635v0.0265c-0.21167 0.37041-0.79375 0.60854-1.4288 0.60854-0.68792 0-1.2435-0.26459-1.4552-0.635v-0.89959c0.21167 0.37042 0.76729 0.635 1.4552 0.635 0.635 0 1.2171-0.26458 1.4288-0.635 0.23812 0.37042 0.79375 0.635 1.4817 0.635 0.635 0 1.2171-0.26458 1.4288-0.635h0.02646c0.21167 0.37042 0.79375 0.635 1.4288 0.635 0.66146 0 1.2435-0.26458 1.4817-0.635 0.21167 0.37042 0.79375 0.635 1.4552 0.635 0.66146 0 1.2171-0.26458 1.4552-0.635h-0.02646c0.23812 0.37042 0.79375 0.635 1.4552 0.635 0.66146 0 1.2435-0.26458 1.4817-0.635 0.21167 0.37042 0.76729 0.635 1.4288 0.635 0.66146 0 1.2435-0.26458 1.4552-0.635 0.23812 0.37042 0.79375 0.635 1.4817 0.635 0.635 0 1.2171-0.26458 1.4288-0.635 0.23812 0.37042 0.79375 0.635 1.4552 0.635 0.66146 0 1.2435-0.26458 1.4552-0.635 0.23812 0.37042 0.79375 0.635 1.4817 0.635 0.635 0 1.2171-0.26458 1.4288-0.635z" class="g143_1" display="block" fill="#29ace2"/>
    <path d="m-8.9543 295.73s1.2965 2.0108 0.60854 1.4552c-0.47625-0.42334-1.1642-1.4023-1.6404-2.196l-2.6458 1.0054s-1.5081 1.8521-1.1642 1.0319c0.23812-0.58209 0.97896-1.5346 1.5875-2.249l-1.7992-2.196s-2.2225-0.84667-1.3494-0.79375c0.58208 0.0529 1.7992 0.47625 2.6458 0.8202l1.5081-2.3812s0.13229-2.3812 0.34396-1.5346c0.15875 0.58208 0.10583 1.8521 0.02646 2.8046l2.7781 0.66146s2.3019-0.60854 1.5346-0.13229c-0.52917 0.3175-1.6669 0.68792-2.5929 0.89958z" class="g141_1" display="block" fill="#1f1c1e"/>
    <path d="m-9.9597 294.85 0.05292 0.0794c0.47625 0.76729 1.1377 1.7198 1.614 2.1431-0.13229-0.26458-0.44979-0.82021-0.74083-1.27l-0.02646-0.0265-0.15875-2.9369 0.07937-0.0265c0.44979-0.10583 1.8785-0.47625 2.54-0.84667-0.29104 0.0265-0.89958 0.15875-1.4288 0.29105h-0.02646l-2.884-0.68792 0.02646-0.0794c0.02646-0.60854 0.13229-2.0638-0.02646-2.7517-0.05292 0.3175-0.13229 0.92604-0.15875 1.4817v0.0265l-1.561 2.4871-0.07938-0.0265c-0.44979-0.18521-1.8785-0.74084-2.5665-0.82021 0.26458 0.15875 0.82021 0.39687 1.3229 0.60854h0.02646l1.8785 2.2754-0.05292 0.0529c-0.47625 0.55563-1.2965 1.561-1.561 2.196 0.21167-0.21167 0.635-0.66146 0.97896-1.0848l0.02646-0.0265zm1.7992 2.54c-0.10583 0-0.18521-0.0794-0.23812-0.13229-0.60854-0.50271-1.3494-1.6933-1.6404-2.1696l-2.54 0.97896c-1.1112 1.3758-1.2435 1.2964-1.3229 1.2435-0.10583-0.0794-0.02646-0.23813 0-0.3175 0.26458-0.635 1.0583-1.6404 1.561-2.249l-1.7198-2.0902c-1.6404-0.635-1.614-0.79375-1.5875-0.87312 0.02646-0.1323 0.21167-0.10584 0.3175-0.10584 0.66146 0.0529 2.0638 0.58209 2.5929 0.79375l1.4288-2.2754c0.10583-1.7727 0.26458-1.7727 0.34396-1.7992 0.13229 0 0.18521 0.18521 0.21167 0.26458 0.15875 0.66146 0.07938 2.0902 0.05292 2.7517l2.6458 0.635c1.6933-0.42333 1.7462-0.29104 1.7727-0.21167 0.05292 0.13229-0.10583 0.21167-0.18521 0.26459-0.60854 0.39687-2.0108 0.76729-2.54 0.89958l0.15875 2.6988c0.9525 1.4817 0.82021 1.5875 0.76729 1.6404-0.02646 0.0265-0.05292 0.0529-0.07938 0.0529z" class="g141_1" display="block" fill="#1f1c1e"/>
    <path d="m-11.044 295.2c0.02646 0.0529 0.05292 0.0794 0.07938 0.0794s0.05292-0.0265 0.07937-0.0794c0.02646-0.0529 0.05292-0.21167 0.02646-0.55562 0 0 0.02646-1.1112 0.87313 0.0794 2.3548 3.3867-1.0054 3.4131-1.0054 3.4131h0.02646s-3.3338-0.0265-0.97896-3.4131c0.82021-1.1906 0.84667-0.0794 0.84667-0.0794 0 0.34395 0.02646 0.5027 0.05292 0.58208z" class="g7_1" display="block" fill="#fff"/>
    <path d="m-11.336 294.27c-0.05292 0-0.21167 0.0529-0.52917 0.52917-0.76729 1.0848-1.0054 1.905-0.71438 2.4871 0.37042 0.68792 1.4552 0.74083 1.614 0.74083 0.13229 0 1.2171-0.0529 1.5875-0.74083 0.29104-0.58208 0.05292-1.4023-0.68792-2.4871-0.37042-0.55563-0.52917-0.52917-0.55562-0.52917-0.07937 0.0265-0.13229 0.23812-0.13229 0.37042 0 0.42333-0.02646 0.55562-0.05292 0.60854v0.0265l-0.15875 0.13229-0.15875-0.13229 0.05292-0.0265h-0.07937c-0.02646-0.0794-0.05292-0.26459-0.05292-0.60854 0-0.1323-0.05292-0.34396-0.13229-0.37042m0.37042 3.9688h-0.02646c-0.21167 0-1.3494-0.0794-1.7462-0.87313-0.34396-0.635-0.10583-1.5346 0.71438-2.6988 0.3175-0.44979 0.55562-0.66145 0.76729-0.58208 0.23812 0.0794 0.26458 0.47625 0.26458 0.55563 0 0.10583 0 0.34395 0.02646 0.47625 0-0.0794 0.02646-0.21167 0.02646-0.47625 0-0.0794 0-0.47625 0.26458-0.55563 0.18521-0.0794 0.44979 0.13229 0.76729 0.58208 0.79375 1.1642 1.0319 2.0638 0.71438 2.6988-0.42333 0.79375-1.561 0.87313-1.7727 0.87313z" class="g141_1" display="block" fill="#1f1c1e"/>
    <path d="m-12.764 293.85c-0.02646 0.0265-0.05292 0.0529-0.02646 0.0794 0 0.0529 0.02646 0.0529 0.07938 0.0529 0.07937 0.0265 0.21167 0 0.52917-0.10584 0 0 1.0848-0.34395 0.21167 0.82021-2.5135 3.3073-3.5719 0.13229-3.5719 0.13229s-1.0054-3.175 2.9633-1.9844c1.4023 0.42333 0.3175 0.79375 0.3175 0.79375-0.3175 0.0794-0.44979 0.15875-0.50271 0.21167z" class="g7_1" display="block" fill="#fff"/>
    <path d="m-15.437 294.78c0 0.0265 0.39688 1.1642 1.2171 1.2965 0.635 0.10583 1.3494-0.37042 2.1431-1.4288 0.39688-0.50271 0.34396-0.635 0.3175-0.66146-0.02646-0.0794-0.23812-0.0529-0.37042 0-0.13229 0.0265-0.23812 0.0529-0.3175 0.0794l0.05292 0.0265h-0.3175v-0.0794l-0.05292 0.0794-0.13229-0.10583v-0.0529s0-0.10583 0.05292-0.15875c0.05292-0.0529 0.15875-0.13229 0.55562-0.23812 0.13229-0.0529 0.3175-0.15875 0.3175-0.23813 0-0.0265-0.02646-0.15875-0.66146-0.34396-1.2435-0.39687-2.1167-0.37041-2.5665 0.0794-0.55562 0.55562-0.29104 1.5875-0.23812 1.7462zm1.3758 1.5346c-0.05292 0-0.13229-0.0265-0.18521-0.0265-0.89958-0.15875-1.3229-1.2435-1.3758-1.4023-0.02646-0.0529-0.39688-1.2965 0.26458-1.9844 0.50271-0.50271 1.4552-0.55563 2.8046-0.15875 0.52917 0.15875 0.79375 0.34395 0.79375 0.55562 0 0.26458-0.37042 0.39688-0.44979 0.42333-0.23812 0.0794-0.37042 0.1323-0.42333 0.15875 0.07937 0 0.23812-0.0265 0.42333-0.10583 0.07937-0.0265 0.47625-0.13229 0.635 0.0794 0.10583 0.1852 0 0.47625-0.3175 0.92604-0.79375 1.0054-1.5081 1.5346-2.1696 1.5346z" class="g141_1" display="block" fill="#1f1c1e"/>
    <path d="m-12.023 291.79c-0.02646-0.0265-0.05292-0.0265-0.07937 0-0.02646 0.0265-0.05292 0.0529-0.02646 0.0794 0 0.0794 0.07938 0.23813 0.29104 0.50271 0 0 0.635 0.89958-0.74083 0.42333-3.9158-1.3494-1.2171-3.3338-1.2171-3.3338h-0.02646s2.7252-1.9315 2.831 2.196c0.02646 1.4552-0.66146 0.55563-0.66146 0.55563-0.18521-0.26458-0.29104-0.39688-0.37042-0.42333z" class="g7_1" display="block" fill="#fff"/>
    <path d="m-13.743 289.54h0.02646c-0.02646 0-1.0054 0.74083-0.87312 1.561 0.10583 0.635 0.79375 1.1642 2.0373 1.5875 0.60854 0.23812 0.71438 0.13229 0.74083 0.10583 0.05292-0.0529-0.05292-0.26458-0.10583-0.37041-0.23812-0.26459-0.3175-0.50271-0.3175-0.50271l0.05292-0.0265-0.05292-0.0265h0.05292l-0.05292-0.0265 0.05292-0.15875h0.18521l0.02646 0.0265c0.10583 0.0529 0.23812 0.18521 0.39688 0.44979 0.10583 0.10584 0.26458 0.23813 0.34396 0.21167 0.02646 0 0.13229-0.0794 0.13229-0.71438-0.02646-1.3494-0.34396-2.1431-0.89958-2.4342-0.68792-0.34396-1.5875 0.21166-1.7462 0.3175m1.7727 3.4925c-0.15875 0-0.37042-0.0529-0.66146-0.13229-1.3229-0.47625-2.0373-1.0583-2.1431-1.7727-0.13229-0.89959 0.76729-1.6404 0.89958-1.7462 0.05292-0.0265 1.1112-0.76729 1.9579-0.34396 0.635 0.3175 0.97896 1.1906 1.0319 2.6194 0 0.55563-0.07937 0.84667-0.29104 0.92605-0.23812 0.0794-0.50271-0.23813-0.55562-0.3175-0.13229-0.18521-0.21167-0.29105-0.26458-0.34396 0.02646 0.0794 0.10583 0.21166 0.23812 0.37041 0.05292 0.0794 0.26458 0.42334 0.10583 0.635-0.05292 0.0794-0.15875 0.10584-0.3175 0.10584z" class="g141_1" display="block" fill="#1f1c1e"/>
    <path d="m-9.8009 291.87c0-0.0265 0-0.0794-0.02646-0.10583-0.02646 0-0.07938 0-0.10583 0.0265-0.05292 0.0265-0.18521 0.13229-0.37042 0.42333 0 0-0.68792 0.89958-0.635-0.58208 0.07937-4.101 2.8046-2.1696 2.8046-2.1696h-0.02646s2.6988 1.9579-1.2171 3.3338c-1.3758 0.47625-0.71438-0.44979-0.71438-0.44979 0.18521-0.26458 0.26458-0.39687 0.29104-0.47625z" class="g7_1" display="block" fill="#fff"/>
    <path d="m-9.748 291.65 0.05292 0.21167-0.02646 0.0265c0 0.0265-0.07937 0.23812-0.29104 0.52917-0.07937 0.10583-0.15875 0.29104-0.13229 0.37041 0.02646 0.0265 0.13229 0.10584 0.74083-0.10583 1.27-0.42333 1.9579-0.97896 2.0373-1.5875 0.10583-0.76729-0.71438-1.4552-0.84667-1.561-0.05292-0.0265-1.0054-0.68792-1.7462-0.3175-0.55563 0.29104-0.84667 1.0848-0.89958 2.4342 0 0.635 0.13229 0.71438 0.15875 0.71438 0.07937 0.0265 0.23812-0.10583 0.3175-0.23813 0.15875-0.23812 0.29104-0.39687 0.39688-0.44979h0.05292zm-0.23812 1.3758c-0.15875 0-0.26458-0.0265-0.3175-0.13229-0.15875-0.18521 0.07937-0.52917 0.13229-0.60855 0.10583-0.15875 0.18521-0.29104 0.23813-0.37041-0.05292 0.0529-0.15875 0.13229-0.29104 0.34396-0.05292 0.0794-0.3175 0.39687-0.55562 0.29104-0.18521-0.0529-0.29104-0.34396-0.26458-0.92604 0.02646-1.4023 0.37042-2.2754 1.0054-2.5929 0.82021-0.39688 1.7992 0.23812 1.9315 0.34396 0.05292 0.0265 1.0848 0.79375 0.9525 1.7462-0.10583 0.71437-0.84667 1.2965-2.1696 1.7727-0.29104 0.0794-0.50271 0.13229-0.66146 0.13229z" class="g141_1" display="block" fill="#1f1c1e"/>
    <path d="m-9.2188 293.98c0.05292 0 0.07937 0 0.07937-0.0529 0.02646-0.0265 0-0.0529-0.02646-0.0794-0.05292-0.0529-0.18521-0.1323-0.50271-0.21167 0 0-1.0848-0.37042 0.3175-0.79375 3.9688-1.1906 2.9633 1.9844 2.9633 1.9844s-1.0583 3.1486-3.5454-0.13229c-0.89958-1.1642 0.18521-0.82021 0.18521-0.82021 0.3175 0.10584 0.47625 0.1323 0.52917 0.10584z" class="g7_1" display="block" fill="#fff"/>
    <g fill="#1f1c1e">
     <path d="m-10.039 293.93c-0.07937 0-0.13229 0.0265-0.13229 0.0529-0.02646 0-0.10583 0.13229 0.3175 0.66146 0.79375 1.0583 1.5081 1.5346 2.1431 1.4288 0.82021-0.1323 1.2171-1.27 1.2171-1.2965 0.05292-0.15875 0.3175-1.1906-0.23812-1.7462-0.44979-0.44979-1.2965-0.47625-2.5929-0.0794-0.60854 0.18521-0.635 0.3175-0.635 0.34396 0 0.0794 0.18521 0.18521 0.3175 0.23813 0.26458 0.0794 0.44979 0.15875 0.55562 0.23812 0.05292 0.0529 0.05292 0.13229 0.05292 0.15875v0.0529l-0.13229 0.10583h-0.05292s-0.23812 0-0.58208-0.10583c-0.05292-0.0265-0.15875-0.0529-0.23813-0.0529m2.1696 2.3812c-0.66146 0-1.3758-0.52917-2.1431-1.5346-0.34396-0.44979-0.44979-0.74084-0.34396-0.92604 0.15875-0.21167 0.55563-0.10584 0.635-0.0794 0.18521 0.0794 0.34396 0.10583 0.42333 0.10583-0.05292-0.0265-0.18521-0.0794-0.39688-0.15875-0.10583-0.0265-0.47625-0.15875-0.47625-0.42333 0-0.21167 0.26458-0.39687 0.79375-0.55562 1.3494-0.39688 2.3019-0.34396 2.8046 0.15875 0.66146 0.68791 0.29104 1.9314 0.26458 1.9844-0.05292 0.15875-0.47625 1.2435-1.3758 1.4023-0.05292 0-0.13229 0.0265-0.18521 0.0265z" class="g141_1" display="block"/>
     <path d="m-13.267 290.2s-0.23812 0.15875-0.47625 0.23812c-0.21167 0.0529-0.29104 0.23813-0.34396 0.26458 0 0-0.10583 0.29105-0.18521 0.18521-0.07938-0.13229 0.07937-0.34396 0.07937-0.34396 0.02646-0.0529 0.13229-0.21166 0.34396-0.26458 0.21167-0.0794 0.44979-0.23812 0.44979-0.23812s0.26458-0.21167 0.39688-0.37042c0.13229-0.18521 0.3175-0.23813 0.34396-0.23813 0 0 0.26458-0.10583 0.34396 0 0.10583 0.1323-0.21167 0.15875-0.21167 0.15875-0.05292 0-0.23812 0.0529-0.37042 0.23813-0.13229 0.18521-0.37042 0.37042-0.37042 0.37042z" class="g141_1" display="block"/>
     <path d="m-8.6897 290.2s-0.23812-0.18521-0.37042-0.37042c-0.13229-0.18521-0.3175-0.23813-0.34396-0.26458 0 0-0.3175 0-0.23812-0.1323 0.07937-0.10583 0.34396 0 0.34396 0 0.05292 0 0.23812 0.0265 0.37042 0.21167 0.13229 0.18521 0.37042 0.39688 0.37042 0.39688s0.23812 0.15875 0.47625 0.23812c0.18521 0.0529 0.29104 0.21167 0.3175 0.26458 0 0 0.18521 0.21167 0.07937 0.3175-0.07937 0.1323-0.18521-0.15875-0.18521-0.15875-0.02646-0.0529-0.13229-0.21166-0.34396-0.26458-0.21167-0.0794-0.47625-0.23812-0.47625-0.23812z" class="g141_1" display="block"/>
     <path d="m-7.2609 294.54s0.10583-0.29104 0.23812-0.47625c0.13229-0.15875 0.10583-0.34396 0.10583-0.39687 0 0-0.05292-0.3175 0.07937-0.26459 0.13229 0.0529 0.13229 0.3175 0.13229 0.3175 0 0.0529 0 0.23813-0.13229 0.42334s-0.23812 0.47625-0.23812 0.47625-0.07937 0.29104-0.07937 0.50271c0 0.23812-0.13229 0.37041-0.15875 0.42333 0 0-0.15875 0.21167-0.29104 0.18521-0.13229-0.0529 0.10583-0.26459 0.10583-0.26459 0.02646-0.0265 0.15875-0.1852 0.15875-0.39687s0.07937-0.52917 0.07937-0.52917z" class="g141_1" display="block"/>
     <path d="m-10.965 297.24s0.3175 0 0.52917 0.0794 0.37042 0 0.42333-0.0265c0 0 0.26458-0.15875 0.26458 0 0 0.13229-0.26458 0.21167-0.26458 0.21167-0.05292 0-0.21167 0.0794-0.42333 0.0265-0.21167-0.0794-0.52917-0.10583-0.52917-0.10583s-0.3175 0.0265-0.52917 0.10583c-0.21167 0.0529-0.37042-0.0265-0.42333-0.0265 0 0-0.26458-0.0794-0.26458-0.21167 0-0.15875 0.26458 0 0.26458 0 0.05292 0.0265 0.21167 0.10583 0.42333 0.0265 0.21167-0.0794 0.52917-0.0794 0.52917-0.0794z" class="g141_1" display="block"/>
     <path d="m-14.669 294.54s0.07937 0.3175 0.07937 0.52917c0 0.23812 0.13229 0.37042 0.15875 0.39687 0 0 0.23812 0.21167 0.10583 0.26459-0.13229 0.0265-0.29104-0.18521-0.29104-0.18521-0.02646-0.0529-0.15875-0.18521-0.15875-0.42333 0-0.21167-0.07937-0.50271-0.07937-0.50271s-0.10583-0.29104-0.23812-0.47625-0.13229-0.37042-0.13229-0.42334c0 0 0-0.26458 0.13229-0.3175 0.13229-0.0529 0.07937 0.26459 0.07937 0.26459 0 0.0529-0.02646 0.23812 0.10583 0.39687 0.13229 0.18521 0.23812 0.47625 0.23812 0.47625z" class="g141_1" display="block"/>
    </g>
    <path d="m-10.992 292.58c-0.39688 0-0.74083 0.34395-0.74083 0.76729 0 0.42333 0.34396 0.74083 0.74083 0.74083 0.42333 0 0.76729-0.3175 0.76729-0.74083 0-0.42334-0.34396-0.76729-0.76729-0.76729z" class="g144_1" display="block" fill="#fec515"/>
    <path d="m-10.992 292.63c-0.39688 0-0.71438 0.3175-0.71438 0.71438 0 0.39687 0.3175 0.71437 0.71438 0.71437s0.71438-0.3175 0.71438-0.71437c0-0.39688-0.3175-0.71438-0.71438-0.71438m0 1.5081c-0.42333 0-0.79375-0.37042-0.79375-0.79375 0-0.44979 0.37042-0.82021 0.79375-0.82021 0.44979 0 0.79375 0.37042 0.79375 0.82021 0 0.42333-0.34396 0.79375-0.79375 0.79375z" class="g144_1" display="block" fill="#fec515"/>
    <path d="m-9.5628 278.9 0.10583 2.0373 1.7198-1.1112 0.52917 0.87312-2.0108 1.1906v0.42333s2.3548 1.3229-0.52917 1.27c-1.0054 0.84667-1.9579 0.0265-1.9579 0.0265-2.884 0.0529-0.52917-1.27-0.52917-1.27v-0.42333l-1.7992-1.4023 0.44979-0.92605 1.5875 1.3758 0.10583-2.0373z" class="g141_1" display="block" fill="#1f1c1e"/>
    <path d="m-7.4197 280.65c1.6669 1.905 2.9104-0.10584 2.9104-0.10584 2.0902-0.5027 0.84667-1.9844 0.84667-1.9844 2.196-1.4552-0.39688-2.5929-0.39688-2.5929 0-1.905-1.6404-1.7727-1.6404-1.7727-1.6933-1.4817-3.3338 0.18521-3.3338 0.18521-2.54-2.1431-4.4715 0.3175-4.4715 0.3175s-1.6404-1.1377-2.3812 0.635c0 0-2.5929-0.0794-1.614 2.5665 0 0-2.0108 1.9844 0.60854 2.9898 0 0 1.4023 2.5665 3.3073 0.10584 0 0 1.1642 0.0794 0.97896-1.5875 0 0 1.5081 0.635 2.9104-0.0529 0 0 0.44979 1.0054 1.4288 0.44979 0 0-0.15875 0.635 0.79375 0.79375z" class="g145_1" display="block" fill="#2db24d"/>
    <path d="m-15.913 275.75c-0.26458 0-0.92604 0.0794-1.2171 0.5027-0.23812 0.3175-0.23812 0.82021 0 1.4817l0.10583 0.23813-0.18521 0.21166c-0.21167 0.18521-0.71438 0.84667-0.60854 1.4023 0.07937 0.37042 0.44979 0.66146 1.0583 0.89959l0.15875 0.0529 0.07937 0.1323c0.13229 0.26458 0.60854 0.92604 1.1906 0.97895 0.44979 0.0265 0.92604-0.26458 1.4023-0.89958l0.15875-0.18521 0.21167 0.0265s0.21167 0 0.37042-0.18521c0.15875-0.15875 0.23812-0.50271 0.18521-0.9525l-0.07938-0.68791 0.635 0.26458c0.02646 0 1.3494 0.52917 2.5665-0.0529l0.39688-0.18521 0.15875 0.39688c0.05292 0.0529 0.18521 0.29104 0.37042 0.34396 0.13229 0.0265 0.29104 0 0.47625-0.10584l0.92604-0.52916-0.3175 0.97896s0 0.0794 0.05292 0.13229c0.05292 0.0794 0.18521 0.13229 0.39688 0.15875l0.13229 0.0265 0.18521 0.1852c0.42333 0.47625 0.82021 0.71438 1.2171 0.66146 0.58208-0.0529 1.0054-0.71437 1.0054-0.71437l0.10583-0.13229 0.15875-0.0529c0.50271-0.13229 0.82021-0.3175 0.87312-0.52917 0.10583-0.29104-0.15875-0.68791-0.23812-0.79375l-0.29104-0.37041 0.37042-0.26459c0.34396-0.21166 0.74083-0.52916 0.71438-0.87312-0.05292-0.39688-0.71438-0.82021-1.0319-0.9525l-0.23812-0.10584v-0.29104c0-0.47625-0.13229-0.84666-0.37042-1.0583-0.34396-0.3175-0.82021-0.29104-0.82021-0.29104l-0.18521 0.0265-0.13229-0.1323c-1.4023-1.2171-2.6988 0.0794-2.7517 0.15875l-0.29104 0.26459-0.29104-0.23813c-0.68792-0.58208-1.3758-0.84666-2.0638-0.76729-1.0848 0.10583-1.8256 1.0054-1.8256 1.0319l-0.23812 0.29104-0.3175-0.21167c-0.18521-0.10583-0.68792-0.37042-1.1112-0.26458-0.26458 0.10583-0.47625 0.3175-0.635 0.71437l-0.10583 0.26459h-0.29104-0.02646m0.66146 6.7204h-0.13229c-0.9525-0.0794-1.5875-0.92604-1.7992-1.2435-0.82021-0.34396-1.2965-0.84667-1.4288-1.4552-0.18521-0.84666 0.34396-1.6404 0.635-1.9844-0.26458-0.84667-0.21167-1.5081 0.15875-2.0373 0.44979-0.635 1.2435-0.79375 1.6669-0.82021 0.26458-0.50271 0.60854-0.82021 1.0583-0.9525 0.58208-0.15875 1.1377 0.0265 1.4817 0.18521 0.37042-0.34396 1.1377-0.9525 2.1696-1.0583 0.82021-0.10583 1.614 0.15875 2.4077 0.71438 0.74083-0.58209 2.1431-1.1112 3.4925-0.0265 0.29104 0 0.82021 0.0794 1.27 0.47625 0.37042 0.34396 0.58208 0.82021 0.635 1.4288 0.42333 0.23812 1.2171 0.76729 1.27 1.561 0.05292 0.47625-0.21167 0.9525-0.74083 1.3758 0.15875 0.3175 0.3175 0.7673 0.15875 1.2436-0.15875 0.47625-0.60854 0.8202-1.3229 1.0319-0.21167 0.29104-0.76729 0.89958-1.561 0.97896-0.635 0.0529-1.27-0.26458-1.8521-0.92604-0.37042-0.0794-0.66146-0.23813-0.84667-0.50271-0.02646-0.0265-0.02646-0.0529-0.05292-0.10583-0.26458 0.0529-0.47625 0.0265-0.60854-0.0265-0.3175-0.10584-0.52917-0.29104-0.66146-0.44979-0.89958 0.3175-1.7727 0.21166-2.3019 0.10583-0.05292 0.42333-0.18521 0.76729-0.42333 1.0054-0.26458 0.29104-0.58208 0.39687-0.79375 0.42333-0.60854 0.71437-1.2171 1.0583-1.8785 1.0583z" class="g141_1" display="block" fill="#1f1c1e"/>
    <g fill="#fec317">
     <path d="m-29.751 297.1 0.13229 0.10583c-0.44979 0.7673-0.50271 1.3229-0.21167 1.561 0.23812 0.1852 0.50271 0.13229 0.76729-0.18521 0.10583-0.10584 0.18521-0.26459 0.18521-0.37042 0-0.15875-0.13229-0.34396-0.26458-0.60854-0.23812-0.52917-0.23812-0.9525 0.21167-1.4817 0.47625-0.52916 1.0583-0.71437 1.4552-0.37041 0.15875 0.13229 0.23812 0.34395 0.26458 0.60854l0.29104-0.0794 0.10583 0.0794-0.92604 1.1112-0.10583-0.10584c0.37042-0.74083 0.44979-1.1906 0.15875-1.4023-0.18521-0.18521-0.44979-0.13229-0.68792 0.15875-0.3175 0.34396-0.13229 0.52917 0.07938 0.9525 0.13229 0.23813 0.21167 0.42334 0.18521 0.68792-0.05292 0.26458-0.21167 0.55562-0.44979 0.82021-0.50271 0.58208-1.0583 0.74083-1.4552 0.39687-0.21167-0.18521-0.29104-0.39687-0.29104-0.71437l-0.37042 0.13229-0.07937-0.10583z" class="g146_1" display="block"/>
     <path d="m-27.422 300.62c0.3175 0.21167 0.79375-0.15875 1.4552-1.1112 0.68792-0.97896 0.87312-1.5346 0.52917-1.7727-0.3175-0.21167-0.79375 0.15875-1.4552 1.1112-0.68792 0.97896-0.87312 1.5346-0.52917 1.7727m1.0848-3.1485c0.42333-0.18521 0.76729-0.18521 1.0848 0.0265 0.3175 0.21166 0.44979 0.52916 0.39688 1.0054-0.02646 0.42334-0.23812 0.89959-0.55562 1.3758-0.34396 0.47625-0.66146 0.79375-1.0848 0.97895-0.42333 0.21167-0.82021 0.21167-1.1112 0-0.29104-0.21166-0.42333-0.52916-0.37042-1.0319 0.02646-0.44979 0.21167-0.87313 0.55562-1.3494 0.3175-0.47625 0.71438-0.8202 1.0848-1.0054z" class="g146_1" display="block"/>
     <path d="m-22.951 299.35-0.15875-0.0794c-0.10583-0.0529-0.15875-0.0265-0.26458 0.18521l-0.92604 1.7462c-0.34396 0.60854-0.37042 0.97896 0 1.1642 0.15875 0.0794 0.34396 0.0794 0.47625 0 0.23812-0.13229 0.39688-0.39688 0.635-0.82021l0.66146-1.27c0.21167-0.37042 0.23812-0.55562 0-0.68792 0-0.0265-0.02646-0.0265-0.02646-0.0265l0.13229-0.23813 0.79375 0.42333-0.13229 0.23813c-0.23812-0.0794-0.37042 0.0529-0.55562 0.39687l-0.71438 1.2965c-0.18521 0.37042-0.34396 0.66146-0.58208 0.87313-0.34396 0.29104-0.68792 0.3175-1.0583 0.10583-0.55562-0.29104-0.635-0.84667-0.23812-1.614l1.0054-1.8785c0.10583-0.18521 0.10583-0.26458 0-0.3175l-0.15875-0.0794 0.13229-0.26459 1.1112 0.58209z" class="g146_1" display="block"/>
     <path d="m-19.908 300.7c-0.13229-0.0264-0.18521 0-0.26458 0.21167l-1.0319 2.6194c-0.07938 0.1852-0.07938 0.26458 0.05292 0.3175l0.15875 0.0529-0.10583 0.26459-1.1642-0.4498 0.10583-0.26458 0.15875 0.0529c0.13229 0.0529 0.18521 0 0.26458-0.21167l1.0319-2.5929c0.07938-0.21166 0.07938-0.26458-0.02646-0.3175-0.23812-0.10583-0.58208 0.23813-0.92604 0.92605l-0.15875-0.0529 0.58208-1.3494 1.9844 0.79375-0.47625 1.3758-0.15875-0.0529c0.23812-0.74083 0.21167-1.2171-0.02646-1.3229z" class="g146_1" display="block"/>
     <path d="m-18.215 304.78c0.13229 0.0529 0.18521 0 0.23812-0.21167l0.34396-1.2435-0.84667-0.21167-0.3175 1.2171c-0.05292 0.21166-0.05292 0.26458 0.07938 0.3175l0.15875 0.0529-0.07937 0.26459-1.1906-0.3175 0.07938-0.29105 0.15875 0.0529c0.13229 0.0265 0.15875-0.0265 0.21167-0.23812l0.74083-2.6723c0.05292-0.21166 0.05292-0.29104-0.07937-0.3175l-0.15875-0.0529 0.05292-0.26459 1.2171 0.3175-0.07937 0.29105-0.15875-0.0529c-0.13229-0.0529-0.18521 0.0265-0.23812 0.23812l-0.29104 1.1112 0.82021 0.21167 0.29104-1.1112c0.07937-0.21167 0.07937-0.29104-0.07937-0.3175l-0.15875-0.0529 0.07937-0.26458 1.1906 0.34396-0.05292 0.26458-0.18521-0.0529c-0.13229-0.0265-0.15875 0.0265-0.21167 0.23812l-0.71438 2.6723c-0.07938 0.21167-0.05292 0.29104 0.07937 0.3175l0.15875 0.0529-0.07938 0.26458-1.2171-0.3175 0.07938-0.26458z" class="g146_1" display="block"/>
     <path d="m-15.516 304.09 0.66146 0.10583-0.13229-1.3494zm0.47625 1.3229 0.15875 0.0265c0.07937 0 0.10583-0.0265 0.10583-0.10584v-0.15875l-0.05292-0.635-0.82021-0.10583-0.13229 0.26458c-0.02646 0.0794-0.05292 0.18521-0.05292 0.26459-0.05292 0.23812 0.05292 0.34395 0.29104 0.39687l-0.05292 0.26458-0.92604-0.13229 0.05292-0.29104c0.21167 0 0.34396-0.23812 0.52917-0.635l1.1906-2.831 0.23812 0.0265 0.37042 3.5719c0.02646 0.15875 0.05292 0.23813 0.18521 0.23813l-0.05292 0.29104-1.0848-0.15875z" class="g146_1" display="block"/>
     <path d="m-12.632 304.99c-0.02646 0.50271 0.05292 0.68792 0.34396 0.68792v0.29104l-0.9525-0.0265v-0.29104c0.3175 0 0.37042-0.18521 0.37042-0.68791l0.05292-2.3548c0.02646-0.1852 0-0.29104-0.13229-0.29104h-0.18521l0.02646-0.29104 1.0319 0.0265 0.44979 2.3548 0.55562-2.3283 1.0319 0.0265-0.02646 0.29104-0.15875-0.0265c-0.13229 0-0.15875 0.0794-0.15875 0.29104l-0.07937 2.7781c0 0.21166 0.02646 0.29104 0.15875 0.29104h0.15875v0.29104l-1.2171-0.0265 0.02646-0.29104h0.13229c0.13229 0 0.15875-0.0529 0.18521-0.26458l0.05292-2.9369-0.79375 3.4925h-0.15875l-0.66146-3.519z" class="g146_1" display="block"/>
     <path d="m-8.5309 303.9h0.15875c0.42333-0.0265 0.58208-0.23812 0.52917-0.87312-0.05292-0.635-0.23812-0.82021-0.60854-0.79375-0.21167 0.0265-0.23812 0.0794-0.21167 0.37041zm0.3175 1.6669h0.18521l0.02646 0.26458-1.27 0.13229-0.02646-0.29104h0.15875c0.15875-0.0265 0.15875-0.0794 0.15875-0.3175l-0.26458-2.7517c-0.02646-0.21166-0.05292-0.29104-0.21167-0.26458l-0.15875 0.0265-0.02646-0.29104 1.4288-0.13229c0.58208-0.0794 0.92604 0.29104 0.97896 1.0054 0.07937 0.76729-0.23812 1.1642-0.9525 1.2435-0.10583 0-0.21167 0-0.34396 0.0265l0.13229 1.0848c0 0.23813 0.05292 0.29105 0.18521 0.26459z" class="g146_1" display="block"/>
     <path d="m-5.3295 301.73c-0.13229 0-0.13229 0.0794-0.07937 0.29104l0.55562 2.7517c0.05292 0.21166 0.07938 0.26458 0.21167 0.23812l0.15875-0.0265 0.05292 0.29105-1.1906 0.23812-0.07938-0.26458 0.18521-0.0529c0.13229-0.0265 0.13229-0.10583 0.10583-0.3175l-0.58208-2.7517c-0.05292-0.1852-0.07937-0.26458-0.18521-0.23812-0.26458 0.0529-0.37042 0.52917-0.29104 1.2965l-0.15875 0.0265-0.23812-1.4288 2.0902-0.4498 0.37042 1.4288-0.15875 0.0529c-0.23812-0.76729-0.52917-1.1642-0.76729-1.0848z" class="g146_1" display="block"/>
     <path d="m-1.9693 304.35c0.37042-0.10583 0.37042-0.71437 0.02646-1.8256-0.37042-1.1112-0.71438-1.614-1.1112-1.4817-0.37042 0.10584-0.37042 0.71438 0 1.8256 0.37042 1.1377 0.71438 1.614 1.0848 1.4817m-1.8256-2.7781c0.07938-0.42333 0.29104-0.71438 0.66146-0.82021 0.37042-0.13229 0.68792-0.0265 1.0319 0.29104 0.3175 0.29104 0.58208 0.71438 0.76729 1.27 0.18521 0.55563 0.23812 1.0054 0.13229 1.4552-0.07937 0.47625-0.3175 0.76729-0.66146 0.87313-0.34396 0.13229-0.68792 0.0264-1.0583-0.3175-0.34396-0.29105-0.55562-0.68792-0.74083-1.2436-0.18521-0.55562-0.23812-1.0848-0.13229-1.5081z" class="g146_1" display="block"/>
     <path d="m0.015115 303.59c0.23812-0.15875 0.21167-0.34396 0-0.76729l-0.97896-2.1431-0.10583-0.0529c-0.10583-0.0794-0.18521-0.13229-0.29104-0.0794l-0.02646 0.0265-0.13229-0.26458 0.74083-0.34396 2.1431 1.6933-0.60854-1.3229c-0.21167-0.50271-0.34396-0.60854-0.635-0.47625l-0.13229-0.26459 0.87312-0.39687 0.10583 0.26458c-0.23812 0.13229-0.21167 0.3175 0 0.76729l1.27 2.6988-0.18521 0.10584-2.6723-2.1167 0.84667 1.8256c0.18521 0.44979 0.34396 0.58208 0.635 0.47625l0.10583 0.23812-0.84667 0.39688z" class="g146_1" display="block"/>
     <path d="m4.9099 298.27-0.13229 0.10583c-0.55562-0.60854-0.89958-0.74083-1.3229-0.44979-0.15875 0.10583-0.18521 0.15875-0.02646 0.39687l0.635 0.9525c0.02646-0.0265 0.05292-0.0265 0.05292-0.0265 0.23812-0.18521 0.21167-0.42334-0.05292-0.89959l0.13229-0.0794 1.0319 1.4817-0.13229 0.0794c-0.37042-0.42333-0.58208-0.50271-0.82021-0.34396 0 0-0.02646 0-0.02646 0.0265l0.74083 1.0583c0.10583 0.18521 0.15875 0.23813 0.29104 0.15875l0.18521-0.13229 0.15875 0.23813-1.0848 0.74083-0.15875-0.23813 0.13229-0.10583c0.13229-0.0794 0.10583-0.15875 0-0.3175l-1.5875-2.3019c-0.10583-0.18521-0.15875-0.21167-0.29104-0.1323l-0.13229 0.0794-0.15875-0.23813 1.7462-1.1906z" class="g146_1" display="block"/>
     <path d="m8.0584 299.09c-0.21167 0.1852-0.47625 0.23812-0.79375 0.15875-0.47625-0.0794-0.97896-0.42334-1.4552-0.9525-0.34396-0.42334-0.58208-0.87313-0.66146-1.2965-0.13229-0.47625-0.02646-0.82021 0.26458-1.0583 0.18521-0.15875 0.39688-0.21166 0.66146-0.15875l-0.05292-0.34395 0.10583-0.0794 1.0583 1.1642-0.10583 0.13229c-0.68792-0.58208-1.1906-0.76729-1.4552-0.52917-0.3175 0.29104-0.10583 0.82021 0.66146 1.7198 0.79375 0.89959 1.27 1.1906 1.6404 0.87313 0.26458-0.23813 0.21167-0.68792-0.21167-1.3494l0.21167-0.0529c0.52917 0.79375 0.55562 1.4023 0.13229 1.7727z" class="g146_1" display="block"/>
    </g>
    <path d="m-33.719 266.15 0.635 1.2965-1.7462 0.47625 0.52917 1.0583 1.7462-0.47625 0.55562 1.0848-1.7462 0.47625 0.52917 1.0848 1.7462-0.47625 0.55562 1.0848-1.7462 0.47625 0.52917 1.0848 1.7727-0.47625 0.76729 1.5081c0.34396-0.10583 0.66146-0.21166 0.97896-0.34395l-4.101-8.1492c-0.29104 0.13229-0.60854 0.23812-1.0054 0.29104z" class="g7_1" display="block" fill="#fff"/>
    <path d="m-28.93 266.6c-0.10583-0.58208 1.1906-1.27 2.249-2.1167l-1.4023-2.8046c-0.52917 0.3175-1.1642 0.79375-1.7727 1.4817-0.15875 0.15875-0.29104 0.34396-0.44979 0.52917z" class="g7_1" display="block" fill="#fff"/>
    <g fill="#ec1e3b">
     <path d="m-25.782 261.62c-0.34396-0.4498-1.2171-0.50271-2.3019 0.0529l1.4023 2.8046c0.97896-0.79375 1.7198-1.7198 0.89958-2.8575z" class="g142_1" display="block"/>
     <path d="m-32.714 265.86 4.101 8.1492c1.1377-0.47625 2.0902-1.1377 2.4077-1.6404l-1.7727-3.7306-0.87312-1.8521c-0.02646-0.0794-0.05292-0.13229-0.07937-0.18521l-1.3758-2.9104c-0.68792 0.84666-1.27 1.6933-2.4077 2.1696z" class="g142_1" display="block"/>
     <path d="m-33.719 266.15c-0.55562 0.10583-1.1906 0.13229-1.9579 0.0529l0.84667 1.7198 1.7462-0.47625z" class="g142_1" display="block"/>
     <path d="m-32.555 268.5-1.7462 0.47625 0.55562 1.0848 1.7462-0.47625z" class="g142_1" display="block"/>
     <path d="m-31.47 270.67-1.7462 0.47625 0.55562 1.0848 1.7462-0.47625z" class="g142_1" display="block"/>
     <path d="m-32.132 273.32 0.635 1.27c0.635 0.0529 1.27-0.0529 1.905-0.23813l-0.76729-1.5081z" class="g142_1" display="block"/>
    </g>
    <path d="m-26.708 264.51 0.79375 1.5346c0.52917-0.44979 1.1377-1.0054 1.7462-1.5346l-1.4552-2.5929c0.52917 1.0054-0.18521 1.8521-1.0848 2.5929z" class="g7_1" display="block" fill="#fff"/>
    <path d="m-28.851 266.78c0.05292 0.0529 0.10583 0.10583 0.18521 0.15875 0.79375 0.55563 1.6933-0.0265 2.7517-0.89958l-0.79375-1.5346c-1.1377 0.92605-2.6194 1.6669-2.1431 2.2754z" class="g142_1" display="block" fill="#ec1e3b"/>
    <path d="m-31.285 274.27h0.02646c1.8521 0 4.0217-1.1906 4.6567-1.9315l-2.54-5.3975c-0.10583-0.15875-0.13229-0.34396-0.10583-0.52917 0.05292-0.5027 0.68792-0.9525 1.4552-1.5081 0.84667-0.60854 1.8785-1.3494 2.0108-2.1431 0.05292-0.29104-0.02646-0.60854-0.29104-0.92604-0.07938-0.13229-0.26458-0.21166-0.52917-0.23812-0.635-0.0265-1.7727 0.42333-2.9898 1.7727-0.23812 0.26458-0.44979 0.52916-0.66146 0.79375-0.97896 1.2171-1.9844 2.4871-4.8683 2.4077zm0.02646 0.66146h-0.23812l-0.18521-0.0265-4.5773-9.0752 0.60854 0.0529c2.9898 0.23812 3.8629-0.84667 4.8683-2.1431 0.21167-0.26458 0.44979-0.52916 0.68792-0.82021 1.1642-1.2964 2.4871-2.0373 3.5454-1.9844 0.44979 0.0265 0.79375 0.21167 1.0319 0.50271 0.34396 0.47625 0.47625 0.9525 0.39688 1.4288-0.15875 1.0583-1.2965 1.8521-2.2754 2.5665-0.52917 0.37041-1.1642 0.84666-1.2171 1.0848 0 0 0 0.0265 0.02646 0.0529l0.02646 0.0265 2.7252 5.7944-0.10583 0.15875c-0.60854 0.97896-3.2015 2.3812-5.3181 2.3812z" class="g141_1" display="block" fill="#1f1c1e"/>
    <path d="m-25.226 263.26c-0.37042 0.87313-1.3758 1.5875-2.1696 2.1696-0.52917 0.37041-1.1642 0.84666-1.2171 1.0848 0 0 0 0.0265 0.02646 0.0529l0.02646 0.0265s0.02646 0.0265 0.07938 0.0529c0.76729 0.55562 1.8785-0.42333 3.175-1.561 0.23812-0.21167 0.47625-0.44979 0.71438-0.66146zm-2.7781 4.2333c-0.29104 0-0.58208-0.0794-0.84667-0.29105-0.07937-0.0529-0.18521-0.13229-0.26458-0.23812-0.13229-0.15875-0.15875-0.34396-0.13229-0.55563 0.05292-0.5027 0.68792-0.9525 1.4552-1.5081 1.4023-1.0054 2.4077-1.8256 1.8785-2.831l0.58208-0.3175 1.5875 2.831-0.21167 0.18521c-0.29104 0.26458-0.60854 0.52916-0.89958 0.79375-1.1112 0.97896-2.1696 1.9315-3.1485 1.9315z" class="g141_1" display="block" fill="#1f1c1e"/>
    <path d="m11.445 266.15-0.635 1.2965 1.7462 0.47625-0.55562 1.0583-1.7462-0.47625-0.52917 1.0848 1.7462 0.47625-0.55562 1.0848-1.7462-0.47625-0.52917 1.0848 1.7462 0.47625-0.55562 1.0848-1.7462-0.47625-0.79375 1.5081c-0.3175-0.10583-0.635-0.21166-0.9525-0.34395l4.0746-8.1492c0.29104 0.13229 0.635 0.23812 1.0319 0.29104z" class="g7_1" display="block" fill="#fff"/>
    <path d="m6.6297 266.6c0.13229-0.58208-1.1906-1.27-2.249-2.1167l1.4023-2.8046c0.55562 0.3175 1.1642 0.79375 1.7992 1.4817 0.13229 0.15875 0.29104 0.34396 0.42333 0.52917z" class="g7_1" display="block" fill="#fff"/>
    <g fill="#ec1e3b">
     <path d="m3.5076 261.62c0.34396-0.4498 1.2171-0.50271 2.2754 0.0529l-1.4023 2.8046c-0.9525-0.79375-1.7198-1.7198-0.87312-2.8575z" class="g142_1" display="block"/>
     <path d="m10.413 265.86-4.0746 8.1492c-1.1377-0.47625-2.0902-1.1377-2.4077-1.6404l2.6194-5.5827c0.05292-0.0794 0.07937-0.13229 0.07937-0.18521l1.3758-2.9104c0.68792 0.84666 1.2965 1.6933 2.4077 2.1696z" class="g142_1" display="block"/>
     <path d="m11.445 266.15c0.52917 0.10583 1.1906 0.13229 1.9579 0.0529l-0.84667 1.7198-1.7462-0.47625z" class="g142_1" display="block"/>
     <path d="m10.254 268.5 1.7462 0.47625-0.52917 1.0848-1.7462-0.47625z" class="g142_1" display="block"/>
     <path d="m9.1697 270.67 1.7462 0.47625-0.52917 1.0848-1.7462-0.47625z" class="g142_1" display="block"/>
     <path d="m9.8312 273.32-0.635 1.27c-0.60854 0.0529-1.27-0.0529-1.905-0.23813l0.79375-1.5081z" class="g142_1" display="block"/>
    </g>
    <path d="m4.4072 264.51-0.76729 1.5346c-0.55562-0.44979-1.1377-1.0054-1.7727-1.5346l1.4552-2.5929c-0.52917 1.0054 0.18521 1.8521 1.0848 2.5929z" class="g7_1" display="block" fill="#fff"/>
    <path d="m6.5503 266.78c-0.02646 0.0529-0.10583 0.10583-0.15875 0.15875-0.79375 0.55563-1.6933-0.0265-2.7517-0.89958l0.76729-1.5346c1.1642 0.92605 2.6194 1.6669 2.1431 2.2754z" class="g142_1" display="block" fill="#ec1e3b"/>
    <path d="m4.3014 272.34c0.66146 0.74083 2.8046 1.9315 4.6567 1.9315h0.02646l3.8629-7.6994c-2.9104 0.0794-3.8894-1.1906-4.8683-2.4077-0.21167-0.26459-0.42333-0.52917-0.66146-0.79375-1.2171-1.3494-2.3548-1.7992-3.0162-1.7727-0.23812 0.0265-0.42333 0.10583-0.52917 0.23812-0.23812 0.3175-0.3175 0.635-0.29104 0.92604 0.13229 0.79375 1.1906 1.5346 2.0108 2.1431 0.79375 0.55562 1.4023 1.0054 1.4817 1.5081 0.02646 0.18521-0.02646 0.37042-0.13229 0.52917zm4.6831 2.5929c-2.1431 0-4.7096-1.4023-5.3446-2.3812l-0.07937-0.15875 2.7252-5.7944v-0.0265c0.02646-0.0265 0.02646-0.0529 0.02646-0.0529-0.02646-0.23813-0.68792-0.71438-1.1906-1.0848-1.0054-0.71438-2.1167-1.5081-2.2754-2.5665-0.07938-0.47625 0.05292-0.9525 0.39688-1.4288 0.21167-0.29104 0.58208-0.47625 1.0319-0.50271 1.0583-0.0529 2.3812 0.68792 3.5454 1.9844 0.23812 0.29105 0.44979 0.55563 0.66146 0.82021 1.0319 1.27 1.905 2.3812 4.8948 2.1431l0.58208-0.0529-4.5508 9.0752-0.18521 0.0265h-0.23812z" class="g141_1" display="block" fill="#1f1c1e"/>
    <path d="m2.2905 264.43c0.26458 0.21167 0.50271 0.44979 0.74083 0.66146 1.27 1.1377 2.3812 2.1167 3.1485 1.5875 0.02646-0.0265 0.07937-0.0794 0.10583-0.10584 0.02646-0.0265 0.02646-0.0529 0.02646-0.0529-0.02646-0.23813-0.68792-0.71438-1.1906-1.0848-0.82021-0.58209-1.7992-1.2965-2.1696-2.1696zm3.4131 3.0692c-0.9525 0-2.0108-0.9525-3.1221-1.9315-0.29104-0.26459-0.60854-0.52917-0.92604-0.79375l-0.21167-0.18521 1.5875-2.831 0.58208 0.3175c-0.50271 1.0054 0.50271 1.8256 1.8785 2.831 0.79375 0.55562 1.4023 1.0054 1.4817 1.5081 0.02646 0.21167-0.02646 0.39688-0.15875 0.55563-0.05292 0.10583-0.15875 0.18521-0.23812 0.23812-0.29104 0.18521-0.55562 0.29105-0.87312 0.29105z" class="g141_1" display="block" fill="#1f1c1e"/>
    <g fill="#fff">
     <path d="m-5.8851 264.24c-0.37042 0.29104-1.0319 0.74083-1.7727 1.1642v5.8208c0.82021-0.50271 1.6669-1.0319 2.4606-1.4552v-6.0325c-0.29104 0.18521-0.52917 0.34396-0.68792 0.50271z" class="g7_1" display="block"/>
     <path d="m-1.9693 262.66h-0.10583l-0.84667 6.2706h0.10583c0.68792 0 1.3229 0.23812 1.905 0.55562l1.8521-5.6885c-0.89958-0.66146-1.8785-1.1377-2.9104-1.1377z" class="g7_1" display="block"/>
     <path d="m6.3916 266.94c-0.79375 0.52917-1.6933 0-2.7252-0.87312l-2.4077 5.0535c0.97896 0.84666 1.8521 1.561 2.6723 1.2435l2.6194-5.5827c-0.02646 0.0529-0.10583 0.10583-0.15875 0.15875z" class="g7_1" display="block"/>
     <path d="m-28.666 266.94c-0.07938-0.0529-0.13229-0.10583-0.18521-0.15875l2.6458 5.5827c0.82021 0.3175 1.6933-0.39688 2.6723-1.2435l-2.4077-5.0535c-1.0319 0.87312-1.9579 1.4023-2.7252 0.87312z" class="g7_1" display="block"/>
     <path d="m-11.15 266.91c-0.23812 0-0.55562-0.0794-0.92604-0.21166v5.8473c0.34396 0.10583 0.66146 0.18521 0.92604 0.18521 0.29104 0 0.60854-0.0794 0.92604-0.18521v-5.8473c-0.34396 0.13229-0.68792 0.21166-0.92604 0.21166z" class="g7_1" display="block"/>
     <path d="m-20.305 262.66c-1.0319 0-2.0108 0.47625-2.9369 1.1377l1.8521 5.6885c0.60854-0.3175 1.2435-0.55562 1.905-0.55562h0.10583l-0.82021-6.2706h-0.10583z" class="g7_1" display="block"/>
     <path d="m-16.389 264.24c-0.18521-0.15875-0.42333-0.3175-0.68792-0.50271v6.0325c0.79375 0.42334 1.614 0.9525 2.4342 1.4552v-5.8208c-0.71438-0.42334-1.3758-0.87313-1.7462-1.1642z" class="g7_1" display="block"/>
    </g>
    <g fill="#ec1e3b">
     <path d="m-14.643 265.41v5.8208c0.92604 0.55563 1.8256 1.0583 2.5665 1.3229v-5.8473c-0.74083-0.26459-1.7198-0.7673-2.5665-1.2965z" class="g142_1" display="block"/>
     <path d="m-20.199 262.66 0.82021 6.2706c0.66146 0.0529 1.4552 0.37041 2.3019 0.84666v-6.0325c-0.79375-0.50271-1.9315-1.0319-3.1221-1.0848z" class="g142_1" display="block"/>
     <path d="m-25.941 266.07 2.4077 5.0535c0.66146-0.58209 1.3758-1.1906 2.1431-1.6404l-1.8521-5.6885c-0.97896 0.68792-1.8785 1.5875-2.6988 2.2754z" class="g142_1" display="block"/>
     <path d="m-10.224 266.7v5.8473c0.76729-0.26459 1.6669-0.76729 2.5665-1.3229v-5.8208c-0.84667 0.52916-1.7992 1.0319-2.5665 1.2965z" class="g142_1" display="block"/>
     <path d="m-5.1972 263.74v6.0325c0.84667-0.47625 1.6404-0.79375 2.2754-0.84666l0.84667-6.2706c-1.2171 0.0529-2.3548 0.58208-3.1221 1.0848z" class="g142_1" display="block"/>
     <path d="m0.94116 263.79-1.8521 5.6885c0.79375 0.44979 1.5081 1.0583 2.1696 1.6404l2.4077-5.0535c-0.82021-0.68792-1.7198-1.5875-2.7252-2.2754z" class="g142_1" display="block"/>
    </g>
    <path d="m-19.485 268.58c1.2171 0 2.7781 0.97896 4.445 2.0108 1.4552 0.89958 2.9633 1.8256 3.8894 1.8256 0.9525 0 2.4606-0.92605 3.9158-1.8256 1.6404-1.0319 3.2279-2.0108 4.4185-2.0108 1.6404 0 2.9633 1.1642 4.1275 2.1696 0.92604 0.79375 1.7198 1.4817 2.3812 1.3494l2.1696-4.6302c-1.0054 0.10583-2.1167-0.87313-3.2544-1.905-1.3758-1.1906-2.9104-2.5665-4.5773-2.5665-1.5346 0-2.9898 0.92604-3.7306 1.5081-1.0319 0.82021-4.1275 2.7517-5.4504 2.7517-1.2965 0-4.445-1.9579-5.4504-2.7781-0.58208-0.4498-2.1167-1.4817-3.7042-1.4817-1.6669 0-3.2015 1.3758-4.5773 2.5665-1.1377 1.0319-2.249 2.0108-3.2544 1.9315l2.1696 4.6038c0.66146 0.13229 1.4552-0.55563 2.3812-1.3494 1.1642-1.0054 2.4606-2.1696 4.101-2.1696m8.3344 4.4979c-1.1112 0-2.6194-0.9525-4.2333-1.9314-1.5081-0.92605-3.0692-1.8786-4.101-1.8786-1.3758 0-2.5929 1.0319-3.6777 1.9844-1.0848 0.92604-2.1167 1.8256-3.175 1.4288l-0.10583-0.0529-2.6988-5.715 0.58208-0.3175s0.02646 0.0265 0.07938 0.0529c0.76729 0.55562 1.8785-0.42333 3.175-1.561 1.4288-1.2965 3.0692-2.7517 5.0006-2.7517 1.7462 0 3.3338 1.0054 4.101 1.6404 1.1377 0.89958 4.0481 2.6194 5.0535 2.6194 1.0319 0 3.9158-1.7198 5.0535-2.6194 0.79375-0.635 2.3812-1.6404 4.1275-1.6404 1.905 0 3.5454 1.4552 5.0006 2.7517 1.2965 1.1377 2.3812 2.1167 3.1485 1.5875 0.02646-0.0265 0.07937-0.0794 0.10583-0.10584l0.58208 0.34396-2.6988 5.715-0.13229 0.0529c-1.0319 0.39687-2.0638-0.50271-3.1485-1.4288-1.0848-0.9525-2.3019-1.9844-3.7042-1.9844-1.0054 0-2.5665 0.9525-4.0746 1.8786-1.614 0.97895-3.1221 1.9314-4.2598 1.9314z" class="g141_1" display="block" fill="#1f1c1e"/>
    <path d="m-11.044 261.23c5.424 0 9.816-2.3812 9.816-5.3181 0-2.9633-4.3921-5.3446-9.816-5.3446-5.424 0-9.8425 2.3812-9.8425 5.3446 0 2.9369 4.4185 5.3181 9.8425 5.3181z" class="g141_1" display="block" fill="#1f1c1e"/>
    <path d="m-11.044 250.75c-5.3446 0-9.6573 2.3019-9.6573 5.1594 0 2.831 4.3127 5.1329 9.6573 5.1329 5.3181 0 9.6573-2.3019 9.6573-5.1329 0-2.8575-4.3392-5.1594-9.6573-5.1594m0 10.636c-5.5033 0-10.001-2.4606-10.001-5.4769 0-3.0427 4.4979-5.5033 10.001-5.5033 5.5033 0 9.9748 2.4606 9.9748 5.5033 0 3.0162-4.4715 5.4769-9.9748 5.4769z" class="g7_1" display="block" fill="#fff"/>
    <path d="m-11.044 260.35c4.8154 0 8.7313-1.9844 8.7313-4.445 0-2.4871-3.9158-4.4715-8.7313-4.4715-4.8154 0-8.7312 1.9844-8.7312 4.4715 0 2.4606 3.9158 4.445 8.7312 4.445z" class="g146_1" display="block" fill="#fec317"/>
    <path d="m-12.923 251.54c0.60854-0.0794 1.2435-0.10583 1.8785-0.10583 0.60854 0 1.2171 0.0265 1.7992 0.10583-0.58208-0.0794-1.1906-0.10583-1.7992-0.10583-0.635 0-1.27 0.0265-1.8785 0.10583m8.8635 1.6669c-0.23812-0.15875-0.52917-0.3175-0.79375-0.47625-0.3175-0.1323-0.635-0.29105-0.9525-0.39688 0.3175 0.10583 0.635 0.26458 0.9525 0.39688 0.26458 0.15875 0.55562 0.3175 0.79375 0.47625m-13.97 0c0.23812-0.15875 0.52917-0.3175 0.82021-0.47625 0.3175-0.15875 0.635-0.29105 1.0054-0.42334-0.37042 0.13229-0.68792 0.26459-1.0054 0.42334-0.3175 0.15875-0.58208 0.3175-0.82021 0.47625m15.584 3.466c0.10583-0.23813 0.13229-0.50271 0.13229-0.76729 0-0.29105-0.05292-0.55563-0.13229-0.82021 0.07937 0.26458 0.13229 0.52916 0.13229 0.82021 0 0.26458-0.02646 0.52916-0.13229 0.76729m-17.198 0.0265c-0.07937-0.26459-0.13229-0.52917-0.13229-0.79375 0-0.29105 0.05292-0.55563 0.15875-0.84667-0.10583 0.29104-0.15875 0.55562-0.15875 0.84667 0 0.26458 0.05292 0.52916 0.13229 0.79375m13.838 2.7517c0.3175-0.10583 0.635-0.26458 0.9525-0.39687 0.26458-0.15875 0.52917-0.3175 0.76729-0.47625-0.23812 0.15875-0.50271 0.3175-0.76729 0.47625-0.3175 0.13229-0.635 0.29104-0.9525 0.39687m-10.398 0.0265c-0.37042-0.13237-0.68792-0.26466-1.0054-0.42341-0.29104-0.15875-0.55562-0.3175-0.79375-0.47625 0.23812 0.15875 0.50271 0.3175 0.79375 0.47625 0.3175 0.15875 0.635 0.29104 1.0054 0.42333m5.1594 0.87313c-0.635 0-1.27-0.0265-1.8785-0.10584 0.60854 0.0794 1.2435 0.10584 1.8785 0.10584 0.60854 0 1.1906-0.0265 1.7727-0.0794-0.58208 0.0529-1.1642 0.0794-1.7727 0.0794z" class="g141_1" display="block" fill="#1f1c1e"/>
    <path d="m-11.044 259.29c3.9423 0 7.1173-1.2965 7.1173-2.8575s-3.175-2.831-7.1173-2.831c-3.9158 0-7.0908 1.27-7.0908 2.831s3.175 2.8575 7.0908 2.8575z" class="g7_1" display="block" fill="#fff"/>
    <path d="m-11.044 254.27c-3.9158 0-6.4294 1.2965-6.4294 2.1696 0 0.89959 2.5135 2.1696 6.4294 2.1696 3.9423 0 6.4558-1.27 6.4558-2.1696 0-0.87312-2.5135-2.1696-6.4558-2.1696m0 5.6885c-3.7571 0-7.7788-1.2435-7.7788-3.519 0-2.2754 4.0217-3.519 7.7788-3.519 3.7835 0 7.8052 1.2436 7.8052 3.519s-4.0217 3.519-7.8052 3.519z" class="g141_1" display="block" fill="#1f1c1e"/>
    <path d="m-11.044 254.43c-3.7835 0-6.8527 3.0692-6.8527 6.8262 0 3.7835 3.0692 6.8527 6.8527 6.8527h-0.10583c3.7835 0 6.8527-3.0692 6.8527-6.8527 0-3.7571-3.0692-6.8262-6.8527-6.8262z" class="g7_1" display="block" fill="#fff"/>
    <g fill="#1f1c1e">
     <path d="m-11.097 254.74c-3.5719 0.0265-6.4823 2.9369-6.4823 6.5088 0 3.5983 2.9104 6.5088 6.4823 6.5088s6.4558-2.9104 6.4558-6.5088c0-3.5719-2.884-6.4823-6.4558-6.5088m0.05292 13.705h-0.10583c-3.9158-0.0529-7.0908-3.2544-7.0908-7.1967 0-3.9158 3.175-7.1173 7.0908-7.1702h0.10583c3.9158 0.0529 7.0908 3.2544 7.0908 7.1702 0 3.9423-3.175 7.1438-7.0908 7.1967z" class="g141_1" display="block"/>
     <path d="m-12.182 266.91-1.4288-2.3812-2.5665-0.42333-0.66146 0.82021c0.02646 0.0265 0.05292 0.0794 0.07937 0.13229l0.10583 0.15875c0.87312 1.2171 2.1167 2.1431 3.5719 2.5929l0.26458 0.0529z" class="g141_1" display="block"/>
     <path d="m-13.955 260.33 1.1112 3.4131h3.4925l1.1112-3.4131-2.8575-2.0902z" class="g141_1" display="block"/>
     <path d="m-11.097 256.86l2.1167-1.4023v-0.68791c-0.66146-0.21167-1.3758-0.34396-2.1167-0.34396-0.74083 0-1.4552 0.13229-2.1167 0.34396v0.68791z" class="g141_1" display="block"/>
     <path d="m-15.04 259.22 0.07937-2.6988-0.55562-0.42334c-0.29104 0.23813-0.58208 0.50271-0.82021 0.79375l-0.02646 0.0265c-0.76729 0.9525-1.2965 2.1167-1.4552 3.4131l0.60855 0.26454z" class="g141_1" display="block"/>
     <path d="m-8.5838 264.53-1.4023 2.3812 0.60854 0.9525 0.23812-0.0529c1.4817-0.4498 2.7517-1.4023 3.6248-2.6723l0.05292-0.0794c0.02646-0.0529 0.05292-0.10583 0.10583-0.13229l-0.66146-0.82021z" class="g141_1" display="block"/>
     <path d="m-7.1551 259.22 2.1696 1.3758 0.60854-0.26458c-0.15875-1.2965-0.68792-2.4606-1.4817-3.4131-0.23812-0.3175-0.52917-0.58208-0.82021-0.82021l-0.55562 0.42334z" class="g141_1" display="block"/>
    </g>
   </g>
  </g>
 </g>
</svg>
