<svg xmlns="http://www.w3.org/2000/svg" height="220" width="220" version="1.1" viewBox="0 0 58.208332 58.208335">
 <g transform="translate(0 -238.79)">
  <g transform="translate(-5.8333e-8 -.0000018318)">
   <g stroke-width=".26458" transform="translate(51.972 -8.6935)">
    <path d="m-28.463 284.06c-0.10583-0.0265-0.29104-0.0265-0.47625 0.18521-0.3175 0.34395-0.44979 0.79375-0.44979 1.3229 0.02646 0.15875 0.02646 0.23813 0.07937 0.34396 0.07937 0.21167 0.23812 0.34396 0.37042 0.37042 0.15875 0.0265 0.3175-0.0794 0.47625-0.26459 0.34396-0.39687 0.47625-1.1377 0.3175-1.614-0.07937-0.21167-0.18521-0.3175-0.3175-0.34396m7.2496 5.4769c0.15875 0.37042 0.44979 0.58209 0.68792 0.66146 0.29104 0.0794 1.0583 0.26458 1.6933 0.3175 0.68792 0.0794 1.2435-0.3175 1.5346-1.0848-0.21167-0.0265-0.47625-0.0529-0.74083-0.0794-0.05292 0.15875-0.10583 0.3175-0.18521 0.4498-0.05292 0.10583-0.18521 0.13229-0.29104 0.0794-0.10583-0.0529-0.15875-0.18521-0.07938-0.29104 0.05292-0.10583 0.07938-0.21167 0.13229-0.3175-0.13229-0.0265-0.29104-0.0529-0.42333-0.0794-0.05292 0.18521-0.10583 0.37042-0.15875 0.50271-0.02646 0.10584-0.15875 0.15875-0.29104 0.10584-0.10583-0.0529-0.15875-0.18521-0.10583-0.29105 0.05292-0.10583 0.07938-0.23812 0.13229-0.39687-0.07938 0-0.13229-0.0265-0.21167-0.0529-0.07937 0-0.15875-0.0265-0.23812-0.0529-0.02646 0.13229-0.07937 0.26458-0.13229 0.39687-0.05292 0.10583-0.18521 0.15875-0.29104 0.13229-0.10583-0.0529-0.15875-0.18521-0.10583-0.29104s0.07938-0.23812 0.10583-0.34396c-0.37042-0.0794-0.74083-0.18521-1.1377-0.29104-0.07937 0.39688 0 0.71438 0.10583 0.92604m4.0481-0.55562c0.10583-0.42334 0-0.74084-0.10583-0.92604-0.13229-0.23813-0.37042-0.42334-0.60854-0.47625l-0.29104-0.0529c-0.23812-0.0529-0.635-0.13229-1.1906-0.29104-0.79375-0.18521-1.4288 0.15875-1.7992 0.9525 0.37042 0.10583 0.74083 0.21166 1.0848 0.29104 0.07937-0.26458 0.07937-0.47625 0.07937-0.47625 0-0.10583 0.10583-0.21167 0.23812-0.18521 0.10583 0 0.21167 0.10583 0.21167 0.21167 0 0.0265-0.02646 0.23812-0.07938 0.55562 0.05292 0.0265 0.13229 0.0529 0.21167 0.0529 0.05292 0.0265 0.13229 0.0265 0.21167 0.0529 0.05292-0.3175 0.10583-0.58209 0.10583-0.58209 0-0.10583 0.13229-0.21166 0.23812-0.18521 0.13229 0.0265 0.21167 0.1323 0.18521 0.26459 0 0-0.05292 0.26458-0.10583 0.58208 0.13229 0.0265 0.29104 0.0529 0.42333 0.0794 0.05292-0.26459 0.05292-0.47625 0.05292-0.47625 0-0.1323 0.10583-0.21167 0.23812-0.21167 0.10583 0 0.21167 0.10583 0.21167 0.23812 0 0-0.02646 0.23813-0.07938 0.52917 0.3175 0.0265 0.55562 0.0529 0.76729 0.0529m1.2965-2.7781c-0.02646-0.79375-0.18521-1.561-0.47625-2.2754-0.3175-0.87313-1.4288-1.4817-2.9104-1.8256-2.6988-0.60854-6.2442 0.39688-8.5196 2.3019 0.07938 0.34395 0.05292 0.76729-0.05292 1.1377 1.6404 0.89959 3.9952 1.8256 6.2442 2.5136 0.52917-1.2171 1.5346-1.4288 2.3283-1.2436 0.55562 0.15875 0.92604 0.21167 1.1906 0.26459l0.29104 0.0794c0.37042 0.0794 0.68792 0.3175 0.87312 0.66146 0.15875 0.26458 0.29104 0.635 0.18521 1.1642 0.29104 0 0.42333-0.0529 0.44979-0.0794 0.29104-0.84666 0.42333-1.7462 0.39688-2.6988m-3.0162 4.7625c-0.60854-0.0794-1.4288-0.23812-1.7992-0.37041-0.39688-0.1323-0.74083-0.4498-0.9525-0.87313-0.07938-0.18521-0.13229-0.42333-0.15875-0.68792 0-0.1852 0.02646-0.37041 0.05292-0.55562-2.2225-0.68792-4.6038-1.6404-6.2706-2.5135-0.05292 0.10583-0.10583 0.21166-0.18521 0.29104-0.13229 0.13229-0.26458 0.23812-0.39688 0.3175 0.13229 1.3758 0.60854 2.7252 1.3758 3.8894 1.0054 1.561 2.3813 2.6194 3.8629 2.9633 0.52917 0.13229 1.2171 0.26458 1.8256 0.13229 2.3019-0.50271 4.154-2.0902 5.0535-4.154-0.10583 0-0.21167 0.0265-0.34396 0.0265-0.52917 1.5346-1.614 1.5875-2.0638 1.5346m-10.61-6.4294c0.07937-0.18521 0.18521-0.34396 0.29104-0.47625 0.07937-0.10584 0.18521-0.18521 0.29104-0.23813 0.26458-1.2435 0.82021-2.3812 1.6404-3.2015-1.2171 0.87313-2.1696 2.0902-2.6458 3.5454 0.05292 0.0794 0.23812 0.21167 0.42333 0.37042m-0.13229 0.42333c-0.18521-0.13229-0.3175-0.23812-0.44979-0.34396-0.18521 0.68792-0.26458 1.4288-0.23812 2.1696 0 0.15875 0.02646 0.3175 0.02646 0.47625 0.13229-0.4498 0.34396-0.92605 0.635-1.4023-0.05292-0.29104-0.05292-0.60854 0.02646-0.89958m0.58208 1.6404c-0.15875-0.0265-0.29104-0.13229-0.39688-0.26459-0.55562 0.82021-0.76729 1.561-0.58208 2.2225 0.84667 2.8046 3.3073 4.8683 6.2442 5.1329-2.8046-0.84667-4.8948-3.7835-5.2652-7.0908z" class="g134_1" display="block" fill="#192456"/>
    <path d="m-26.215 247.95c-2.831 0-3.519 1.4552-3.519 1.4552s3.2808-0.23812 3.2808 2.9898c0 1.4552-0.79375 2.4342-1.6404 3.466-0.9525 1.2171-2.0638 2.5929-2.0638 4.8948 0 3.81 2.4342 5.5827 4.6038 7.1702 1.8785 1.3494 3.6512 2.6458 3.6512 5.1065 0 2.4342-1.0848 4.3392-1.561 4.8419-0.82021 0.82021-1.561 0.97896-2.1696 1.0848-0.60854 0.13229-1.1906 0.23812-1.2965 1.1377-2.2754 1.3494-3.6512 3.7835-3.6512 6.4029v0.3175c0.07937 1.9844 0.9525 3.8365 2.4077 5.1858 1.4817 1.3758 3.3867 2.0638 5.3975 1.9844 1.9844-0.0794 3.8365-0.92604 5.1858-2.4077 1.3494-1.4552 2.0638-3.3867 1.9844-5.371-0.13229-3.0427-2.0638-5.6885-4.9477-6.7469h0.02646-0.05292l-0.05292-0.0265c-0.37042-0.13229-0.79375-0.26458-0.79375-1.2171 0-0.89959 0.42333-0.97896 1.2435-1.1112 0.47625-0.10584 1.0848-0.21167 1.6669-0.55563 1.0319-0.635 1.2171-1.4023 1.0319-1.5875-0.23812-0.26458-0.52917 0.26458-1.5875 0.58208-0.37042 0.1323-0.74083 0.18521-1.0054 0.18521-0.21167 0-0.37042-0.0265-0.47625-0.0265 0.52917-1.0319 1.1642-1.8785 1.1642-1.8785l0.13229-0.18521-0.15875-0.15875c-0.21167-0.21166-0.34396-0.66145-0.34396-1.2435 0-0.74083 0.18521-1.6933 0.635-2.7517 0.50271-1.2171 2.5135-5.2388 7.1702-5.2388h0.26458v-0.26459c0-1.6669-0.15875-3.175-0.44979-4.5508l-0.05292-0.23813s-0.44979 0.10584-0.84667 0.21167c-0.02646 0-0.37042 0.0794-0.39688 0-0.02646-0.0529 0.26458-0.18521 0.34396-0.23812 0.34396-0.18521 0.79375-0.37042 0.79375-0.37042l-0.05292-0.21167c-0.34396-1.1377-0.66146-1.6933-0.68792-1.7198l-0.10583-0.18521-0.18521 0.0794c-3.8894 1.2171-4.7096 3.7835-5.1858 5.3181-0.26458 0.74084-0.39688 1.1642-0.66146 1.1642-0.82021 0-1.4552-0.66146-1.6933-0.87313-2.4077-2.4342-2.2225-4.154-1.9315-6.7998 0.07938-0.92604 0.21167-1.9844 0.21167-3.175 0-3.0427-1.1642-4.445-3.6248-4.445z" class="g7_1" display="block" fill="#fff"/>
    <g fill="#192456">
     <path d="m-28.463 284.06c-0.10583-0.0265-0.29104-0.0265-0.47625 0.18521-0.3175 0.34395-0.44979 0.79375-0.44979 1.3229 0.02646 0.15875 0.02646 0.23813 0.07937 0.34396 0.07937 0.21167 0.23812 0.34396 0.37042 0.37042 0.15875 0.0265 0.3175-0.0794 0.47625-0.26459 0.34396-0.39687 0.47625-1.1377 0.3175-1.614-0.07937-0.21167-0.18521-0.3175-0.3175-0.34396m11.298 4.9212c0.10583-0.42334 0-0.74084-0.10583-0.92604-0.13229-0.23813-0.37042-0.42334-0.60854-0.47625l-0.29104-0.0529c-0.23812-0.0529-0.635-0.13229-1.1906-0.29104-0.79375-0.18521-1.4288 0.15875-1.7992 0.9525 0.37042 0.10583 0.74083 0.21166 1.0848 0.29104 0.07937-0.26458 0.07937-0.47625 0.07937-0.47625 0-0.10583 0.10583-0.21167 0.23812-0.18521 0.10583 0 0.21167 0.10583 0.21167 0.21167 0 0.0265-0.02646 0.23812-0.07938 0.55562 0.05292 0.0265 0.13229 0.0529 0.21167 0.0529 0.05292 0.0265 0.13229 0.0265 0.21167 0.0529 0.05292-0.3175 0.10583-0.58209 0.10583-0.58209 0-0.10583 0.13229-0.21166 0.23812-0.18521 0.13229 0.0265 0.21167 0.1323 0.18521 0.26459 0 0-0.05292 0.26458-0.10583 0.58208 0.13229 0.0265 0.29104 0.0529 0.42333 0.0794 0.05292-0.26459 0.05292-0.47625 0.05292-0.47625 0-0.1323 0.10583-0.21167 0.23812-0.21167 0.10583 0 0.21167 0.10583 0.21167 0.23812 0 0-0.02646 0.23813-0.07938 0.52917 0.3175 0.0265 0.55562 0.0529 0.76729 0.0529m-4.0481 0.55562c0.15875 0.37042 0.44979 0.58209 0.68792 0.66146 0.29104 0.0794 1.0583 0.26458 1.6933 0.3175 0.68792 0.0794 1.2435-0.3175 1.5346-1.0848-0.21167-0.0265-0.47625-0.0529-0.74083-0.0794-0.05292 0.15875-0.10583 0.3175-0.18521 0.4498-0.05292 0.10583-0.18521 0.13229-0.29104 0.0794-0.10583-0.0529-0.15875-0.18521-0.07938-0.29104 0.05292-0.10583 0.07938-0.21167 0.13229-0.3175-0.13229-0.0265-0.29104-0.0529-0.42333-0.0794-0.05292 0.18521-0.10583 0.37042-0.15875 0.50271-0.02646 0.10584-0.15875 0.15875-0.29104 0.10584-0.10583-0.0529-0.15875-0.18521-0.10583-0.29105 0.05292-0.10583 0.07938-0.23812 0.13229-0.39687-0.07938 0-0.13229-0.0265-0.21167-0.0529-0.07937 0-0.15875-0.0265-0.23812-0.0529-0.02646 0.13229-0.07937 0.26458-0.13229 0.39687-0.05292 0.10583-0.18521 0.15875-0.29104 0.13229-0.10583-0.0529-0.15875-0.18521-0.10583-0.29104s0.07938-0.23812 0.10583-0.34396c-0.37042-0.0794-0.74083-0.18521-1.1377-0.29104-0.07937 0.39688 0 0.71438 0.10583 0.92604m4.8683-5.6092c-0.3175-0.87313-1.4288-1.4817-2.9104-1.8256-2.6988-0.60854-6.2442 0.39688-8.5196 2.3019 0.07938 0.34395 0.05292 0.76729-0.05292 1.1377 1.6404 0.89959 3.9952 1.8256 6.2442 2.5136 0.52917-1.2171 1.5346-1.4288 2.3283-1.2436 0.55562 0.15875 0.92604 0.21167 1.1906 0.26459l0.29104 0.0794c0.37042 0.0794 0.68792 0.3175 0.87312 0.66146 0.15875 0.26458 0.29104 0.635 0.18521 1.1642 0.29104 0 0.42333-0.0529 0.44979-0.0794 0.29104-0.84666 0.42333-1.7462 0.39688-2.6988-0.02646-0.79375-0.18521-1.561-0.47625-2.2754m-2.54 7.0379c-0.60854-0.0794-1.4288-0.23812-1.7992-0.37041-0.39688-0.1323-0.74083-0.4498-0.9525-0.87313-0.07938-0.18521-0.13229-0.42333-0.15875-0.68792 0-0.1852 0.02646-0.37041 0.05292-0.55562-2.2225-0.68792-4.6038-1.6404-6.2706-2.5135-0.05292 0.10583-0.10583 0.21166-0.18521 0.29104-0.13229 0.13229-0.26458 0.23812-0.39688 0.3175 0.13229 1.3758 0.60854 2.7252 1.3758 3.8894 1.0054 1.561 2.3813 2.6194 3.8629 2.9633 0.52917 0.13229 1.2171 0.26458 1.8256 0.13229 2.3019-0.50271 4.154-2.0902 5.0535-4.154-0.10583 0-0.21167 0.0265-0.34396 0.0265-0.52917 1.5346-1.614 1.5875-2.0638 1.5346m-10.61-6.4294c0.07937-0.18521 0.18521-0.34396 0.29104-0.47625 0.07937-0.10584 0.18521-0.18521 0.29104-0.23813 0.26458-1.2435 0.82021-2.3812 1.6404-3.2015-1.2171 0.87313-2.1696 2.0902-2.6458 3.5454 0.05292 0.0794 0.23812 0.21167 0.42333 0.37042m-0.13229 0.42333c-0.18521-0.13229-0.3175-0.23812-0.44979-0.34396-0.18521 0.68792-0.26458 1.4288-0.23812 2.1696 0 0.15875 0.02646 0.3175 0.02646 0.47625 0.13229-0.4498 0.34396-0.92605 0.635-1.4023-0.05292-0.29104-0.05292-0.60854 0.02646-0.89958m0.58208 1.6404c-0.15875-0.0265-0.29104-0.13229-0.39688-0.26459-0.55562 0.82021-0.76729 1.561-0.58208 2.2225 0.84667 2.8046 3.3073 4.8683 6.2442 5.1329-2.8046-0.84667-4.8948-3.7835-5.2652-7.0908m3.466-34.211c0-0.39687-0.02646-0.76729-0.10583-1.1112 0 0 0.635-0.0265 0.635-0.82021 0-0.635-0.42333-1.0848-0.55562-1.0848-0.07938 0-0.10583 0.10584-0.3175 0.10584-0.47625 0-0.52917-0.635-0.52917-0.635h0.23812c1.4023 0 2.7252 0.42333 2.7252 3.5454 0 1.1642-0.10583 2.1696-0.21167 3.0956-0.07938 0.87312-0.18521 1.7198-0.15875 2.54 0 0-2.4606-0.29104-2.4606-2.1696 0-1.1906 0.74083-1.5081 0.74083-3.466m3.9423 20.638c0 2.4342-1.0319 4.4185-1.6404 5.0271-1.8785 1.8785-3.4131 0.5027-3.4131 2.3812-0.84667 0.76729-1.4552 1.9314-1.7727 3.2544 0.02646 0 0.05292 0.0265 0.05292 0.0265 0.18521 0.0265 0.34396 0.13229 0.44979 0.29104 2.3812-1.9315 6.0325-2.9633 8.8106-2.3283 0.89958 0.21166 1.6404 0.52916 2.2225 1.0319-0.87312-1.3758-2.1696-2.4606-3.7306-3.0162-0.37042-0.13229-1.0054-0.26458-1.0054-1.4817 0-2.2225 2.4342-0.47625 4.0217-2.9104 0.07938-0.10583-0.02646-0.21167-0.13229-0.13229-0.47625 0.50271-1.6669 0.82021-2.3019 0.82021s-0.87312-0.1323-0.87312-0.1323c0.60854-1.1906 1.3494-2.196 1.3494-2.196-1.4817-1.5081 1.0054-9.6838 7.6465-9.6838 0-1.905-0.21167-3.3867-0.44979-4.4715-0.15875 0.0265-1.4023 0.3175-1.4552 0.0529-0.05292-0.23812 0.92604-0.74083 1.2435-0.89958-0.3175-1.1377-0.635-1.6669-0.635-1.6669-5.6885 1.7992-4.5508 6.5088-5.9267 6.5088-0.89958 0-1.614-0.71437-1.8785-0.9525-3.3867-3.4131-1.7992-5.6621-1.7992-10.16 0-3.0427-1.1906-4.1804-3.3602-4.1804-2.196 0-2.9633 0.9525-2.9633 0.9525s2.9898 0.0794 2.9898 3.2279c0 3.2808-3.7042 4.1804-3.7042 8.3608 0 6.9321 8.255 6.7998 8.255 12.277z" class="g134_1" display="block"/>
     <path d="m-34.152 292.82c0.55562 0.37041 1.1377 0.71437 1.1377 0.71437l-0.18521 0.52917c-0.07937-0.34396-0.39688-0.50271-0.82021-0.76729l-1.3494 1.9579c-0.15875 0.23813-0.50271 0.74084-0.52917 0.9525 0 0-0.21167-0.13229-0.42333-0.29104-0.21167-0.15875-0.39688-0.29104-0.39688-0.29104 0.18521-0.0529 0.55562-0.58208 0.74083-0.84667l1.3229-1.8785c-0.47625-0.39687-0.68792-0.47625-1.0319-0.47625l0.47625-0.37042s0.44979 0.37042 1.0583 0.7673z" class="g134_1" display="block"/>
     <path d="m-12.721 299.46 0.02646 0.0265c-0.02646 0-0.05292 0.0265-0.10583 0.0529l0.13229 0.21167c0 0.0529 0.05292 0.10583 0.07937 0.13229 0 0-0.02646 0-0.07937 0.0265-0.02646 0-0.05292 0.0265-0.05292 0.0265 0.02646-0.0265 0-0.0529-0.02646-0.13229l-0.13229-0.23813c-0.02646 0.0265-0.07938 0.0529-0.07938 0.0794l-0.02646-0.0529s0.05292-0.0529 0.13229-0.0794 0.13229-0.0529 0.13229-0.0529z" class="g134_1" display="block"/>
     <path d="m-31.718 294.43c-0.60854-0.29104-1.0848 0.39688-1.4288 1.1377-0.37042 0.74084-0.60854 1.5346 0 1.8256 0.60854 0.29104 1.0848-0.39688 1.4288-1.1377 0.37042-0.74083 0.58208-1.5346 0-1.8256m-1.561 3.2544c-0.92604-0.44979-1.0583-1.4817-0.60854-2.4606 0.47625-0.97895 1.3494-1.5346 2.3019-1.0848 0.92604 0.44979 1.0583 1.4817 0.60854 2.4606-0.47625 0.97896-1.3494 1.5346-2.3019 1.0848z" class="g134_1" display="block"/>
     <path d="m-29.072 295.15c0.635 0.18521 1.1642 0.29104 1.1642 0.29104l-0.07937 0.58208c-0.15875-0.23812-0.23812-0.3175-0.76729-0.44979l-0.66146 2.2225c-0.05292 0.18521-0.3175 0.9525-0.23812 1.1112 0 0-0.18521-0.0529-0.47625-0.13229-0.34396-0.0794-0.47625-0.15875-0.47625-0.15875 0.15875-0.10583 0.37042-0.76729 0.44979-1.0319l0.66146-2.2225c-0.58208-0.18521-0.68792-0.18521-0.97896-0.0794l0.34396-0.47625s0.37042 0.15875 1.0583 0.34396z" class="g134_1" display="block"/>
     <path d="m-26.453 295.73c0.635 0.10584 1.2171 0.15875 1.2171 0.15875l0.02646 0.55563c-0.23812-0.18521-0.3175-0.26459-0.9525-0.34396l-0.34396 2.2754c-0.02646 0.21166-0.15875 1.0054-0.05292 1.1377 0 0-0.21167-0.0265-0.52917-0.0794-0.29104-0.0529-0.47625-0.0794-0.47625-0.0794 0.13229-0.10583 0.26458-0.87312 0.29104-1.0848l0.37042-2.2754c-0.52917-0.10584-0.66146-0.0794-0.89958 0.0794l0.23812-0.55562s0.47625 0.13229 1.1112 0.21166z" class="g134_1" display="block"/>
     <path d="m-24.124 297.9-0.05292 1.5346c0.79375 0 1.3494-0.0529 1.5875-0.39688l-0.13229 0.68792h-1.0848c-0.71438 0-1.27-0.0529-1.27-0.0529 0.13229-0.13229 0.15875-0.87312 0.15875-1.0583l0.05292-1.5081c0-0.39688 0.05292-1.0319-0.07937-1.1906 0.58208 0.0529 0.50271 0.0529 1.0319 0.0794 0.68792 0.0265 1.0848 0 1.0848 0l0.07938 0.58208c-0.26458-0.23813-0.66146-0.26458-1.3229-0.26458l-0.05292 1.27h1.0319c0.07938 0 0.10583 0.0529 0.10583 0.15875-0.02646 0.10583-0.02646 0.15875-0.10583 0.15875z" class="g134_1" display="block"/>
     <path d="m-19.653 298.35c0.05292 0.55562 0.10583 0.9525 0.23812 1.0319-0.02646 0.0529-0.13229 0.13229-0.26458 0.15875-0.15875 0-0.29104-0.0794-0.39688-0.21166l-1.8256-2.0638 0.07937 1.3229c0.02646 0.21167 0.05292 0.97896 0.18521 1.0848l-0.60854 0.0265c0.10583-0.10583 0.07937-0.87312 0.05292-1.0848l-0.07938-1.4817c-0.02646-0.21166-0.07937-1.0319-0.21167-1.1377l0.55562-0.0265 1.8785 2.196-0.15875-1.27c-0.02646-0.18521-0.13229-0.9525-0.26458-1.0583 0 0 0.05292 0 0.29104-0.0265 0.21167-0.0529 0.29104-0.0529 0.29104-0.0529-0.07937 0.13229 0.02646 0.89958 0.05292 1.1112z" class="g134_1" display="block"/>
     <path d="m-16.266 297.56c0.07937 0.26458 0.18521 0.92604 0.39688 1.0583 0 0-0.29104 0.0794-0.47625 0.13229-0.15875 0.0529-0.50271 0.15875-0.50271 0.15875 0.07937-0.15875-0.07938-0.9525-0.13229-1.1377l-0.18521-0.71437-1.1377 0.29104 0.13229 0.71438c0.02646 0.21166 0.15875 0.97895 0.29104 1.0848 0 0-0.15875 0.0265-0.47625 0.10583-0.29104 0.0529-0.47625 0.0794-0.47625 0.0794 0.07937-0.1323-0.05292-0.84667-0.07938-1.0848l-0.26458-1.4817c-0.05292-0.29104-0.18521-0.97896-0.34396-1.0583 0 0 0.15875-0.0265 0.47625-0.10583 0.34396-0.0529 0.50271-0.10583 0.50271-0.10583-0.07937 0.18521 0.05292 0.84666 0.07938 1.0848l0.10583 0.47625 1.1377-0.29104-0.13229-0.47625c-0.07937-0.26459-0.21167-0.87313-0.37042-0.97896 0 0 0.15875-0.0529 0.47625-0.13229 0.3175-0.10584 0.44979-0.13229 0.44979-0.13229-0.05292 0.15875 0.10583 0.76729 0.18521 1.0583z" class="g134_1" display="block"/>
     <path d="m-14.361 296.45-1.0054-1.3758 0.07937 1.7198zm0.21167 0.23812-1.1377 0.44979 0.05292 0.60855c0.02646 0.21166 0.02646 0.39687 0.05292 0.52916 0.02646 0.0529 0.07938 0.0794 0.10583 0.10584 0 0-0.10583 0.0264-0.3175 0.10583-0.18521 0.0529-0.29104 0.0794-0.29104 0.0794 0.07937-0.10583 0.07937-0.26458 0.07937-0.47625l-0.10583-2.9104c0-0.10584 0-0.21167-0.05292-0.29104-0.02646-0.0794-0.07937-0.1323-0.10583-0.15875 0.10583-0.0794 0.29104-0.18521 0.44979-0.23813 0.23812-0.10583 0.37042-0.10583 0.55562 0.10583l1.6404 2.0638c0.29104 0.37042 0.55562 0.635 0.74083 0.68792 0 0-0.18521 0.0794-0.47625 0.21167-0.3175 0.15875-0.52917 0.23812-0.52917 0.23812 0-0.0794 0-0.13229-0.02646-0.23812-0.05292-0.13229-0.21167-0.3175-0.3175-0.44979z" class="g134_1" display="block"/>
     <path d="m-9.44 295.63c-0.23812 0.15875-0.39688 0.26458-0.39688 0.26458-0.02646-0.21166-0.44979-0.76729-0.58208-0.92604l-0.9525-1.27 0.76729 2.4871c-0.02646 0.0529-0.07937 0.1323-0.13229 0.15875-0.15875 0.10584-0.3175 0.10584-0.44979 0l-1.8256-1.5346 0.635 1.1906c0.15875 0.29104 0.44979 0.92604 0.66146 0.97895 0 0-0.13229 0.0794-0.29104 0.15875-0.15875 0.0794-0.26458 0.10584-0.26458 0.10584 0.05292-0.15875-0.26458-0.68792-0.42333-1.0319l-0.71438-1.3494c-0.23812-0.39688-0.47625-0.82021-0.66146-0.89959 0.15875-0.0794 0.18521-0.10583 0.42333-0.21166 0.18521-0.0794 0.37042-0.18521 0.37042-0.18521l2.0638 1.7727-0.82021-2.5135s0.10583-0.0529 0.3175-0.21167c0.21167-0.13229 0.39688-0.26458 0.39688-0.26458 0.02646 0.21166 0.44979 0.79375 0.60854 1.0054l0.89958 1.1377c0.18521 0.23813 0.52917 0.76729 0.79375 0.82021l-0.42333 0.3175z" class="g134_1" display="block"/>
     <path d="m-12.271 299.33 0.10583 0.13229c0.02646 0.0529 0.05292 0.0794 0.10583 0.10583 0 0-0.02646 0.0265-0.05292 0.0265-0.02646 0.0265-0.05292 0.0265-0.05292 0.0265 0-0.0265-0.05292-0.0794-0.07937-0.10584l-0.10583-0.13229 0.10583 0.29104h-0.02646c-0.02646 0.0265-0.02646 0.0265-0.05292 0l-0.21167-0.15875 0.07937 0.1323c0.02646 0.0265 0.05292 0.0794 0.07938 0.10583l-0.02646 0.0265h-0.02646c0-0.0265-0.05292-0.0794-0.05292-0.10584l-0.10582-0.15887c-0.02646-0.0265-0.05292-0.0794-0.07937-0.10583 0 0 0.02646 0 0.05292-0.0265 0.02646 0 0.05292-0.0265 0.05292-0.0265l0.23812 0.21167-0.10583-0.29104c0.02646 0 0.02646 0 0.05292-0.0265s0.05292-0.0265 0.05292-0.0265c0 0.0265 0.05292 0.0794 0.05292 0.10584z" class="g134_1" display="block"/>
     <path d="m-30.686 300.18c0.18521 0.0794 0.42333 0.15875 0.42333 0.15875-0.21167 0.15875-0.39688 0.74084-0.52917 1.0848l-0.47625 1.3229c-0.13229 0.37042-0.34396 0.89958-0.26458 1.0848 0 0-0.26458-0.0794-0.47625-0.15875-0.18521-0.0794-0.29104-0.10583-0.50271-0.18521 0.23812-0.0794 0.47625-0.84666 0.52917-1.0583l0.23812-0.60854-1.1642-0.50271-0.34396 0.71438c-0.10583 0.26458-0.37042 0.8202-0.29104 1.0054 0 0-0.21167-0.10583-0.50271-0.23812-0.37042-0.15875-0.42333-0.18521-0.42333-0.18521 0.23812-0.13229 0.37042-0.52917 0.58208-0.92604l0.58208-1.3494c0.21167-0.44979 0.39688-0.84666 0.39688-1.1112 0 0 0.10583 0.0529 0.39688 0.18521 0.23812 0.10583 0.34396 0.15875 0.50271 0.21167-0.21167 0.0794-0.44979 0.76729-0.60854 1.0583l-0.15875 0.37042 1.1112 0.47625 0.18521-0.42334c0.07937-0.23812 0.34396-0.87312 0.29104-1.1112 0 0 0.23812 0.0794 0.50271 0.18521z" class="g134_1" display="block"/>
     <path d="m-28.49 301.1c-0.66146-0.15875-0.97896 0.58209-1.1906 1.3758-0.21167 0.76729-0.29104 1.5875 0.37042 1.7462 0.635 0.18521 0.97896-0.58209 1.1642-1.3494 0.21167-0.79375 0.29104-1.5875-0.34396-1.7727m-0.89958 3.4131c-1.0054-0.26458-1.3229-1.2435-1.0583-2.249 0.26458-1.0319 1.0319-1.7198 2.0373-1.4552 0.97896 0.26459 1.3229 1.2435 1.0583 2.2754-0.26458 1.0054-1.0319 1.6933-2.0373 1.4288z" class="g134_1" display="block"/>
     <path d="m-26.664 304.89s0.05292-0.0794 0.10583-0.21167c0.05292-0.21167 0.10583-0.58208 0.15875-0.87313l0.26458-2.196c-0.58208-0.0794-0.74083-0.0265-1.0054 0.13229l0.23812-0.55562c0.18521 0.0265 0.60854 0.0794 1.1112 0.13229 0.34396 0.0529 1.3494 0.13229 1.3494 0.13229l0.02646 0.58209c-0.21167-0.26459-0.44979-0.29105-0.9525-0.3175l-0.29104 2.1696c-0.02646 0.21167-0.13229 0.92604-0.02646 1.1112-0.10583 0-0.3175-0.0265-0.47625-0.0529-0.18521 0-0.39688-0.0529-0.50271-0.0529z" class="g134_1" display="block"/>
     <path d="m-21.875 304.12c0 0.66146-0.52917 1.1377-1.3494 1.1112-0.635 0-0.97896-0.26458-1.1112-0.37041l0.13229-0.635c0.21167 0.39687 0.52917 0.68791 0.89958 0.71437 0.39688 0 0.68792-0.23812 0.68792-0.60854 0.02646-0.29104-0.13229-0.44979-0.79375-0.79375-0.60854-0.3175-0.84667-0.635-0.84667-1.1112 0-0.635 0.58208-0.97896 1.2435-0.97896 0.47625 0 0.82021 0.15875 1.0319 0.26459l-0.13229 0.58208c-0.29104-0.39688-0.58208-0.55563-0.89958-0.55563s-0.52917 0.18521-0.52917 0.50271c0 0.34396 0.39688 0.55563 0.92604 0.84667 0.60854 0.3175 0.74083 0.66146 0.74083 1.0319z" class="g134_1" display="block"/>
     <path d="m-18.886 302.11c0.02646 0.0794 0.02646 0.18521 0.02646 0.23813 0.02646 0.0794 0.02646 0.15875 0 0.23812 0 0.21167-0.10583 0.47625-0.26458 0.635-0.26458 0.26458-0.58208 0.39688-1.0319 0.42333-0.18521 0.0265-0.21167-0.0265-0.23812-0.15875v-0.0265s0-0.0529 0.05292-0.0529h0.02646c0.13229-0.0265 0.34396-0.0529 0.47625-0.23813 0.15875-0.21166 0.21167-0.44979 0.18521-0.74083s-0.10583-0.50271-0.3175-0.635c-0.15875-0.13229-0.37042-0.18521-0.55562-0.15875 0 0-0.07937 0-0.18521 0.0265 0 0-0.05292 0-0.05292 0.0529l0.23812 2.249c0 0.21167 0.05292 0.89959 0.23812 1.0583 0 0-0.18521 0.0265-0.55562 0.0529-0.26458 0-0.47625 0.0265-0.47625 0.0265 0.07938-0.18521 0.07938-0.44979 0.05292-0.74083l-0.15875-1.7727c-0.02646-0.21167-0.05292-0.89958-0.23812-1.0848 0 0 0.44979-0.0529 1.27-0.13229 0.44979-0.0529 0.79375 0 1.1112 0.21166 0.18521 0.1323 0.34396 0.3175 0.39688 0.52917z" class="g134_1" display="block"/>
     <path d="m-15.499 302.85c0.15875 0.7673-0.18521 1.4288-1.0054 1.6404-0.58208 0.15875-1.4023-0.0529-1.6404-1.0583l-0.26458-1.1906c-0.07937-0.34396-0.21167-0.92604-0.39688-1.0848 0 0 0.21167-0.0265 0.55562-0.0794 0.34396-0.0794 0.50271-0.10584 0.50271-0.10584-0.10583 0.13229 0 0.68792 0.07938 1.0848l0.37042 1.5081c0.05292 0.29104 0.13229 0.47625 0.29104 0.58208 0.13229 0.0794 0.26458 0.10584 0.42333 0.0794 0.15875-0.0265 0.3175-0.10584 0.39688-0.26459s0.07938-0.37041 0-0.66145l-0.39688-1.5081c-0.10583-0.39687-0.23812-0.92604-0.37042-1.0054 0 0 0.15875-0.0529 0.47625-0.13229 0.23812-0.0794 0.37042-0.10583 0.47625-0.15875-0.10583 0.23813 0.13229 0.92604 0.18521 1.1377z" class="g134_1" display="block"/>
     <path d="m-11.848 302.53c0.07937 0.0265 0.15875 0.0529 0.23812 0.0265 0 0.0529-0.05292 0.13229-0.13229 0.21167-0.3175 0.34396-0.635 0.29104-0.74083 0.23812-0.58208-0.21166-1.5346-1.0583-1.561-1.1377 0 0 0-0.0265 0.02646-0.0529h0.02646c0.13229-0.0529 0.3175-0.23813 0.37042-0.39688 0.10583-0.23812 0.10583-0.42333 0-0.68791-0.13229-0.26459-0.3175-0.44979-0.47625-0.47625-0.21167-0.0794-0.39688-0.0265-0.50271 0.0265 0 0-0.13229 0.0529-0.15875 0.0794 0 0-0.02646 0.0265 0 0.13229l0.71438 2.0373c0.10583 0.3175 0.29104 0.89959 0.47625 1.0054 0 0-0.21167 0.0529-0.50271 0.18521-0.29104 0.10583-0.47625 0.13229-0.47625 0.13229 0.07937-0.21167-0.15875-0.84667-0.21167-1.0054l-0.47625-1.4023c-0.10583-0.3175-0.3175-0.92604-0.47625-1.0319 0 0 0.3175-0.0794 1.0848-0.39688 0.39688-0.18521 0.79375-0.23812 1.1642-0.15875 0.21167 0.0794 0.34396 0.18521 0.47625 0.34396 0.02646 0.0794 0.07937 0.13229 0.10583 0.21167 0.02646 0.0529 0.05292 0.13229 0.05292 0.21166 0.02646 0.21167 0 0.42334-0.10583 0.635 0 0-0.10583 0.21167-0.34396 0.37042 0 0 0.74083 0.635 1.4288 0.89958z" class="g134_1" display="block"/>
    </g>
   </g>
  </g>
 </g>
</svg>
