<svg xmlns="http://www.w3.org/2000/svg" height="220" width="220" version="1.1" viewBox="0 0 58.208332 58.208335">
 <g transform="translate(0 -238.79)">
  <g transform="translate(-5.8333e-8 -.0000018318)">
   <g stroke-width=".26458" transform="translate(93.927 -2.0789)">
    <path d="m-36.182 269.99c0 15.822-12.832 28.628-28.654 28.628s-28.628-12.806-28.628-28.628 12.806-28.654 28.628-28.654 28.654 12.832 28.654 28.654z" class="g37_1" display="block" fill="#dba225"/>
    <path d="m-37.134 269.99c0 15.293-12.409 27.675-27.702 27.675s-27.675-12.382-27.675-27.675 12.382-27.702 27.675-27.702 27.702 12.409 27.702 27.702z" class="g38_1" display="block" fill="#144992"/>
    <path d="m-45.098 269.99c0 10.874-8.8371 19.711-19.738 19.711s-19.738-8.8371-19.738-19.711c0-10.901 8.8371-19.738 19.738-19.738s19.738 8.8371 19.738 19.738z" class="g37_1" display="block" fill="#dba225"/>
    <path d="m-45.68 269.99c0 10.557-8.5725 19.129-19.156 19.129-10.557 0-19.129-8.5725-19.129-19.129 0-10.583 8.5725-19.156 19.129-19.156 10.583 0 19.156 8.5725 19.156 19.156z" class="g7_1" display="block" fill="#fff"/>
    <g fill="#dba225">
     <path d="m-81.214 286.5c0.21167 0.18521 0.71438 0.68791 0.71438 0.68791l0.50271-0.52916-1.4817-1.4288-0.18521 0.21166-2.0108 2.0902 0.76729 0.74084s0.635-0.68792 0.87312-0.92605c0.18521 0.18521 0.66146 0.635 0.66146 0.635l0.50271-0.52916s-0.47625-0.44979-0.66146-0.635c0.10583-0.13229 0.18521-0.18521 0.3175-0.3175z" class="g37_1" display="block"/>
     <path d="m-79.785 289.99c-0.34396-0.23813-0.05292-0.76729 0.15875-1.0319 0.18521-0.29104 0.58208-0.74083 0.92604-0.50271 0.37042 0.26459 0.02646 0.84667-0.13229 1.0583-0.15875 0.23812-0.58208 0.74083-0.9525 0.47625m2.1431-1.1112c-0.05292-0.39688-0.29104-0.76729-0.635-1.0054-0.34396-0.23812-0.74083-0.34396-1.1377-0.26458-0.44979 0.0794-0.82021 0.3175-1.1112 0.71437-0.26458 0.37042-0.37042 0.82021-0.29104 1.27 0.05292 0.39688 0.29104 0.74084 0.635 0.97896 0.3175 0.26458 0.74083 0.34396 1.1377 0.29104 0.44979-0.0794 0.82021-0.34396 1.1112-0.71437 0.21167-0.3175 0.3175-0.66146 0.3175-1.0054 0-0.0794 0-0.18521-0.02646-0.26458z" class="g37_1" display="block"/>
     <path d="m-76.187 292.03c-0.07937 0.0265-0.18521 0-0.26458-0.0265-0.15875-0.0794-0.23812-0.23812-0.23812-0.39687 0-0.23813 0.10583-0.47625 0.21167-0.66146 0.15875-0.3175 0.47625-0.82021 0.84667-0.60854 0.10583 0.0265 0.18521 0.10583 0.21167 0.1852 0.05292 0.21167 0 0.52917-0.18521 0.84667-0.15875 0.34396-0.37042 0.58208-0.58208 0.66146m0.89958-2.3548c-0.79375-0.39688-1.7462-0.0794-2.1696 0.76729-0.21167 0.42333-0.23812 0.89958-0.10583 1.2965 0.13229 0.39687 0.39688 0.71437 0.76729 0.89958 0.37042 0.18521 0.79375 0.21167 1.1906 0.10583 0.42333-0.13229 0.76729-0.44979 0.97896-0.87312 0.42333-0.84667 0.13229-1.7992-0.66146-2.196z" class="g37_1" display="block"/>
     <path d="m-73.647 290.84-0.13229 0.42334s0.37042 0.13229 0.47625 0.15875c-0.13229 0.42333-0.79375 2.3283-0.79375 2.3283l0.97896 0.34396s0.66146-1.905 0.82021-2.3283c0.10583 0.0529 0.47625 0.1852 0.47625 0.1852l0.23812-0.68791-1.9579-0.68792z" class="g37_1" display="block"/>
     <path d="m-69.996 292.4c0.13229 0.0265 0.21167 0.0794 0.23812 0.13229 0.02646 0 0.02646 0.0529 0.02646 0.0794v0.0794c-0.02646 0.0794-0.05292 0.21166-0.29104 0.15875 0 0-0.02646 0-0.05292-0.0265 0.02646-0.15875 0.05292-0.23813 0.07937-0.42333zm0.10583 1.5081c-0.02646 0.0794-0.05292 0.15875-0.10583 0.18521-0.05292 0.0265-0.13229 0.0265-0.23812 0.0265 0 0-0.05292-0.0265-0.10583-0.0265 0.02646-0.21167 0.05292-0.34396 0.10583-0.55563 0.05292 0.0265 0.13229 0.0265 0.13229 0.0265 0.18521 0.0529 0.21167 0.15875 0.21167 0.26459v0.0794zm0.34396-2.1431-1.3229-0.29105-0.05292 0.26459-0.60854 2.831 1.3758 0.29104c0.42333 0.10583 0.71438 0 0.87312-0.10583 0.21167-0.15875 0.34396-0.37042 0.39688-0.635 0.02646-0.0794 0.02646-0.13229 0.02646-0.21167 0-0.18521-0.05292-0.37042-0.15875-0.50271 0.15875-0.13229 0.26458-0.29104 0.29104-0.50271 0.02646-0.0794 0.02646-0.13229 0.02646-0.1852 0-0.37042-0.21167-0.82021-0.84667-0.9525z" class="g37_1" display="block"/>
     <path d="m-67.059 292.21-1.4552 2.9633 0.82021 0.0794s0.23812-0.47625 0.3175-0.66146c0.18521 0 0.34396 0.0265 0.52917 0.0265 0.05292 0.21166 0.21167 0.71437 0.21167 0.71437l1.1112 0.0794-1.2435-3.81z" class="g37_1" display="block"/>
     <path d="m-63.804 294.59c0-0.44979-0.10583-2.4077-0.10583-2.4077l-1.0319 0.0265 0.13229 3.175 2.0902-0.0794-0.02646-0.76729s-0.74083 0.0265-1.0583 0.0529z" class="g37_1" display="block"/>
     <path d="m-60.92 294.28c-0.07938-0.42334-0.37042-2.3812-0.37042-2.3812l-0.29104 0.0529-0.76729 0.10584 0.50271 3.1485 2.0638-0.34396-0.10583-0.74083s-0.74083 0.10583-1.0319 0.15875z" class="g37_1" display="block"/>
     <path d="m-54.914 292.16c-0.02646 0.29104-0.18521 0.52917-0.42333 0.60854-0.13229 0.0529-0.26458 0.0529-0.39688 0-0.21167-0.0794-0.39688-0.29104-0.50271-0.58208-0.13229-0.34396-0.15875-0.60854-0.07937-0.82021 0.05292-0.13229 0.18521-0.23812 0.34396-0.3175 0.21167-0.0794 0.39688 0 0.635 0.13229l0.23812 0.15875 0.39688-0.60854-0.23812-0.15875c-0.42333-0.29104-0.9525-0.34396-1.4023-0.15875-0.42333 0.15875-0.74083 0.47625-0.89958 0.87313-0.18521 0.42333-0.18521 0.87312 0 1.3229 0.3175 0.82021 1.27 1.2435 2.0902 0.89959 0.60854-0.23813 0.92604-0.68792 0.97896-1.2965l0.02646-0.26459-0.76729-0.0794z" class="g37_1" display="block"/>
     <path d="m-52.48 291.31c-0.21167-0.39687-1.1642-2.1167-1.1642-2.1167l-0.26458 0.13229-0.66146 0.37042 1.561 2.7781 1.8256-1.0319-0.37042-0.66146s-0.66146 0.37041-0.92604 0.52916z" class="g37_1" display="block"/>
     <path d="m-50.443 287.03-0.21167 0.15875-0.39688 0.29105 1.27 1.7462c0.07937 0.0794 0.07937 0.13229 0.05292 0.1852 0 0.0794-0.10583 0.18521-0.18521 0.23813-0.02646 0.0265-0.13229 0.0794-0.21167 0.0529-0.07937 0-0.13229-0.0529-0.18521-0.10584l-1.27-1.7462-0.84667 0.635 1.27 1.7198c0.18521 0.26459 0.42333 0.39688 0.68792 0.4498 0.3175 0.0529 0.66146-0.0529 0.97896-0.29105 0.66146-0.5027 0.66146-1.1377 0.37042-1.5346z" class="g37_1" display="block"/>
     <path d="m-47.718 287.11c0.15875-0.18521 0.34396-0.0265 0.39688 0.0265 0.02646 0.0529 0.10583 0.10583 0.10583 0.18521-0.02646 0.0529-0.05292 0.10583-0.13229 0.1852 0 0-0.05292 0.0529-0.07937 0.0794-0.15875-0.13229-0.26458-0.23813-0.39688-0.39688 0.05292-0.0265 0.10583-0.0794 0.10583-0.0794m-0.52917-0.79375c0.02646 0.0265 0.07937 0.0794 0.07937 0.13229 0 0.0529-0.02646 0.10583-0.10583 0.18521 0 0-0.02646 0.0265-0.05292 0.0529-0.13229-0.1323-0.18521-0.18521-0.3175-0.3175 0.23812-0.21167 0.3175-0.1323 0.39688-0.0529m1.6669 0.0794c-0.18521-0.21166-0.44979-0.29104-0.68792-0.29104-0.02646-0.18521-0.10583-0.37041-0.23812-0.52916-0.26458-0.26459-0.87312-0.47625-1.4023 0.0529l-0.97896 0.9525 2.196 2.2754 1.0054-0.97896c0.3175-0.29104 0.39688-0.60854 0.39688-0.79375 0-0.23812-0.10583-0.50271-0.29104-0.68792z" class="g37_1" display="block"/>
    </g>
    <g fill="#fff">
     <path d="m-81.24 286.18c0.10583 0.10583 0.74083 0.71437 0.74083 0.71437l0.21167-0.23812-1.1906-1.1377-0.05292 0.0529-1.8521 1.9579 0.44979 0.42334s0.79375-0.82021 0.87312-0.89959c0.10583 0.0794 0.68792 0.635 0.68792 0.635l0.21167-0.23812s-0.58208-0.55563-0.66146-0.635c0.05292-0.0794 0.50271-0.55563 0.58208-0.635z" class="g7_1" display="block"/>
     <path d="m-78.647 289.65c-0.21167 0.26458-0.74083 0.87312-1.2435 0.52917-0.52917-0.37042-0.10583-1.0583 0.07938-1.3494 0.21167-0.29104 0.74083-0.89958 1.2435-0.52917 0.52917 0.37042 0.10583 1.0583-0.07937 1.3494m0.26458-1.5875c-0.29104-0.21167-0.66146-0.29104-1.0054-0.23813-0.37042 0.0529-0.71438 0.29105-0.9525 0.60855-0.23812 0.34395-0.34396 0.74083-0.29104 1.1112 0.07937 0.37041 0.26458 0.66145 0.55562 0.87312s0.66146 0.29104 1.0054 0.23813c0.37042-0.0529 0.71438-0.29105 0.9525-0.635 0.18521-0.26459 0.29104-0.58209 0.29104-0.87313v-0.23812c-0.07938-0.34396-0.26458-0.635-0.55562-0.84667z" class="g7_1" display="block"/>
     <path d="m-76.557 292.19c-0.55562-0.29104-0.26458-1.0319-0.10583-1.3494 0.15875-0.29104 0.58208-0.97895 1.1377-0.68791 0.15875 0.0529 0.23812 0.18521 0.29104 0.3175 0.10583 0.34396-0.05292 0.76729-0.18521 1.0054-0.10583 0.23813-0.34396 0.635-0.68792 0.74084-0.15875 0.0529-0.29104 0.0265-0.44979-0.0265m1.1642-2.3283c-0.68792-0.34396-1.4817-0.0529-1.8785 0.68791-0.18521 0.37042-0.21167 0.76729-0.10583 1.1377 0.13229 0.34396 0.37042 0.60854 0.68792 0.76729s0.68792 0.18521 1.0054 0.0794c0.37042-0.10584 0.68792-0.39688 0.87312-0.76729 0.37042-0.71438 0.13229-1.561-0.58208-1.905z" class="g7_1" display="block"/>
     <path d="m-73.435 290.89-0.07937 0.23813s0.39688 0.13229 0.47625 0.1852c-0.02646 0.10584-0.79375 2.3019-0.79375 2.3019l0.58208 0.21167s0.76729-2.196 0.82021-2.3283c0.10583 0.0529 0.50271 0.18521 0.50271 0.18521l0.07938-0.29104-1.561-0.55563z" class="g7_1" display="block"/>
     <path d="m-70.048 293.35c0.3175 0.0794 0.37042 0.34395 0.37042 0.47625 0 0.0794-0.02646 0.13229-0.02646 0.13229-0.02646 0.15875-0.07937 0.26458-0.18521 0.3175-0.07937 0.0529-0.21167 0.0794-0.39688 0.0265 0 0-0.21167-0.0265-0.3175-0.0529 0.02646-0.10583 0.18521-0.84667 0.21167-0.9525 0.07937 0.0265 0.34396 0.0529 0.34396 0.0529m0.07938-1.1642c0.18521 0.0529 0.3175 0.10583 0.39688 0.21167 0.02646 0.0529 0.05292 0.13229 0.05292 0.21166 0 0.0529 0 0.0794-0.02646 0.13229-0.07937 0.34396-0.34396 0.34396-0.50271 0.3175 0 0-0.18521-0.0529-0.29104-0.0794 0.02646-0.10583 0.15875-0.71438 0.18521-0.82021 0.07937 0 0.18521 0.0265 0.18521 0.0265m0.39688-0.23813-1.1377-0.23812-0.02646 0.0794-0.52917 2.6194 1.1377 0.23812c0.29104 0.0794 0.55562 0.0529 0.74083-0.0794 0.15875-0.10583 0.26458-0.29104 0.3175-0.50271v-0.15875c0-0.23812-0.10583-0.42333-0.3175-0.55562 0.23812-0.0794 0.42333-0.23813 0.47625-0.50271v-0.13229c0-0.26459-0.13229-0.635-0.66146-0.7673z" class="g7_1" display="block"/>
     <path d="m-67.032 293.38c0.07937 0.21167 0.18521 0.60855 0.23812 0.74084-0.13229-0.0265-0.42333-0.0265-0.55562-0.0529 0.05292-0.10583 0.23812-0.47625 0.3175-0.68792zm0.15875-1.0848-1.3229 2.6988 0.37042 0.0265s0.29104-0.58208 0.3175-0.66146c0.07937 0.0265 0.74083 0.0794 0.82021 0.0794 0.02646 0.0794 0.21167 0.68791 0.21167 0.68791l0.66146 0.0529-0.97896-3.0163z" class="g7_1" display="block"/>
     <path d="m-63.989 294.81c-0.02646-0.13229-0.10583-2.4077-0.10583-2.4077h-0.07937l-0.55562 0.0265 0.10583 2.7517 1.6933-0.0794-0.02646-0.34396s-0.92604 0.0529-1.0319 0.0529z" class="g7_1" display="block"/>
     <path d="m-61.106 294.51c-0.02646-0.13229-0.37042-2.3812-0.37042-2.3812h-0.07937l-0.55562 0.10584 0.44979 2.7252 1.6404-0.26458-0.05292-0.34396s-0.89958 0.13229-1.0319 0.15875z" class="g7_1" display="block"/>
     <path d="m-54.703 292.19c-0.02646 0.34396-0.23812 0.66146-0.55562 0.79375-0.18521 0.0794-0.39688 0.0529-0.55562-0.0265-0.26458-0.10583-0.50271-0.34396-0.635-0.68792-0.15875-0.39687-0.18521-0.74083-0.05292-0.97895 0.07937-0.18521 0.23812-0.34396 0.44979-0.42334 0.3175-0.13229 0.58208 0 0.82021 0.15875l0.05292 0.0265 0.18521-0.26458-0.05292-0.0265c-0.37042-0.26458-0.82021-0.29104-1.2171-0.15875-0.37042 0.15875-0.635 0.42333-0.79375 0.76729-0.15875 0.37042-0.15875 0.76729 0 1.1642 0.29104 0.71437 1.1112 1.0848 1.8256 0.79375 0.52917-0.21167 0.82021-0.58209 0.84667-1.1377v-0.0529l-0.3175-0.0265z" class="g7_1" display="block"/>
     <path d="m-52.559 291.58c-0.05292-0.10584-1.1642-2.0902-1.1642-2.0902l-0.07937 0.0265-0.47625 0.26458 1.3229 2.4077 1.4817-0.82021-0.15875-0.29104s-0.82021 0.44979-0.92604 0.50271z" class="g7_1" display="block"/>
     <path d="m-50.496 287.32-0.05292 0.0529-0.21167 0.15875 1.1642 1.5875c0.07937 0.10584 0.10583 0.21167 0.07937 0.3175-0.02646 0.18521-0.18521 0.3175-0.26458 0.37042-0.07937 0.0794-0.23812 0.13229-0.37042 0.10583-0.13229-0.0265-0.23812-0.0794-0.3175-0.18521l-1.1377-1.5875-0.52917 0.39688 1.1642 1.5346c0.13229 0.21167 0.3175 0.34396 0.55562 0.37042 0.3175 0.0529 0.635-0.13229 0.82021-0.26458 0.52917-0.39688 0.55562-0.89959 0.3175-1.2171z" class="g7_1" display="block"/>
     <path d="m-47.453 287.9c-0.07938-0.0794-0.58208-0.635-0.66146-0.71438 0.05292-0.0529 0.23812-0.23812 0.23812-0.23812 0.34396-0.3175 0.68792 0.0265 0.68792 0.0529 0.10583 0.10583 0.15875 0.21166 0.15875 0.3175 0 0.10583-0.05292 0.21166-0.18521 0.34395l-0.23812 0.23813zm-0.52917-1.4552c0 0.15875-0.07937 0.26458-0.15875 0.3175 0 0-0.13229 0.13229-0.18521 0.21167-0.07937-0.0794-0.52917-0.52917-0.60854-0.635 0.05292-0.0265 0.13229-0.10584 0.13229-0.10584 0.26458-0.26458 0.50271-0.29104 0.68792-0.0529 0.10583 0.0794 0.13229 0.18521 0.13229 0.26458m1.2435 0.0794c-0.21167-0.21167-0.47625-0.26459-0.76729-0.15875 0.02646-0.0529 0.02646-0.1323 0.02646-0.18521 0-0.15875-0.05292-0.3175-0.18521-0.47625-0.18521-0.15875-0.635-0.39688-1.1112 0.0529l-0.82021 0.82021 1.905 1.9844 0.84667-0.84667c0.23812-0.18521 0.34396-0.42333 0.34396-0.635s-0.07937-0.39687-0.23812-0.55562z" class="g7_1" display="block"/>
    </g>
    <g fill="#dba225">
     <path d="m-77.563 251.1-1.1642 0.3175 0.15875 0.42333c0.15875 0.50271 0 1.0319-0.39688 1.3758-0.21167 0.18521-0.44979 0.26459-0.74083 0.23813-0.42333-0.0265-0.89958-0.29104-1.27-0.71438-0.44979-0.5027-0.66146-1.0054-0.635-1.4023 0.02646-0.3175 0.15875-0.58208 0.44979-0.82021 0.3175-0.26458 0.68792-0.26458 1.2435-0.15875l0.39688 0.0794 0.23812-1.1112-0.39688-0.10583c-0.84667-0.21167-1.7462 0-2.3812 0.55562-1.2435 1.1112-1.3494 2.884-0.23812 4.154 1.0319 1.1906 2.831 1.3229 3.9952 0.29104 0.84667-0.74083 1.1377-1.6669 0.84667-2.7252z" class="g37_1" display="block"/>
     <path d="m-74.414 245.3-1.1906 0.55563s0.66146 1.4023 0.89958 1.8785c-0.34396 0.15875-0.66146 0.3175-1.0054 0.47625-0.23812-0.47625-0.89958-1.8785-0.89958-1.8785l-1.5346 0.71437 2.3548 5.0535 1.561-0.74083s-0.74083-1.561-0.97896-2.0638c0.34396-0.15875 0.68792-0.3175 1.0054-0.47625 0.23812 0.50271 0.97896 2.0638 0.97896 2.0638l1.561-0.74083-2.3812-5.0271z" class="g37_1" display="block"/>
     <path d="m-69.149 248.42c-0.05292-0.39688-0.13229-0.7673-0.21167-1.1377 0.47625-0.10584 1.7462-0.37042 1.7462-0.37042l-0.21167-1.1112s-1.2965 0.26458-1.7727 0.37042c-0.05292-0.34396-0.13229-0.635-0.18521-0.97896 0.50271-0.10583 1.8521-0.37042 1.8521-0.37042l-0.21167-1.1377-0.42333 0.10584-3.1485 0.635 1.1112 5.4504 3.5983-0.74083-0.23812-1.1112s-1.4023 0.29104-1.905 0.39688z" class="g37_1" display="block"/>
     <path d="m-64.042 243.58-1.7462-0.0529v0.42334l-0.10583 5.1329 3.6248 0.0794 0.02646-1.1906s-1.4023-0.0265-1.905-0.0529c0.02646-0.68792 0.10583-4.3392 0.10583-4.3392z" class="g37_1" display="block"/>
     <path d="m-58.46 246.39c-0.44979-0.34395-0.58208-0.47625-0.52917-0.66145 0-0.0794 0.10583-0.37042 0.42333-0.29105 0.21167 0.0529 0.39688 0.1323 0.47625 0.55563l0.10583 0.47625 1.1377-0.39688-0.07937-0.34395c-0.13229-0.71438-0.74083-1.3229-1.4817-1.5081-0.52917-0.13229-1.0583-0.0529-1.5081 0.21167-0.39688 0.23812-0.68792 0.60854-0.79375 1.0848-0.29104 1.1377 0.47625 1.6669 0.97896 2.0373 0.52917 0.37042 0.66146 0.52917 0.58208 0.82021-0.02646 0.10583-0.07937 0.18521-0.18521 0.23812-0.10583 0.0529-0.23812 0.0794-0.34396 0.0529-0.26458-0.0529-0.37042-0.18521-0.50271-0.55562l-0.13229-0.42334-1.1377 0.47625 0.10583 0.37042c0.21167 0.68792 0.71438 1.1377 1.561 1.3494 0.9525 0.23813 2.0902-0.1852 2.3548-1.3229 0.3175-1.1906-0.50271-1.7992-1.0319-2.1696z" class="g37_1" display="block"/>
     <path d="m-54.359 249.35c0.44979 0.21166 1.614 0.79375 1.614 0.79375l0.50271-1.0054s-1.1642-0.58208-1.5875-0.82021c0.15875-0.29104 0.29104-0.55562 0.44979-0.87312 0.44979 0.23812 1.6933 0.84666 1.6933 0.84666l0.50271-1.0054-3.2279-1.6404-0.18521 0.37042-2.3283 4.6038 3.2544 1.6404 0.52917-1.0054s-1.27-0.66146-1.7198-0.87313c0.15875-0.34396 0.34396-0.68791 0.50271-1.0319z" class="g37_1" display="block"/>
     <path d="m-47.903 249.85-5.1858 2.6988 0.97896 0.84666s0.87312-0.44979 1.1642-0.60854c0.23812 0.21167 0.58208 0.50271 0.82021 0.68792-0.10583 0.34396-0.42333 1.27-0.42333 1.27l1.3494 1.1906 2.2225-6.5352z" class="g37_1" display="block"/>
    </g>
    <g fill="#fff">
     <path d="m-77.748 251.44-0.60854 0.15875 0.02646 0.15875c0.21167 0.60854 0.02646 1.2435-0.44979 1.6669-0.26458 0.23813-0.58208 0.34396-0.9525 0.3175-0.50271-0.0265-1.0319-0.34396-1.4552-0.82021-0.50271-0.58208-0.74083-1.1377-0.71438-1.614 0.02646-0.37041 0.21167-0.71437 0.55562-1.0054 0.44979-0.37042 0.97896-0.3175 1.4817-0.21167l0.13229 0.0265 0.13229-0.58208-0.13229-0.0265c-0.76729-0.21167-1.5875-0.0265-2.1431 0.47625-1.1377 1.0054-1.2171 2.6194-0.21167 3.7835 0.92604 1.0583 2.54 1.1642 3.5983 0.23812 0.76729-0.66145 1.0319-1.4817 0.76729-2.4342z" class="g7_1" display="block"/>
     <path d="m-74.282 245.54-0.9525 0.44979s0.79375 1.6669 0.89958 1.8785c-0.21167 0.10583-1.2965 0.60854-1.5081 0.71438-0.10583-0.21167-0.87312-1.8786-0.87312-1.8786l-1.0583 0.50271 2.1167 4.5244 1.0583-0.50271s-0.87312-1.8521-0.9525-2.0638c0.18521-0.10583 1.2965-0.60854 1.4817-0.71438 0.10583 0.23813 0.97896 2.0638 0.97896 2.0638l1.0583-0.5027-2.1431-4.5244z" class="g7_1" display="block"/>
     <path d="m-69.361 248.74c-0.02646-0.21167-0.29104-1.4552-0.34396-1.6669 0.23812-0.0529 1.7727-0.37042 1.7727-0.37042l-0.10583-0.55562s-1.5346 0.29104-1.7727 0.34396c-0.05292-0.21167-0.26458-1.2965-0.3175-1.5081 0.23812-0.0529 1.8785-0.37041 1.8785-0.37041l-0.10583-0.58209-3.0162 0.60854 0.97896 4.8948 3.0427-0.60855-0.10583-0.58208s-1.6669 0.34396-1.905 0.39688z" class="g7_1" display="block"/>
     <path d="m-64.333 243.85-1.1642-0.0265v0.13229l-0.10583 4.8683 3.0692 0.0794v-0.66146s-1.6669-0.0265-1.905-0.0529c0.02646-0.23812 0.10583-4.3392 0.10583-4.3392z" class="g7_1" display="block"/>
     <path d="m-58.486 245.17c0.37042 0.0794 0.58208 0.3175 0.68792 0.76729l0.02646 0.15875 0.60854-0.21166-0.02646-0.10584c-0.13229-0.60854-0.635-1.1377-1.27-1.2965-0.47625-0.10583-0.92604-0.0529-1.3229 0.18521-0.3175 0.21167-0.58208 0.52917-0.66146 0.89959-0.23812 0.9525 0.37042 1.4023 0.87312 1.7727 0.50271 0.34396 0.82021 0.60855 0.68792 1.1112-0.05292 0.21167-0.18521 0.34396-0.29104 0.39688-0.18521 0.10583-0.37042 0.13229-0.55562 0.0794-0.37042-0.0794-0.55562-0.29104-0.71438-0.71437l-0.02646-0.15875-0.635 0.26458 0.02646 0.13229c0.18521 0.58209 0.635 0.97896 1.3758 1.1642 0.79375 0.21167 1.7727-0.15875 2.0108-1.1377 0.26458-1.0054-0.39688-1.4817-0.9525-1.8785-0.44979-0.34396-0.71438-0.55562-0.635-0.92604 0.10583-0.34396 0.37042-0.60854 0.79375-0.50271z" class="g7_1" display="block"/>
     <path d="m-53.512 247.08c0.21167 0.10583 1.6933 0.84667 1.6933 0.84667l0.26458-0.50271-2.7252-1.4023-0.07937 0.13229-2.196 4.3392 2.7781 1.4023 0.26458-0.52917s-1.5081-0.76729-1.7198-0.87312c0.07937-0.18521 0.66146-1.3229 0.76729-1.5081 0.21167 0.10583 1.5875 0.79375 1.5875 0.79375l0.26458-0.50271s-1.3758-0.71437-1.5875-0.82021c0.07937-0.1852 0.58208-1.1906 0.68792-1.3758z" class="g7_1" display="block"/>
     <path d="m-50.337 252.18c0.23812-0.13229 0.82021-0.42333 1.1642-0.60854-0.13229 0.37041-0.34396 0.97896-0.42333 1.2435-0.18521-0.18521-0.55562-0.47625-0.74083-0.635m2.5665-2.0638-4.8419 2.4871 0.55562 0.47625s1.0054-0.55562 1.1642-0.635c0.10583 0.10584 0.97896 0.84667 1.0848 0.9525-0.05292 0.15875-0.42333 1.27-0.42333 1.27l0.89958 0.79375 1.8785-5.5033z" class="g7_1" display="block"/>
    </g>
    <path d="m-57.057 260.65c-0.10583 0.15875-0.23812 0.3175-0.3175 0.44979 0.23812 0.42333 0.74083 0.68791 1.27 0.635 0.74083-0.0529 1.2965-0.71438 1.2171-1.4552v-0.0794c-0.07937 0.37042-0.52917 0.71438-1.1112 0.7673-0.42333 0.0265-0.82021-0.0794-1.0583-0.3175m-11.509 8.6519c-1.0319 0.60854-1.7198 1.3758-2.6458 1.7198-0.13229 0.0529-0.26458 0.0529-0.34396 0.0529v-5.2123c0.23812 0 0.87312 0.10583 1.6404 0.42333 0.74083 0.39688 0.74083 1.2435-0.21167 1.4288 0.60854 1.1377 2.6723 0.58208 3.1221-0.34396 0.21167-0.0265 0.39688 0.37042 0.58208 0.74084-0.29104 0.15875-0.87312 0.44979-2.1431 1.1906m17.436-0.0794c-0.39688-1.0319-1.7727-1.5081-3.0692-1.0054-0.52917 0.18521-0.97896 0.52917-1.27 0.92604 0.84667-2.4342 4.3127-2.9369 4.3127-5.1858 0-3.7835-5.371-2.7252-4.5773 0 0-1.2435 1.9579-1.4817 1.9579 0 0 1.4552-3.4396 2.4077-3.4396 4.8948 0 2.7252 2.7252 2.9633 2.4606 5.4504-0.05292 0.44979-0.50271 1.0054-1.1906 1.0054-4.154 0-2.6723-5.1329-4.1275-6.694l0.07937-1.0583c0.84667 0.50271 3.0692-0.71437 1.5875-2.54 0 0.89958-1.8785 0.84667-1.8785-0.87312 0-2.3019 2.1696-1.1112 2.2754-0.58209-0.10583-0.84666-0.13229-1.4023 0-1.8785-1.1642 0.37042-1.27-0.29104-1.1377-0.55562 0.15875-0.3175 0.39688-0.66146 0.84667-0.66146 0.26458 0 0.39688 0.0265 0.47625 0.10583 0.15875 0.0794 0.26458-0.13229 0.23812 0.0794 0.13229-0.18521 0.07937 0.0529 0.21167-0.15875 0.10583-0.18521 0.29104-0.39688 0.58208-0.68792l-0.02646-0.42333 0.34396 0.13229 0.3175-0.52917c-0.34396-0.74083-0.82021-0.39687-1.1642-1.2965-0.3175-0.0794-4.8948 0.42334-4.7625-1.4023-0.37042 0-1.27 0.21167-0.71438 0.9525-0.42333 0.0529-0.74083-0.44979-1.3758 0.87313 0.79375-0.15875 0.37042 0.74083 0.37042 1.0054 0 1.6669-2.196 1.6404-2.196 0.84667-0.55562 0.52917-0.23812 1.6669 0.55562 1.9315 0 0-0.29104 1.2171-1.0583 1.9844-1.1112-0.0265-2.9104-0.23812-3.9688-1.2171-0.44979-0.42333-0.79375-0.66146-1.0848-0.76729v-0.55563c0.42333-0.21166 0.92604-0.58208 1.4288-1.2435 0.39688-0.47625 0.60854-1.0848 0.52917-1.7462 0-0.0794 0-0.15875-0.02646-0.23812v-0.0529c-0.02646-0.0529-0.02646-0.10583-0.05292-0.15875 0-0.0265 0-0.0529-0.02646-0.0794 0-0.0529-0.02646-0.10583-0.05292-0.15875 0-0.0265 0-0.0265-0.02646-0.0529-0.02646-0.0794-0.05292-0.13229-0.07937-0.21167-0.02646 0-0.02646-0.0265-0.05292-0.0529-0.02646-0.0529-0.05292-0.0794-0.07938-0.13229 0-0.0265-0.02646-0.0529-0.05292-0.0794s-0.05292-0.0529-0.05292-0.0794c-0.02646-0.0265-0.05292-0.0529-0.07938-0.10583-0.02646 0-0.05292-0.0265-0.05292-0.0529-0.07937-0.0529-0.13229-0.13229-0.21167-0.18521 0-0.0264-0.02646-0.0264-0.02646-0.0264-0.05292-0.0265-0.07937-0.0794-0.13229-0.10584l-0.02646-0.0265c-0.05292-0.0265-0.10583-0.0529-0.15875-0.10583-0.47625-0.29104-1.0319-0.42333-1.6404-0.39687-1.4552 0.13229-2.54 1.3494-2.4077 2.7252 0.07937 1.0583 0.87312 1.9315 1.905 2.196-0.34396 0.21166-0.66146 0.3175-0.74083 0.3175 0.02646 0.0265 0.02646 0.0265 0.05292 0.0265 0 0 0 0.0265 0.02646 0.0265 0 0 0.02646 0 0.02646 0.0265h0.02646c0.02646 0 0.05292 0.0265 0.07938 0.0265v0.0265c0.02646 0 0.05292 0 0.07937 0.0265h0.02646c0.05292 0.0265 0.13229 0.0529 0.21167 0.0794h0.02646c0.02646 0 0.07938 0.0265 0.10583 0.0265h0.02646c0.05292 0.0265 0.07937 0.0265 0.13229 0.0265v0.3175h-0.02646c-0.47625 0.0794-0.79375 0.23812-0.92604 0.66146-0.13229 0.42333 0 0.55562 0.21167 0.84666-0.18521 0.34396-0.66146 0.47625-0.02646 1.2171-0.05292 0.26458 0 0.71437 0.42333 0.84666 0.13229 0.0529 0.23812 0.0794 0.34396 0.0794v5.5562c-0.39688 0.21166-0.58208 0.47625-0.71438 0.71437 0 0-0.3175-0.71437-0.29104 0.71438 0.37042-0.29104 0.21167 0.3175 0.21167 0.3175-0.50271 0.66146 0.13229 0.635 0.13229 0.635 0.44979-0.44979 0.34396 0.18521 0.34396 0.18521 0 0.76729 0.3175 1.0583 0.3175 1.0583v4.2333h-0.37042l0.02646 1.1642h0.635c-0.37042 0.13229-0.60854 0.50271-0.55562 0.89958 0.02646 0.47625 0.50271 0.84667 1.0054 0.82021 0.52917-0.0529 0.92604-0.47625 0.87312-0.97896-0.02646-0.34396-0.26458-0.635-0.55562-0.74083l0.58208-0.0265v-1.1377h-0.37042l0.02646-3.7571c0.05292 0.0529 0.13229 0.0794 0.21167 0.10583h0.10583 0.05292c-0.07937-0.47625 0.21167-0.82021 0.21167-0.82021 0.13229-0.21166 0.37042-0.39687 0.60854-0.52916 0.74083-0.37042 1.7462-0.26459 2.0638 0.34396 1.905-0.50271 3.5454-2.4342 3.5454-2.4342l0.9525 1.5875c-1.9844 0.68792-6.35 4.4715-3.3338 5.7944 0 0.37042-0.05292 3.2015-1.8785 2.9898-2.6194-0.34396-3.2544 0.74083-2.7517 1.9579-0.23812 1.0319 0.55562 1.4023 0.55562 1.4023-0.13229-0.60854 0.15875-1.0848 1.2435-1.0848 0 1.0848 0.68792 1.27 0.68792 1.27 0-0.92604 0.66146-1.27 1.2171-1.27 0 0.76729 0.89958 1.0583 0.89958 1.0583s-0.23812-0.87313 0.76729-1.0583c2.54-0.42333 0.15875-3.0427 4.0217-3.7571 0 0-1.9315-0.29104-1.9315-1.3494 0-0.9525 1.7462-1.614 2.3548-1.614 1.2171 2.3548 2.54 2.3812 2.9104 2.3812 0.52917 0.60854 0.34396 2.6723-0.42333 2.6194-2.884-0.15875-2.7781 1.5875-2.4606 1.9579-0.02646 0.68791 0.50271 1.0583 0.50271 1.0583 0-0.71437 0.68792-0.92604 1.561-0.87312-0.02646 0.89958 0.52917 1.0319 0.52917 1.0319 0.02646-0.89958 0.68792-1.0583 1.1377-1.0319-0.02646 0.635 0.60854 0.8202 0.60854 0.8202s-0.07937-0.79375 0.76729-0.79375c1.5875 0-0.71438-3.4131 2.3812-6.7998-2.7252 1.27-4.1804-1.8785-4.1804-2.4871 1.4023 1.6404 5.9531 1.9579 5.9531-0.82021 0-2.6723-2.9369-3.6777-1.561-4.7096 0.79375-0.58209 2.3548 0.60854 1.4552 1.8521 1.2965-0.47625 2.0108-1.7198 1.6404-2.7781z" class="g39_1" display="block" fill="#d2d4d4"/>
    <path d="m-72.721 259.4c0.07937-0.1852 0.05292-0.42333 0-0.66145-0.55562 0-0.97896-0.42334-0.97896-0.9525 0-0.10584 0-0.18521 0.02646-0.26459v-0.0265c0.13229-0.39687 0.50271-0.68791 0.9525-0.68791 0.52917 0 0.9525 0.42333 0.9525 0.97896 0 0.60854-0.42333 1.1642-0.9525 1.614zm-1.3758 2.9633c-0.18521-0.0529-0.21167-0.3175-0.18521-0.39688 0.02646-0.0794 0.18521-0.3175 0.37042-0.26458 0.42333 0.10583 1.2435 0.58208 1.2171 0.68792-0.02646 0.0794-0.9525 0.10583-1.4023-0.0265m0.07937 1.0583c-0.18521 0-0.23812-0.23812-0.23812-0.34396 0-0.0794 0.10583-0.29104 0.26458-0.29104 0.42333 0.0265 1.2435 0.3175 1.2435 0.42333 0 0.0794-0.84667 0.23813-1.27 0.21167m0.18521 0.82021c-0.13229 0-0.18521-0.15875-0.18521-0.21167 0-0.0794 0.05292-0.23812 0.15875-0.23812 0.3175-0.0265 0.92604 0.13229 0.92604 0.18521 0 0.0529-0.58208 0.26458-0.89958 0.26458m-0.21167 15.028h0.635c-0.07937 0.0265-0.13229 0.0794-0.21167 0.13229 0.07937-0.0265 0.13229-0.0265 0.21167-0.0265 0.3175 0 0.58208 0.23812 0.58208 0.58208 0 0.3175-0.26458 0.58208-0.58208 0.58208-0.26458 0-0.47625-0.18521-0.55562-0.42333v0.0529c0.05292 0.5027 0.50271 0.87312 1.0319 0.8202 0.52917-0.0265 0.89958-0.47625 0.87312-0.9525-0.05292-0.34395-0.26458-0.635-0.58208-0.76729h0.60854l-0.02646-1.1642h-0.34396v-3.7306c-0.34396-0.18521-0.55562-0.58208-0.47625-0.97896 0.23812 0 0.42333 0.0529 0.55562 0.15875-0.21167 0.44979 0.3175 0.92604 0.3175 0.92604-0.10583-0.5027 0.18521-0.8202 0.18521-0.8202 0.15875-0.23813 0.37042-0.39688 0.60854-0.52917 0.76729-0.37042 1.7727-0.29104 2.0638 0.3175 1.9315-0.50271 3.5719-2.4342 3.5719-2.4342l0.9525 1.614c2.196 0 1.4288-1.6669 1.2965-1.7992 0.50271 0 1.2171 0.37042 1.2171 1.1906 0 2.0373-5.9267 2.3283-5.9267 4.8154 0 1.0319 1.0319 1.4288 1.0319 1.4288 0 2.249-1.5346 3.5983-2.6194 3.5983-1.6933 0-2.9898-0.34396-2.9898 1.5081h0.60854c-0.58208 0.55563-0.05292 1.3758-0.05292 1.3758-0.10583-0.58209 0.18521-1.0848 1.27-1.0583h0.66146c-0.42333 0.42334-0.18521 1.0583 0.02646 1.27 0-0.92604 0.635-1.27 1.2171-1.27h0.47625c-0.13229 0.1323 0.07937 0.74084 0.39688 1.0583 0 0-0.21167-0.87313 0.79375-1.0583 2.54-0.44979 0.13229-3.0427 3.9952-3.7835 0 0-1.905-0.29104-1.905-1.3229 0-0.9525 1.7198-1.614 2.3283-1.614 0.47625-0.0794 0.92604-0.0529 1.2965 0.0265 0.15875 1.5081 1.905 1.4288 2.2754 1.4288 1.4817 1.4817-0.37042 3.8629-0.37042 3.8629-2.249 0-3.1485 0.3175-3.1485 1.6404h0.42333c-0.23812 0.23812-0.10583 0.89958 0.05292 1.0583 0-0.74083 0.68792-0.92604 1.5875-0.87312h0.47625c-0.23812 0.21166-0.18521 0.76729 0.05292 1.0054 0-0.89958 0.66146-1.0319 1.1377-1.0054h0.39688c-0.15875 0.13229 0 0.60854 0.18521 0.79375 0 0-0.05292-0.79375 0.79375-0.79375 1.5875 0-0.74083-3.4131 2.3812-6.7733-2.7252 1.27-4.1804-1.8785-4.1804-2.4871 1.4023 1.6404 5.9531 1.9579 5.9531-0.84667 0-2.249-2.1167-3.3073-1.9315-4.2069 0.05292-0.68792 0.635-1.2171 1.3229-1.2171 0.74083 0 1.3494 0.60854 1.3494 1.3494 0 0.55563-0.34396 1.0319-0.84667 1.2171v0.0265c1.2965-0.47625 2.0108-1.7462 1.614-2.7781-0.39688-1.0583-1.7462-1.5081-3.0427-1.0319-0.52917 0.21167-0.97896 0.55563-1.27 0.9525 0.84667-2.4342 4.3127-2.9369 4.3127-5.2123 0-3.7835-5.371-2.7252-4.6038 0v-0.10583c0.15875-1.561 2.9104-1.8521 2.9104 0.13229 0 1.7198-3.5454 2.6723-3.5454 4.9742 0 2.3812 2.6194 2.9633 2.6194 5.4769 0 0.29104-0.15875 1.561-1.8785 1.561-1.6933 0-2.4871-0.92604-2.9369-2.1431-0.84667-1.6404-0.52917-4.2069-1.5081-5.2388l0.07937-1.0583c0.84667 0.52917 3.0956-0.68791 1.614-2.54 0 0.92605-1.8785 0.87313-1.8785-0.84666 0-2.3283 2.1696-1.1112 2.2754-0.60854-0.10583-0.84667-0.15875-1.3758-0.02646-1.8521-1.1642 0.37042-1.27-0.3175-1.1112-0.58208 0.15875-0.29104 0.39688-0.635 0.84667-0.635 0.66146 0 0.60854 0.23812 0.58208 0.58208 0.23812-0.39687 0.3175-0.68791 0.89958-1.2435v-0.42333l0.3175 0.10583 0.34396-0.52917c-0.34396-0.71437-0.82021-0.37041-1.1906-1.27-0.29104-0.0794-4.154-0.44979-4.0217-2.2754-0.34396 0-1.27 1.1906-0.635 1.7992h-0.82021c-0.42333 0.0529-1.4288-0.23812-2.0638 1.0848 1.5875-1.5875 2.6194 2.1696-0.3175 2.1696-0.42333 0.0265-0.79375-0.15875-0.82021-0.47625-0.29104 1.27 1.561 1.6669 1.561 1.6669 0 0.39688-0.92604 2.4342-1.3758 2.884 0.29104 0.29104 0.39688 2.1167-1.0054 2.1167 0.50271-1.3494-0.9525-2.5135-2.4077-3.2544-0.23812-0.10583-0.50271-0.23812-0.74083-0.37041-0.87312-0.39688-1.5875-0.635-1.5875-0.635v-1.0583c0.44979-0.21166 0.92604-0.60854 1.4288-1.2435 0.39688-0.47625 0.60854-1.1112 0.55562-1.7462 0-0.0794-0.02646-0.15875-0.02646-0.23812 0-0.0265-0.02646-0.0529-0.02646-0.0794 0-0.0529-0.02646-0.10583-0.02646-0.15875 0-0.0265-0.02646-0.0529-0.02646-0.0794-0.02646-0.0265-0.02646-0.0794-0.05292-0.13229-0.02646-0.0265-0.02646-0.0529-0.02646-0.0794-0.02646-0.0529-0.05292-0.13229-0.10583-0.18521 0-0.0265-0.02646-0.0529-0.02646-0.0794-0.02646-0.0265-0.05292-0.0794-0.07937-0.10584-0.02646-0.0265-0.02646-0.0529-0.05292-0.0794s-0.05292-0.0529-0.07938-0.10583c-0.02646-0.0265-0.05292-0.0529-0.07937-0.0794 0-0.0265-0.02646-0.0529-0.05292-0.0529-0.05292-0.0794-0.13229-0.13229-0.21167-0.21166v-0.0265c-0.05292-0.0265-0.10583-0.0529-0.13229-0.0794s-0.02646-0.0265-0.05292-0.0265c-0.02646-0.0529-0.07938-0.0794-0.13229-0.10584-0.47625-0.29104-1.0583-0.44979-1.6669-0.39687-0.13229 0-0.23812 0.0265-0.37042 0.0529-0.84667 0.3175-1.4552 1.2965-1.4552 2.4606 0 1.0848 0.55562 2.0373 1.3229 2.4077h0.02646c-0.37042 0.21166-0.66146 0.3175-0.74083 0.3175 0 0 0.02646 0.0265 0.05292 0.0265 0.02646 0.0265 0.02646 0.0265 0.05292 0.0265l0.02646 0.0265s0.02646 0 0.05292 0.0265h0.02646c0.02646 0.0265 0.05292 0.0265 0.07937 0.0265v0.0265c0.07938 0.0265 0.15875 0.0529 0.23812 0.0529 0 0.0265 0 0.0265 0.02646 0.0265s0.05292 0 0.07937 0.0265h0.05292c0.02646 0 0.07937 0 0.13229 0.0265 0.26458 0.0265 0.60854-0.0529 0.60854-0.0529v0.60854c-0.05292 0-0.50271-0.13229-0.60854-0.23812h-0.05292c-0.47625 0.0794-0.76729 0.21167-0.89958 0.635-0.15875 0.42333 0 0.58208 0.21167 0.87312-0.18521 0.34396-0.68792 0.4498-0.02646 1.1906-0.05292 0.29104 0 0.74083 0.39688 0.87312 0.13229 0.0265 0.26458 0.0529 0.37042 0.0794 0.23812 0 0.60854 0.21167 0.60854 0.68792v4.7625c0.21167 0.0265 0.44979 0.0529 0.66146 0.0529v-5.2123c0.23812 0.0265 0.89958 0.10583 1.6404 0.42333 0.02646 0 0.02646 0 0.02646 0.0265 0.07937 0 0.13229 0 0.21167 0.0265 0.50271 0.15875 0.82021 0.58208 0.68792 0.97896-0.10583 0.39687-0.60854 0.58208-1.1112 0.42333 0.58208 1.1377 2.6458 0.58209 3.0956-0.34396 0.23812-0.0265 0.42333 0.37042 0.60854 0.74084 0 0 0.50271 0.18521 1.7992 0.18521 0 0-5.1858 3.3073-6.694 3.3073-0.635 0-2.0373 0-2.0373 0.50271-0.39688 0-0.9525 0.66145-0.9525 1.0319 0.37042-0.29104 0.66146-0.29104 0.66146-0.29104 0.3175 0 0.47625 0.10583 0.47625 0.10583-0.10583 0.10584-0.60854 0.68792-0.60854 1.1377 0.42333-0.42333 0.60854-0.42333 0.60854-0.42333s0.44979-0.0794 0.60854 0.10583c-0.10583 0.10583-0.29104 0.50271-0.29104 0.9525 0 0 0.26458-0.52917 0.60854-0.52917v4.9742c0 0.15875-0.68792 0.3175-0.97896 0.3175m0.39688-23.389zm0.02646 24.13zm-0.05292-21.908v0.0265c0.02646-0.0265 0.02646-0.0529 0.05292-0.0794-0.02646 0.0265-0.02646 0.0265-0.05292 0.0529z" class="g38_1" display="block" fill="#144992"/>
    <path d="m-58.222 260.25c0.26458 0.44979 0.76729 0.71438 1.2965 0.66146 0.74083-0.0794 1.2965-0.74083 1.2171-1.4817v-0.0794c-0.07937 0.39687-0.55562 0.71437-1.1112 0.76729-0.44979 0.0529-0.84667-0.0794-1.0848-0.29104-0.10583 0.15875-0.21167 0.29104-0.3175 0.42333z" class="g40_1" display="block" fill="#ed2226"/>
    <path d="m-61.132 257.76h0.66146s-0.02646 0.52916 0.47625 0.58208l-0.10583 0.15875s-1.3229-0.34396-1.0319-0.74083m1.1112 0h0.47625l-0.23812 0.34396s-0.3175 0.0794-0.23812-0.34396z" class="g7_1" display="block" fill="#fff"/>
    <path d="m-68.408 283.69h-0.47625c0 0.7673 0.87312 1.0583 0.87312 1.0583-0.3175-0.3175-0.52917-0.92604-0.39688-1.0583m-3.6512 1.0583s-0.52917-0.82021 0.05292-1.3758h-0.60854c-0.23812 1.0319 0.55562 1.3758 0.55562 1.3758m-1.0054-6.4029v-4.9742c-0.34396 0-0.60854 0.52917-0.60854 0.52917v4.2333-0.0265h-0.37042v0.55562c0.29104 0 0.97896-0.15875 0.97896-0.3175zm5.0271-1.5081c0-2.4871 5.9267-2.7781 5.9267-4.8154 0-0.82021-0.71438-1.1906-1.2171-1.1906 0.13229 0.1323 0.89958 1.7992-1.2965 1.7992-2.0108 0.66146-6.3765 4.445-3.3338 5.7679 0 0.39687-0.05292 3.2279-1.8785 2.9898-2.6194-0.3175-3.2808 0.76729-2.7781 1.9844 0-1.8521 1.2965-1.5081 2.9898-1.5081 1.0848 0 2.6194-1.3494 2.6194-3.5983 0 0-1.0319-0.39688-1.0319-1.4288m-2.0902 6.8527h-0.66146c-0.02646 1.0583 0.68792 1.27 0.68792 1.27-0.21167-0.21166-0.44979-0.84666-0.02646-1.27m-3.2808-4.3127c-0.07937 0-0.13229 0-0.21167 0.0265-0.21167 0.15875-0.34396 0.42334-0.34396 0.71438 0.07938 0.23812 0.29104 0.42333 0.55562 0.42333 0.3175 0 0.58208-0.26458 0.58208-0.58208 0-0.34396-0.26458-0.58208-0.58208-0.58208m13.203 4.736h-0.47625c-0.05292 0.87312 0.52917 1.0054 0.52917 1.0054-0.23812-0.23812-0.29104-0.79375-0.05292-1.0054m6.1119-15.531c-0.68792 0-1.27 0.52916-1.3229 1.2171 0.02646-0.15875 0.13229-0.3175 0.34396-0.47625 0.82021-0.60854 2.3812 0.60854 1.4817 1.8256 0.50271-0.1852 0.84667-0.66145 0.84667-1.2171 0-0.74083-0.60854-1.3494-1.3494-1.3494m-19.897 4.2598c0 0.76729 0.3175 1.0583 0.3175 1.0583 0-0.47625 0.18521-0.84667 0.29104-0.9525-0.15875-0.18521-0.60854-0.10583-0.60854-0.10583m20.32-9.7102c0-1.9844-2.7517-1.6933-2.9104-0.13229 0.13229-1.1377 1.9844-1.2965 1.9844 0.10583 0 1.4817-3.4396 2.4342-3.4396 4.8948 0 2.7252 2.7252 2.9898 2.4342 5.4769-0.02646 0.42333-0.50271 1.0054-1.1642 1.0054-1.4288 0-2.196-0.60854-2.6458-1.4817 0.44979 1.2171 1.2435 2.1431 2.9369 2.1431 1.7198 0 1.8785-1.27 1.8785-1.561 0-2.5135-2.6194-3.0956-2.6194-5.4769 0-2.3019 3.5454-3.2544 3.5454-4.9742m-8.599 21.855c-0.15875-0.15875-0.29104-0.82021-0.05292-1.0583h-0.42333c-0.05292 0.66146 0.47625 1.0583 0.47625 1.0583m3.6512-0.87312h-0.39687c-0.02646 0.60854 0.58208 0.79375 0.58208 0.79375-0.18521-0.18521-0.34396-0.66146-0.18521-0.79375m-0.60854-5.6885c-0.37042 0-2.1167 0.0794-2.2754-1.4288-0.37042-0.0794-0.82021-0.10584-1.2965-0.0265 1.2435 2.3283 2.5665 2.3548 2.9104 2.3812 0.55562 0.60854 0.37042 2.6458-0.42333 2.6194-2.8575-0.15875-2.7517 1.5875-2.4342 1.9579 0-1.3229 0.89958-1.6404 3.1485-1.6404 0 0 1.8521-2.3812 0.37042-3.8629m-12.912-7.6465c1.5081 0 6.694-3.3073 6.694-3.3073-1.2965 0-1.7992-0.18521-1.7992-0.18521-0.29104 0.15875-0.89958 0.44979-2.1431 1.1906-1.0319 0.60854-1.7198 1.3758-2.6723 1.6933-0.13229 0.0529-0.23812 0.0794-0.34396 0.0529-0.21167 0-0.44979-0.0265-0.66146-0.0529v-4.7625c0-0.47625-0.37042-0.68792-0.60854-0.68792v5.5298c-0.39688 0.21167-0.60854 0.47625-0.71438 0.74083 0 0-0.76729-0.10583-0.74083 1.3229 0-0.37042 0.55562-1.0583 0.9525-1.0583 0-0.47625 1.4023-0.47625 2.0373-0.47625m-0.26458-9.2075s0.71438 0.23812 1.5875 0.635c-0.15875-0.10584-0.3175-0.23813-0.47625-0.37042-0.44979-0.42333-0.79375-0.66146-1.1112-0.76729zm1.4552 5.3181c0.50271 0.15875 1.0054-0.0529 1.1112-0.42333 0.13229-0.39688-0.18521-0.82021-0.68792-0.97896-0.07937-0.0265-0.13229-0.0265-0.21167-0.0265 0.71438 0.39688 0.71438 1.2171-0.21167 1.4288m8.1227-10.504c-0.635-0.60854 0.29104-1.7992 0.635-1.7992-0.37042 0-1.9844 1.0583-1.4552 1.7992zm-10.266 0.71438c0.34396-0.0265 0.66146 0.23812 0.68792 0.58208 0.05292 0.34396-0.23812 0.635-0.58208 0.66146-0.37042 0.0265-0.68792-0.21167-0.71438-0.55562 0 0.52916 0.42333 0.9525 0.97896 0.9525 0.05292 0.23812 0.07937 0.47625 0 0.66145 0.52917-0.44979 0.9525-1.0054 0.9525-1.614 0-0.55563-0.42333-0.97896-0.9525-0.97896-0.44979 0-0.82021 0.29104-0.9525 0.71437 0.10583-0.23812 0.3175-0.39687 0.58208-0.42333zm5.424 8.7312c1.4023 0 1.2965-1.8256 1.0054-2.1167 0.44979-0.44979 1.3758-2.4871 1.3758-2.884 0 0-1.8521-0.39687-1.561-1.6669h-0.02646c-0.50271 0.52917-0.18521 1.6404 0.60854 1.905 0 0-0.3175 1.2171-1.0583 1.9844-0.76729-0.0265-1.8256-0.13229-2.7517-0.47625 1.4288 0.74084 2.9104 1.905 2.4077 3.2544zm1.9579-8.3608c0.79375-0.15875 1.0848 0.55562 1.0848 0.8202 0 0.97896-0.76729 1.3494-1.4023 1.3494 2.9369 0 1.905-3.7571 0.3175-2.1696zm-8.0698 2.6724c-0.76729-0.37042-1.3229-1.3229-1.3229-2.4077 0-1.1642 0.60854-2.1431 1.4552-2.4606-1.2435 0.29105-2.1431 1.4023-2.0373 2.6458 0.10583 1.0848 0.87312 1.9315 1.905 2.2225m0.89958 13.256c-0.07937 0.39688 0.13229 0.79375 0.47625 0.97896 0.07938 0.0265 0.15875 0.0529 0.23812 0.0794 0.02646 0 0.07938 0.0265 0.10583 0.0265h0.05292s-0.50271-0.47625-0.3175-0.92604c-0.13229-0.10583-0.3175-0.15875-0.55562-0.15875zm-1.5875-1.3758c-0.50271 0.66146-0.13229 1.2435-0.13229 1.2435 0-0.44979 0.50271-1.0319 0.60854-1.1377 0 0-0.15875-0.10583-0.47625-0.10583m0.60854-8.2285c-0.10583 0-0.15875 0.15875-0.15875 0.23812 0 0.0529 0.05292 0.21167 0.18521 0.21167 0.3175 0 0.89958-0.21167 0.89958-0.26458 0-0.0529-0.60854-0.21167-0.92604-0.18521m0.18521-3.0427v0.3175c0.10583 0.10583 0.55562 0.23812 0.60854 0.23812v-0.60854s-0.34396 0.0794-0.60854 0.0529m0.92604 2.4606c0-0.10583-0.82021-0.39687-1.2435-0.42333-0.15875 0-0.26458 0.21167-0.26458 0.29104 0 0.10584 0.05292 0.34396 0.23812 0.34396 0.42333 0.0265 1.27-0.13229 1.27-0.21167m0.05292-0.8202c0.02646-0.10584-0.79375-0.58209-1.2171-0.68792-0.18521-0.0529-0.34396 0.18521-0.37042 0.26458-0.02646 0.0794 0 0.34396 0.18521 0.39688 0.44979 0.13229 1.3758 0.10583 1.4023 0.0265z" class="g41_1" display="block" fill="#6a7ab7"/>
    <path d="m-84.892 275.44-0.02646-0.10583v-0.10583c-0.05292-0.34396-0.13229-1.0054-0.66146-1.1377-0.13229-0.0265-0.26458 0-0.42333 0.0529 0.05292-0.15875 0.02646-0.29105-0.02646-0.42334-0.18521-0.50271-0.84667-0.50271-1.2171-0.50271h-0.21166c-0.34396-0.0794-1.0054-0.1852-1.27 0.26459-0.07937 0.10583-0.10583 0.26458-0.10583 0.42333-0.13229-0.10583-0.26458-0.13229-0.39688-0.13229-0.52917 0.0265-0.74083 0.66146-0.84667 1.0054l-0.02646 0.10583-0.05292 0.10583c-0.18521 0.3175-0.50271 0.89959-0.15875 1.2965 0.10583 0.10583 0.23812 0.18521 0.39688 0.21167-0.13229 0.10583-0.21167 0.23812-0.26458 0.37041-0.13229 0.50271 0.42333 0.89959 0.71438 1.0848l0.07937 0.0794 0.07937 0.0794c0.23812 0.26458 0.71438 0.74083 1.1906 0.52916 0.13229-0.0529 0.23812-0.13229 0.3175-0.29104 0.07937 0.15875 0.15875 0.26458 0.26458 0.34396 0.44979 0.29104 0.97896-0.10583 1.27-0.3175l0.10583-0.0794 0.07937-0.0265c0.34396-0.15875 0.92604-0.4498 0.89958-0.97896-0.02646-0.13229-0.07937-0.26459-0.18521-0.39688 0.15875 0 0.29104-0.0529 0.39688-0.13229 0.42333-0.34396 0.21167-0.97896 0.07937-1.3229z" class="g7_1" display="block" fill="#fff"/>
    <g fill="#ed2226">
     <path d="m-87.193 275.86c2.9633 1.7462 2.0373-0.15875 1.9844-0.44979-0.07937-0.29105-0.10583-2.4077-1.9844 0.44979z" class="g40_1" display="block"/>
     <path d="m-87.379 276.31c-0.74083 3.3338 0.79375 1.8785 1.0583 1.7462 0.23812-0.15875 2.249-0.84667-1.0583-1.7462z" class="g40_1" display="block"/>
     <path d="m-87.855 276.26c-3.4131 0.3175-1.5346 1.3494-1.3229 1.5346 0.21167 0.1852 1.4817 1.905 1.3229-1.5346z" class="g40_1" display="block"/>
     <path d="m-87.961 275.81c-1.3494-3.1485-1.7462-1.0583-1.8521-0.79375-0.13229 0.26458-1.3494 1.9844 1.8521 0.79375z" class="g40_1" display="block"/>
    </g>
    <path d="m-39.224 274.99-0.05292-0.10583-0.02646-0.10583c-0.10583-0.34396-0.29104-0.97896-0.82021-1.0054-0.15875 0-0.29104 0.0265-0.42333 0.13229 0-0.15875-0.02646-0.3175-0.07937-0.42333-0.29104-0.44979-0.9525-0.34396-1.2965-0.26459h-0.21166c-0.37042 0-1.0319 0-1.2171 0.50271-0.05292 0.13229-0.05292 0.26459-0.02646 0.42334-0.13229-0.0529-0.29104-0.0794-0.42333-0.0529-0.50271 0.13229-0.60854 0.79375-0.635 1.1377l-0.02646 0.10583-0.02646 0.10583c-0.10583 0.34396-0.34396 0.97896 0.07937 1.3229 0.10583 0.0794 0.23812 0.13229 0.39688 0.13229-0.10583 0.13229-0.15875 0.26459-0.15875 0.39688-0.05292 0.52916 0.55562 0.82021 0.87312 0.97896l0.10583 0.0529 0.07937 0.0529c0.29104 0.21167 0.82021 0.60854 1.27 0.3175 0.10583-0.0794 0.21167-0.18521 0.26458-0.34396 0.07938 0.15875 0.18521 0.23813 0.3175 0.29104 0.47625 0.21167 0.9525-0.26458 1.1906-0.52916l0.07938-0.0794 0.07937-0.0529c0.29104-0.21166 0.84667-0.60854 0.71438-1.1112-0.05292-0.13229-0.13229-0.26458-0.23812-0.37041 0.15875-0.0265 0.26458-0.10584 0.37042-0.21167 0.34396-0.39687 0.02646-0.97896-0.15875-1.2965z" class="g7_1" display="block" fill="#fff"/>
    <g fill="#ed2226">
     <path d="m-41.817 275.54c-2.5665-2.249-0.47625-1.9844-0.18521-2.0108 0.29104-0.0265 2.3283-0.66145 0.18521 2.0108z" class="g40_1" display="block"/>
     <path d="m-42.188 275.86c-2.9369 1.7462-2.0373-0.15875-1.9844-0.44979 0.07938-0.29105 0.10583-2.4077 1.9844 0.44979z" class="g40_1" display="block"/>
     <path d="m-42.003 276.31c0.74083 3.3338-0.79375 1.8785-1.0319 1.7462-0.26458-0.15875-2.2754-0.84667 1.0319-1.7462z" class="g40_1" display="block"/>
     <path d="m-41.526 276.26c3.4131 0.3175 1.561 1.3494 1.3229 1.5346-0.21167 0.1852-1.4817 1.905-1.3229-1.5346z" class="g40_1" display="block"/>
     <path d="m-41.421 275.81c1.3758-3.1485 1.7462-1.0583 1.8785-0.79375 0.10583 0.26458 1.3229 1.9844-1.8785 0.79375z" class="g40_1" display="block"/>
    </g>
    <path d="m-40.759 275.89v-0.0794c0.26458-0.18521 0.55562-0.39687 0.55562-0.39687l-0.02646-0.0794s-0.34396 0.0794-0.68792 0.13229c-0.15875-0.29104-0.44979-0.47625-0.76729-0.50271-0.10583-0.29104-0.21167-0.60854-0.21167-0.60854h-0.05292s-0.05292 0.3175-0.10583 0.635c-0.18521 0.0529-0.37042 0.18521-0.50271 0.34396-0.07937 0.0794-0.13229 0.18521-0.15875 0.29104h-0.68792l-0.02646 0.0529 0.635 0.3175v0.0794c0.02646 0.26459 0.15875 0.50271 0.34396 0.68792-0.10583 0.34399-0.21166 0.71441-0.21166 0.71441l0.05292 0.0265s0.26458-0.29104 0.52917-0.52916c0.10583 0.0265 0.26458 0.0529 0.39688 0.0265 0.13229 0 0.26458-0.0529 0.39688-0.10584 0.26458 0.21167 0.60854 0.44979 0.60854 0.44979l0.05292-0.0529s-0.18521-0.34396-0.34396-0.66146c0.15875-0.21167 0.23812-0.47625 0.21167-0.74083z" class="g7_1" display="block" fill="#fff"/>
    <path d="m-41.817 275.39c-0.18521 0-0.3175 0.0794-0.42333 0.21166-0.10583 0.1323-0.15875 0.29105-0.13229 0.4498 0.02646 0.3175 0.3175 0.58208 0.635 0.55562 0.18521-0.0265 0.3175-0.10583 0.42333-0.23812 0.10583-0.10584 0.15875-0.26459 0.13229-0.42334-0.02646-0.34396-0.3175-0.58208-0.635-0.55562z" class="g40_1" display="block" fill="#ed2226"/>
    <path d="m-87.537 275.54c2.5665-2.249 0.44979-1.9844 0.15875-2.0108-0.29104-0.0265-2.3019-0.66145-0.15875 2.0108z" class="g40_1" display="block" fill="#ed2226"/>
    <path d="m-86.585 275.99l0.635-0.3175v-0.0529h-0.68792c-0.05292-0.10583-0.10583-0.21166-0.15875-0.29104-0.15875-0.15875-0.3175-0.29104-0.52917-0.34396-0.05292-0.3175-0.07937-0.635-0.07937-0.635h-0.07937s-0.10583 0.3175-0.21167 0.60854c-0.3175 0.0265-0.60854 0.21167-0.76729 0.50271-0.34396-0.0529-0.68792-0.13229-0.68792-0.13229l-0.02646 0.0794s0.29104 0.21166 0.58208 0.39687c0 0.0265-0.02646 0.0529-0.02646 0.0794-0.02646 0.29104 0.05292 0.52916 0.23812 0.74083-0.15875 0.3175-0.34396 0.66146-0.34396 0.66146l0.05292 0.0529s0.3175-0.23812 0.60854-0.44979c0.10583 0.0529 0.23812 0.10584 0.37042 0.10584 0.15875 0.0265 0.29104 0 0.42333-0.0265l0.52917 0.52916 0.05292-0.0265s-0.13229-0.37042-0.23812-0.71438c0.21167-0.18521 0.34396-0.42333 0.34396-0.68792 0.02646-0.0264 0-0.0529 0-0.0794z" class="g7_1" display="block" fill="#fff"/>
    <path d="m-87.141 275.6c-0.10583-0.13229-0.23812-0.21166-0.39688-0.21166-0.34396-0.0265-0.635 0.21166-0.66146 0.55562-0.02646 0.15875 0.02646 0.3175 0.13229 0.42334 0.10583 0.13229 0.26458 0.21166 0.42333 0.23812 0.3175 0.0265 0.635-0.23812 0.66146-0.55562 0-0.15875-0.05292-0.3175-0.15875-0.4498z" class="g40_1" display="block" fill="#ed2226"/>
    <path d="m-87.167 261.28c-1.4288-0.23813-2.8046 0.71437-3.0692 2.1696-0.26458 1.4288 0.71438 2.8046 2.1431 3.0692 1.4288 0.23812 2.8046-0.71438 3.0692-2.1696 0.26458-1.4288-0.71438-2.8046-2.1431-3.0692z" class="g7_1" display="block" fill="#fff"/>
    <g fill="#ed2226">
     <path d="m-86.585 263.29s-0.05292-0.0265-0.10583-0.0794c-0.21167-0.13229-0.635-0.42333-0.66146-0.42333-0.05292-0.0529-0.10583-0.0794-0.15875-0.10583-0.18521-0.13229-0.37042-0.23813-0.52917-0.34396-0.05292-0.0265-0.10583-0.0529-0.15875-0.0794-0.26458-0.13229-0.50271-0.21166-0.79375-0.23812-0.21167 0.15875-0.42333 0.34396-0.55562 0.58208 0.635 0.23813 1.2965 0.60854 2.6194 1.4552 0.07937-0.18521 0.34396-0.74083 0.34396-0.76729z" class="g40_1" display="block"/>
     <path d="m-87.193 264.72c0.02646-0.0794 0.15875-0.37042 0.18521-0.47625-1.3494-0.87313-1.9844-1.2435-2.6458-1.4817-0.10583 0.18521-0.18521 0.39688-0.23812 0.60854 0.37042 0.52917 1.3758 1.0319 2.6988 1.3494z" class="g40_1" display="block"/>
     <path d="m-87.326 262.55c0.50271-0.29105 1.0848-0.21167 1.5346-0.0794-0.15875-0.21167-0.37042-0.39687-0.60854-0.52917-0.42333-0.10583-1.0054-0.10583-1.4817 0.26459 0.18521 0.10583 0.34396 0.21166 0.55562 0.34396z" class="g40_1" display="block"/>
     <path d="m-89.389 265.01c0.07937 0.0265 0.13229 0.0794 0.21167 0.13229 0.15875 0.0794 0.3175 0.15875 0.47625 0.21167 0.07937 0.0265 0.15875 0.0529 0.23812 0.0794 0.23812 0.0794 0.84667 0.23813 0.87312 0.23813 0.02646-0.0265 0.23812-0.55563 0.3175-0.76729-1.0054-0.26459-2.1431-0.71438-2.6723-1.27-0.02646 0.26458 0 0.52916 0.05292 0.76729 0.10583 0.23812 0.29104 0.44979 0.50271 0.60854z" class="g40_1" display="block"/>
     <path d="m-87.537 265.89-0.21167-0.0529c-0.21167-0.0529-0.42333-0.10583-0.635-0.15875 0.10583 0.21167 0.26458 0.39687 0.44979 0.52917 0.23812 0.0265 0.47625 0.0265 0.68792 0-0.15875-0.1323-0.29104-0.3175-0.29104-0.3175z" class="g40_1" display="block"/>
     <path d="m-85.394 263.24c-0.05292-0.15875-0.13229-0.3175-0.21167-0.47625-0.39688-0.18521-1.0054-0.34396-1.5346-0.0794l0.74083 0.47625h0.42333 0.18521c0.15875 0.0265 0.26458 0.0265 0.39688 0.0794z" class="g40_1" display="block"/>
     <path d="m-85.791 263.37c-0.02646 1.2171-0.58208 2.1431-1.0848 2.7252 0.76729-0.26458 1.3758-0.92604 1.5346-1.7992 0.05292-0.29105 0.05292-0.58209 0-0.84667-0.13229-0.0529-0.26458-0.0794-0.44979-0.0794z" class="g40_1" display="block"/>
     <path d="m-88.067 262.1c0.34396-0.3175 0.76729-0.39687 1.1377-0.42333-0.10583-0.0265-0.18521-0.0529-0.29104-0.0794-0.55562-0.0794-1.0583 0.0265-1.5081 0.26458 0.23812 0.0529 0.44979 0.13229 0.66146 0.23812z" class="g40_1" display="block"/>
     <path d="m-86.373 263.37c-0.18521 0.37042-0.29104 0.58209-0.37042 0.79375-0.02646 0.0529-0.05292 0.10584-0.07937 0.18521-0.05292 0.10584-0.15875 0.42334-0.15875 0.42334l-0.07937 0.1852-0.34396 0.79375c0.10583 0.1323 0.21167 0.21167 0.3175 0.29105 0.47625-0.55563 1.0848-1.4817 1.1112-2.6988-0.13229 0-0.26458 0-0.39688 0.0265z" class="g40_1" display="block"/>
     <path d="m-88.622 265.6c-0.18521-0.0529-0.34396-0.13229-0.50271-0.21166 0.07938 0.18521 0.15875 0.34396 0.23812 0.47625 0.18521 0.10583 0.37042 0.21166 0.55562 0.26458-0.13229-0.15875-0.23812-0.3175-0.29104-0.52917z" class="g40_1" display="block"/>
     <path d="m-89.363 265.25c-0.10583-0.0529-0.21167-0.1323-0.29104-0.21167 0.10583 0.18521 0.23812 0.37042 0.39688 0.52917-0.02646-0.10584-0.07937-0.21167-0.10583-0.3175z" class="g40_1" display="block"/>
    </g>
    <path d="m-44.622 264.35c0.23812 1.4552 1.614 2.4077 3.0427 2.1696 1.4552-0.26459 2.4077-1.6404 2.1696-3.0692-0.26458-1.4552-1.6404-2.4077-3.0692-2.1696-1.4552 0.26458-2.4077 1.6404-2.1431 3.0692z" class="g7_1" display="block" fill="#fff"/>
    <g fill="#ed2226">
     <path d="m-43.087 263.29c0.02646 0 0.05292-0.0265 0.10583-0.0794 0.23812-0.13229 0.66146-0.42333 0.66146-0.42333 0.05292-0.0529 0.10583-0.0794 0.18521-0.10583 0.18521-0.13229 0.34396-0.23813 0.50271-0.34396 0.05292-0.0265 0.13229-0.0529 0.18521-0.0794 0.23812-0.13229 0.50271-0.21166 0.76729-0.23812 0.23812 0.15875 0.42333 0.34396 0.58208 0.58208-0.66146 0.23813-1.2965 0.60854-2.6458 1.4552-0.07937-0.18521-0.3175-0.74083-0.34396-0.76729z" class="g40_1" display="block"/>
     <path d="m-42.479 264.72c-0.02646-0.0794-0.13229-0.37042-0.18521-0.47625 1.3758-0.87313 2.0108-1.2435 2.6723-1.4817 0.10583 0.18521 0.18521 0.39688 0.23812 0.60854-0.39688 0.52917-1.4023 1.0319-2.7252 1.3494z" class="g40_1" display="block"/>
     <path d="m-42.32 262.55c-0.50271-0.29105-1.0848-0.21167-1.561-0.0794 0.18521-0.21167 0.39688-0.39687 0.635-0.52917 0.42333-0.10583 1.0054-0.10583 1.4552 0.26459-0.15875 0.10583-0.34396 0.21166-0.52917 0.34396z" class="g40_1" display="block"/>
     <path d="m-40.283 265.01c-0.05292 0.0265-0.13229 0.0794-0.21167 0.13229-0.13229 0.0794-0.3175 0.15875-0.47625 0.21167-0.07937 0.0265-0.13229 0.0529-0.21167 0.0794-0.26458 0.0794-0.84667 0.23813-0.89958 0.23813 0-0.0265-0.23812-0.55563-0.3175-0.76729 1.0319-0.26459 2.1431-0.71438 2.6723-1.27 0.02646 0.26458 0.02646 0.52916-0.02646 0.76729-0.10583 0.23812-0.29104 0.44979-0.52917 0.60854z" class="g40_1" display="block"/>
     <path d="m-42.108 265.89 0.21167-0.0529c0.18521-0.0529 0.39688-0.10583 0.635-0.15875-0.10583 0.21167-0.29104 0.39687-0.44979 0.52917-0.23812 0.0265-0.47625 0.0265-0.71438 0 0.15875-0.1323 0.3175-0.3175 0.3175-0.3175z" class="g40_1" display="block"/>
     <path d="m-44.252 263.24c0.05292-0.15875 0.10583-0.3175 0.18521-0.47625 0.39688-0.18521 1.0319-0.34396 1.561-0.0794l-0.74083 0.47625h-0.42333-0.21167c-0.13229 0.0265-0.26458 0.0265-0.37042 0.0794z" class="g40_1" display="block"/>
     <path d="m-43.881 263.37c0.02646 1.2171 0.60854 2.1431 1.0848 2.7252-0.76729-0.26458-1.3758-0.92604-1.5346-1.7992-0.05292-0.29105-0.02646-0.58209 0.02646-0.84667 0.10583-0.0529 0.26458-0.0794 0.42333-0.0794z" class="g40_1" display="block"/>
     <path d="m-41.606 262.1c-0.34396-0.3175-0.74083-0.39687-1.1112-0.42333 0.07937-0.0265 0.18521-0.0529 0.29104-0.0794 0.52917-0.0794 1.0583 0.0265 1.5081 0.26458-0.23812 0.0529-0.44979 0.13229-0.68792 0.23812z" class="g40_1" display="block"/>
     <path d="m-43.273 263.37c0.18521 0.37042 0.26458 0.58209 0.37042 0.79375 0.02646 0.0529 0.05292 0.10584 0.07937 0.18521 0.02646 0.10584 0.15875 0.42334 0.15875 0.42334l0.07938 0.1852 0.3175 0.79375c-0.07937 0.1323-0.18521 0.21167-0.29104 0.29105-0.50271-0.55563-1.1112-1.4817-1.1112-2.6988 0.10583 0 0.23812 0 0.39688 0.0265z" class="g40_1" display="block"/>
     <path d="m-41.024 265.6c0.15875-0.0529 0.3175-0.13229 0.47625-0.21166-0.05292 0.18521-0.13229 0.34396-0.21167 0.47625-0.18521 0.10583-0.37042 0.21166-0.58208 0.26458 0.13229-0.15875 0.23812-0.3175 0.3175-0.52917z" class="g40_1" display="block"/>
     <path d="m-40.309 265.25c0.10583-0.0529 0.21167-0.1323 0.3175-0.21167-0.10583 0.18521-0.23812 0.37042-0.39688 0.52917 0.02646-0.10584 0.05292-0.21167 0.07937-0.3175z" class="g40_1" display="block"/>
    </g>
   </g>
  </g>
 </g>
</svg>
