<svg xmlns="http://www.w3.org/2000/svg" height="220" width="220" version="1.1" viewBox="0 0 58.208332 58.208335">
 <defs>
  <clipPath id="c0_1">
   <path d="m1477.8 142.6v-4.5h0.7v4.5z"/>
  </clipPath>
 </defs>
 <g transform="translate(0 -238.79)">
  <g transform="translate(-5.8333e-8 -.0000018318)">
   <g transform="translate(64.823 -27.403)">
    <g stroke-width=".26458" fill="#fff">
     <path d="m-44.133 312.03s-6.4294-3.2279-9.5515-8.1492c0.02646 4.2333-0.18521 9.525-0.18521 9.525l9.816 1.905z" class="g7_1" display="block"/>
     <path d="m-27.199 312.11s6.4029-2.9633 9.525-7.911c0 4.2598 0.21167 9.2075 0.21167 9.2075l-9.816 1.905z" class="g7_1" display="block"/>
     <path d="m-27.12 318.3h-17.066v-7.8052h17.066z" class="g7_1" display="block"/>
     <path d="m-30.586 311.08c0 2.7517-2.2754 5.0006-5.0535 5.0006-2.8046 0-5.0535-2.249-5.0535-5.0006 0-2.7517 2.249-5.0006 5.0535-5.0006 2.7781 0 5.0535 2.249 5.0535 5.0006z" class="g7_1" display="block"/>
     <path d="m-56.039 313.7v-7.3025l-0.42333-0.15875v-1.0054l0.42333-0.18521v-0.68l-0.42333-0.15875v-1.1906l1.4288-1.3494v-0.3175s0.05292-0.29104 0.42333-0.29104h0.42333s0.3175 0.0529 0.3175 0.29104v0.29104l1.4817 1.4023-0.02646 1.1642-0.44979 0.15875v0.68791l0.44979 0.18521v7.7523z" class="g7_1" display="block"/>
     <path d="m-15.134 313.7v-7.3025l0.42333-0.15875v-1.0054l-0.42333-0.18521v-0.68l0.42333-0.15875v-1.1906l-1.4288-1.3494v-0.3175s-0.05292-0.29104-0.39688-0.29104h-0.42333s-0.34396 0.0529-0.34396 0.29104v0.29104l-1.4552 1.4023v1.1642l0.44979 0.15875v0.68791l-0.44979 0.18521v7.7523z" class="g7_1" display="block"/>
     <path d="m-36.089 323.94c-3.5454 0-5.8208-1.2171-8.2021-2.4871-1.27-0.68792-2.5665-1.3758-4.101-1.905-4.3656-1.4552-7.2231 0.34396-7.329 0.42333l-0.58208-0.89958c0.13229-0.10583 3.3867-2.1696 8.255-0.52917 1.614 0.55563 2.9633 1.27 4.2598 1.9579 2.4606 1.3229 4.789 2.5929 8.6254 2.3548 3.5719-0.21166 6.0325-1.4288 8.4138-2.6194 1.0319-0.50271 1.9844-0.97896 2.9898-1.3494 0.07937-0.0265 0.15875-0.0529 0.23812-0.0794 1.27-0.52917 5.1594-2.0373 8.4931 0.50271l-0.635 0.84666c-2.8575-2.196-6.2177-0.87312-7.4612-0.37041-0.10583 0.0265-0.18521 0.0794-0.26458 0.10583-0.9525 0.34396-1.8785 0.82021-2.884 1.2965-2.3548 1.1642-5.0271 2.4871-8.8371 2.7252-0.3175 0.0265-0.66146 0.0265-0.97896 0.0265z" class="g7_1" display="block"/>
     <path d="m-17.092 322.04-0.76729-0.5027c-0.15875-0.10584-0.60854-0.18521-1.0583-0.10584-0.07937 0.0265-0.15875 0.0265-0.23812 0.0529-0.37042 0.0794-0.84667 0.18521-1.2171-0.10583-0.15875-0.1323-0.3175-0.34396-0.3175-0.7673 0-0.34395 0.13229-0.635 0.39688-0.8202 0.82021-0.66146 2.8575-0.18521 3.466-0.0529 0.39688 0.10583 0.84667 0.10583 0.92604 0.0265 0.21167-2.3019 1.1377-3.9423 1.6669-4.736-3.7571-2.2754-9.5515-1.0319-11.695 0.34395-3.2279 2.0638-5.9267 3.3602-9.3662 3.3602-2.9369 0-5.424-1.1906-8.0433-2.4871-1.4552-0.71438-2.9898-1.4552-4.6567-2.0108-3.4925-1.1906-7.4877 0.13229-8.9958 0.74083 0.55562 0.76729 1.4023 2.3019 1.5081 4.4715 0.07938 0.10583 0.52917 0.13229 0.92604 0.0529 0.60854-0.13229 2.6723-0.47625 3.466 0.21167 0.26458 0.21167 0.37042 0.50271 0.37042 0.82021-0.02646 0.42333-0.21167 0.635-0.37042 0.76729-0.37042 0.26458-0.84667 0.13229-1.2171 0.0529-0.07937-0.0265-0.15875-0.0529-0.23812-0.0794-0.44979-0.0794-0.89958-0.0265-1.0848 0.0529l-0.76729 0.44979-0.02646-1.2171c-0.3175 0.0529-1.1642 0.15875-1.6933-0.23813-0.26458-0.21166-0.42333-0.47625-0.42333-0.82021-0.13229-2.7781-1.6669-4.3392-1.6933-4.3392l-0.52917-0.52914 0.66146-0.34396c0.23812-0.10583 5.6356-2.6988 10.451-1.0583 1.7462 0.58208 3.2808 1.3229 4.789 2.0638 2.4871 1.2171 4.8419 2.3812 7.5142 2.3812h0.05292c3.175-0.0265 5.715-1.2171 8.7842-3.2015 2.54-1.614 9.1546-2.9898 13.361 0l0.47625 0.34396-0.39688 0.44979s-1.5081 1.7727-1.7727 4.5773c-0.02646 0.34396-0.18521 0.60854-0.44979 0.79375-0.55562 0.39688-1.4023 0.23813-1.7198 0.15875z" class="g7_1" display="block"/>
     <path d="m-51.144 319.71s-0.52917-0.52917-0.74083-0.92604c-0.44979-0.76729-3.8629 0.74083-3.8629 0.74083l0.9525 0.21167z" class="g7_1" display="block"/>
     <path d="m-20.426 319.89s0.52917-0.50271 0.76729-0.89958c0.44979-0.7673 3.8365 0.84666 3.8365 0.84666l-0.9525 0.18521z" class="g7_1" display="block"/>
     <path d="m-56.145 319.73s-0.05292-2.0902-0.52917-3.0427c-0.47625-0.92604-0.66146-1.8521-0.66146-1.8521s2.8575-1.4552 4.7096-1.4817c1.8785-0.0265 6.5088 0.76729 7.964 1.561 1.4288 0.79375 5.3181 2.9369 7.3554 3.3867 2.0108 0.42333 5.3446-0.10583 7.4348-0.9525s3.4925-2.3283 4.3127-2.6988c0.84667-0.39688 3.5983-1.3758 5.424-1.5346 1.8256-0.15875 4.0481 0.58208 5.2917 0.8202 1.2435 0.23813 1.0583 0.71438 1.0583 0.71438l-1.5081 4.7625s-2.3812-0.82021-3.9952-0.87313c-1.614-0.0529-4.3392 1.1642-5.1858 1.4817-0.84667 0.3175-4.5508 1.8521-5.7415 2.3283-1.2171 0.47625-5.2652 1.561-7.5671 1.0319-2.3019-0.50271-6.7733-2.7781-7.9375-3.3602-1.1906-0.58208-5.424-1.9844-5.9796-1.7198-0.55562 0.26458-4.445 1.4288-4.445 1.4288z" class="g7_1" display="block"/>
     <path d="m-16.219 274.28c-0.07937-0.26458-0.52917-0.47625-2.3019-0.47625-0.68792 0-1.3494 0.0265-1.3494 0.0265-0.02646 0-0.05292 0.0265-0.07937 0.0265-1.1112 0.0794-2.1696 0.34396-3.1221 0.74083 1.27-1.5081 3.2279-2.4606 4.4185-2.9369 0.07937-0.0265 0.23812-0.10584 0.29104-0.15875 0.05292-0.10584 0.15875-0.18521 0.07938-0.34396-0.15875-0.23813-0.68792-0.3175-1.0583-0.3175-0.39688 0-0.92604 0.0529-1.614 0.15875-0.34396 0.0529-0.66146 0.10583-0.97896 0.15875l-0.02646 0.0265c-1.3758 0.29104-2.6723 0.92604-3.7571 1.7727-0.15875 0.10583-0.3175 0.23812-0.44979 0.37041l0.87312-1.4817c0.47625-0.7673 0.97896-1.4817 1.5346-2.1167 0.02646-0.0529 0.05292-0.10583 0.05292-0.15875 0.02646-0.10583 0.15875-0.26458 0.07938-0.37042-0.05292-0.0529-0.13229-0.13229-0.3175-0.13229-0.15875 0-0.68792 0.0529-2.6723 1.561-1.905 1.3229-3.519 3.0427-4.6831 4.9477-0.47625 0.84667-1.2965 2.4077-1.561 3.519-0.02646-0.10583-0.05292-0.21167-0.05292-0.3175-0.05292-0.44979-0.07938-0.89958-0.07938-1.4552-0.02646-0.66146 0-1.2435 0.02646-1.614 0.02646-0.15875 0-0.52916-0.15875-0.58208-0.15875-0.0265-0.39688 0.29104-0.44979 0.42333-0.97896 2.249-1.2435 4.101-1.2965 5.2123l-0.34396 3.2808c-0.05292 0.21166-0.21167 1.2965-0.21167 1.2965-0.26458-0.4498-0.47625-0.82021-0.66146-1.3229-0.02646-0.0265-0.02646-0.0265-0.02646-0.0529l-0.3175-0.50271-0.02646-0.0265c-0.47625-0.55563-0.9525-0.84667-1.4817-1.1642-0.76729-0.47625-1.7198-1.0583-3.1485-2.6988-0.76729-0.89958-1.6669-2.7252-1.9844-3.9688-0.55562-2.5135-0.50271-5.4769 0.15875-8.1492 0.05292-0.18521 0.10583-0.50271 0.02646-0.635-0.07938-0.0794-0.18521-0.13229-0.29104-0.13229-0.21167 0-0.39688 0.18521-1.6933 2.249 0 0.0265-0.02646 0.0265-0.02646 0.0265-0.84667 1.3758-1.4552 2.9369-1.7462 4.5244-0.05292 0.34396-0.10583 0.68792-0.13229 1.0319-0.3175-0.74084-0.55562-1.5346-0.76729-2.3283-0.39688-1.6933-0.55562-3.4396-0.39688-5.0006 0.02646-0.10583 0.02646-0.37042-0.02646-0.42333-0.07938-0.0794-0.15875-0.10584-0.26458-0.10584-0.29104 0-0.74083 0.37042-1.6404 2.831-0.87312 2.3283-1.1642 4.4715-0.89958 6.8262-0.97896-1.2964-1.4288-3.1221-1.8521-4.7625-0.07938-0.39687-0.18521-0.79375-0.29104-1.1642-0.05292-0.21167-0.18521-0.66146-0.37042-0.58209l-0.02646 0.0265s-0.02646 0-0.02646 0.0265h-0.02646c-0.02646 0.0529-0.15875 0.44979-0.18521 0.50271-0.05292 0.0794-0.07937 0.23812-0.10583 0.47625v0.0265 0.23812c-0.02646 0.0794-0.02646 0.15875-0.02646 0.23813-0.10583 1.2435-0.21167 4.4185 1.4288 7.7523l0.02646 0.0794c0.02646 0.0529 0.05292 0.10584 0.07937 0.15875 0.18521 0.37042 0.37042 0.71438 0.55562 1.0319 0.07937 0.10583 0.13229 0.23812 0.18521 0.34396 0.23812 0.39687 0.42333 0.635 0.635 0.84666-0.92604-0.1852-2.2754-0.44979-2.9369-0.55562-0.15875 0-0.29104 0.0794-0.34396 0.21167-0.05292 0.13229 0 0.3175 0.10583 0.39687 0.55562 0.34396 1.561 1.2435 2.6194 2.2225l-0.02646 0.0265 1.8785 1.7198 0.15875 0.15875c0.60854 0.58208 1.2435 1.1642 1.8521 1.7198l-1.2965-0.13229c-0.13229-0.0265-0.26458 0.0794-0.3175 0.21167-0.05292 0.13229-0.02646 0.26458 0.10583 0.37041l2.9633 2.4077 1.2965 1.0319 0.02646 0.0265 2.249 1.7992c0.05292 0.0529 0.10583 0.0794 0.18521 0.0794h0.58208c-1.2171 0.50271-2.3283 0.52916-3.6248 0.10583-1.0054-0.34396-1.9579-0.87312-2.7781-1.5346-0.10583-0.0794-0.39688-0.26459-0.52917-0.15875-0.10583 0.0794-0.02646 0.39687 0.02646 0.55562 0.26458 0.60854 0.71438 1.1642 1.1906 1.6404-1.5346-0.18521-2.9369-0.60854-4.5508-1.3494-0.13229-0.0529-0.37042-0.21166-0.44979-0.10583-0.10583 0.10583-0.02646 0.44979 0.05292 0.58208 0.71438 1.1112 1.2965 1.8786 1.8785 2.4871 0.60854 0.635 1.4023 1.27 1.7992 1.5081 0.07938 0.0529 0.26458 0.15875 1.2435 0.15875 0.34396 0 0.76729 0 1.0848-0.0529h0.13229c-0.9525 0.34395-1.8256 0.47625-2.5929 0.37041-0.15875-0.0265-0.55562 0-0.58208 0.15875s0.26458 0.42334 0.42333 0.47625c1.1377 0.39688 2.249 0.68792 3.3338 0.82021 0.34396 0.10583 1.3494 0.34396 2.4342 0.44979h0.18521c0.10583 0.0265 0.18521 0.0265 0.26458 0.0265 0.42333 0.0529 0.82021 0.0794 1.2171 0.0794 0.34396 0 0.68792-0.0265 1.0583-0.0794 0 0.0529 0 0.0794 0.02646 0.13229l0.18521 0.37042c-0.07937 0-0.13229 0.0265-0.18521 0.0794-0.10583 0.10584-0.10583 0.26459-0.05292 0.37042l0.39688 0.76729c0.02646 0.0265 0.02646 0.0265 0.05292 0.0529l0.02646 0.0265c-0.02646 0-0.05292 0.0265-0.05292 0.0265-0.10583 0.0794-0.15875 0.21166-0.13229 0.34395 0.21167 0.84667 0.60854 1.1377 0.92604 1.3494 0.18521 0.15875 0.3175 0.23812 0.37042 0.47625 0.05292 0.15875 0.13229 0.3175 0.18521 0.50271 0.15875 0.39687 0.39688 0.97896 0.23812 1.2171-0.18521 0.29104-0.3175 0.39688-0.52917 0.52917-0.15875 0.10583-0.3175 0.21166-0.52917 0.39687-0.50271 0.47625-0.55562 1.0583-0.10583 1.7992l0.02646 0.0529c0.05292 0.10583 0.18521 0.1852 0.34396 0.15875 0.13229-0.0265 0.23812-0.1323 0.26458-0.26459 0.07937-0.52916 0.9525-0.92604 1.1112-0.9525 0.29104 0 0.58208-0.0265 0.76729-0.21166 0.3175-0.3175 1.9844-0.34396 1.9844-0.34396s0.21167 0.0265 0.52917 0.0794c0.05292 0.0265 0.10583 0.0529 0.15875 0.0794 0.05292 0.0529 0.13229 0.0529 0.18521 0.0529 0.02646 0 0.60854 0.23813 0.635 0.29105 0.10583 0.10583 1.0583 0.635 1.1642 0.68791 0.05292 0.0265 0.635 0.76729 0.71438 0.76729 0.10583 0.21167 0.15875 0.15875 0.15875-0.0529 0.37042-0.21167 0.68792-0.68792 0.82021-1.1906 0.13229-0.50271 0.05292-1.0054-0.21167-1.4023 0-0.0265-0.02646-0.0529-0.05292-0.0529-0.05292-0.0529-0.21167-0.1852-0.37042-0.3175-0.23812-0.1852-0.635-0.5027-0.71438-0.58208-0.23812-0.26458-0.34396-0.58208-0.47625-0.89958 0.10583-0.0265 0.18521-0.0529 0.23812-0.13229 0.05292-0.0794 0.07937-0.18521 0.05292-0.26459l-0.02646-0.18521c-0.07938-0.29104-0.15875-0.60854-0.21167-0.97895h0.05292c0.18521 0 0.3175-0.15875 0.3175-0.34396 0-0.0529-0.02646-0.10584-0.05292-0.15875l-0.34396-0.97896c0.02646 0.0529 0.05292 0.0794 0.05292 0.0794 0.10583 0.10584 0.3175 0.26459 0.42333 0.21167 0.13229-0.0265 0.13229-0.26458 0.13229-0.39687 0.05292-0.66146 0.55562-1.2965 1.0848-1.6933 0.02646 0.0794 0.07937 0.15875 0.07937 0.15875 0.05292 0.10584 0.05292 0.34396 0.18521 0.34396s0.21167-0.15875 0.39688-0.34396c0.21167-0.23812 0.39688-0.44979 0.635-0.50271l1.1377 0.4498c0.05292 0.1852 0.18521 0.52916 0.44979 0.71437 0.18521 0.18521 0.39688 0.29104 0.76729 0.52917 0.05292 0.0265 0.07937 0.0529 0.13229 0.0794-0.02646 0.0265-0.07938 0.0529-0.10583 0.0529-0.13229 0.0529-0.50271 0.15875-0.50271 0.3175 0 0.13229 0.37042 0.23812 0.47625 0.29104 0.26458 0.10583 0.52917 0.13229 0.79375 0.13229 0.55562 0 1.0319-0.18521 1.3229-0.52916 0.26458-0.29105 0.34396-0.635 0.29104-1.0319-0.05292-0.29104-0.18521-1.0319-0.21167-1.27l0.29104-0.97896c0.02646-0.0265 0.02646-0.0529 0.02646-0.10583 0-0.44979-0.13229-0.97896-0.39688-1.561l-0.02646-0.0265c0-0.0529-0.02646-0.0794-0.05292-0.10583 0-0.0265-0.02646-0.0529-0.02646-0.0794-0.07937-0.15875-0.15875-0.3175-0.26458-0.47625-0.82021-1.3229-1.9579-2.4077-2.0108-2.4606-0.07937-0.0794-0.29104-0.23813-0.39688-0.18521-0.13229 0.0529-0.15875 0.3175-0.13229 0.44979v0.0794c-0.07937-0.1852-0.39688-0.5027-0.44979-0.60854-0.13229-0.21166-0.26458-0.42333-0.29104-0.58208 0.9525-4.4715 3.9158-7.4348 3.9423-7.4612 0.05292-0.0529 0.07937-0.13229 0.10583-0.21167 0.635-6.3765 7.911-9.181 7.9904-9.2075 0.02646 0 0.21167-0.0794 0.23812-0.0794 0.26458-0.18521 0.29104-0.34396 0.26458-0.39688m-16.536 27.781c0 0.0265 0 0.0265 0.02646 0.0265l-0.15875 0.0265z" class="g7_1" display="block"/>
    </g>
    <path d="m-36.089 323.6c-3.466 0-5.715-1.1906-8.0698-2.4606-1.27-0.68792-2.5929-1.3758-4.154-1.905-4.4979-1.5346-7.5406 0.42333-7.5935 0.42333l-0.23812-0.37041c0.13229-0.0794 3.2544-2.0638 7.9904-0.50271 1.5875 0.55562 2.9369 1.27 4.2333 1.9579 2.4871 1.3494 4.8683 2.6194 8.7842 2.3812 3.6248-0.21167 6.1119-1.4552 8.5196-2.6458 1.0054-0.50271 1.9579-0.97896 2.9633-1.3494 0.07937-0.0265 0.15875-0.0529 0.23812-0.0794 1.3758-0.55562 5.0006-1.9844 8.2021 0.47625l-0.26458 0.34396c-3.0162-2.2754-6.4558-0.92604-7.7523-0.39687-0.10583 0.0265-0.18521 0.0529-0.26458 0.0794-0.97896 0.37042-1.905 0.84667-2.9104 1.3229-2.3283 1.1642-4.9742 2.4871-8.7048 2.6988-0.34396 0.0265-0.66146 0.0265-0.97896 0.0265z" class="g18_1" stroke-width=".26458" display="block" fill="#252e6b"/>
    <g stroke-width=".26458" fill="#17468f">
     <path d="m-36.565 320.02-0.07937-0.0265-0.02646 0.76729h0.07938c0.29104 0.0265 0.44979-0.10583 0.44979-0.37041 0-0.23813-0.13229-0.37042-0.42333-0.37042z" class="g19_1" display="block"/>
     <path d="m-34.264 321 0.52917-0.0529-0.39688-0.84666z" class="g19_1" display="block"/>
     <path d="m-41.857 319.68 0.15875-0.92604-0.635 0.68792z" class="g19_1" display="block"/>
     <path d="m-51.118 315.08h-0.15875l-0.05292 0.74084 0.18521 0.0265c0.26458 0 0.42333-0.13229 0.42333-0.37041 0.02646-0.23813-0.13229-0.37042-0.39688-0.39688z" class="g19_1" display="block"/>
     <path d="m-29.263 319.6 0.47625-0.21167-0.60854-0.71437z" class="g19_1" display="block"/>
     <path d="m-26.22 314.92c-3.2015 2.0638-5.7944 3.2808-9.0752 3.2808-4.4185 0.0265-7.8581-2.9104-12.515-4.4715-4.6831-1.5875-10.054 1.0319-10.054 1.0319s1.7198 1.6933 1.8521 4.7096c0 0 3.1221-2.0373 7.7788-0.4498 4.6831 1.561 7.0908 4.6831 13.097 4.3127 5.2388-0.29104 8.2021-2.7252 11.562-3.9952 1.0583-0.39687 4.8948-2.1696 8.2285 0.34396 0.29104-2.9369 1.8785-4.789 1.8785-4.789-3.9688-2.831-10.398-1.4552-12.753 0.0265m-27.146 2.5135c-0.84667 0.15875-1.4552-0.29104-1.6404-1.1642-0.15875-0.87313 0.26458-1.5346 1.1377-1.7198 0.26458-0.0529 0.52917-0.0265 0.74083 0.0265l0.02646 0.74084c-0.18521-0.0794-0.37042-0.13229-0.58208-0.10584-0.39688 0.0794-0.58208 0.42334-0.50271 0.89959 0.10583 0.47625 0.42333 0.71437 0.82021 0.635 0.18521-0.0529 0.34396-0.13229 0.52917-0.29104l0.21167 0.635c-0.18521 0.15875-0.42333 0.29104-0.74083 0.34395m2.5929-0.0794-0.44979-0.9525h-0.13229l-0.05292 0.87312-0.82021-0.0529 0.15875-2.8046 1.0848 0.0529c0.71438 0.0529 1.1112 0.39688 1.0848 1.0054-0.02646 0.37041-0.21167 0.635-0.52917 0.76729l0.55562 1.0319zm2.3019 0.42333-0.82021-0.21166 0.26458-0.9525-0.47625-1.9579 0.89958 0.13229 0.21167 1.1906 0.79375-0.87313 0.84667 0.21167-1.4552 1.4817zm2.54-0.92604c0.50271 0.44979 0.66146 0.74083 0.47625 1.1642-0.26458 0.635-0.79375 0.66146-1.3229 0.44979-0.39688-0.18521-0.66146-0.37042-0.89958-0.635l0.37042-0.58208c0.23812 0.29104 0.52917 0.5027 0.79375 0.635 0.13229 0.0529 0.26458 0.0529 0.3175-0.0794 0.02646-0.10583 0-0.18521-0.29104-0.44979-0.44979-0.42333-0.635-0.68792-0.42333-1.1377 0.21167-0.55562 0.74083-0.635 1.27-0.42333 0.37042 0.15875 0.55562 0.34396 0.76729 0.55562l-0.37042 0.58209c-0.21167-0.26459-0.44979-0.4498-0.635-0.52917-0.15875-0.0794-0.26458-0.0529-0.29104 0.0265-0.05292 0.10583 0 0.18521 0.23812 0.42333m0.87312 2.3812 0.97896-1.8785-0.66146-0.34396 0.3175-0.60854 2.0108 1.0319-0.21167 0.68792-0.71438-0.37042-0.97896 1.8786zm3.81 1.8785-0.82021-0.26458 0.07937-0.52917-0.79375-0.39687-0.3175 0.37041-0.74083-0.37041 2.1431-2.0902 0.84667 0.42333zm2.1167 0.82021-1.6669-0.55562 0.87312-2.6723 0.79375 0.23813-0.66146 2.0108 0.76729 0.26459zm2.5665-0.55562h-0.13229l-0.02646 0.84666-0.82021-0.0265 0.07937-2.831 0.97896 0.0529c0.74083 0.0265 1.1642 0.34396 1.1377 1.0054-0.02646 0.66145-0.50271 0.97895-1.2171 0.9525m3.3073 0.66145-0.21167-0.47625-0.87312 0.10584-0.07937 0.50271-0.82021 0.10583 0.58208-2.9369 0.92604-0.13229 1.3229 2.5665zm1.4288-0.34395-0.84667-2.6988 0.79375-0.23813 0.635 2.0108 0.76729-0.23812 0.3175 0.66146zm3.8365-1.4288-0.37042-0.37042-0.79375 0.34396 0.05292 0.50271-0.74083 0.34395-0.26458-2.9898 0.84667-0.39687 1.9844 2.1167zm2.1431-1.0319c-0.79375 0.39688-1.4817 0.10583-1.8785-0.68792-0.39688-0.79375-0.15875-1.561 0.635-1.9314 0.26458-0.1323 0.50271-0.18521 0.71438-0.18521l0.21167 0.71437c-0.18521-0.0529-0.37042-0.0529-0.58208 0.0529-0.34396 0.15875-0.44979 0.52917-0.23812 0.97896s0.58208 0.58208 0.9525 0.39687c0.15875-0.0794 0.29104-0.21166 0.42333-0.42333l0.39688 0.58208c-0.15875 0.18521-0.34396 0.37042-0.635 0.50271m1.0054-0.52917-1.0848-2.6194 1.7462-0.68792 0.23812 0.60854-0.97896 0.37042 0.15875 0.39688 0.74083-0.3175 0.34396 0.58208-0.84667 0.3175 0.18521 0.42333 1.0054-0.39687 0.23812 0.60854zm3.6248-1.27-0.82021 0.15875-0.58208-2.7517 1.7462-0.37042 0.15875 0.66146-0.9525 0.21167 0.10583 0.44979 0.66146-0.15875 0.26458 0.66146-0.79375 0.15875zm1.1642-0.1852c-0.21167 0.0264-0.39688-0.1323-0.42333-0.37042-0.02646-0.21167 0.13229-0.39688 0.37042-0.42333 0.21167-0.0265 0.39688 0.15875 0.42333 0.37041 0.02646 0.21167-0.15875 0.39688-0.37042 0.42334m2.6458-1.8521c-0.15875-0.13229-0.3175-0.23812-0.52917-0.26458-0.39688-0.0529-0.66146 0.21167-0.71438 0.71437-0.05292 0.47625 0.18521 0.79375 0.58208 0.82021 0.18521 0.0265 0.37042-0.0265 0.58208-0.10583l0.02646 0.68792c-0.23812 0.0794-0.47625 0.13229-0.82021 0.0794-0.84667-0.0794-1.2965-0.68792-1.2171-1.5875 0.10583-0.87312 0.71438-1.3758 1.5875-1.2965 0.26458 0.0265 0.50271 0.10584 0.68792 0.23813zm0.60854 2.249c-0.21167 0.0265-0.39688-0.13229-0.42333-0.37042-0.02646-0.21166 0.13229-0.39687 0.37042-0.42333 0.21167-0.0265 0.39688 0.15875 0.42333 0.37042 0.02646 0.21166-0.15875 0.39687-0.37042 0.42333z" class="g19_1" display="block"/>
    </g>
    <g stroke-width=".26458" fill="#c5202f">
     <path d="m-17.357 321.48-0.3175-0.21167c-0.26458-0.15875-0.79375-0.21166-1.2965-0.13229-0.07937 0-0.15875 0.0265-0.26458 0.0529-0.34396 0.0794-0.68792 0.13229-0.9525-0.0529-0.13229-0.10583-0.21167-0.29104-0.21167-0.52917 0-0.23812 0.10583-0.44979 0.29104-0.58208 0.74083-0.58208 2.9633-0.0529 3.2015 0.0265 0.21167 0.0529 0.89958 0.18521 1.1906-0.0265 0.07937-0.0529 0.13229-0.13229 0.13229-0.23812 0.23812-2.54 1.3758-4.2862 1.7992-4.8419-3.8365-2.54-9.9219-1.2965-12.33 0.18521-2.7252 1.6404-5.6885 3.2808-9.181 3.2808h-0.05292c-2.831 0-5.2652-1.1906-7.8581-2.4342-1.4552-0.74084-2.9898-1.4817-4.6831-2.0373-3.9423-1.3494-8.4667 0.42334-9.6044 0.89959 0.47625 0.58208 1.5875 2.1696 1.6933 4.6302 0 0.10583 0.05292 0.1852 0.13229 0.23812 0.26458 0.23813 0.9525 0.13229 1.1642 0.0794 0.26458-0.0529 2.4871-0.47625 3.2279 0.13229 0.15875 0.15875 0.26458 0.37041 0.23812 0.58208 0 0.26458-0.07937 0.42333-0.23812 0.52917-0.26458 0.18521-0.60854 0.10583-0.9525 0-0.07937-0.0265-0.18521-0.0529-0.26458-0.0529-0.47625-0.10583-1.0054-0.0794-1.27 0.0794l-0.34396 0.1852-0.02646-1.0583c-0.07937 0-0.18521 0.0265-0.26458 0.0265-0.10583 0.0265-1.0583 0.23812-1.5346-0.13229-0.18521-0.15875-0.29104-0.34396-0.3175-0.58209-0.10583-2.9104-1.7462-4.5508-1.7727-4.5773l-0.21167-0.21166 0.26458-0.1323c0.23812-0.10583 5.5298-2.6458 10.213-1.0583 1.7198 0.58208 3.2544 1.3229 4.7625 2.0638 2.5135 1.2171 4.9212 2.4077 7.6465 2.4077h0.05292c3.0427-0.0265 5.6885-1.2435 8.9429-3.2544 2.54-1.5346 9.0488-2.8575 13.018 0l0.18521 0.1323-0.15875 0.1852c0 0.0265-1.561 1.8521-1.8256 4.7625-0.02646 0.23813-0.13229 0.4498-0.34396 0.58209-0.50271 0.34396-1.4288 0.10583-1.5346 0.0794-0.07937-0.0265-0.18521-0.0529-0.26458-0.0794zm-1.614-1.27c-0.39688 0-0.71438 0.0265-0.87312 0.15875-0.07937 0.0529-0.10583 0.13229-0.10583 0.23812 0 0.0794 0.02646 0.15875 0.05292 0.18521 0.07937 0.0794 0.37042 0 0.58208-0.0529 0.10583 0 0.18521-0.0265 0.29104-0.0529 0.34396-0.0529 0.84667-0.0529 1.27 0.0794l0.02646-0.44979c-0.42333-0.0794-0.87312-0.10583-1.2435-0.10583m-34.078 0.26452c0.23812 0 0.44979 0.0265 0.66146 0.0529 0.07937 0.0265 0.18521 0.0529 0.26458 0.0794 0.21167 0.0529 0.50271 0.1323 0.58208 0.0794 0.05292-0.0265 0.05292-0.10583 0.05292-0.18521 0.02646-0.10583 0-0.18521-0.07937-0.23812-0.3175-0.26459-1.2965-0.26459-2.1167-0.15875v0.44979c0.21167-0.0529 0.42333-0.0794 0.635-0.0794z" class="g20_1" display="block"/>
     <path d="m-36.089 323.62c-3.466 0-5.6885-1.1906-8.0433-2.4606-1.2965-0.66146-2.5929-1.3758-4.154-1.905-4.5244-1.5081-7.5671 0.42333-7.62 0.44979l-0.23812-0.37042c0.13229-0.10583 3.2808-2.0902 7.9904-0.5027 1.5875 0.55562 2.9369 1.27 4.2333 1.9579 2.4871 1.3494 4.8683 2.6194 8.7842 2.3812 3.6248-0.23812 6.1383-1.4552 8.546-2.6458 1.0054-0.50271 1.9579-0.97896 2.9633-1.3494 0.05292-0.0265 0.13229-0.0529 0.21167-0.10583 1.3758-0.52917 5.0006-1.9579 8.2021 0.47625l-0.26458 0.37042c-3.0162-2.3019-6.4558-0.92604-7.7523-0.42334-0.10583 0.0265-0.18521 0.0794-0.26458 0.10584-0.97896 0.37041-1.905 0.82021-2.9104 1.3229-2.3283 1.1377-4.9742 2.4606-8.7048 2.6723-0.34396 0.0265-0.66146 0.0265-0.97896 0.0265z" class="g20_1" display="block"/>
     <path d="m-51.488 320.34c-1.0583-0.87312-1.4552-1.7198-1.4817-1.7462l0.39688-0.18521s0.39688 0.79375 1.3494 1.5875z" class="g20_1" display="block"/>
     <path d="m-19.897 320.42-0.26458-0.34396c1.1377-0.84667 1.27-1.7198 1.27-1.7198l0.44979 0.0529c0 0.0529-0.15875 1.0848-1.4552 2.0108z" class="g20_1" display="block"/>
    </g>
    <path d="m-30.692 297.11c0.02646 0.0265 0.05292 0.0794 0.07937 0.10584 0 0 0-0.0529-0.07937-0.10584z" class="g21_1" stroke-width=".26458" display="block" fill="#26449a"/>
    <path d="m-33.046 279.99c-0.07938-0.3175-0.13229-0.74083-0.18521-1.1906 0.02646 0.37041 0.10583 0.76729 0.18521 1.1906z" class="g21_1" stroke-width=".26458" display="block" fill="#26449a"/>
    <g transform="matrix(.26458 0 0 .26458 -424.23 242.26)" display="block" clip-path="url(#c0_1)">
     <path d="m1478.5 142.6c-0.3-1.2-0.5-2.8-0.7-4.5 0.1 1.4 0.4 2.9 0.7 4.5z" fill="#fff" class="g7_1"/>
    </g>
    <g stroke-width=".26458">
     <path d="m-29.871 291.95v0z" class="g22_1" display="block" fill="#f6f7f7"/>
     <path d="m-25.426 295.76v-0.0529 0.0265c-0.02646-0.0529-0.05292-0.13229-0.07937-0.18521-0.07937-0.15875-0.15875-0.29104-0.26458-0.44979-0.79375-1.2965-1.9315-2.3812-1.9315-2.3812l0.02646 0.3175 0.02646 0.50271s-3.7042-2.1431-5.2917-4.1275c-1.2171-1.5346-2.6194-3.2279-3.466-5.2652l-0.3175-0.50271c-1.0583-1.27-2.1696-1.0319-4.6038-3.8629-0.84667-0.9525-1.7462-2.8575-2.0373-4.1275-0.635-2.6458-0.52917-5.6621 0.13229-8.3079 0 0 0.3175-0.89958-1.3758 1.7727-0.84667 1.3494-1.4288 2.8575-1.7198 4.4185-0.13229 0.79375-0.21167 1.614-0.18521 2.3812-0.55562-1.1377-1.0319-2.3812-1.3494-3.6512-0.39688-1.6933-0.55562-3.4396-0.39688-5.1065 0 0-0.29104-0.29104-1.3229 2.4342-1.0319 2.7517-1.1906 5.08-0.71438 7.6994-1.8785-1.5875-2.3019-4.5244-2.9369-6.8262l-0.02646 0.0265c-0.02646 0.0529-0.05292 0.15875-0.07937 0.37042 0 0.15875-0.02646 0.3175-0.02646 0.50271-0.10583 1.1377-0.21167 4.2862 1.4023 7.5935 0.02646 0.0794 0.07937 0.15875 0.10583 0.21166 0.23812 0.50271 0.50271 0.92605 0.74083 1.3758 0.42333 0.71437 0.74083 0.87312 1.1906 1.5081-0.05292 0-2.831-0.58208-3.8365-0.74083 0.60854 0.42333 1.7462 1.4288 3.0162 2.6194 0 0 3.81 0.3175 6.8262 2.54 0 0-2.5929-1.27-5.715-1.4817 0.18521 0.15875 0.37042 0.34396 0.55562 0.50271 0.87312 0.84666 1.7727 1.6669 2.5665 2.3812h-0.02646l-2.249-0.23813 3.2544 2.6194 0.58208 0.0265s1.0848-0.0265 2.1696 0.21167c1.1377 0.26458 1.7462 0.635 1.7462 0.635-0.635-0.21167-1.7198-0.26458-2.3548-0.21167-0.44979 0.0265-0.76729 0.15875-1.0848 0.21167l0.18521 0.13229 2.0373 1.6404 1.8256 0.0529c-1.5346 0.9525-3.0427 1.3494-4.9742 0.68791-1.0319-0.34396-2.0373-0.87312-2.884-1.561 0.34396 0.84667 1.1377 1.561 1.7727 2.196-2.0373-0.15875-3.6777-0.635-5.5562-1.4817 0.71438 1.1112 1.2965 1.8521 1.8521 2.4606 0.55562 0.58208 1.3494 1.2171 1.7198 1.4552 0.26458 0.13229 1.4023 0.13229 2.1431 0.0529 0.13229 0 0.26458-0.0265 0.37042-0.0529 0.18521-0.0265 0.39688-0.0529 0.635-0.10583 0.76729-0.18521 1.6933-0.4498 1.6404-0.42334-0.3175 0.23813-0.68792 0.44979-1.0848 0.635-0.23812 0.13229-0.44979 0.23813-0.68792 0.34396-1.0848 0.44979-2.2754 0.74083-3.3602 0.60854 1.2171 0.42334 2.4606 0.74084 3.7571 0.87313 0.42333 0.0265 0.58208 0.0265 0.97896-0.15875 0.55562-0.26459 1.0319-0.47625 1.4817-0.68792 0.23812-0.10583 0.44979-0.21167 0.68792-0.34396 0.3175-0.15875 0.635-0.3175 1.0054-0.52916-0.21167 0.21166-0.42333 0.39687-0.635 0.55562-0.13229 0.10583-0.23812 0.21167-0.37042 0.3175-0.44979 0.37042-0.92604 0.74083-1.4552 1.2171 1.4552 0.10584 2.2754 0.34396 4.1804-0.26458 0 0-0.39688 0.29104-0.92604 0.60854l0.55562 1.1112-0.60854-0.26458 0.39688 0.74083s0.29104 0.37042 0.71438 0.66146l0.13229 0.44979c-0.3175-0.10583-0.71438-0.44979-0.92604-0.58208 0.3175 1.2965 1.0848 1.0319 1.2965 1.8256 0.15875 0.52917 0.71438 1.4552 0.39688 1.9579-0.37042 0.58208-0.60854 0.55563-1.1377 1.0319-0.60854 0.52916-0.13229 1.2171 0 1.4288 0.10583-0.635 0.58208-1.0583 0.84667-1.1377 0.42333-0.13229 0.92604-0.0265 1.1112-0.21167 0.66146-0.66146 2.0902-0.82021 3.0956-0.21167-0.47625-0.74083-0.68792-0.71437-1.614-0.97895 1.614 0.10583 1.7198 0.44979 2.5135 1.3758 0.05292-0.52917-0.37042-1.1906-0.74083-1.5081-0.10583-0.10583-1.4023-0.26458-2.6458-0.37041-0.42333-0.0529-0.60854-0.60854-0.66146-0.92604 0.05292 0.0529 0.42333 0.23812 0.76729 0.23812-0.10583-0.44979-0.21167-0.92604-0.29104-1.2435 0.13229 0.0529 0.23812 0.13229 0.52917 0.15875l-0.18521-0.74083c-0.07938-0.58209-0.26458-1.0054 0.29104-1.905 0.3175 0.21166 0.44979 0.29104 0.58208 0.44979 0 0 0.13229 0.58208 0.26458 0.87312 0.02646 0.0529 0.58208 0.52917 0.58208 0.58209l-0.9525-0.26459s0.3175 0.71438 0.9525 1.1377c0.37042 0.13229 0.71438 0.29104 0.82021 0.42333 0.10583 0.15875 0.29104 0.55563 0.21167 0.7673-0.07937 0.1852-0.58208-0.55563-1.6404 0.34395 0.71438 0 1.5875 0.21167 1.7727 0.42334 0.26458 0.29104 0.42333 0.55562 0.60854 0.66146 0.76729 0.44979 0.82021 0.71437 0.76729 1.614 0.47625-0.37041 0.34396-1.3229 0.26458-1.561 0.635 0.76729 0.50271 1.7992 0.3175 2.196 0.47625-0.26458 1.0319-1.3229 0.50271-2.1431-0.15875-0.13229-0.9525-0.74083-1.1112-0.92604-0.39688-0.44979-0.50271-0.97896-0.71438-1.5081 0.15875 0 0.3175 0.0794 0.47625 0.0529-0.07937-0.29104-0.18521-0.71438-0.26458-1.1642 0-0.0265 0-0.0794-0.02646-0.10583v-0.0529c0-0.0794-0.02646-0.13229-0.02646-0.21166v-0.0529c-0.02646-0.0529-0.02646-0.13229-0.02646-0.21167 0.26458 0.18521 0.44979 0.23813 0.44979 0.23813l-0.44979-1.2171c0-0.0794 0-0.1852 0.02646-0.26458v-0.0265c0-0.0794 0.02646-0.15875 0.05292-0.23812v-0.0529c0.02646-0.0794 0.05292-0.13229 0.07937-0.21167v-0.0529c0.05292-0.10584 0.07937-0.18521 0.10583-0.26459-0.18521 0.42334 0.39688 1.0583 0.39688 1.0583 0.07938-0.9525 0.9525-1.8521 1.6669-2.196-0.05292 0.26458 0.10583 0.55562 0.10583 0.55562 0.21167-0.47625 0.635-0.635 0.9525-0.71437l0.58208 0.23812 0.635 0.23813 0.15875 0.0794s0.10583 0.47625 0.37042 0.71438c0.26458 0.21166 0.55562 0.37041 1.1906 0.79375-0.02646 0.15875-0.18521 0.3175-0.47625 0.42333 0.92604 0.34396 2.1167-0.0794 1.9315-1.0848-0.05292-0.34396-0.21167-1.3229-0.21167-1.3229v-0.0265l0.23812-0.71437 0.05292-0.21167v-0.0265l0.05292-0.10583c-0.02646-0.44979-0.15875-0.9525-0.39688-1.4288m-3.3073 1.4817-0.50271-0.89959-1.27-0.635 1.0319 1.1906c-0.55562-0.29104-1.4817-0.79375-2.4871-0.97896 0 0 0.84667 0.79375 1.27 1.1906 0.07937 0.0529 0.07937 0.10584 0.07937 0.10584-0.02646-0.0265-0.05292-0.0529-0.07937-0.10584-0.13229-0.0794-0.39688-0.1852-1.0319-0.21166-0.58208-0.0529-1.27-0.21167-1.8785-0.55563 0 0 0.10583 0.18521 0.37042 0.39688 0.26458 0.21166 0.60854 0.44979 1.0848 0.60854 0.02646 0 0.50271 0.21167 0.55562 0.21167-0.34396 0.13229-0.635 0.29104-0.87312 0.47625-0.47625 0.37041-0.76729 0.79375-0.92604 1.2435-0.29104 0.74083-0.58208 2.1167-0.37042 2.9104-0.635-0.89958-1.2171-2.0373-0.89958-3.3073-1.0054 0.55563-1.6404 0.37042-2.3548 0.26459-0.3175 0.42333-0.74083 1.4817-0.79375 2.3548-0.05292-0.0794-0.10583-0.18521-0.15875-0.29104-0.26458-0.55563-0.39688-1.1906-0.42333-1.7992-0.02646-0.23813-0.02646-0.47625 0-0.68792l2.3019-1.614-3.3338-0.29104c0.05292-0.0265 0.10583-0.0794 0.15875-0.10583 1.2965-0.92604 2.8575-1.5346 4.445-1.4552 0.13229 0 0.26458 0 0.37042 0.0265-1.0054-0.58208-2.8046-0.55563-3.8629-0.21167-1.4552 0.44979-2.0373 0.47625-3.5719 0.18521 1.614-0.3175 1.561-0.37042 2.5135-0.82021 0.79375-0.44979 2.3019-1.2435 4.2069-0.89958-0.47625-0.21167-0.87312-0.39688-1.4288-0.52917-0.55562-0.13229-1.4552-0.26458-2.4077-0.0529 0 0 0.635-0.68792 1.8785-0.87313-1.6669-1.5081-6.5881-3.8629-6.5881-3.8629 6.985 1.6669 9.9483 4.9477 10.398 5.4769 0.02646 0.0265 0.05292 0.0265 0.07938 0.0529-0.26458-0.58209-1.7992-4.2069-6.059-6.8527-0.58208-0.37042-1.2435-0.635-1.8521-0.97896-0.9525-0.55563-1.8256-1.1642-2.6458-1.8521v0.0265c-7.8846-6.2971-4.9477-14.922-4.9477-14.922-0.26458 2.0108 0.07937 3.9688 0.66146 5.715 0.37042 1.1112 0.82021 2.1167 1.2965 3.0162 0.52917 1.0054 1.0848 1.8256 1.5081 2.4342 0.97896 1.1906 2.1431 2.2225 3.4925 2.9633 0 0-5.9531-4.0746-2.5665-12.726-0.13229 0.37041-2.4871 7.3025 6.35 13.361 0.15875 0.10584 0.29104 0.10584 0.34396 0.23813 1.1642 2.8046 5.6885 7.3025 6.5088 9.4721-0.02646-0.44979-0.05292-0.87312-0.10583-1.3229 0.50271 0.52916 0.89958 1.2171 1.1112 1.9314 0.02646-0.44979 0.07937-1.1112 0.10583-1.5346 0.74083 0.39688 1.8256 1.2435 2.7252 2.196 0 0-0.02646 0-0.02646-0.0265-0.05292-0.0265-0.07938-0.0529-0.10583-0.10583 0.02646 0.0265 0.02646 0.0529 0.05292 0.0529 0 0 0 0.0265 0.02646 0.0265 0 0 0 0.0265 0.02646 0.0265 0 0 0 0.0265 0.02646 0.0265l-0.05292-0.635-0.02646-0.3175s1.3494 1.6669 1.8256 2.9633c0.02646 0.0794 0.05292 0.13229 0.05292 0.21166 0 0.37042-0.05292 0.60854-0.10583 0.76729-0.05292 0.1323-0.26458 0.34396-0.29104 0.39688-0.05292 0.0265-0.07937 0.0265-0.07937 0.0265 0.07937-0.0529 0.07937-0.15875 0.07937-0.26459 0-0.15875-0.02646-0.29104-0.07937-0.44979-0.02646-0.15875-0.10583-0.29104-0.13229-0.42333-0.05292-0.10583-0.10583-0.18521-0.10583-0.18521 0.02646 0.29104 0.02646 0.50271-0.02646 0.66146v0.0265c-0.05292 0.29104-0.18521 0.37041-0.23812 0.39687-0.02646-0.0529-0.02646-0.10583-0.02646-0.13229-0.05292-0.10583-0.07937-0.21167-0.13229-0.3175-0.15875-0.39687-0.71438-1.4552-0.89958-1.8256-0.15875 0.23812 0.05292 0.76729 0.05292 0.76729 0.07937 0.13229 0.23812 0.47625 0.23812 0.47625-0.15875 0.37041 0.07937 0.74083 0.39688 0.89958-0.10583 0.0265-0.37042 0-0.58208-0.13229 0.07937 0.15875 0.34396 0.52917 0.47625 0.635-0.39688-0.10583-1.2965-0.82021-1.7727-1.2171m2.0108 2.6458-0.39688-0.3175-0.26458-0.21167-0.07937-0.21166v-0.0529l-0.10583-0.3175c0.3175 0.18521 0.55562 0.52917 0.71438 0.79375 0.02646 0.0529 0.21167 0.39687 0.21167 0.39687zm1.2171 0.23812c-0.13229 0.15875-0.3175 0.29105-0.52917 0.37042-0.21167 0.10583-0.44979 0.13229-0.635 0.10583 0 0 0.02646 0 0.02646-0.0265 0.02646 0 0.02646 0 0.05292-0.0265h0.02646c0.44979-0.29104 0.21167-0.82021-0.26458-1.3494l-1.0583-0.9525-0.07937-0.0529 0.02646-0.0265h0.05292l0.15875 0.0794 0.55562 0.3175 0.05292 0.0265 0.23812 0.13229 0.26458 0.13229c0.23812-0.0529 0.52917-0.10583 0.55562-0.13229 0.18521-0.0529 0.29104-0.10583 0.34396-0.13229 0 0.0265 0.47625 1.1906 0.21167 1.5346z" class="g19_1" display="block" fill="#17468f"/>
     <path d="m-19.87 274.17h0.05292c-1.4817 0.0794-2.9898 0.52917-4.2333 1.3229 1.0319-2.0108 3.2808-3.3602 5.2917-4.154 0 0 0.23812-0.37042-2.1696 0-0.3175 0.0265-0.635 0.0794-0.92604 0.13229h-0.02646c-1.3229 0.3175-2.5929 0.89958-3.6512 1.7462-0.58208 0.44979-1.1377 1.0054-1.5875 1.6404-2.0373 2.6988-2.7252 5.08-2.7252 5.08s-0.29104-3.4925 4.1804-8.1227c0.47625-0.82021 1.0319-1.5875 1.6404-2.3019 0 0 0.10583-0.52916-2.4077 1.4023-1.8256 1.27-3.4396 2.9369-4.5773 4.8154-0.42333 0.74083-1.2965 2.4077-1.561 3.4925v0.10583s0.02646 0.66146 0.15875 1.5346c0.13229 1.0583 0.58208 2.5135 0.58208 2.5135-0.29104-0.58208-0.82021-1.9315-1.0054-2.54-0.07937-0.29104-0.15875-0.58208-0.21167-0.84667-0.02646-0.18521-0.05292-0.34396-0.10583-0.50271 0-0.0794-0.02646-0.15875-0.02646-0.26458-0.02646-0.13229-0.05292-0.29104-0.05292-0.42333-0.05292-0.50271-0.07938-1.0054-0.10583-1.4817 0-0.635 0.02646-1.2171 0.05292-1.6404-1.1642 2.6723-1.27 4.7096-1.27 5.5298-0.05292 0.52916-0.07938 0.89958-0.10583 1.2435 0.29104 0.84666 0.84667 1.9844 1.7992 3.4396 0 0-0.87312-0.47625-1.8785-2.249-0.05292 0.39688-0.10583 0.82021-0.26458 1.5081 1.1377 1.9579 2.3019 3.466 3.3338 4.6038v-2.3283c0.37042 0.39688 0.635 0.68792 0.79375 0.89959 0.18521-0.76729 0.42333-1.6669 0.74083-2.6194 2.0108-6.0325 4.4185-7.8581 4.4185-7.8581-2.2225 3.4396-4.2333 10.425-4.154 13.679 0.42333 0.37041 0.82021 0.66145 1.1377 0.87312-0.18521-0.26458-0.3175-0.55562-0.37042-0.76729 1.0054-4.6567 4.0481-7.6994 4.0481-7.6994 0.68792-6.6675 8.2285-9.4985 8.2285-9.4985 0.60854-0.44979-3.0427-0.26458-3.0427-0.26458z" class="g19_1" display="block" fill="#17468f"/>
     <path d="m-18.733 312.54v-3.7571c-0.39688 0.29104-0.76729 0.58208-1.1112 0.82021v1.1112h-0.58208v-0.71438c-2.4342 1.614-3.6512 1.7727-3.6512 1.7727 1.6404-0.84667 2.831-1.6669 3.6512-2.3548v-1.4552c-2.9898 2.5929-5.715 3.9158-6.694 4.3656v0.60854h5.1593c1.0319-0.18521 2.1167-0.26459 3.2279-0.21167z" class="g23_1" display="block" fill="#d4d3d3"/>
    </g>
    <g stroke-width=".26458" fill="#a8a6a6">
     <path d="m-23.389 313.22c-0.79375 0.21167-1.5346 0.47625-2.1431 0.74083v-0.74083z" class="g24_1" display="block"/>
     <path d="m-29.871 316.4c-0.21167 0.0794-0.55562 0.23812-0.71438 0.29104v-2.3283h0.71438v1.561z" class="g24_1" display="block"/>
     <path d="m-29.871 314.07h-0.71438v-1.7727h0.71438z" class="g24_1" display="block"/>
     <path d="m-27.411 314.92v-0.55562h-0.635v1.0848c0.21167-0.13229 0.42333-0.26458 0.635-0.39688z" class="g24_1" display="block"/>
     <path d="m-27.411 314.07h-0.635v-1.7727h0.635z" class="g24_1" display="block"/>
     <path d="m-29.104 315.55v-1.1906h-0.47625v1.905c0.15875-0.0794 0.3175-0.15875 0.47625-0.26459z" class="g24_1" display="block"/>
     <path d="m-29.104 314.07h-0.47625v-1.7727h0.47625z" class="g24_1" display="block"/>
     <path d="m-28.337 314.07h-0.47625v-1.7727h0.47625z" class="g24_1" display="block"/>
     <path d="m-28.337 315.42v-1.0583h-0.47625v1.5081c0.15875-0.0794 0.3175-0.18521 0.47625-0.26458z" class="g24_1" display="block"/>
     <path d="m-27.411 310.79h-3.175v1.2435h3.175z" class="g24_1" display="block"/>
     <path d="m-43.206 315.1c-0.23812-0.10583-0.44979-0.21167-0.68792-0.3175v-0.42333h0.68792v0.26458z" class="g24_1" display="block"/>
     <path d="m-43.206 314.07h-0.68792v-1.7727h0.68792z" class="g24_1" display="block"/>
     <path d="m-41.381 316c0.21167 0.10584 0.42333 0.18521 0.635 0.29105v-1.9314h-0.635v0.55562z" class="g24_1" display="block"/>
     <path d="m-40.746 314.07h-0.635v-1.7727h0.635z" class="g24_1" display="block"/>
     <path d="m-42.439 314.07h-0.47625v-1.7727h0.47625z" class="g24_1" display="block"/>
     <path d="m-41.672 314.07h-0.47625v-1.7727h0.47625z" class="g24_1" display="block"/>
     <path d="m-40.746 310.79h-3.1485v1.2435h3.1485z" class="g24_1" display="block"/>
     <path d="m-42.148 315.63c0.13229 0.0794 0.3175 0.15875 0.47625 0.23812v-1.5082h-0.47625v1.1642z" class="g24_1" display="block"/>
     <path d="m-44.662 314.42c0.15875 0.0794 0.3175 0.15875 0.47625 0.23813v-1.4288h-0.47625v0.9525z" class="g24_1" display="block"/>
     <path d="m-42.915 315.26 0.07938 0.0265c0.13229 0.0794 0.26458 0.13229 0.39688 0.21167v-1.1377h-0.47625v0.76729z" class="g24_1" display="block"/>
    </g>
    <path d="m-52.44 311.21v-2.4342c0.37042 0.29104 0.76729 0.58208 1.1112 0.82021v1.1112h0.55562v-0.71438c2.4606 1.614 3.6777 1.7727 3.6777 1.7727-1.6669-0.84667-2.831-1.6669-3.6777-2.3548v-1.4552c2.884 2.4871 5.5033 3.81 6.5881 4.3127v0.66146s-4.3921 0.0265-4.4979 0c-1.27-0.29104-2.5665-0.29104-3.7571-0.18521z" class="g23_1" stroke-width=".26458" display="block" fill="#d4d3d3"/>
    <g stroke-width=".26458" fill="#a8a6a6">
     <path d="m-45.72 313.97c-0.60854-0.26458-1.4552-0.60854-1.905-0.74083h1.905z" class="g24_1" display="block"/>
     <path d="m-45.455 313.91v-0.68792h0.50271v1.0583c-0.05292-0.0265-0.23812-0.10583-0.50271-0.21166z" class="g24_1" display="block"/>
     <path d="m-26.591 314.36v-1.1377h-0.52917v1.6669c0.15875-0.10583 0.34396-0.23812 0.52917-0.34395z" class="g24_1" display="block"/>
     <path d="m-25.823 313.97v-0.74083h-0.50271v0.74083l0.02646 0.39688c0.13229-0.0794 0.29104-0.15875 0.47625-0.23813z" class="g24_1" display="block"/>
     <path d="m-30.85 312.03v-0.87312c0-2.6723-2.1696-4.8154-4.8154-4.8154s-4.789 2.1431-4.789 4.8154v0.87312l0.82021-0.0265c-0.05292-0.23813-0.07937-0.50271-0.07937-0.79375 0-2.2225 1.7992-4.0217 4.0217-4.0217s4.0481 1.7992 4.0481 4.0217c0 0.29104-0.02646 0.55562-0.07937 0.8202z" class="g24_1" display="block"/>
    </g>
    <path d="m-51.329 308.51v-1.0583l-1.1112-1.1377v1.27c0.13229 0.23813 0.47625 0.68792 1.1112 1.2965z" class="g23_1" stroke-width=".26458" display="block" fill="#d4d3d3"/>
    <path d="m-18.733 307.59c-0.15875 0.23813-0.47625 0.68792-1.1112 1.2965v-1.4288l1.1112-1.1377v0.87313z" class="g23_1" stroke-width=".26458" display="block" fill="#d4d3d3"/>
    <g stroke-width=".26458" fill="#a8a6a6">
     <path d="m-36.46 315.84c-0.13229 0-0.21167 0.0794-0.21167 0.21167 0 0.15875 0.05292 0.23813 0.21167 0.23813 0.07937 0 0.15875-0.0529 0.23812-0.10584 0-0.23812-0.10583-0.34396-0.23812-0.34396z" class="g24_1" display="block"/>
     <path d="m-35.243 315.84c-0.18521 0-0.26458 0.15875-0.26458 0.4498 0 0.29104 0.07937 0.44979 0.26458 0.44979 0.15875 0 0.23812-0.15875 0.23812-0.44979 0-0.29105-0.07937-0.4498-0.23812-0.4498z" class="g24_1" display="block"/>
     <path d="m-31.803 312.3c-0.47625 1.7198-2.0373 2.9633-3.8894 2.9633s-3.4131-1.2435-3.8894-2.9633h-0.87312v4.1275c1.6669 0.71437 3.3338 1.2435 5.1329 1.2435h0.05292c1.561 0 2.9898-0.3175 4.3921-0.84667l0.02646-4.5244zm-5.3975 4.6038h-0.23812v-1.0054l-0.23812 0.10583-0.02646-0.1852 0.29104-0.15875h0.21167zm0.50271 0.0265-0.05292-0.18521c0.26458-0.0529 0.44979-0.15875 0.52917-0.37042-0.10583 0.0529-0.18521 0.0794-0.3175 0.0794-0.21167 0-0.37042-0.1323-0.37042-0.37042 0-0.26458 0.18521-0.42333 0.44979-0.42333s0.44979 0.15875 0.44979 0.5027c0 0.4498-0.29104 0.68792-0.68792 0.7673m1.4552 0c-0.29104 0-0.50271-0.21167-0.50271-0.635 0-0.42334 0.21167-0.635 0.50271-0.635s0.47625 0.21166 0.47625 0.635c0 0.42333-0.18521 0.635-0.47625 0.635m1.1112 0c-0.15875 0-0.29104-0.0265-0.37042-0.0794l0.02646-0.21167c0.07937 0.0529 0.21167 0.10584 0.34396 0.10584s0.23812-0.0794 0.23812-0.21167c0-0.13229-0.07938-0.21167-0.21167-0.21167-0.07937 0-0.15875 0.0265-0.21167 0.0265l-0.15875-0.0265 0.05292-0.635h0.68792l0.02646 0.18521h-0.52917l-0.02646 0.29104c0.05292-0.0265 0.10583-0.0265 0.18521-0.0265 0.26458 0 0.42333 0.13229 0.42333 0.37041 0 0.29104-0.21167 0.42334-0.47625 0.42334z" class="g24_1" display="block"/>
     <path d="m-53.552 305.79c0.18521 0.0265 0.34396 0.0794 0.47625 0.13229v2.1431c-0.13229-0.0529-0.29104-0.0794-0.47625-0.10583z" class="g24_1" display="block"/>
     <path d="m-53.816 307.91c-0.15875-0.0265-0.3175-0.0265-0.47625-0.0265v-2.1696c0.07937 0 0.15875 0 0.21167 0.0265 0.10583 0 0.18521 0 0.26458 0.0265z" class="g24_1" display="block"/>
     <path d="m-55.06 307.91c0.15875-0.0265 0.3175-0.0265 0.47625-0.0265v-2.1696c-0.15875 0-0.3175 0.0265-0.47625 0.0529z" class="g24_1" display="block"/>
     <path d="m-55.827 308.07c0.15875-0.0529 0.3175-0.0794 0.47625-0.10583v-2.1696c-0.15875 0.0265-0.3175 0.0794-0.47625 0.13229z" class="g24_1" display="block"/>
     <path d="m-56.25 304.04c0.10583-0.0529 0.21167-0.0794 0.3175-0.13229v0.26458z" class="g24_1" display="block"/>
     <path d="m-54.584 304.81c-0.15875 0-0.3175 0-0.47625 0.0265v-1.1112c0.15875-0.0265 0.3175-0.0265 0.47625-0.0529z" class="g24_1" display="block"/>
     <path d="m-53.816 303.73c-0.15875-0.0265-0.3175-0.0265-0.47625-0.0529v1.1377c0.15875 0 0.3175 0 0.47625 0.0265z" class="g24_1" display="block"/>
     <path d="m-53.552 303.75c0.18521 0.0529 0.34396 0.0794 0.47625 0.13229v1.1112c-0.13229-0.0529-0.29104-0.0794-0.47625-0.10584z" class="g24_1" display="block"/>
     <path d="m-55.351 304.89c-0.15875 0.0265-0.3175 0.0529-0.47625 0.10584v-1.1112c0.15875-0.0529 0.3175-0.0794 0.47625-0.13229z" class="g24_1" display="block"/>
     <path d="m-52.943 303.91c0.10583 0.0529 0.21167 0.0794 0.3175 0.13229l-0.3175 0.13229z" class="g24_1" display="block"/>
     <path d="m-56.25 306.08c0.10583-0.0529 0.21167-0.0794 0.3175-0.13229v0.26458z" class="g24_1" display="block"/>
     <path d="m-52.943 305.95c0.10583 0.0529 0.21167 0.0794 0.3175 0.13229l-0.3175 0.13229z" class="g24_1" display="block"/>
     <path d="m-52.626 303.33c-0.50271-0.23812-1.1377-0.37041-1.8256-0.37041-0.68792 0-1.2965 0.13229-1.7992 0.37041v0.44979c0.50271-0.21166 1.1112-0.37041 1.7992-0.37041 0.68792 0 1.3229 0.15875 1.8256 0.37041z" class="g24_1" display="block"/>
     <path d="m-52.626 305.37c-0.50271-0.21166-1.1377-0.37041-1.8256-0.37041-0.68792 0-1.2965 0.15875-1.7992 0.37041v0.47625c0.50271-0.23812 1.1112-0.37041 1.7992-0.37041 0.68792 0 1.3229 0.13229 1.8256 0.37041z" class="g24_1" display="block"/>
     <path d="m-52.626 303.12c-0.50271-0.23813-1.1377-0.37042-1.8256-0.37042-0.68792 0-1.2965 0.13229-1.7992 0.37042l1.4288-1.3758c0.13229 0 0.26458-0.0265 0.37042-0.0265 0.13229 0 0.26458 0.0265 0.37042 0.0265z" class="g24_1" display="block"/>
     <path d="m-54.822 301.34v0.23812h0.37042 0.37042v-0.23812c0-0.0794-0.18521-0.0794-0.21167-0.0794h-0.15875-0.13229c-0.05292 0-0.23812 0-0.23812 0.0794z" class="g24_1" display="block"/>
     <path d="m-53.075 310.39c-0.13229-0.0265-0.29104-0.0794-0.47625-0.10584v-2.0902c0.18521 0.0265 0.34396 0.0529 0.47625 0.10583z" class="g24_1" display="block"/>
     <path d="m-53.816 310.23c-0.15875 0-0.3175-0.0265-0.47625-0.0265v-2.0902c0.15875 0 0.3175 0 0.47625 0.0265z" class="g24_1" display="block"/>
     <path d="m-54.584 310.21c-0.15875 0-0.3175 0.0265-0.47625 0.0265v-2.0902c0.15875-0.0265 0.3175-0.0265 0.47625-0.0265z" class="g24_1" display="block"/>
     <path d="m-55.351 310.29c-0.15875 0.0265-0.3175 0.0794-0.47625 0.10584v-2.0902c0.15875-0.0529 0.3175-0.0794 0.47625-0.10583z" class="g24_1" display="block"/>
     <path d="m-15.822 305.79c0.15875 0.0265 0.3175 0.0794 0.47625 0.13229v2.1431c-0.15875-0.0529-0.3175-0.0794-0.47625-0.10583z" class="g24_1" display="block"/>
     <path d="m-16.113 307.91c-0.15875-0.0265-0.3175-0.0265-0.47625-0.0265v-2.1696c0.07937 0 0.15875 0 0.23812 0.0265 0.07937 0 0.15875 0 0.23812 0.0265z" class="g24_1" display="block"/>
     <path d="m-17.357 307.91c0.15875-0.0265 0.3175-0.0265 0.47625-0.0265v-2.1696c-0.15875 0-0.3175 0.0265-0.47625 0.0529z" class="g24_1" display="block"/>
     <path d="m-18.124 308.07c0.15875-0.0529 0.3175-0.0794 0.50271-0.10583v-2.1696c-0.18521 0.0265-0.34396 0.0794-0.50271 0.13229z" class="g24_1" display="block"/>
     <path d="m-18.547 304.04c0.10583-0.0529 0.21167-0.0794 0.3175-0.13229v0.26458z" class="g24_1" display="block"/>
     <path d="m-16.88 304.81c-0.15875 0-0.3175 0-0.47625 0.0265v-1.1112c0.15875-0.0265 0.3175-0.0265 0.47625-0.0529z" class="g24_1" display="block"/>
     <path d="m-16.113 303.73c-0.15875-0.0265-0.3175-0.0265-0.47625-0.0529v1.1377c0.15875 0 0.3175 0 0.47625 0.0265z" class="g24_1" display="block"/>
     <path d="m-15.822 303.75c0.15875 0.0529 0.3175 0.0794 0.47625 0.13229v1.1112c-0.15875-0.0529-0.3175-0.0794-0.47625-0.10584z" class="g24_1" display="block"/>
     <path d="m-17.621 304.89c-0.18521 0.0265-0.34396 0.0529-0.50271 0.10584v-1.1112c0.15875-0.0529 0.3175-0.0794 0.50271-0.13229z" class="g24_1" display="block"/>
     <path d="m-15.24 303.91c0.10583 0.0529 0.21167 0.0794 0.3175 0.13229l-0.3175 0.13229z" class="g24_1" display="block"/>
     <path d="m-18.547 306.08c0.10583-0.0529 0.21167-0.0794 0.3175-0.13229v0.26458z" class="g24_1" display="block"/>
     <path d="m-15.24 305.95c0.10583 0.0529 0.21167 0.0794 0.3175 0.13229l-0.3175 0.13229z" class="g24_1" display="block"/>
     <path d="m-14.923 303.33c-0.50271-0.23812-1.1112-0.37041-1.7992-0.37041-0.68792 0-1.3229 0.13229-1.8256 0.37041v0.44979c0.50271-0.21166 1.1377-0.37041 1.8256-0.37041 0.68792 0 1.2965 0.15875 1.7992 0.37041z" class="g24_1" display="block"/>
     <path d="m-14.923 305.37c-0.50271-0.21166-1.1112-0.37041-1.7992-0.37041-0.68792 0-1.3229 0.15875-1.8256 0.37041v0.47625c0.50271-0.23812 1.1377-0.37041 1.8256-0.37041 0.68792 0 1.2965 0.13229 1.7992 0.37041z" class="g24_1" display="block"/>
     <path d="m-14.923 303.12c-0.50271-0.23813-1.1112-0.37042-1.7992-0.37042-0.68792 0-1.3229 0.13229-1.8256 0.37042l1.4288-1.3758c0.13229 0 0.26458-0.0265 0.39688-0.0265 0.10583 0 0.23812 0.0265 0.37042 0.0265z" class="g24_1" display="block"/>
     <path d="m-17.119 301.34v0.23812h0.39688 0.37042v-0.23812c0-0.0794-0.18521-0.0794-0.23812-0.0794h-0.13229-0.15875c-0.05292 0-0.23812 0-0.23812 0.0794z" class="g24_1" display="block"/>
     <path d="m-15.346 310.39c-0.15875-0.0265-0.3175-0.0794-0.47625-0.10584v-2.0902c0.15875 0.0265 0.3175 0.0529 0.47625 0.10583z" class="g24_1" display="block"/>
     <path d="m-16.113 310.23c-0.15875 0-0.3175-0.0265-0.47625-0.0265v-2.0902c0.15875 0 0.3175 0 0.47625 0.0265z" class="g24_1" display="block"/>
     <path d="m-16.88 310.21c-0.15875 0-0.3175 0.0265-0.47625 0.0265v-2.0902c0.15875-0.0265 0.3175-0.0265 0.47625-0.0265z" class="g24_1" display="block"/>
     <path d="m-17.621 310.29c-0.18521 0.0265-0.34396 0.0794-0.50271 0.10584v-2.0902c0.15875-0.0529 0.3175-0.0794 0.50271-0.10583z" class="g24_1" display="block"/>
     <path d="m-15.346 313.36c-0.15875-0.0529-0.3175-0.10583-0.50271-0.15875 0-0.13229 0.02646-1.0319 0.02646-1.0319v-1.614s0.3175 0.0529 0.47625 0.10583v1.5081zm-0.76729-0.23812c-0.15875-0.0529-0.3175-0.0794-0.47625-0.1323v-0.74083-1.7727s0.3175 0 0.47625 0.0265v1.7462zm-0.76729-0.87313v-1.7727c-0.15875 0-0.47625 0.0265-0.47625 0.0265v1.7462 0.60854c0.15875 0.0265 0.3175 0.0529 0.50271 0.0794m-0.76729-0.60854v-1.7727c-0.18521 0.0264-0.50271 0.10577-0.50271 0.10577v1.8521s0.02646 0.0529 0.02646 0.26459c0.15875 0 0.3175 0.0265 0.47625 0.0529m-35.454-0.79374v-1.3758c-0.13229-0.0529-0.47625-0.10583-0.47625-0.10583v2.3284s0.3175-0.0529 0.47625-0.0794zm-0.74083-1.5346c-0.15875-0.0265-0.47625-0.0265-0.47625-0.0265v1.6404s-0.02646 0.76729-0.02646 0.89958c0.15875-0.0265 0.34396-0.0529 0.50271-0.0794zm-0.76729 2.5929c-0.15875 0.0265-0.3175 0.0794-0.47625 0.10583v-1.0848-1.614s0.3175-0.0265 0.47625-0.0265v1.6404zm-0.76729 0.18521c-0.15875 0.0529-0.3175 0.10583-0.47625 0.13229v-1.0319-1.7198s0.3175-0.0794 0.47625-0.10583v1.6404z" class="g24_1" display="block"/>
    </g>
    <g stroke-width=".26458" fill="#c5202f">
     <path d="m-37.227 312.59c0.635 0.37042 1.27 0.52917 1.6669 0.60854h0.02646c0.02646 0 0.05292 0 0.07938-0.0265s0.05292-0.0529 0.05292-0.10583c0.02646-0.68792-0.13229-1.2965-0.18521-1.5346-0.02646-0.0265-0.05292-0.0529-0.07937-0.0794-0.82021-0.39687-1.4817-0.82021-1.9844-1.2965-0.37042-0.34396-0.635-0.68791-0.76729-1.0319-0.02646-0.0529-0.07937-0.0794-0.10583-0.0794-0.05292 0-0.10583 0.0265-0.13229 0.0529-0.26458 0.39687-0.47625 0.84667-0.58208 1.3229 0 0.0265 0 0.0529 0.02646 0.0794 0.39688 0.89958 1.0583 1.614 1.9844 2.0902z" class="g20_1" display="block"/>
     <path d="m-37.491 309.94c0.02646 0.0265 0.05292 0.0529 0.10583 0.0529 0.02646 0 0.07937-0.0265 0.10583-0.0529 0.9525-1.3229 2.0108-1.7992 2.7252-1.9579 0.05292-0.0265 0.10583-0.0794 0.10583-0.13229 0-0.0529-0.05292-0.10584-0.10583-0.13229-0.34396-0.10584-0.74083-0.15875-1.1112-0.15875-0.50271 0-0.97896 0.0794-1.4288 0.29104-0.42333 0.18521-0.82021 0.42333-1.1642 0.76729-0.02646 0.0265-0.02646 0.0794-0.02646 0.10583 0.05292 0.23813 0.23812 0.66146 0.79375 1.2171z" class="g20_1" display="block"/>
     <path d="m-37.095 310.13c-0.05292 0.0529-0.05292 0.1323 0.02646 0.15875 0.39688 0.3175 0.87312 0.60855 1.4288 0.89959h0.05292c0.05292 0 0.07938 0 0.10583-0.0265 0.34396-0.39688 1.2965-1.3229 2.884-1.5875 0.05292 0 0.07937-0.0265 0.10583-0.0529v-0.13229c-0.29104-0.47625-0.68792-0.92604-1.1642-1.2435h-0.07938c-0.13229-0.0265-0.68792 0-1.3758 0.29104-0.74083 0.34396-1.4288 0.89958-1.9844 1.6933z" class="g20_1" display="block"/>
     <path d="m-32.279 309.89c0-0.0529-0.05292-0.0794-0.13229-0.0794-0.26458 0.0529-0.55562 0.10584-0.82021 0.18521-0.02646 0-0.05292 0.0265-0.07938 0.0529v0.10583c0.07938 0.29104 0.26458 0.87313 0.29104 1.5875 0 0.42334-0.02646 0.84667-0.13229 1.2435-0.05292 0.23813-0.13229 0.50271-0.23812 0.74084-0.02646 0.0529-0.02646 0.10583 0.02646 0.15875 0.02646 0 0.05292 0.0265 0.07938 0.0265s0.05292-0.0265 0.07937-0.0529c0.39688-0.37042 0.71438-0.79375 0.89958-1.2965 0.34396-0.84667 0.37042-1.7992 0.02646-2.6723z" class="g20_1" display="block"/>
     <path d="m-35.481 313.52c-0.02646-0.0265-0.05292-0.0529-0.07937-0.0529-0.39688-0.0794-1.0319-0.23812-1.6669-0.58208-0.76729-0.39687-1.4023-0.92604-1.8521-1.614-0.02646-0.0265-0.07937-0.0529-0.13229-0.0529-0.05292 0.0265-0.10583 0.0794-0.10583 0.13229 0.02646 0.44979 0.13229 0.87312 0.29104 1.27 0.26458 0.60854 0.66146 1.1112 1.1906 1.5081 0.50271 0.37042 1.0848 0.60854 1.7198 0.68792 0.05292 0 0.07937-0.0265 0.10583-0.0529 0.26458-0.3175 0.44979-0.68791 0.55562-1.1642 0-0.0265 0-0.0529-0.02646-0.0794z" class="g20_1" display="block"/>
     <path d="m-33.549 310.26c-0.02646-0.0265-0.02646-0.0529-0.07937-0.0794h-0.10583c-0.87312 0.39688-1.4023 0.9525-1.5875 1.1906-0.02646 0.0265-0.02646 0.0529-0.02646 0.10583 0.07938 0.23812 0.18521 0.74083 0.21167 1.3229 0 0.37041-0.02646 0.71437-0.10583 1.0319-0.07937 0.29104-0.18521 0.55563-0.34396 0.79375-0.02646 0.0529-0.02646 0.10583 0 0.13229 0.02646 0.0529 0.05292 0.0794 0.10583 0.0794 0.37042-0.0265 0.74083-0.10584 1.0848-0.23813 0.02646 0 0.02646-0.0265 0.05292-0.0265 0.37042-0.34395 0.66146-0.76729 0.82021-1.27 0.15875-0.39687 0.23812-0.84666 0.23812-1.3229 0-0.74084-0.15875-1.4023-0.26458-1.7198z" class="g20_1" display="block"/>
    </g>
   </g>
  </g>
 </g>
</svg>
