<svg xmlns="http://www.w3.org/2000/svg" height="220" width="220" version="1.1" viewBox="0 0 58.208332 58.208335">
 <g transform="translate(0 -238.79)">
  <g transform="translate(-5.8333e-8 -.0000018318)">
   <g stroke-width=".26458" transform="translate(68.792 -.56697)">
    <path d="m-64.386 239.82h49.398v31.062c-0.39688 3.4925-1.4288 6.9056-3.0427 10.028-1.3494 2.6458-3.1485 5.0536-5.2123 7.1967-2.8575 2.884-6.2442 5.2388-9.9219 6.985-1.4288 0.68792-2.9104 1.27-4.4185 1.6933-0.58208 0.15875-1.1906 0.26459-1.7727 0.3175h-0.18521c-1.561-0.37041-3.0692-0.89958-4.5244-1.4817-3.81-1.5346-7.329-3.6777-10.425-6.3765-3.0162-2.6458-5.6092-5.8208-7.3819-9.4192-1.5081-3.0692-2.3812-6.4558-2.5135-9.869z" class="g56_1" display="block" fill="#f7ee23"/>
    <path d="m-62.349 241.83 0.05292 0.0529c0 9.2604-0.02646 18.547 0 27.808-0.07937-0.0529-0.02646-0.15875-0.05292-0.23812 0.02646-9.2075 0-18.415 0-27.622z" class="g57_1" display="block" fill="#eaea6d"/>
    <path d="m-62.296 241.89c0.15875-0.0265 0.3175-0.0265 0.47625-0.0265h43.392c0.44979 0 0.89958 0.0265 1.3494 0-0.02646 9.6308 0 19.262 0 28.892-0.44979 3.9423-1.7727 7.7788-3.9158 11.112-1.6933 2.6458-3.8365 4.9742-6.2706 6.9586-2.2225 1.7992-4.7096 3.3338-7.329 4.5508-1.4552 0.635-2.9369 1.2435-4.4979 1.5875-0.18521 0.0529-0.34396 0.0794-0.50271 0.0265-3.9952-1.1112-7.7523-2.9369-11.112-5.3446-3.4131-2.4606-6.4029-5.5827-8.5196-9.2604-1.8521-3.2544-2.9898-6.9321-3.0692-10.689-0.02646-9.2604 0-18.547 0-27.808z" class="g58_1" display="block" fill="#8cd4f5"/>
    <path d="m-17.079 241.86c0.02646 0.0529 0.05292 0.10584 0.02646 0.15875 0 9.5779 0.02646 19.129 0 28.681l-0.02646 0.0529c0-9.6308-0.02646-19.262 0-28.892z" class="g57_1" display="block" fill="#eaea6d"/>
    <path d="m-40.759 243.05c0.21167-0.23813 0.44979-0.39688 0.74083-0.55563l0.02646 0.15875h-0.07938-0.05292c-0.15875 0.0794-0.3175 0.18521-0.44979 0.3175-0.05292 0.0265-0.13229 0.10584-0.15875 0.18521-0.21167 0.3175-0.26458 0.71438-0.26458 1.0848 0.02646 0.0265 0.05292 0.0529 0.05292 0.0529h0.02646c-0.05292 0.0265-0.13229 0.0794-0.15875 0.0794v-0.15875c0-0.39688 0.05292-0.84667 0.3175-1.1642z" class="g59_1" display="block" fill="#0d0e23"/>
    <path d="m-40.574 242.97c0.13229-0.13229 0.29104-0.23812 0.44979-0.3175h0.05292c-0.02646 0.15875 0.02646 0.3175-0.02646 0.47625v0.0265c-0.02646 0.13229-0.05292 0.26459-0.13229 0.37042-0.02646 0-0.05292 0.0265-0.05292 0.0529 0.02646 0 0.10583 0.0529 0.15875 0.0794-0.02646 0-0.10583 0.0529-0.13229 0.0794-0.15875-0.0529-0.29104 0.0794-0.21167 0.21166-0.07937 0.0794-0.13229 0.15875-0.21167 0.21167-0.07937 0.0529-0.15875 0.10583-0.23812 0.13229h-0.02646l-0.05292-0.0529c0-0.37041 0.05292-0.76729 0.26458-1.0848 0.10583 0.0265 0.21167-0.0794 0.15875-0.18521z" class="g60_1" display="block" fill="#f7ee24"/>
    <path d="m-40.045 242.71c0.07937 0.0265 0.10583 0.3175 0 0.29104-0.02646-0.10583-0.02646-0.21166 0-0.29104z" class="g61_1" display="block" fill="#292729"/>
    <path d="m-40.733 243.16c0.02646-0.0794 0.10583-0.15875 0.15875-0.18521 0.05292 0.10584-0.05292 0.21167-0.15875 0.18521z" class="g62_1" display="block" fill="#fecb66"/>
    <path d="m-40.071 243.39c0.34396-0.18521 0.71438-0.26459 1.1112-0.3175-0.07937 0.13229-0.26458 0.15875-0.37042 0.23812-0.39688 0.21167-0.84667 0.37042-1.1112 0.71438 0.39688-0.13229 0.79375-0.42334 1.2435-0.26459 0.29104 0.10584 0.58208 0.3175 0.635 0.66146 0.07937 0.50271-0.23812 0.97896-0.34396 1.4552l-0.07937 0.0529c0.02646-0.0529 0.02646-0.15875 0.05292-0.21167 0.07938-0.37042 0.29104-0.74083 0.3175-1.1377 0-0.37041-0.29104-0.66146-0.60854-0.76729-0.37042-0.10583-0.74083 0.10583-1.0583 0.23813-0.02646 0-0.02646-0.0529-0.02646-0.0529-0.13229 0.0529-0.23812 0.10583-0.37042 0.15875 0.07937-0.0529 0.13229-0.13229 0.21167-0.21167 0.05292-0.0529 0.13229-0.13229 0.21167-0.21166 0.02646-0.0265 0.10583-0.0794 0.13229-0.0794 0.23812-0.15875 0.47625-0.29104 0.74083-0.39687-0.3175-0.0265-0.55562 0.21166-0.84667 0.26458 0.07937-0.10583 0.10583-0.23813 0.13229-0.37042v-0.0265c0.02646 0 0.07937-0.0265 0.07937-0.0265 0 0.0794-0.02646 0.1852-0.05292 0.29104z" class="g59_1" display="block" fill="#0d0e23"/>
    <path d="m-40.23 243.53c0.29104-0.0529 0.52917-0.29104 0.84667-0.26458-0.26458 0.10583-0.50271 0.23812-0.74083 0.39687-0.05292-0.0265-0.13229-0.0794-0.15875-0.0794 0-0.0265 0.02646-0.0529 0.05292-0.0529z" class="g63_1" display="block" fill="#fec554"/>
    <path d="m-40.468 243.95c-0.07937-0.13229 0.05292-0.26458 0.21167-0.21166-0.07937 0.0794-0.15875 0.15875-0.21167 0.21166z" class="g64_1" display="block" fill="#ded430"/>
    <path d="m-40.283 244.05c0.3175-0.1323 0.66146-0.34396 1.0583-0.23813 0.3175 0.10583 0.60854 0.39688 0.60854 0.76729-0.02646 0.39688-0.23812 0.76729-0.3175 1.1377-0.02646 0.0794-0.05292 0.15875-0.05292 0.21167-0.02646 0.23812-0.05292 0.50271-0.05292 0.74083 0.13229 0.0265 0.26458 0.0529 0.37042 0.10583h0.02646 0.10583c0.42333 0.1323 0.76729 0.4498 1.1112 0.71438-0.02646 0.13229 0.10583 0.23812 0.23812 0.21167 0.02646 0.0264 0.05292 0.0529 0.05292 0.0529-0.02646 0.15875 0.07938 0.26459 0.21167 0.23813 0.07937 0.10583 0.13229 0.18521 0.21167 0.29104-0.05292 0.10583 0.05292 0.23812 0.15875 0.18521 0.07937 0.0529 0.15875 0.13229 0.23812 0.18521-0.02646 0.0529-0.07938 0.1852 0 0.21166 0.18521 0.13229 0.39688 0.21167 0.58208 0.23813 0.02646 0.0529 0.02646 0.10583 0.02646 0.13229-0.02646 0.0265-0.10583 0.0794-0.13229 0.10583l0.02646 0.0265c-0.02646 0.0265-0.07937 0.0794-0.10583 0.10583-0.07937-0.0264-0.15875-0.0529-0.21167-0.0529-0.07937-0.0529-0.18521-0.0794-0.26458-0.0529-0.05292-0.0265-0.10583-0.0529-0.15875-0.0794-0.02646-0.0265-0.07938-0.0529-0.13229-0.0529l0.02646 0.0265v0.0529l0.02646 0.10584c-0.07937 0-0.15875 0.0265-0.23812 0.0529-0.26458 0.0794-0.52917 0.18521-0.79375 0.34396-0.50271-0.0529-0.97896-0.3175-1.3758-0.60854-0.29104-0.0529-0.68792 0.0794-0.89958-0.21167-0.29104-0.34395-0.58208-0.74083-0.66146-1.1906 0-0.18521 0-0.37042 0.02646-0.55563v-0.0529c0.02646-0.0794 0.05292-0.13229 0.05292-0.21167 0.07937-0.39687 0.39688-0.635 0.55562-1.0054 0.15875-0.34395 0.39688-0.71437 0.21167-1.1112 0.02646-0.10583-0.07938-0.21166-0.18521-0.15875-0.02646-0.0265-0.10583-0.0529-0.13229-0.0794-0.10583-0.18521-0.18521-0.37042-0.21167-0.58208z" class="g65_1" display="block" fill="#f7ee22"/>
    <path d="m-40.309 244s0 0.0265 0.02646 0.0529c0.02646 0.21166 0.10583 0.39687 0.21167 0.58208v0.0794c-0.21167-0.13229-0.47625-0.21166-0.74083-0.10583-0.02646 0-0.07937 0.0265-0.10583 0.0265s-0.10583 0.0265-0.13229 0.0529c-0.07937-0.0265-0.13229-0.0529-0.21167-0.10584 0.15875-0.0529 0.13229-0.23812 0.18521-0.37041v0.15875c0.02646 0 0.10583-0.0529 0.15875-0.0794h-0.02646 0.02646c0.07938-0.0265 0.15875-0.0794 0.23812-0.13229 0.13229-0.0529 0.23812-0.10583 0.37042-0.15875z" class="g66_1" display="block" fill="#6a0c3a"/>
    <path d="m-39.78 244c0.10583-0.0265 0.23812-0.0529 0.34396 0l0.07937 0.0529c-0.10583 0.10583-0.26458 0.0794-0.37042 0z" class="g67_1" display="block" fill="#282110"/>
    <path d="m-39.436 244h0.10583c-0.05292 0.18521-0.3175 0.21167-0.42333 0.0529 0.13229 0.0794 0.29104 0.10583 0.39688 0z" class="g68_1" display="block" fill="#ae9f32"/>
    <path d="m-40.918 244.64c0.02646 0 0.07938-0.0265 0.10583-0.0265-0.02646 0.0529-0.05292 0.10583-0.05292 0.15875 0.05292 0.15875 0.15875 0.3175 0.18521 0.52917-0.02646 0.15875-0.05292 0.34396-0.15875 0.47625-0.02646 0.0529-0.10583 0.10583-0.13229 0.0265-0.05292-0.15875-0.05292-0.3175-0.07937-0.47625-0.10583 0.10583-0.13229 0.26458-0.21167 0.37041-0.10583 0.21167-0.26458 0.39688-0.44979 0.52917 0.02646-0.34396 0.02646-0.68792 0.15875-1.0054 0.07937-0.15875 0.26458-0.26458 0.29104-0.44979 0.02646 0 0.07937-0.0794 0.13229-0.0265-0.02646 0.0529-0.05292 0.10584-0.07938 0.15875-0.07937 0.0529-0.13229 0.13229-0.15875 0.21167-0.21167 0.26458-0.21167 0.60854-0.26458 0.92604 0.21167-0.18521 0.37042-0.42333 0.44979-0.71437 0.05292-0.0265 0.13229-0.0794 0.21167-0.10584 0.02646 0.15875 0.02646 0.34396 0.05292 0.52917 0.21167-0.23813 0.15875-0.60854 0-0.87313-0.02646-0.0794-0.02646-0.15875 0-0.23812z" class="g59_1" display="block" fill="#0d0e23"/>
    <path d="m-40.071 244.64c0.02646 0.0265 0.10583 0.0529 0.13229 0.0794 0.05292 0.0529 0.10583 0.1323 0.18521 0.15875 0.18521 0.39688-0.05292 0.7673-0.21167 1.1112-0.15875 0.37042-0.47625 0.60855-0.55562 1.0054l-0.07938 0.0265c0.02646-0.39688 0.39688-0.68792 0.55562-1.0319 0.13229-0.29104 0.29104-0.55562 0.29104-0.87312-0.02646-0.18521-0.18521-0.29104-0.3175-0.39688v-0.0794z" class="g59_1" display="block" fill="#0d0e23"/>
    <path d="m-41.129 244.74c0.05292-0.0265 0.13229-0.0794 0.18521-0.0794 0 0.0794 0 0.15875 0.02646 0.21166 0.15875 0.26459 0.21167 0.635 0 0.87313-0.02646-0.18521-0.02646-0.37042-0.05292-0.52917-0.05292-0.15875-0.26458 0-0.21167 0.10584-0.07937 0.29104-0.23812 0.52916-0.44979 0.71437 0.05292-0.3175 0.05292-0.66146 0.26458-0.92604 0.10583 0.0265 0.18521-0.10583 0.15875-0.21167 0.02646-0.0529 0.05292-0.10583 0.07938-0.15875z" class="g60_1" display="block" fill="#f7ee24"/>
    <path d="m-39.939 244.72c0.10583-0.0529 0.21167 0.0529 0.18521 0.15875-0.07938-0.0265-0.13229-0.10583-0.18521-0.15875z" class="g63_1" display="block" fill="#fec554"/>
    <path d="m-41.368 245.11c0.02646-0.0794 0.07937-0.15875 0.15875-0.21167 0.02646 0.10584-0.05292 0.23813-0.15875 0.21167z" class="g69_1" display="block" fill="#fec247"/>
    <path d="m-41.182 245.32c-0.05292-0.10584 0.15875-0.26459 0.21167-0.10584-0.07937 0.0265-0.15875 0.0794-0.21167 0.10584z" class="g62_1" display="block" fill="#fecb66"/>
    <path d="m-38.986 245.93 0.07938-0.0265c0 0.21167-0.02646 0.44979-0.02646 0.68792 0.13229 0.0529 0.23812 0.0794 0.37042 0.0794-0.02646 0.0265-0.05292 0.0529-0.07938 0.10583h-0.02646c-0.10583-0.0529-0.23812-0.0794-0.37042-0.10583 0-0.23812 0.02646-0.50271 0.05292-0.74083z" class="g70_1" display="block" fill="#3b3931"/>
    <path d="m-38.537 246.78c0-0.0265 0.05292-0.0529 0.07937-0.0794 0.39688 0.15875 0.71438 0.44979 1.0583 0.68792 0.26458 0.23812 0.50271 0.47625 0.68792 0.76729 0.18521 0.26458 0.47625 0.44979 0.74083 0.66146-0.05292 0-0.13229 0.0265-0.18521 0.0265 0.13229 0.1323 0.34396 0.15875 0.52917 0.23813 0.13229 0.13229-0.10583 0.21167-0.10583 0.34396-0.02646 0-0.05292-0.0529-0.07938-0.0529l-0.02646-0.0265c0.02646-0.0265 0.10583-0.0794 0.13229-0.10583 0.07937-0.0529 0.07937-0.10583-0.02646-0.13229-0.18521-0.0265-0.39688-0.10584-0.58208-0.23813 0.10583-0.0529 0.13229-0.18521 0-0.21166-0.07938-0.0529-0.15875-0.1323-0.23812-0.18521-0.02646-0.0794-0.10583-0.13229-0.15875-0.18521-0.07937-0.10583-0.13229-0.18521-0.21167-0.29104-0.05292-0.0794-0.10583-0.15875-0.21167-0.23813 0 0-0.02646-0.0265-0.05292-0.0529-0.05292-0.0794-0.13229-0.15875-0.23812-0.21167-0.34396-0.26458-0.68792-0.58208-1.1112-0.71438z" class="g59_1" display="block" fill="#0d0e23"/>
    <path d="m-40.574 247.26c-0.10583 0-0.05292-0.21166 0-0.23812v0.18521z" class="g71_1" display="block" fill="#262325"/>
    <path d="m-39.621 247.04c0.07937 0 0.15875-0.0265 0.18521 0.0794-0.05292-0.0265-0.13229-0.0265-0.15875-0.0529 0 0.13229 0 0.23812 0.02646 0.37041-0.07938-0.13229-0.07938-0.26458-0.05292-0.39687z" class="g72_1" display="block" fill="#b9a931"/>
    <path d="m-39.595 247.07c0.05292 0.0265 0.10583 0.0265 0.15875 0.0529-0.02646 0.0529-0.02646 0.15875-0.02646 0.21167-0.02646 0.0794 0 0.18521 0.05292 0.26458v0.0794c0 0.0529 0 0.10583 0.05292 0.15875 0.07938 0.13229 0.15875 0.26458 0.23812 0.39687 0.05292 0.13229 0.18521 0.23813 0.3175 0.3175 0.13229 0.0794 0.29104 0.18521 0.44979 0.23813 0.02646-0.0265 0.07937-0.0794 0.10583-0.10584 0.05292 0.0265 0.13229 0.0794 0.18521 0.10584 0.05292 0.0794 0.13229 0.0265 0.10583-0.0529l0.07937-0.0794c0.05292 0.0794 0.10583 0.13229 0.15875 0.1852 0.02646 0.0794 0.07937 0.0794 0.10583 0 0.02646-0.0265 0.07938-0.0529 0.07938-0.0794 0.02646 0 0.10583 0.0529 0.13229 0.0529-0.05292 0.0529-0.10583 0.10583-0.15875 0.15875-0.13229 0.13229-0.29104 0-0.44979 0-0.47625 0.0265-0.89958-0.26459-1.1642-0.60855-0.02646-0.10583-0.07937-0.15875-0.15875-0.1852-0.10583-0.1323-0.15875-0.3175-0.18521-0.47625 0.02646-0.0794 0-0.15875-0.05292-0.21167v-0.0529c-0.02646-0.13229-0.02646-0.23812-0.02646-0.37041z" class="g73_1" display="block" fill="#271f0f"/>
    <path d="m-40.653 247.28 0.05292-0.0265c0 0.18521-0.02646 0.37042 0 0.55563 0.07938 0.44979 0.37042 0.84667 0.66146 1.1906 0.21167 0.29105 0.60854 0.15875 0.89958 0.21167-0.23812 0-0.44979 0-0.66146 0.0265-0.26458-0.0265-0.39688-0.29104-0.52917-0.47625-0.3175-0.42333-0.55562-0.9525-0.42333-1.4817z" class="g59_1" display="block" fill="#0d0e23"/>
    <path d="m-39.463 247.34c0.10583 0 0.10583 0.18521 0.05292 0.26458-0.05292-0.0794-0.07937-0.18521-0.05292-0.26458z" class="g74_1" display="block" fill="#9c8c31"/>
    <path d="m-39.568 247.49c0.05292 0.0529 0.07937 0.13229 0.05292 0.21167-0.10583 0.0264-0.10583-0.15875-0.05292-0.21167z" class="g75_1" display="block" fill="#938330"/>
    <path d="m-37.425 247.49c0.10583 0.0529 0.18521 0.13229 0.23812 0.21167-0.13229 0.0264-0.26458-0.0794-0.23812-0.21167z" class="g63_1" display="block" fill="#fec554"/>
    <path d="m-39.41 247.68c0.10583 0 0.10583 0.0529 0.05292 0.15875-0.05292-0.0529-0.05292-0.10584-0.05292-0.15875z" class="g76_1" display="block" fill="#918130"/>
    <path d="m-37.134 247.76c0.10583 0.0794 0.15875 0.15875 0.21167 0.23813-0.13229 0.0265-0.23812-0.0794-0.21167-0.23813z" class="g69_1" display="block" fill="#fec247"/>
    <path d="m-39.33 248.18c0.07937 0.0265 0.13229 0.0794 0.15875 0.1852-0.07937 0.0265-0.21167-0.10583-0.15875-0.1852z" class="g77_1" display="block" fill="#928631"/>
    <path d="m-39.119 248.24c0.10583 0.0794 0.21167 0.18521 0.3175 0.3175-0.13229-0.0794-0.26458-0.18521-0.3175-0.3175z" class="g78_1" display="block" fill="#55491e"/>
    <path d="m-36.711 248.29c0.05292 0.0529 0.13229 0.10583 0.15875 0.18521-0.10583 0.0529-0.21167-0.0794-0.15875-0.18521z" class="g69_1" display="block" fill="#fec247"/>
    <path d="m-36.314 248.66c0.13229 0.0265 0.10583 0.15875 0 0.21166-0.07938-0.0265-0.02646-0.15875 0-0.21166z" class="g79_1" display="block" fill="#fecd73"/>
    <path d="m-37.981 248.71 0.02646 0.0265c0.02646 0.0794-0.05292 0.13229-0.10583 0.0529 0.02646 0 0.05292-0.0529 0.07937-0.0794z" class="g80_1" display="block" fill="#d1bd2c"/>
    <path d="m-37.716 248.84h0.10583c-0.02646 0.0794-0.07937 0.0794-0.10583 0z" class="g81_1" display="block" fill="#b9a835"/>
    <path d="m-37.399 248.82 0.02646 0.0265c0.05292 0.0794-0.07937 0.21167-0.18521 0.1323 0.05292-0.0529 0.10583-0.10584 0.15875-0.15875z" class="g82_1" display="block" fill="#d9c824"/>
    <path d="m-35.732 249.11c0.10583 0.0265 0.10583 0.0794 0.02646 0.13229 0-0.0265 0-0.0794-0.02646-0.13229z" class="g83_1" display="block" fill="#fed68a"/>
    <path d="m-39.701 249.24c0.21167-0.0265 0.42333-0.0265 0.66146-0.0265 0.39688 0.29104 0.87312 0.55563 1.3758 0.60854 0.05292-0.0265 0.13229-0.0265 0.15875-0.0265 0.07937 0.26459 0.10583 0.55563 0.21167 0.82021-0.15875 0.18521-0.39688 0.29104-0.52917 0.47625-0.15875 0.18521-0.29104 0.37042-0.39688 0.58209 0.07937 0.13229 0.13229 0.3175 0.26458 0.42333 0.39688-0.10583 0.76729-0.23813 1.1642-0.37042 0.15875 0.21167 0.3175 0.42334 0.52917 0.55563 0.29104 0.13229 0.66146 0.0529 0.84667-0.21167 0.15875 0.21167 0.26458 0.47625 0.47625 0.635 0.52917 0.0265 1.0583 0 1.5875 0.0265 0.34396 0 0.71438 0.18521 0.87312 0.50271 0.21167 0.34396 0.18521 0.79375-0.05292 1.1112-0.15875 0.23812-0.42333 0.39687-0.71438 0.42333-0.58208-0.0265-1.1377 0-1.7198-0.0265v-0.3175h-0.05292c-0.76729-0.34396-1.2435-1.1642-2.0902-1.4023-0.47625-0.15875-0.97896-0.0529-1.4817 0-0.07937 0.0265-0.18521 0.0529-0.18521 0.15875-0.02646 0.13229 0.07937 0.18521 0.15875 0.26458 0.29104 0.26459 0.71438 0.39688 0.87312 0.7673 0.3175 0.10583 0.50271 0.42333 0.84667 0.52916-0.87312 0.0265-1.7198 0-2.5929 0v-0.29104c-0.47625-0.68792-1.1112-1.27-1.8521-1.5875-0.44979-0.0794-1.0319-0.15875-1.3758 0.18521 0.05292 0.29104 0.29104 0.42333 0.50271 0.58208 0.13229 0.0794 0.21167 0.26459 0.37042 0.37042 0.26458 0.21167 0.47625 0.52917 0.82021 0.635 0.13229 0.0794 0.29104 0.0529 0.44979 0.0529-0.05292-0.0794-0.10583-0.1323-0.15875-0.21167 0.13229-0.0529 0.26458-0.13229 0.39688-0.0794 0.23812 0.0794 0.44979 0.26459 0.68792 0.3175-0.52917 0.0794-1.0848 0.0265-1.6404 0.0529-0.58208-0.0265-1.1906-0.0265-1.7727-0.0265-0.89958 0-1.7727 0.0265-2.6723 0-0.50271-0.0529-0.89958-0.52916-0.87312-1.0319 0-0.50271 0.42333-0.9525 0.92604-0.97896 0.60854-0.0265 1.2435 0 1.8521-0.0265 0.07937-0.21167 0.13229-0.44979 0.15875-0.66146 0.29104 0.21167 0.58208 0.37042 0.89958 0.55563 0.26458-0.23813 0.52917-0.50271 0.79375-0.74084 0.37042 0.18521 0.74083 0.39688 1.1112 0.58209 0.07938-0.0529 0.15875-0.0794 0.23812-0.13229 0.07938-0.26459 0.10583-0.52917 0.13229-0.79375 0.23812 0.23812 0.44979 0.52916 0.71438 0.71437 0.18521-0.21167 0.34396-0.44979 0.52917-0.68792 0 0.18521 0.02646 0.34396 0.05292 0.52917 0.15875-0.10583 0.3175-0.21167 0.39688-0.39687 0.15875-0.39688 0.37042-0.79375 0.3175-1.2436-0.10583 0.1323-0.18521 0.29105-0.34396 0.39688-0.29104 0.0265-0.58208-0.0529-0.82021-0.21167-0.26458-0.18521-0.55562-0.29104-0.82021-0.50271 0.05292-0.3175-0.15875-0.52916-0.37042-0.68791 0.29104 0 0.50271 0.26458 0.74083 0.37041 0.26458 0.1323 0.55562 0.15875 0.84667 0.18521-0.13229-0.26458-0.26458-0.52916-0.44979-0.74083z" class="g84_1" display="block" fill="#690b3a"/>
    <path d="m-36.684 249.24c0.05292 0 0.10583 0.0265 0.13229 0.0529-0.02646 0-0.07938 0-0.10583-0.0265z" class="g85_1" display="block" fill="#928d59"/>
    <path d="m-36.658 249.27c0.02646 0.0265 0.07938 0.0265 0.10583 0.0265 0.05292 0.0264 0.10583 0.0529 0.15875 0.0794 0.05292 0.0794 0.18521 0.15875 0.26458 0.0529 0.05292 0 0.13229 0.0265 0.21167 0.0529 0.02646 0 0.07938 0.0265 0.10583 0.0529-0.21167 0.0265-0.47625 0.0265-0.66146-0.10583-0.02646 0.0265-0.07937 0.0529-0.10583 0.0794-0.02646-0.0529-0.05292-0.10583-0.07938-0.18521z" class="g86_1" display="block" fill="#0c0e21"/>
    <path d="m-41.844 249.45c0.3175-0.1323 0.66146-0.0794 1.0054-0.0265 0.21167 0.15875 0.42333 0.37041 0.37042 0.68791-0.05292 0.34396-0.34396 0.60855-0.66146 0.7673-0.39688 0.21166-0.92604 0.26458-1.3229 0.0265-0.23812-0.13229-0.34396-0.44979-0.26458-0.68791 0.10583-0.39688 0.50271-0.66146 0.87312-0.76729z" class="g59_1" display="block" fill="#0d0e23"/>
    <path d="m-36.393 249.37c0.07938-0.0265 0.18521 0 0.26458 0.0529-0.07937 0.10583-0.21167 0.0265-0.26458-0.0529z" class="g87_1" display="block" fill="#afa740"/>
    <path d="m-42.347 249.82c0.39688-0.37041 1.0319-0.50271 1.5346-0.26458v0.0529c0.02646 0.10583 0.10583 0.1852 0.21167 0.21166 0.10583 0.0529 0.05292 0.18521 0.07938 0.26459-0.05292 0.3175-0.3175 0.55562-0.58208 0.68791-0.37042 0.18521-0.79375 0.29104-1.1906 0.13229-0.21167-0.0794-0.39688-0.29104-0.39688-0.5027 0.02646-0.23813 0.15875-0.4498 0.34396-0.58209z" class="g56_1" display="block" fill="#f7ee23"/>
    <path d="m-37.663 249.82c0.26458-0.15875 0.52917-0.26458 0.79375-0.34396 0.05292-0.0264 0.15875-0.0264 0.21167-0.0529 0 0.0529-0.05292 0.10583-0.10583 0.10583-0.23812 0.0794-0.47625 0.10583-0.68792 0.26458h-0.05292c-0.02646 0-0.10583 0-0.15875 0.0265z" class="g59_1" display="block" fill="#0d0e23"/>
    <path d="m-40.812 249.61c0.10583-0.0265 0.23812 0.10583 0.21167 0.21166-0.10583-0.0265-0.18521-0.10583-0.21167-0.21166z" class="g63_1" display="block" fill="#fec554"/>
    <g fill="#1fa9e1">
     <path d="m-42.717 253.05c0.34396-0.34396 0.92604-0.26458 1.3758-0.18521 0.74083 0.3175 1.3758 0.89958 1.8521 1.5875v0.26458h-0.15875c-0.23812-0.0529-0.44979-0.23812-0.68792-0.3175-0.13229-0.0529-0.26458 0.0265-0.39688 0.0794 0.05292 0.0794 0.10583 0.13229 0.15875 0.21167-0.15875 0-0.3175 0.0265-0.44979-0.0529-0.34396-0.10583-0.55562-0.42333-0.82021-0.635-0.15875-0.10583-0.23812-0.29104-0.37042-0.37042-0.21167-0.15875-0.44979-0.29104-0.50271-0.58208z" class="g88_1" display="block"/>
     <path d="m-38.589 253.02c0.50271-0.0529 1.0054-0.15875 1.4817 0 0.84667 0.23813 1.3229 1.0583 2.0902 1.4023v0.29104c-0.71438-0.10583-1.2435-0.635-1.905-0.92604-0.07938 0.0794-0.18521 0.15875-0.21167 0.26459 0.13229 0.3175 0.635 0.3175 0.66146 0.68791h-0.39688-0.02646c-0.34396-0.10583-0.52917-0.42333-0.84667-0.52916-0.15875-0.37042-0.58208-0.50271-0.87312-0.7673-0.07937-0.0794-0.18521-0.13229-0.15875-0.26458 0-0.10583 0.10583-0.13229 0.18521-0.15875z" class="g88_1" display="block"/>
     <path d="m-45.442 253.26c0.15875-0.23813 0.47625-0.21167 0.71438-0.15875 0.29104 0.0794 0.44979 0.37041 0.635 0.58208 0.13229 0.13229 0.3175 0.18521 0.42333 0.34396 0.15875 0.18521 0.44979 0.23812 0.50271 0.50271-0.02646 0.1852-0.26458 0.15875-0.39688 0.13229-0.3175-0.0529-0.50271-0.3175-0.68792-0.50271s-0.44979-0.18521-0.66146-0.0794c-0.07937 0.0265-0.13229 0.1323-0.05292 0.18521 0.10583 0.10584 0.26458 0.13229 0.37042 0.21167v0.13229c-0.15875 0.0794-0.37042 0.10583-0.50271-0.0265-0.15875-0.10583-0.29104-0.26458-0.47625-0.34396-0.10583-0.3175-0.10583-0.74083 0.13229-0.97895z" class="g88_1" display="block"/>
     <path d="m-33.827 253.1c0.3175-0.0265 0.58208 0.3175 0.50271 0.635-0.13229 0.0264-0.29104 0-0.37042-0.10584-0.10583-0.15875-0.26458-0.34396-0.13229-0.52916z" class="g88_1" display="block"/>
    </g>
    <path d="m-37.134 254.06c0.02646-0.10584 0.13229-0.18521 0.21167-0.26459 0.66146 0.29104 1.1906 0.82021 1.905 0.92604v-0.29104h0.05292v0.3175c-0.50271 0-1.0054 0.0265-1.5081 0-0.02646-0.37041-0.52917-0.37041-0.66146-0.68791z" class="g66_1" display="block" fill="#6a0c3a"/>
    <path d="m-39.489 254.45v0.29104c0.87312 0 1.7198 0.0265 2.5929 0h0.02646l0.02646 0.0529c-0.44979 0-0.89958-0.0265-1.3494 0h-1.7727c-0.44979-0.0265-0.87312 0.0265-1.3229-0.0265 0.55562-0.0265 1.1112 0.0265 1.6404-0.0529h0.15875v-0.26458z" class="g89_1" display="block" fill="#c68a68"/>
    <path d="m-51.369 254.74c1.8785-0.0265 3.7571 0.0265 5.6356 0 0.89958 0.0265 1.7727 0 2.6723 0 0 0.10584-0.02646 0.21167-0.02646 0.3175-0.07937 0.0265-0.13229 0.0529-0.18521 0.0794 0.02646 0 0.07937 0.0265 0.10583 0.0529 0 0.10584 0 0.21167 0.02646 0.3175h-7.5142c0.02646 2.2225-0.05292 4.4186 0 6.6146 0.02646 1.1112 0 2.2225 0.02646 3.3073-0.02646 1.6404 0 3.2544 0 4.8948 0.02646 0.87313 0 1.7992 0.15875 2.6723h0.60854v0.0529h-0.60854c0.15875 0.76729 0.37042 1.5081 0.71438 2.196 0.635 1.4023 1.614 2.5929 2.7517 3.5983-0.02646 0.10584-0.05292 0.21167-0.05292 0.3175 0.02646 0 0.07938 0.0265 0.07938 0.0265-0.07938 0.0794-0.15875 0.18521-0.13229 0.3175 0.07938 0.0265 0.15875 0.0529 0.21167 0.10584-0.13229 0.0529-0.29104 0-0.42333-0.0265-1.5081-1.27-2.7517-2.884-3.4396-4.736-0.39688-1.0319-0.60854-2.1431-0.60854-3.2544-0.07938-3.81-0.02646-7.62-0.02646-11.456 0.02646-1.0054-0.02646-2.0108 0.02646-3.0162v-2.3812z" class="g90_1" display="block" fill="#fcbb2c"/>
    <path d="m-43.061 254.74c0.58208 0 1.1906 0 1.7727 0.0265 0.44979 0.0529 0.87312 0 1.3229 0.0265 0 0.15875 0.02646 0.3175 0 0.50271-0.05292 0-0.10583 0.0265-0.15875 0.0529 0.05292 0.0529 0.10583 0.10584 0.15875 0.15875h-3.175c-0.02646-0.10583-0.02646-0.21166-0.02646-0.3175-0.02646-0.0264-0.07937-0.0529-0.10583-0.0529 0.05292-0.0265 0.10583-0.0529 0.18521-0.0794 0-0.10583 0.02646-0.21166 0.02646-0.3175z" class="g91_1" display="block" fill="#febf40"/>
    <path d="m-36.87 254.74h0.39688c0.50271 0.0265 1.0054 0 1.5081 0 0.58208 0.0265 1.1377 0 1.7198 0.0265l-0.02646 0.0265h-0.37042-0.34396-0.26458c-0.15875 0-0.34396-0.0265-0.50271 0h-0.58208-0.44979-0.47625-0.44979-0.13229z" class="g92_1" display="block" fill="#cba5a0"/>
    <path d="m-39.965 254.8h1.7727c0.02646 0.23812-0.10583 0.47625-0.13229 0.71437h-1.6404c-0.05292-0.0529-0.10583-0.10583-0.15875-0.15875 0.05292-0.0264 0.10583-0.0529 0.15875-0.0529 0.02646-0.18521 0-0.34396 0-0.50271z" class="g93_1" display="block" fill="#fec861"/>
    <path d="m-38.193 254.8c0.44979-0.0265 0.89958 0 1.3494 0h0.13229c0 0.0794 0 0.13229-0.02646 0.21167 0.02646 0.1852-0.10583 0.3175-0.07937 0.5027h-1.5081c0.02646-0.23812 0.15875-0.47625 0.13229-0.71437z" class="g94_1" display="block" fill="#fed284"/>
    <path d="m-36.711 254.8h0.44979c0 0.23812-0.02646 0.50271-0.10583 0.71437h-0.44979c-0.02646-0.1852 0.10583-0.3175 0.07937-0.5027 0.02646-0.0794 0.02646-0.1323 0.02646-0.21167z" class="g95_1" display="block" fill="#ffdd9f"/>
    <path d="m-36.261 254.8h0.47625c-0.02646 0.23812-0.10583 0.47625-0.15875 0.71437h-0.42333c0.07937-0.21166 0.10583-0.47625 0.10583-0.71437z" class="g96_1" display="block" fill="#fee2b0"/>
    <path d="m-35.785 254.8h0.44979c-0.15875 0.21167-0.05292 0.52917-0.21167 0.71437h-0.39688c0.05292-0.23812 0.13229-0.47625 0.15875-0.71437z" class="g97_1" display="block" fill="#fee9c1"/>
    <path d="m-35.335 254.8h0.58208c0 0.23812-0.07937 0.47625-0.07937 0.71437h-0.71438c0.15875-0.1852 0.05292-0.5027 0.21167-0.71437z" class="g98_1" display="block" fill="#fef5dd"/>
    <path d="m-34.753 254.8c0.15875-0.0265 0.34396 0 0.50271 0-0.02646 0.23812-0.07937 0.47625-0.13229 0.71437h-0.44979c0-0.23812 0.07937-0.47625 0.07937-0.71437z" class="g99_1" display="block" fill="#fefcf9"/>
    <path d="m-34.25 254.8h0.26458c-0.02646 0.23812-0.05292 0.47625-0.10583 0.71437h-0.29104c0.05292-0.23812 0.10583-0.47625 0.13229-0.71437z" class="g100_1" display="block" fill="#fef6e5"/>
    <path d="m-33.986 254.8h0.34396c-0.05292 0.23812-0.07937 0.47625-0.13229 0.71437h-0.3175c0.05292-0.23812 0.07937-0.47625 0.10583-0.71437z" class="g101_1" display="block" fill="#feeecd"/>
    <path d="m-33.642 254.8h0.37042c0.02646 0.23812-0.05292 0.47625-0.10583 0.71437h-0.39688c0.05292-0.23812 0.07937-0.47625 0.13229-0.71437z" class="g102_1" display="block" fill="#fee6b9"/>
    <path d="m-33.271 254.8c0.15875-0.0265 0.3175-0.0265 0.44979-0.0265 0.07937 0.26458-0.05292 0.50271-0.02646 0.74083h-0.52917c0.05292-0.23812 0.13229-0.47625 0.10583-0.71437z" class="g103_1" display="block" fill="#ffdda2"/>
    <path d="m-32.822 254.77h0.635c-0.05292 0.26458-0.15875 0.50271-0.15875 0.74083h-0.50271c-0.02646-0.23812 0.10583-0.47625 0.02646-0.74083z" class="g104_1" display="block" fill="#fed78d"/>
    <path d="m-32.187 254.77h0.52917c0.05292 0.26458-0.02646 0.50271-0.07937 0.74083h-0.60854c0-0.23812 0.10583-0.47625 0.15875-0.74083z" class="g105_1" display="block" fill="#fecf7a"/>
    <path d="m-31.657 254.77h0.66146c-0.02646 0.26458-0.05292 0.50271-0.07937 0.74083h-0.66146c0.05292-0.23812 0.13229-0.47625 0.07937-0.74083z" class="g62_1" display="block" fill="#fecb66"/>
    <path d="m-30.996 254.77h0.60854c-0.02646 0.26458-0.13229 0.50271-0.18521 0.74083h-0.50271c0.02646-0.23812 0.05292-0.47625 0.07937-0.74083z" class="g106_1" display="block" fill="#fec65b"/>
    <path d="m-30.387 254.77h0.635c0.02646 0.0529 0.05292 0.10583 0.10583 0.15875-0.05292 0.0529-0.10583 0.13229-0.15875 0.18521 0.02646 0.13229 0.05292 0.26458 0.05292 0.39687h-0.82021c0.05292-0.23812 0.15875-0.47625 0.18521-0.74083z" class="g107_1" display="block" fill="#fec24a"/>
    <path d="m-29.752 254.77h1.27c0 0.15875 0.02646 0.29104 0.02646 0.42333h-0.15875c0 0.15875 0.15875 0.23813 0.29104 0.3175h-1.4288c0-0.13229-0.02646-0.26458-0.05292-0.39687 0.05292-0.0529 0.10583-0.13229 0.15875-0.18521-0.05292-0.0529-0.07937-0.10583-0.10583-0.15875z" class="g108_1" display="block" fill="#febf3e"/>
    <path d="m-28.482 254.77h1.1112v3.3073c-0.02646 0.79375 0 1.614-0.02646 2.4342-0.02646 0.74083 0.02646 1.5081-0.02646 2.249 0 1.7198-0.02646 3.466-0.02646 5.1858-0.05292 1.4023-0.05292 2.7781-0.13229 4.1804-0.10583 2.1167-0.97896 4.154-2.3019 5.7679-0.635 0.79375-1.3758 1.4552-2.1431 2.0902-0.10583-0.0265-0.21167-0.0529-0.3175-0.0529-0.05292-0.21167 0.07938-0.4498-0.07937-0.635 1.3229-1.0319 2.5135-2.3019 3.2808-3.81 0.34396-0.66146 0.58208-1.4023 0.74083-2.1431 0.10583-0.60854 0.18521-1.2171 0.15875-1.8521v-5.6356c-0.02646-1.2435 0-2.4871 0-3.7306v-6.5617-0.0529h-0.07937c-0.13229-0.0794-0.29104-0.15875-0.29104-0.3175h0.15875c0-0.13229-0.02646-0.26458-0.02646-0.42333z" class="g109_1" display="block" fill="#fcbb2f"/>
    <path d="m-50.654 255.51h7.5142 3.175 1.6404 1.5081 0.44979 0.42333 0.39688c0.23812 0 0.47625 0.0265 0.71438 0.0265 0.15875-0.0265 0.29104-0.0265 0.44979-0.0265h0.29104 0.3175 0.39688 0.52917 0.50271 0.60854 0.66146 0.50271 0.82021 1.4288 0.07937v0.0529c-2.9633 0-5.9267-0.0265-8.89-0.0265-4.4979 0.0265-8.9958 0-13.467 0.0265 0 1.7727-0.02646 3.5719-0.02646 5.3446 0 0.39688 0.02646 0.82021-0.02646 1.2171-0.05292-2.196 0.02646-4.3921 0-6.6146z" class="g110_1" display="block" fill="#625a4f"/>
    <path d="m-50.602 255.56c4.4715-0.0265 8.9694 0 13.467-0.0265 2.9633 0 5.9267 0.0265 8.89 0.0265v6.5617h-22.41c0.05292-0.39688 0.02646-0.82021 0.02646-1.2171 0-1.7727 0.02646-3.5719 0.02646-5.3446z" class="g59_1" display="block" fill="#0d0e23"/>
    <g fill="#f7ee23">
     <path d="m-47.374 256.38c-0.02646-0.10583 0.15875-0.10583 0.21167-0.0265 0.10583 0.21167 0.23812 0.44979 0.37042 0.66146 0.13229-0.23813 0.23812-0.55563 0.52917-0.66146 0.3175-0.0529 0.55562 0.26458 0.66146 0.52917 0.05292 0.0529 0.02646 0.18521 0.13229 0.18521 0.13229-0.21167 0.23812-0.4498 0.39688-0.635 0.05292-0.10584 0.21167 0 0.18521 0.10583-0.15875 0.3175-0.34396 0.635-0.50271 0.9525v0.10583c0.52917-0.10583 1.0319-0.21166 1.561-0.21166 0.23812 0 0.47625 0 0.635 0.15875 0.07938 0.10583 0.02646 0.23812-0.05292 0.3175-0.23812 0.26458-0.55562 0.42333-0.87312 0.58208 0.29104 0.18521 0.66146 0.34396 0.82021 0.68792 0.05292 0.13229-0.07938 0.26458-0.23812 0.29104-0.58208 0.15875-1.1906 0-1.7727-0.0265 0 0.0794-0.02646 0.18521 0.02646 0.26458 0.15875 0.3175 0.37042 0.635 0.52917 0.9525 0.05292 0.10584-0.10583 0.21167-0.18521 0.15875-0.18521-0.23812-0.26458-0.52916-0.47625-0.74083-0.07937 0.34396-0.18521 0.71437-0.42333 0.97896-0.15875 0.18521-0.44979 0.21166-0.635 0.0265-0.23812-0.23813-0.3175-0.58209-0.44979-0.89959-0.13229 0.23813-0.26458 0.47625-0.39688 0.68792-0.10583 0.10583-0.29104-0.0265-0.21167-0.13229 0.18521-0.3175 0.37042-0.635 0.52917-0.9525 0-0.10584 0-0.18521-0.02646-0.29104-0.39688 0.0794-0.79375 0.15875-1.2171 0.1852-0.26458 0-0.55562 0.0265-0.79375-0.13229-0.13229-0.0529-0.10583-0.21166-0.02646-0.29104 0.26458-0.34396 0.66146-0.50271 1.0054-0.71437-0.34396-0.18521-0.74083-0.34396-0.9525-0.68792-0.13229-0.18521 0.07938-0.34396 0.26458-0.37042 0.58208-0.13229 1.2171-0.0265 1.8256 0.0794 0-0.0529 0-0.10584 0.02646-0.15875-0.13229-0.29104-0.37042-0.55563-0.47625-0.87313v-0.10583z" class="g56_1" display="block"/>
     <path d="m-39.463 256.31c0.10583-0.0265 0.23812 0.0794 0.23812 0.18521 0.02646 0.13229 0.05292 0.23813 0.02646 0.37042-0.07937 0.37042 0.02646 0.76729-0.02646 1.1377-0.02646 0.13229-0.18521 0.13229-0.29104 0.13229-0.02646-0.10583-0.07938-0.21167-0.05292-0.3175 0.05292-0.18521-0.05292-0.37042-0.02646-0.55563 0-0.3175-0.07937-0.68791 0.13229-0.9525z" class="g56_1" display="block"/>
     <path d="m-33.827 256.49c-0.05292-0.10583 0.13229-0.23812 0.21167-0.15875 0.13229 0.23813 0.26458 0.47625 0.39688 0.68792 0.10583-0.23813 0.21167-0.47625 0.44979-0.60854 0.15875-0.10584 0.34396-0.0529 0.47625 0.0794 0.15875 0.15875 0.26458 0.39688 0.34396 0.635 0.15875-0.21166 0.26458-0.44979 0.42333-0.68791 0.05292-0.0794 0.26458 0 0.21167 0.10583-0.10583 0.21167-0.23812 0.42333-0.34396 0.60854-0.05292 0.15875-0.18521 0.26458-0.18521 0.44979 0.47625-0.0794 0.9525-0.21166 1.4552-0.21166 0.23812 0.0265 0.52917-0.0265 0.76729 0.13229 0.13229 0.13229 0 0.29104-0.10583 0.39687-0.23812 0.21167-0.50271 0.39688-0.79375 0.52917 0.26458 0.21167 0.635 0.34396 0.79375 0.66146 0.07937 0.21166-0.15875 0.3175-0.3175 0.34396-0.55562 0.10583-1.1377 0.0265-1.6933-0.0794 0 0.0529-0.02646 0.15875-0.02646 0.21167 0.18521 0.37041 0.42333 0.71437 0.60854 1.1112-0.05292 0.0529-0.15875 0.15875-0.23812 0.0529-0.15875-0.23812-0.29104-0.5027-0.42333-0.74083-0.10583 0.37042-0.21167 0.76729-0.47625 1.0319-0.15875 0.15875-0.42333 0.1852-0.58208 0.0265-0.26458-0.23812-0.37042-0.60854-0.44979-0.92604-0.15875 0.21167-0.26458 0.44979-0.42333 0.68792-0.05292 0.13229-0.29104-0.0265-0.18521-0.15875 0.15875-0.29104 0.34396-0.60854 0.52917-0.92604-0.02646-0.0794-0.02646-0.18521-0.05292-0.29104-0.52917 0.10583-1.0848 0.21166-1.6404 0.1852-0.15875-0.0265-0.34396-0.0529-0.44979-0.1852-0.05292-0.15875 0.07937-0.3175 0.21167-0.39688 0.23812-0.23812 0.55562-0.39687 0.84667-0.55562-0.34396-0.18521-0.71438-0.34396-0.9525-0.68792-0.07937-0.13229 0-0.3175 0.15875-0.34396 0.29104-0.10583 0.635-0.10583 0.92604-0.0794 0.34396 0.0265 0.66146 0.0529 0.97896 0.13229 0-0.0265 0.05292-0.13229 0.05292-0.15875-0.15875-0.29104-0.34396-0.58209-0.50271-0.87313z" class="g56_1" display="block"/>
    </g>
    <path d="m-47.4 256.38h0.02646v0.10583h-0.05292l-0.02646-0.0529z" class="g111_1" display="block" fill="#928d4b"/>
    <path d="m-40.098 257.07c0-0.21167 0.02646-0.4498 0.23812-0.55563l0.05292 0.0265c0 0.0265 0.02646 0.10583 0.05292 0.13229 0.05292 0.42333 0 0.87313 0.02646 1.3229 0.02646 0.18521-0.15875 0.18521-0.26458 0.21166-0.18521-0.34395-0.10583-0.76729-0.10583-1.1377z" class="g60_1" display="block" fill="#f7ee24"/>
    <path d="m-39.807 256.54 0.05292 0.0265 0.02646 0.0529-0.02646 0.0529c-0.02646-0.0265-0.05292-0.10583-0.05292-0.13229z" class="g112_1" display="block" fill="#9a9548"/>
    <path d="m-39.039 256.83c0-0.13229 0.05292-0.29104 0.21167-0.29104 0.10583 0.0529 0.07937 0.15875 0.07937 0.23812 0.02646 0.34396-0.02646 0.71438 0 1.0583 0 0.10583-0.02646 0.21166-0.07937 0.29104-0.05292 0-0.18521 0.0265-0.18521-0.0794-0.05292-0.39687-0.05292-0.8202-0.02646-1.2171z" class="g60_1" display="block" fill="#f7ee24"/>
    <path d="m-46.236 256.7c0.15875-0.0794 0.29104 0.0529 0.37042 0.15875 0.10583 0.13229 0.13229 0.29104 0.15875 0.44979h-0.9525c0.07937-0.23812 0.15875-0.52917 0.42333-0.60854z" class="g59_1" display="block" fill="#0d0e23"/>
    <path d="m-33.086 257.31c0.05292-0.29104 0.21167-0.635 0.55562-0.635 0.26458 0.0794 0.37042 0.39688 0.39688 0.635h-0.9525z" class="g86_1" display="block" fill="#0c0e21"/>
    <path d="m-40.362 256.91c0.02646 0 0.05292 0.0265 0.07938 0.0529 0.13229 0.42334 0.05292 0.87313 0 1.3229-0.07938 0.0265-0.15875 0.0529-0.21167 0.10583 0.05292 0.0794 0.15875 0.21167 0.29104 0.18521 0.21167-0.0265 0.42333-0.10583 0.635-0.0794 0.29104-0.0265 0.635-0.15875 0.87312 0.0529-0.05292 0.0529-0.07937 0.0794-0.13229 0.13229-0.29104 0.0794-0.58208 0.10584-0.82021 0.26459-0.02646 0.29104-0.07937 0.58208 0.02646 0.84666 0.15875 0.0265 0.10583-0.13229 0.10583-0.21166 0-0.15875-0.02646-0.34396 0.05292-0.47625 0.26458-0.21167 0.66146-0.18521 0.9525-0.34396 0.05292-0.3175-0.13229-0.68792 0.10583-0.92604 0.18521 0.0529 0.15875 0.34396 0.39688 0.3175-0.07938 0.47625-0.05292 0.9525-0.05292 1.4023-0.10583 0.3175-0.3175 0.635-0.635 0.71437-0.10583 0-0.18521 0.0794-0.23812 0.15875 0.05292 0.0265 0.10583 0.0529 0.15875 0.0794 0.05292 0.21167 0.07937 0.42333-0.05292 0.60854-0.18521 0-0.34396 0.0529-0.52917 0.0794-0.23812-0.0529-0.50271-0.10584-0.76729-0.0529 0-0.21167 0-0.44979-0.05292-0.68792-0.10583-0.0794-0.21167-0.18521-0.3175-0.26458-0.10583-0.44979-0.15875-0.89958-0.13229-1.3758 0-0.50271 0.07938-1.0054 0.10583-1.5081 0.02646-0.15875 0.07937-0.29104 0.15875-0.39687z" class="g56_1" display="block" fill="#f7ee23"/>
    <g fill="#0d0e23">
     <path d="m-46.897 259.43c0.26458-0.0529 0.52917-0.13229 0.82021-0.21167 0.21167 0.0265 0.42333 0.10583 0.635 0.13229v0.21167c-0.26458 0.0265-0.50271 0.0794-0.76729 0.10583-0.21167 0-0.44979-0.0529-0.66146-0.0529 0-0.0794-0.02646-0.1323-0.02646-0.18521z" class="g59_1" display="block"/>
     <path d="m-33.324 259.43c0.26458-0.0529 0.55562-0.15875 0.84667-0.21167 0.21167 0.0265 0.39688 0.10583 0.60854 0.13229v0.21167c-0.34396 0.0529-0.68792 0.15875-1.0054 0.0794-0.15875-0.0265-0.29104-0.0265-0.42333-0.0265 0-0.0529-0.02646-0.1323-0.02646-0.18521z" class="g59_1" display="block"/>
     <path d="m-33.245 259.88c0.18521 0.0529 0.39688 0.0794 0.58208 0.10583 0.23812-0.0265 0.47625-0.0794 0.71438-0.10583-0.02646 0.15875-0.02646 0.39687-0.15875 0.52917-0.3175 0.0529-0.68792 0.0529-1.0054 0-0.07937-0.18521-0.10583-0.34396-0.13229-0.52917z" class="g59_1" display="block"/>
     <path d="m-46.844 259.88c0.44979 0.13229 0.89958 0.10583 1.3494 0-0.05292 0.18521-0.07937 0.37042-0.15875 0.52917-0.34396 0.0529-0.68792 0.0529-1.0319 0-0.05292-0.18521-0.10583-0.34396-0.15875-0.52917z" class="g59_1" display="block"/>
    </g>
    <path d="m-46.553 260.7c-0.15875-0.0794 0.15875-0.15875 0.10583-0.0265-0.02646 0-0.07937 0.0265-0.10583 0.0265z" class="g113_1" display="block" fill="#8c8948"/>
    <path d="m-32.98 260.72c-0.13229-0.0794 0.13229-0.18521 0.13229-0.0529-0.05292 0.0265-0.10583 0.0529-0.13229 0.0529z" class="g114_1" display="block" fill="#767949"/>
    <path d="m-32.292 260.64c0.02646 0 0.07937-0.0265 0.10583-0.0265v0.0529h-0.10583z" class="g115_1" display="block" fill="#a69d4b"/>
    <path d="m-46.553 260.7c0.02646 0 0.07938-0.0265 0.10583-0.0265 0.02646 0 0.10583 0.0265 0.13229 0.0265 0.10583 0.0794 0.23812 0.0794 0.34396 0 0.05292 0 0.15875-0.0529 0.21167-0.0529-0.02646 0.0794-0.05292 0.13229-0.10583 0.21167-0.15875 0.13229-0.37042 0.0794-0.55562 0.0529-0.05292-0.0794-0.10583-0.13229-0.13229-0.21166z" class="g116_1" display="block" fill="#0d0e22"/>
    <path d="m-46.315 260.7c0.10583-0.0529 0.23812-0.0529 0.34396 0-0.10583 0.0794-0.23812 0.0794-0.34396 0z" class="g117_1" display="block" fill="#414c44"/>
    <path d="m-32.98 260.72c0.02646 0 0.07938-0.0265 0.13229-0.0529l0.07937 0.0265c0.10583 0.0794 0.23812 0.0794 0.34396 0 0.02646 0 0.10583-0.0265 0.13229-0.0265h0.10583c-0.02646 0.0265-0.05292 0.0794-0.05292 0.10583-0.18521 0.18521-0.52917 0.21167-0.68792 0z" class="g118_1" display="block" fill="#0d0f25"/>
    <path d="m-32.769 260.7c0.10583-0.0529 0.23812-0.0529 0.34396 0-0.10583 0.0794-0.23812 0.0794-0.34396 0z" class="g119_1" display="block" fill="#414c45"/>
    <path d="m-32.927 260.78c0.15875 0.21167 0.50271 0.18521 0.68792 0-0.05292 0.0794-0.10583 0.13229-0.13229 0.18521-0.21167 0-0.47625 0.0529-0.55562-0.18521z" class="g120_1" display="block" fill="#3a413a"/>
    <path d="m-46.421 260.91c0.18521 0.0265 0.39688 0.0794 0.55562-0.0529-0.02646 0.0265-0.07937 0.0794-0.10583 0.10583-0.15875 0-0.34396 0.0529-0.44979-0.0529z" class="g121_1" display="block" fill="#50583e"/>
    <path d="m-50.654 262.13h22.41c0 1.2435-0.02646 2.4871 0 3.7306v5.6356c0.02646 0.635-0.05292 1.2435-0.15875 1.8521-0.21167 0.0265-0.44979 0-0.66146 0v-1.7198h-1.614v-1.4552h-1.5346v-1.6933h-1.4023v-1.5081h-1.4817v-1.3229h-1.5875c0-0.55563-0.02646-1.1112-0.02646-1.6669-0.55562 0-1.1112 0-1.6669-0.0265-0.3175-0.42333-0.66146-0.84666-0.97896-1.27-0.29104 0.42334-0.55562 0.84667-0.84667 1.27-0.58208 0.0265-1.1906 0-1.7727 0.0265v1.561l-0.02646 0.0265c-0.60854 0.0265-1.2435 0-1.8521 0v1.5081h-1.614v1.4552h-1.614v1.6404h-1.614v1.3758h-1.1642c0 0.50271 0.02646 0.97896 0 1.4552h-0.60854c-0.15875-0.87312-0.13229-1.7992-0.15875-2.6723 0-1.6404-0.02646-3.2544 0-4.8948-0.02646-1.0848 0-2.196-0.02646-3.3073z" class="g56_1" display="block" fill="#f7ee23"/>
    <path d="m-40.203 263.95c0.29104-0.42333 0.55562-0.84666 0.84667-1.27 0.3175 0.42334 0.66146 0.84667 0.97896 1.27 0.55562 0.0265 1.1112 0.0265 1.6669 0.0265 0 0.55563 0.02646 1.1112 0.02646 1.6669h1.5875v1.3229h1.4817v1.5081h1.4023v1.6933h1.5346v1.4552h1.614v1.7198h0.66146c-0.15875 0.74083-0.39688 1.4817-0.74083 2.1431h-1.2965v-1.8521h-1.9579v-1.6404h-1.5875v-1.561h-1.5875v-1.561h-1.5081c-0.02646-0.52916-0.02646-1.0583-0.02646-1.5875h-1.4552c0.02646-0.52916 0.02646-1.0583 0-1.5875-0.58208 0.0265-1.1642 0-1.7727 0v1.5081c-0.52917 0.0265-1.0848 0-1.614 0.0265v1.614h-1.6669v1.561c-0.52917 0.0264-1.0848 0-1.614 0v1.6404h-1.6933c0 0.52917-0.02646 1.0848 0 1.614-0.50271 0.0265-1.0054 0-1.5346 0 0.02646 0.52917 0 1.0583 0.02646 1.5875-0.44979 0.0265-0.89958 0-1.3229 0-0.34396-0.68792-0.55562-1.4288-0.71438-2.196h0.60854v-0.0529c0.02646-0.47625 0-0.9525 0-1.4552h1.1642v-1.3758h1.614v-1.6404h1.614v-1.4552h1.614v-1.5081c0.60854 0 1.2435 0.0265 1.8521 0l0.02646-0.0265v-1.561c0.58208-0.0265 1.1906 0 1.7727-0.0265z" class="g84_1" display="block" fill="#690b3a"/>
    <path d="m-31.763 264.82c0.37042-0.58209 0.71438-1.2171 1.1112-1.7992 0.39688 0.66146 0.79375 1.2965 1.1906 1.9579-0.39688 0.74083-0.79375 1.5081-1.1906 2.2754-0.39688-0.71437-0.76729-1.4552-1.1642-2.196-0.07937-0.0794 0.02646-0.15875 0.05292-0.23812z" class="g59_1" display="block" fill="#0d0e23"/>
    <path d="m-49.014 265.12c0.39688-0.66146 0.79375-1.3229 1.2171-1.9844 0.37042 0.66146 0.76729 1.3229 1.1642 1.9579-0.37042 0.76729-0.76729 1.5346-1.1642 2.2754-0.42333-0.74084-0.82021-1.5081-1.2171-2.249z" class="g59_1" display="block" fill="#0d0e23"/>
    <path d="m-40.336 265.7c0.60854 0 1.1906 0.0265 1.7727 0 0.02646 0.52917 0.02646 1.0583 0 1.5875h1.4552c0 0.52917 0 1.0583 0.02646 1.5875h1.5081v1.561h1.5875v1.561h1.5875v1.6404h1.9579v1.8521h1.2965c-0.76729 1.5081-1.9579 2.7781-3.2808 3.81-0.39688 0.3175-0.84667 0.635-1.2965 0.92604-0.47625 0.3175-0.97896 0.60854-1.5081 0.87312-0.47625 0.26459-0.97896 0.47625-1.5081 0.71438-0.37042 0.18521-0.76729 0.3175-1.1377 0.44979-0.10583 0.0529-0.21167 0.0794-0.3175 0.13229-0.15875 0.0529-0.3175 0.10583-0.47625 0.15875-0.15875 0.0529-0.3175 0.10583-0.47625 0.15875-0.18521 0.0529-0.37042 0.10583-0.55562 0.0265-0.10583-0.0529-0.23812-0.0794-0.34396-0.13229-0.18521-0.0529-0.37042-0.10584-0.52917-0.15875-0.15875-0.0529-0.29104-0.10584-0.44979-0.15875-0.34396-0.15875-0.68792-0.29104-1.0319-0.42334-0.18521-0.0794-0.37042-0.15875-0.55562-0.23812-0.18521-0.10583-0.37042-0.18521-0.55562-0.29104-0.29104-0.13229-0.55562-0.26459-0.82021-0.39688-0.23812-0.15875-0.50271-0.3175-0.76729-0.47625-0.79375-0.47625-1.5346-1.0319-2.249-1.614-1.1377-1.0054-2.1167-2.196-2.7517-3.5983 0.42333 0 0.87312 0.0265 1.3229 0-0.02646-0.52917 0-1.0583-0.02646-1.5875 0.52917 0 1.0319 0.0265 1.5346 0-0.02646-0.52917 0-1.0848 0-1.614h1.6933v-1.6404c0.52917 0 1.0848 0.0264 1.614 0v-1.561h1.6669v-1.614c0.52917-0.0265 1.0848 0 1.614-0.0265v-1.5081z" class="g56_1" display="block" fill="#f7ee23"/>
    <path d="m-57.56 269.53c0.34396-0.23812 0.79375-0.39687 1.1906-0.23812 0.58208 0.21166 1.0583 0.68791 1.3758 1.2171 0.29104 0.52917 0.15875 1.1642 0.05292 1.7462-0.10583 0.50271-0.05292 1.0319-0.02646 1.561 0.66146 0.13229 1.3494 0.15875 1.9315 0.55563 0.44979 0.29104 0.97896 0.68791 0.9525 1.2964 0.02646 0.71438-0.05292 1.4552-0.21167 2.1431v0.0529c1.0319 0.42333 2.0108 0.9525 2.884 1.6404 0.84667 0.68792 1.6933 1.3758 2.5665 2.0373 1.561 1.1377 3.2015 2.2225 5.0006 2.9898 0.97896 0.39687 2.0373 0.71437 3.0956 0.55562s2.0638-0.55562 3.0162-1.0054c1.2171-0.58208 2.4077-1.27 3.519-2.0373 0.89958-0.60854 1.6933-1.3494 2.54-2.0108 0.92604-0.71438 1.8785-1.4288 2.9369-2.0108-0.18521-0.79375-0.29104-1.5875-0.26458-2.4077 0.07938-0.55563 0.58208-0.89959 1.0319-1.1642 0.55562-0.39687 1.2435-0.39687 1.8785-0.55562 0-0.50271 0.07937-1.0054-0.02646-1.4817-0.07937-0.58208-0.26458-1.2171 0.02646-1.7727 0.29104-0.52917 0.76729-0.97896 1.3229-1.2171 0.37042-0.15875 0.82021-0.0794 1.1642 0.13229 0.47625 0.29104 0.87312 0.74083 1.1112 1.27 0.18521 0.50271 0.10583 1.0583 0.07938 1.5875 0.18521 0.89958 0.3175 1.8785 0.10583 2.7781-0.15875 0.635-0.39688 1.27-0.68792 1.8521-0.05292 0.10583-0.05292 0.21166 0 0.3175 0.26458 0.58208 0.29104 1.27 0.15875 1.905-0.13229 0.68791-0.34396 1.3494-0.68792 1.9579-0.10583 0.21167-0.23812 0.42334-0.47625 0.50271-0.29104 0.13229-0.635 0.15875-0.97896 0.21167-0.76729 0.13229-1.5875 0.3175-2.249 0.76729-1.614 1.0319-3.1485 2.1696-4.6038 3.4131-0.55562 0.47625-1.1112 1.0054-1.7462 1.4288-1.6933 1.1906-3.7042 1.8785-5.7415 2.1167-1.1377 0.15875-2.3283 0.21167-3.466 0.0529-2.1167-0.23813-4.154-1.0319-6.006-2.0902-1.0848-0.60854-2.1167-1.2965-3.0956-2.0638-0.66146-0.52917-1.3229-1.0848-2.0373-1.561-0.9525-0.66146-1.9315-1.2435-2.9633-1.7462-0.55562-0.26458-1.1112-0.47625-1.6933-0.635-0.34396-0.0794-0.74083-0.15875-1.0054-0.39688-0.26458-0.23812-0.39688-0.58208-0.50271-0.89958-0.23812-0.89958-0.44979-1.8256-0.37042-2.7252 0.05292-0.3175 0.18521-0.60854 0.26458-0.89958-0.26458-0.635-0.52917-1.27-0.635-1.9315-0.10583-0.82021 0-1.6404 0.15875-2.4077 0-0.52916-0.07937-1.0848 0.07937-1.5875 0.21167-0.50271 0.58208-0.9525 1.0319-1.2435z" class="g90_1" display="block" fill="#fcbb2c"/>
    <g fill="#0d0e23">
     <path d="m-57.004 269.67c0.37042-0.13229 0.74083 0.0794 1.0319 0.3175 0.3175 0.26459 0.60854 0.55563 0.74083 0.9525 0.05292 0.29104 0.02646 0.60854-0.02646 0.92604-0.635 0-1.3494 0.0529-1.7992 0.55563-0.18521 0.18521-0.34396 0.37042-0.47625 0.60854-0.26458-0.21167-0.50271-0.39687-0.71438-0.635-0.05292-0.50271-0.13229-1.0583 0.05292-1.561 0.26458-0.50271 0.66146-0.9525 1.1906-1.1642z" class="g59_1" display="block"/>
     <path d="m-23.244 270.2c0.23812-0.23813 0.55562-0.47625 0.92604-0.47625 0.39688 0.0265 0.71438 0.29104 0.97896 0.55562 0.29104 0.29105 0.55562 0.66146 0.58208 1.0848 0 0.39687 0 0.76729-0.05292 1.1642-0.23812 0.18521-0.47625 0.39688-0.71438 0.58209-0.18521-0.3175-0.47625-0.55563-0.74083-0.82021-0.44979-0.29104-1.0319-0.3175-1.561-0.34396-0.02646-0.29104-0.07937-0.58208-0.02646-0.87313 0.07938-0.34395 0.34396-0.635 0.60854-0.87312z" class="g59_1" display="block"/>
     <path d="m-37.716 269.98c0.13229-0.0529 0.26458 0 0.37042 0.0529-0.10583 0.23812 0.02646 0.47625 0.15875 0.66146s0.13229 0.42333 0.02646 0.58208c-0.13229 0.21167-0.15875 0.44979-0.23812 0.68792-0.07938 0.21166-0.02646 0.44979-0.02646 0.68791-0.07937-0.0265-0.15875-0.0529-0.23812-0.0794-0.07937 0.15875 0.02646 0.34396 0.05292 0.50271-0.07937 0.0265-0.15875 0.0265-0.23812 0.0529 0.02646 0.1323 0.05292 0.29105 0 0.42334-0.29104 0.0265-0.34396-0.3175-0.50271-0.47625-0.18521 0.13229-0.3175 0.34396-0.55562 0.37041 0-0.15875 0.02646-0.3175-0.07938-0.44979-0.21167 0.10584-0.39688 0.29104-0.635 0.26459 0.05292-0.15875 0.10583-0.3175 0.15875-0.4498-0.18521-0.26458-0.42333 0.15875-0.635-0.0265 0.07937-0.23813 0.23812-0.42334 0.42333-0.60855 0.23812-0.13229 0.52917-0.21166 0.79375-0.26458 0.21167-0.0265 0.44979-0.21167 0.39688-0.44979-0.07937-0.0529-0.13229 0.0794-0.15875 0.13229-0.07937 0.13229-0.26458 0.26458-0.42333 0.21167-0.07937-0.0529-0.15875-0.0794-0.23812-0.13229 0.13229-0.0529 0.26458-0.0529 0.34396-0.15875 0.07937-0.10584 0.02646-0.21167 0-0.3175-0.02646-0.10584 0-0.23813-0.10583-0.3175-0.18521 0.0529-0.37042 0.15875-0.55562 0.10583-0.18521-0.0265-0.13229-0.26458-0.15875-0.39688 0.13229-0.0794 0.26458-0.15875 0.42333-0.21166 0.21167-0.0265 0.29104 0.21166 0.47625 0.23812 0.15875-0.0794 0.29104-0.18521 0.44979-0.23812-0.05292-0.0529-0.10583-0.15875-0.21167-0.13229-0.13229 0.0264-0.29104 0.0794-0.42333 0.0264 0.02646-0.10583 0.15875-0.21166 0.29104-0.1852 0.37042 0.0794 0.71438 0 1.0583-0.10584z" class="g59_1" display="block"/>
     <path d="m-42.029 270.46c-0.02646-0.23812 0.23812-0.29104 0.42333-0.26458 0.21167 0.0265 0.47625 0.13229 0.55562 0.37042 0.13229 0.3175 0.02646 0.66145-0.07937 0.9525-0.07938 0.39687 0.10583 0.79375 0.29104 1.1377 0.07937 0.1323-0.02646 0.29105-0.10583 0.42334-0.10583 0.15875-0.13229 0.34396-0.18521 0.50271 0.15875 0.15875 0.39688 0.0794 0.60854 0.0794v0.26458c0.13229 0 0.26458-0.0265 0.39688-0.0794 0.10583-0.0529 0.21167 0.0265 0.21167 0.13229 0 0.15875 0.07937 0.3175 0.15875 0.44979 0.18521-0.0529 0.23812-0.3175 0.44979-0.3175 0.18521 0.15875 0.29104 0.44979 0.55562 0.52917 0.02646-0.13229 0.05292-0.29104 0.13229-0.42333 0.07938 0.0264 0.15875 0.0794 0.26458 0.13229 0.02646 0.18521-0.02646 0.34396-0.07937 0.50271-0.05292 0.39687-0.07938 0.76729 0 1.1642 0.07937 0.39688 0.39688 0.68792 0.635 1.0054 0.18521 0.21167 0.23812 0.52917 0.47625 0.68792 0.29104 0.0265 0.635-0.0265 0.82021-0.3175 0.15875-0.26459 0.07937-0.635-0.07937-0.89959-0.18521-0.21166-0.50271-0.0529-0.71438-0.15875-0.15875-0.0529-0.39688-0.10583-0.42333-0.3175 0.21167 0.0265 0.44979 0.15875 0.635 0-0.26458-0.23812-0.71438-0.37041-0.76729-0.76729 0.21167 0.13229 0.44979 0.23813 0.68792 0.18521-0.15875-0.29104-0.50271-0.52917-0.50271-0.89958 0.10583 0.0794 0.21167 0.15875 0.34396 0.15875 0.05292-0.26459 0.07937-0.55563 0.10583-0.82021 0.05292-0.18521 0.15875-0.39688 0.18521-0.58209 0.18521-0.3175 0.23812-0.66145 0.50271-0.92604 0.13229-0.15875 0.3175-0.29104 0.52917-0.37041 0.15875-0.0794 0.3175-0.0529 0.50271-0.0794 0.34396 0.13229 0.39688 0.58208 0.44979 0.89958 0 0.79375-0.44979 1.4817-0.66146 2.2225-0.13229-0.10583-0.10583-0.29104-0.13229-0.44979-0.05292-0.0794-0.15875-0.0265-0.23812-0.0265-0.05292-0.39687 0.29104-0.66145 0.42333-1.0054-0.15875-0.0265-0.29104 0.0265-0.39688 0.13229-0.02646-0.0265-0.05292-0.0529-0.07937-0.0529 0.10583-0.26458 0.34396-0.42333 0.55562-0.58208 0.18521-0.15875 0.26458-0.50271 0.07937-0.68792-0.13229-0.0794-0.26458-0.18521-0.42333-0.13229-0.55562 0.21167-0.84667 0.79375-0.97896 1.3494-0.18521 0.47625-0.15875 1.0054-0.05292 1.5081 0.15875 0.66146 0.79375 1.1906 0.79375 1.905-0.02646 0.42333-0.21167 0.87313-0.60854 1.0848-0.15875 0.13229-0.42333 0.0265-0.58208 0.15875-0.13229 0.26459-0.21167 0.58209-0.13229 0.84667 0.13229 0.13229 0.37042 0.10583 0.47625 0.23812 0.02646 0.21167 0.10583 0.42334 0.05292 0.635-0.13229 0.10584-0.23812-0.0529-0.37042-0.0529-0.10583 0.26458 0.05292 0.52916 0.13229 0.79375-0.13229 0.0265-0.23812-0.0265-0.34396 0.0265-0.07938 0.23812 0.05292 0.47625 0.10583 0.71437-0.13229 0.0794-0.26458-0.0529-0.39688-0.0265-0.13229 0.18521 0.02646 0.39688-0.02646 0.58209-0.18521 0.0794-0.42333-0.10584-0.58208 0.0529-0.21167 0.23813-0.55562 0.3175-0.87312 0.23813-0.02646-0.23813 0.23812-0.26459 0.29104-0.44979-0.21167-0.0265-0.3175 0.13229-0.50271 0.1852-0.10583 0-0.26458-0.0529-0.23812-0.1852 0.05292-0.15875 0.18521-0.26459 0.34396-0.26459 0.07938-0.0529 0.21167 0 0.29104-0.0794-0.10583-0.0265-0.18521-0.0265-0.29104-0.0794-0.15875 0.0529-0.34396 0.13229-0.52917 0.0529-0.02646-0.23813 0.26458-0.3175 0.42333-0.39688 0.29104-0.0794 0.52917 0.1323 0.82021 0.18521 0.21167 0.0529 0.34396-0.18521 0.50271-0.3175 0.02646-0.44979 0.18521-0.9525-0.05292-1.3758-0.26458-0.47625-0.87312-0.58208-1.1112-1.0848-0.13229-0.34396 0.05292-0.68792 0.15875-1.0054 0.10583-0.26458-0.05292-0.52917-0.18521-0.79375-0.05292-0.0794-0.10583-0.23812-0.23812-0.18521 0 0.0529 0.02646 0.15875 0.02646 0.18521-0.26458-0.23812-0.60854-0.42333-0.76729-0.74083-0.05292-0.0794-0.10583-0.15875-0.05292-0.23813 0.10583-0.10583 0.26458-0.10583 0.34396-0.21166 0.10583-0.15875 0.15875-0.34396 0.15875-0.52917-0.02646-0.0265-0.05292-0.0529-0.07937-0.0794-0.05292 0.15875-0.07938 0.34396-0.15875 0.47625-0.13229 0.15875-0.34396 0.18521-0.52917 0.23813-0.10583 0.10583-0.13229 0.23812-0.18521 0.34396-0.15875 0.13229-0.3175-0.10584-0.47625-0.0794-0.02646 0.13229 0.05292 0.29104-0.05292 0.37042-0.21167 0.0529-0.26458-0.23813-0.44979-0.3175-0.10583 0.0794-0.10583 0.23812-0.18521 0.3175-0.18521 0.0529-0.26458-0.18521-0.42333-0.21167-0.18521 0.0794-0.39688 0.21167-0.60854 0.10584 0.02646-0.15875 0.13229-0.29105 0.13229-0.4498-0.13229 0.0529-0.26458 0.26459-0.44979 0.18521-0.02646-0.18521 0.18521-0.34396 0.21167-0.52916-0.23812-0.0794-0.21167 0.29104-0.39688 0.26458-0.15875 0-0.07937-0.18521-0.07937-0.26458 0.18521-0.23813 0.47625-0.39688 0.79375-0.3175 0.23812 0.0529 0.44979 0.23812 0.71438 0.21166 0.15875-0.0265 0.3175-0.10583 0.44979-0.21166 0.26458-0.26459 0.58208-0.50271 0.89958-0.74084 0.05292-0.0529 0.13229-0.0794 0.13229-0.15875-0.13229-0.0265-0.29104 0.0265-0.44979 0.0265-0.26458 0-0.50271-0.13229-0.76729-0.21167-0.02646-0.1852 0.23812-0.1852 0.29104-0.34395-0.07937-0.18521-0.3175-0.1323-0.42333-0.23813 0.02646-0.15875 0.29104-0.29104 0.15875-0.44979-0.13229-0.0265-0.23812-0.0529-0.34396-0.13229 0.10583-0.10584 0.23812-0.21167 0.29104-0.34396 0.07937-0.15875 0.05292-0.34396 0.05292-0.52917-0.23812-0.29104-0.74083-0.42333-0.74083-0.87312 0.21167-0.0265 0.39688 0.0529 0.58208 0.13229-0.02646-0.18521-0.29104-0.18521-0.3175-0.34396 0.07937-0.23812 0.39688-0.15875 0.58208-0.15875-0.05292-0.10583-0.18521-0.13229-0.29104-0.18521z" class="g59_1" display="block"/>
     <path d="m-56.422 272.42c0.34396-0.15875 0.71438-0.15875 1.0583-0.18521-0.05292 0.50271 0 1.0054 0 1.5081-0.47625-0.0794-0.9525-0.15875-1.4023-0.29105-0.15875-0.0529-0.3175-0.13229-0.44979-0.21166 0.07937-0.13229 0.15875-0.26459 0.26458-0.37042 0.15875-0.15875 0.3175-0.34396 0.52917-0.44979z" class="g59_1" display="block"/>
     <path d="m-23.72 272.34c0.34396-0.0265 0.68792 0.0265 0.97896 0.1323 0.26458 0.0794 0.42333 0.29104 0.58208 0.47625 0.13229 0.10583 0.23812 0.23812 0.29104 0.39687-0.55562 0.3175-1.2171 0.34396-1.8256 0.50271-0.02646-0.50271 0.05292-1.0054-0.02646-1.5081z" class="g59_1" display="block"/>
     <path d="m-40.759 273.08c0.10583-0.18521 0.26458-0.39688 0.47625-0.42334 0 0.15875-0.18521 0.34396 0 0.4498 0.15875-0.0529 0.34396-0.10584 0.52917-0.0794-0.07938 0.10583-0.13229 0.23813-0.18521 0.37042 0.26458 0.13229 0.52917 0 0.76729-0.0529v0.29104c0.23812 0.0265 0.47625-0.0794 0.66146-0.21166 0.07938-0.0529 0.18521-0.0265 0.26458 0.0529 0.07937 0.10584 0.23812 0.18521 0.23812 0.34396-0.10583 0-0.21167-0.0265-0.29104 0.0529v0.29104c-0.15875-0.0794-0.29104-0.21167-0.44979-0.23813-0.10583 0.1323-0.05292 0.34396-0.23812 0.42334-0.13229-0.13229-0.13229-0.34396-0.29104-0.47625-0.18521 0.0794-0.29104 0.23812-0.44979 0.3175-0.07937-0.18521-0.02646-0.39688-0.13229-0.58209-0.13229 0.0529-0.26458 0.15875-0.39688 0.0794-0.05292-0.10583 0-0.23813 0-0.34396-0.21167-0.0265-0.39688 0.13229-0.60854 0.13229-0.02646-0.13229 0.05292-0.26458 0.10583-0.39687z" class="g59_1" display="block"/>
     <path d="m-58.433 274.75c-0.07938-0.635-0.05292-1.27 0.07937-1.905 0.34396 0.3175 0.71438 0.60854 1.1377 0.82021 0.3175 0.18521 0.68792 0.23813 1.0319 0.3175 0.71438 0.15875 1.4288 0.26458 2.1431 0.39688 0.42333 0.0794 0.79375 0.3175 1.1377 0.55562 0.15875 0.15875 0.37042 0.3175 0.42333 0.55563 0.02646 0.1852 0.02646 0.34395 0.02646 0.52916-0.02646 0.58209-0.07938 1.1377-0.21167 1.6933-1.6669-0.635-3.4396-1.0319-5.2123-1.2171-0.23812-0.55562-0.44979-1.1377-0.55562-1.7462z" class="g59_1" display="block"/>
     <path d="m-22.318 273.95c0.635-0.15875 1.1112-0.60854 1.614-1.0054 0.10583 0.66145 0.18521 1.3494 0.05292 2.0373-0.13229 0.66146-0.39688 1.2965-0.68792 1.905-1.1906-0.0794-2.4342 0.0265-3.5983 0.34396-0.50271 0.13229-0.97896 0.37041-1.4552 0.60854-0.13229-0.47625-0.15875-0.9525-0.21167-1.4023 0-0.29105-0.02646-0.58209 0.02646-0.87313 0.05292-0.23812 0.29104-0.42333 0.47625-0.58208 0.3175-0.21167 0.635-0.42334 1.0319-0.50271 0.89958-0.18521 1.8256-0.3175 2.7517-0.52917z" class="g59_1" display="block"/>
     <path d="m-58.089 278.05c-0.02646-0.42333 0.13229-0.79375 0.23812-1.1906 1.2435 0.13229 2.4871 0.39687 3.6777 0.74083 1.27 0.37042 2.5135 0.89959 3.6248 1.5875 0.76729 0.44979 1.4023 1.0583 2.0902 1.5875 1.7198 1.3494 3.4925 2.6458 5.424 3.6248 1.0319 0.52917 2.1431 0.97896 3.2808 1.0848 0.92604 0.10583 1.8521-0.1323 2.7252-0.4498 1.2965-0.44979 2.5135-1.0848 3.7042-1.7992 0.92604-0.55563 1.8256-1.1906 2.6723-1.905 0.9525-0.79375 1.905-1.561 2.9369-2.249 0.84667-0.55563 1.7462-1.1112 2.7252-1.4288 1.1377-0.34396 2.3283-0.44979 3.519-0.39688 0.23812 0.42334 0.34396 0.89959 0.3175 1.3758-0.05292 0.74083-0.26458 1.4817-0.58208 2.1696-0.13229 0.26458-0.29104 0.60854-0.635 0.66146-1.0054 0.15875-2.0373 0.26458-2.9104 0.82021-1.561 0.97896-3.0427 2.0902-4.4715 3.2544-0.58208 0.47625-1.0848 1.0054-1.6933 1.4552-1.3229 1.0054-2.884 1.6933-4.5244 2.0638-1.2435 0.26458-2.5135 0.39688-3.7835 0.37042-2.2754-0.0794-4.4715-0.84667-6.4558-1.905-1.0054-0.55563-1.9844-1.1906-2.9104-1.8785-0.76729-0.55563-1.4552-1.1906-2.249-1.7198-1.0583-0.76729-2.1431-1.4288-3.3073-1.9844-0.60854-0.29104-1.2171-0.55563-1.8785-0.68792-0.26458-0.0794-0.60854-0.13229-0.82021-0.34396-0.21167-0.21166-0.26458-0.52916-0.37042-0.79375-0.18521-0.66145-0.3175-1.3758-0.34396-2.0638z" class="g59_1" display="block"/>
     <path d="m-40.918 276.94c0.39688-0.0794 0.82021 0.0265 1.2435 0 0.07937 0.15875 0.02646 0.3175 0.07937 0.47625 0.05292 0.0794 0.15875 0.0529 0.21167 0.0529-0.10583 0.29104-0.18521 0.60854-0.23812 0.89958-0.23812 0.0265-0.47625-0.10583-0.71438-0.10583-0.13229 0-0.3175 0.15875-0.23812 0.3175 0.13229 0.26458 0.26458 0.55563 0.21167 0.84667-0.13229-0.0265-0.26458-0.15875-0.44979-0.15875-0.10583 0.21166 0.13229 0.44979 0.05292 0.66146-0.13229 0.21166-0.29104-0.15875-0.44979-0.0265-0.05292 0.10583-0.02646 0.21166-0.02646 0.3175-0.07937 0.10583-0.21167 0-0.3175 0-0.18521 0.26458-0.55562 0.42333-0.87312 0.34396-0.02646-0.21167 0.13229-0.34396 0.23812-0.47625-0.21167-0.0529-0.34396 0.23812-0.58208 0.1852-0.05292-0.26458 0.18521-0.37041 0.3175-0.5027-0.18521-0.0529-0.3175 0.0794-0.47625 0.13229-0.02646-0.21167 0.18521-0.29104 0.34396-0.34396 0.18521-0.10583 0.37042 0.10583 0.58208 0.0529 0.23812-0.0529 0.44979-0.18521 0.58208-0.39688 0.18521-0.50271 0.07937-1.0583 0.07937-1.561 0.05292-0.26458 0.18521-0.55563 0.42333-0.71438z" class="g59_1" display="block"/>
    </g>
    <path d="m-55.867 280.38c0.23812-0.58209 0.47625-1.1906 0.71438-1.7992 0.29104 0.10583 0.58208 0.23813 0.87312 0.34396 0.18521 0.0794 0.37042 0.15875 0.47625 0.3175 0.18521 0.26458 0 0.66146-0.3175 0.68792 0.26458 0.21166 0.18521 0.635-0.05292 0.8202-0.21167 0.15875-0.50271 0.1323-0.74083 0.0265-0.3175-0.13229-0.635-0.23812-0.9525-0.39687z" class="g122_1" display="block" fill="#8bd3f5"/>
    <path d="m-24.619 278.72c0.18521-0.0794 0.44979-0.0794 0.60854 0.10584 0.13229 0.15875 0.13229 0.42333 0 0.58208 0.37042 0 0.58208 0.44979 0.44979 0.76729-0.07938 0.21167-0.29104 0.3175-0.50271 0.39688-0.3175 0.10583-0.635 0.23812-0.97896 0.34395-0.21167-0.60854-0.44979-1.2171-0.635-1.8521 0.34396-0.10583 0.68792-0.23812 1.0583-0.34396z" class="g122_1" display="block" fill="#8bd3f5"/>
    <path d="m-47.003 278.85c0.71438 0.58209 1.4552 1.1377 2.249 1.614-0.13229 0.0794-0.10583 0.21167-0.13229 0.34396-0.13229-0.0265-0.23812 0-0.26458 0.13229-0.05292 0.0265-0.13229 0.0529-0.18521 0.10584-0.68792-0.4498-1.3758-0.92605-1.9844-1.4552 0.13229 0.0265 0.29104 0.0794 0.42333 0.0265-0.05292-0.0529-0.13229-0.0794-0.21167-0.10584-0.02646-0.13229 0.05292-0.23812 0.13229-0.3175 0 0-0.05292-0.0265-0.07938-0.0265 0-0.10583 0.02646-0.21166 0.05292-0.3175z" class="g123_1" display="block" fill="#fec040"/>
    <path d="m-24.963 279.32c0.15875-0.0529 0.29104-0.13229 0.44979-0.13229 0.07937 0.0265 0.13229 0.13229 0.07937 0.21167-0.13229 0.10583-0.29104 0.13229-0.42333 0.18521-0.05292-0.10584-0.07937-0.18521-0.10583-0.26459z" class="g86_1" display="block" fill="#0c0e21"/>
    <path d="m-54.861 279.51c0.02646-0.0794 0.05292-0.18521 0.10583-0.26458 0.13229 0.0794 0.3175 0.10583 0.42333 0.21167 0.02646 0.0794-0.05292 0.15875-0.10583 0.21166-0.15875-0.0529-0.29104-0.10583-0.42333-0.15875z" class="g86_1" display="block" fill="#0c0e21"/>
    <path d="m-26.63 279.56c0.18521-0.0794 0.37042-0.18521 0.52917-0.29104 0.21167 0.37041 0.44979 0.71437 0.66146 1.0848 0.13229 0.23812 0.13229 0.55562-0.02646 0.76729-0.21167 0.23813-0.50271 0.39688-0.79375 0.47625-0.29104 0.0529-0.55562-0.10583-0.71438-0.34396-0.21167-0.37041-0.42333-0.74083-0.635-1.0848 0.15875-0.10583 0.34396-0.21167 0.52917-0.3175 0.21167 0.37042 0.42333 0.74083 0.635 1.0848 0.13229 0.18521 0.39688 0.10584 0.47625-0.0529 0.07938-0.10584-0.02646-0.23813-0.05292-0.34396-0.21167-0.3175-0.39688-0.635-0.60854-0.97896z" class="g122_1" display="block" fill="#8bd3f5"/>
    <path d="m-53.327 279.32c0.18521 0.0794 0.34396 0.15875 0.52917 0.23813-0.15875 0.39687-0.37042 0.76729-0.52917 1.1642-0.10583 0.29104 0.37042 0.5027 0.50271 0.21166 0.21167-0.37041 0.34396-0.76729 0.55562-1.1377 0.15875 0.10584 0.37042 0.15875 0.52917 0.26459-0.15875 0.34396-0.3175 0.71437-0.50271 1.0583-0.07938 0.18521-0.18521 0.37042-0.39688 0.44979-0.26458 0.10584-0.55562 0-0.79375-0.10583-0.23812-0.13229-0.44979-0.29104-0.50271-0.55563-0.02646-0.23812 0.05292-0.44979 0.15875-0.635 0.13229-0.3175 0.29104-0.635 0.44979-0.9525z" class="g122_1" display="block" fill="#8bd3f5"/>
    <path d="m-33.721 280.22c0.44979-0.29104 0.89958-0.60854 1.2965-0.92604 0.15875 0.1852 0.02646 0.42333 0.07937 0.635 0.10583 0 0.21167 0.0265 0.3175 0.0529-0.50271 0.39688-1.0583 0.76729-1.5875 1.1112-0.10583-0.0265-0.21167-0.0794-0.3175-0.10583 0.05292-0.0265 0.07938-0.0265 0.13229-0.0529-0.02646-0.18521 0.07937-0.37041 0.02646-0.55562 0.05292-0.0265 0.13229-0.0265 0.21167-0.0529-0.05292-0.0265-0.10583-0.0794-0.15875-0.10583z" class="g124_1" display="block" fill="#febd39"/>
    <path d="m-24.752 279.93c0.15875-0.0529 0.29104-0.10584 0.44979-0.1323 0.15875-0.0265 0.23812 0.23813 0.10583 0.29105-0.13229 0.0794-0.29104 0.13229-0.42333 0.15875-0.05292-0.10584-0.07937-0.21167-0.13229-0.3175z" class="g59_1" display="block" fill="#0d0e23"/>
    <path d="m-54.994 279.85c0.13229 0.0529 0.29104 0.10583 0.42333 0.18521 0.10583 0.0794 0.02646 0.29104-0.10583 0.29104-0.15875-0.0265-0.29104-0.0794-0.44979-0.13229 0.02646-0.13229 0.07937-0.23813 0.13229-0.34396z" class="g86_1" display="block" fill="#0c0e21"/>
    <path d="m-51.475 280.2c0.3175 0.18521 0.635 0.37042 0.9525 0.55562 0.15875 0.0794 0.3175 0.21167 0.34396 0.37042 0.13229 0.34396-0.15875 0.71438-0.50271 0.71438 0.15875 0.34395-0.10583 0.635-0.18521 0.9525-0.18521-0.10584-0.34396-0.21167-0.52917-0.3175 0.05292-0.21167 0.23812-0.39688 0.18521-0.635-0.10583-0.10584-0.23812-0.15875-0.37042-0.23813-0.10583 0.18521-0.23812 0.37042-0.34396 0.58208-0.15875-0.10583-0.34396-0.21166-0.52917-0.3175 0.34396-0.55562 0.66146-1.1112 0.97896-1.6669z" class="g122_1" display="block" fill="#8bd3f5"/>
    <path d="m-35.229 281.1c0.52917-0.26458 1.0319-0.55562 1.5081-0.87312 0.05292 0.0265 0.10583 0.0794 0.15875 0.10583-0.07938 0.0265-0.15875 0.0265-0.21167 0.0529 0.05292 0.18521-0.05292 0.37041-0.02646 0.55562-0.05292 0.0265-0.07938 0.0265-0.13229 0.0529 0.10583 0.0265 0.21167 0.0794 0.3175 0.10583-0.52917 0.3175-1.0583 0.635-1.614 0.87313 0-0.10584 0.02646-0.23813 0-0.37042 0.02646-0.0529 0.05292-0.10583 0.07937-0.15875-0.02646-0.0794 0-0.15875 0-0.23812 0-0.0265-0.05292-0.0794-0.07937-0.10584z" class="g69_1" display="block" fill="#fec247"/>
    <path d="m-44.887 280.81c0.02646-0.13229 0-0.29104 0.13229-0.34396 0.26458 0.15875 0.52917 0.3175 0.76729 0.47625-0.02646 0-0.07937 0.0265-0.10583 0.0529 0.02646 0.0265 0.07938 0.0529 0.13229 0.0794-0.05292 0.10584-0.02646 0.23813-0.02646 0.34396-0.02646 0.13229-0.07937 0.21167-0.13229 0.3175-0.42333-0.21166-0.82021-0.44979-1.2171-0.68791 0.05292-0.0529 0.13229-0.0794 0.18521-0.10584 0.02646-0.13229 0.13229-0.15875 0.26458-0.13229z" class="g63_1" display="block" fill="#fec554"/>
    <path d="m-51.184 280.91c0.15875 0.0794 0.34396 0.15875 0.44979 0.34396-0.05292 0.0529-0.07938 0.15875-0.18521 0.18521-0.15875-0.0265-0.29104-0.13229-0.44979-0.21167 0.05292-0.10583 0.10583-0.21166 0.18521-0.3175z" class="g59_1" display="block" fill="#0d0e23"/>
    <path d="m-28.985 281.23c0.15875-0.13229 0.3175-0.23812 0.47625-0.37041 0.29104 0.37041 0.58208 0.76729 0.87312 1.1377 0.23812-0.15875 0.44979-0.34396 0.68792-0.50271 0.10583 0.13229 0.18521 0.26458 0.29104 0.39687-0.37042 0.29104-0.76729 0.58209-1.1642 0.89959-0.37042-0.52917-0.76729-1.0319-1.1642-1.561z" class="g122_1" display="block" fill="#8bd3f5"/>
    <path d="m-44.093 280.99c0.02646-0.0265 0.07938-0.0529 0.10583-0.0529 0.26458 0.13229 0.52917 0.26459 0.82021 0.39688-0.07937 0.0265-0.13229 0.0794-0.18521 0.10583v0.13229c0.05292-0.0265 0.10583-0.0529 0.13229-0.0794-0.02646 0.0794-0.05292 0.13229-0.07937 0.21166 0.02646 0.0794 0.07937 0.15875 0.02646 0.26459-0.05292 0.0529-0.13229 0.0794-0.18521 0.10583-0.23812-0.10583-0.44979-0.21167-0.66146-0.34396 0.05292-0.10583 0.10583-0.18521 0.13229-0.3175 0-0.10583-0.02646-0.23812 0.02646-0.34396-0.05292-0.0265-0.10583-0.0529-0.13229-0.0794z" class="g125_1" display="block" fill="#fec963"/>
    <path d="m-36.737 281.81c0.52917-0.23813 1.0319-0.44979 1.5081-0.71438 0.02646 0.0265 0.07937 0.0794 0.07937 0.10584 0 0.0794-0.02646 0.15875 0 0.23812-0.02646 0.0529-0.05292 0.10583-0.07937 0.15875 0.02646 0.13229 0 0.26458 0 0.37042l-0.02646 0.0265c-0.42333 0.21166-0.84667 0.42333-1.2965 0.60854-0.05292 0-0.10583-0.0265-0.15875-0.0265 0.07937-0.23813 0.05292-0.47625 0.13229-0.71438-0.05292 0-0.10583-0.0265-0.15875-0.0529z" class="g125_1" display="block" fill="#fec963"/>
    <path d="m-50.84 282.79c0.42333-0.50271 0.82021-1.0054 1.2435-1.5081 0.15875 0.15875 0.3175 0.26458 0.47625 0.39688-0.07938 0.39687-0.15875 0.76729-0.21167 1.1377 0.21167-0.26458 0.42333-0.52916 0.635-0.79375 0.15875 0.1323 0.29104 0.23813 0.44979 0.37042-0.42333 0.50271-0.82021 1.0319-1.2435 1.5081-0.13229-0.1323-0.29104-0.23813-0.44979-0.37042 0.07938-0.39688 0.15875-0.76729 0.18521-1.1642-0.21167 0.26459-0.42333 0.52917-0.635 0.79375-0.15875-0.13229-0.29104-0.23812-0.44979-0.37041z" class="g122_1" display="block" fill="#8bd3f5"/>
    <path d="m-43.352 281.44c0.05292-0.0265 0.10583-0.0794 0.18521-0.10583 0.18521 0.10583 0.37042 0.18521 0.55562 0.29104-0.07937 0.23812-0.05292 0.52917-0.18521 0.76729-0.23812-0.10583-0.44979-0.21167-0.66146-0.3175 0.05292-0.0265 0.13229-0.0529 0.18521-0.10583 0.05292-0.10584 0-0.18521-0.02646-0.26459 0.02646-0.0794 0.05292-0.13229 0.07937-0.21166-0.02646 0.0265-0.07937 0.0529-0.13229 0.0794v-0.13229z" class="g79_1" display="block" fill="#fecd73"/>
    <path d="m-42.796 282.39c0.13229-0.23812 0.10583-0.52917 0.18521-0.76729 0.18521 0.0794 0.37042 0.15875 0.55562 0.23812-0.05292 0.26459-0.07937 0.52917-0.15875 0.79375-0.18521-0.0794-0.39688-0.1852-0.58208-0.26458z" class="g126_1" display="block" fill="#fed27f"/>
    <path d="m-30.123 282.21c0.18521-0.37041 0.635-0.68791 1.0583-0.58208 0.15875 0.0529 0.34396 0.13229 0.42333 0.29104-0.15875 0.10583-0.3175 0.23813-0.44979 0.34396-0.07937-0.0529-0.15875-0.10583-0.26458-0.10583-0.18521 0.0264-0.34396 0.23812-0.26458 0.42333 0.05292 0.21167 0.21167 0.39687 0.39688 0.50271 0.15875 0.10583 0.39688 0.0265 0.44979-0.15875 0.05292-0.10584-0.02646-0.21167-0.05292-0.3175 0.15875-0.13229 0.3175-0.23813 0.47625-0.37042 0.15875 0.21167 0.21167 0.50271 0.10583 0.76729-0.15875 0.50271-0.76729 0.79375-1.2435 0.60854-0.50271-0.21166-0.87312-0.87312-0.635-1.4023z" class="g58_1" display="block" fill="#8cd4f5"/>
    <path d="m-37.875 282.26c0.37042-0.13229 0.76729-0.26458 1.1377-0.44979 0.05292 0.0265 0.10583 0.0529 0.15875 0.0529-0.07938 0.23813-0.05292 0.47625-0.13229 0.71438 0.05292 0 0.10583 0.0265 0.15875 0.0265-0.44979 0.18521-0.89958 0.39687-1.4023 0.50271 0.05292-0.23813 0.13229-0.50271 0.13229-0.74084-0.02646-0.0265-0.05292-0.0794-0.05292-0.10583z" class="g83_1" display="block" fill="#fed68a"/>
    <path d="m-42.056 281.86c0.34396 0.1323 0.68792 0.26459 1.0319 0.42334h-0.15875c0.02646 0.0265 0.02646 0.0794 0.05292 0.10583-0.02646 0.18521-0.10583 0.37042-0.05292 0.58208-0.02646 0-0.05292 0.0265-0.05292 0.0529-0.34396-0.0794-0.66146-0.23812-0.97896-0.37042 0.07937-0.26458 0.10583-0.52916 0.15875-0.79375z" class="g127_1" display="block" fill="#fed894"/>
    <path d="m-41.182 282.29h0.15875c0.15875 0.0529 0.29104 0.10583 0.44979 0.15875-0.02646 0.26458-0.13229 0.50271-0.13229 0.79375-0.18521-0.0794-0.37042-0.13229-0.55562-0.21167h0.02646c0-0.0265 0.02646-0.0529 0.05292-0.0529-0.05292-0.21166 0-0.39687 0.05292-0.58208-0.02646-0.0265-0.02646-0.0794-0.05292-0.10583z" class="g128_1" display="block" fill="#fee2b2"/>
    <path d="m-38.193 282.39c0.10583-0.0529 0.21167-0.0794 0.3175-0.13229 0 0.0265 0.02646 0.0794 0.05292 0.10583 0 0.23813-0.07938 0.50271-0.13229 0.74084v0.0265c-0.10583 0.0529-0.23812 0.0794-0.34396 0.10584-0.02646-0.29104 0.07937-0.55563 0.10583-0.84667z" class="g129_1" display="block" fill="#ffdfa8"/>
    <path d="m-38.669 282.55c0.15875-0.0529 0.3175-0.10583 0.47625-0.15875-0.02646 0.29104-0.13229 0.55563-0.10583 0.84667-0.10583 0.0529-0.23812 0.10583-0.34396 0.13229-0.02646-0.0265-0.07937-0.0265-0.10583-0.0529 0.07938-0.21166 0.15875-0.42333 0.18521-0.66146-0.02646-0.0264-0.07938-0.0794-0.10583-0.10583z" class="g130_1" display="block" fill="#fee6bb"/>
    <path d="m-40.706 283.24c0-0.29104 0.10583-0.52917 0.13229-0.79375 0.15875 0.0529 0.34396 0.10583 0.52917 0.15875-0.10583 0.23812-0.10583 0.52916-0.21167 0.76729-0.15875-0.0529-0.29104-0.10583-0.44979-0.13229z" class="g131_1" display="block" fill="#feecc6"/>
    <path d="m-48.22 282.66c0.05292-0.0264 0.05292-0.13229 0.13229-0.13229 0.15875 0.13229 0.29104 0.23813 0.44979 0.37042-0.29104 0.37042-0.58208 0.74083-0.87312 1.1377 0.21167 0.18521 0.44979 0.34396 0.66146 0.52916-0.07937 0.1323-0.18521 0.26459-0.29104 0.39688-0.39688-0.3175-0.76729-0.60854-1.1642-0.89958 0.34396-0.47625 0.74083-0.92605 1.0848-1.4023z" class="g122_1" display="block" fill="#8bd3f5"/>
    <path d="m-39.145 282.71c0.15875-0.0529 0.3175-0.10583 0.47625-0.15875 0.02646 0.0265 0.07937 0.0794 0.10583 0.10583-0.02646 0.23813-0.10583 0.4498-0.18521 0.66146 0.02646 0.0265 0.07938 0.0265 0.10583 0.0529-0.23812 0.0794-0.47625 0.13229-0.68792 0.21167 0.10583-0.29105 0.15875-0.58209 0.18521-0.87313z" class="g132_1" display="block" fill="#fef4d8"/>
    <path d="m-40.256 283.37c0.10583-0.23813 0.10583-0.52917 0.21167-0.76729 0.10583 0.0529 0.23812 0.0794 0.34396 0.13229-0.05292 0.23812-0.10583 0.50271-0.10583 0.76729-0.15875-0.0529-0.29104-0.0794-0.44979-0.13229z" class="g133_1" display="block" fill="#fef5e0"/>
    <path d="m-39.701 282.74c0.18521 0.0794 0.37042 0.0265 0.55562-0.0265-0.02646 0.29104-0.07938 0.58208-0.18521 0.87313-0.15875 0.0265-0.3175-0.0265-0.47625-0.0794 0-0.26458 0.05292-0.52917 0.10583-0.76729z" class="g99_1" display="block" fill="#fefcf9"/>
    <g fill="#8bd3f5">
     <path d="m-47.982 285.07c0.34396-0.52916 0.71438-1.0848 1.0848-1.614 0.58208 0.39688 1.1377 0.82021 1.7727 1.1642-0.02646 0.26458-0.02646 0.50271-0.05292 0.76729 0.21167-0.13229 0.42333-0.29104 0.60854-0.44979 0.18521 0.0794 0.37042 0.18521 0.55562 0.29104 0.02646 0.0794-0.07938 0.0794-0.10583 0.13229-0.37042 0.21167-0.71438 0.42334-1.0583 0.635-0.13229 0.21167-0.21167 0.42334-0.34396 0.635-0.18521-0.10583-0.37042-0.21166-0.52917-0.3175 0.13229-0.1852 0.23812-0.39687 0.34396-0.60854 0.02646-0.39687 0-0.76729 0-1.1377-0.05292 0.0529-0.10583 0.1323-0.15875 0.21167-0.26458-0.18521-0.55562-0.37042-0.82021-0.55562-0.05292 0.0529-0.07937 0.13229-0.13229 0.1852 0.23812 0.15875 0.50271 0.34396 0.74083 0.50271-0.07937 0.13229-0.15875 0.26459-0.26458 0.39688-0.23812-0.15875-0.50271-0.34396-0.74083-0.50271-0.05292 0.0529-0.07938 0.10583-0.13229 0.18521 0.29104 0.18521 0.58208 0.37041 0.84667 0.58208-0.07938 0.13229-0.18521 0.29104-0.29104 0.42333-0.42333-0.3175-0.89958-0.60854-1.3229-0.92604z" class="g122_1" display="block"/>
     <path d="m-32.319 283.85c0.13229-0.13229 0.3175-0.23813 0.47625-0.37042 0.29104 0.39688 0.58208 0.76729 0.87312 1.1642 0.21167-0.18521 0.44979-0.37042 0.66146-0.52917 0.10583 0.13229 0.21167 0.26459 0.3175 0.42334-0.39688 0.29104-0.79375 0.58208-1.1642 0.87312-0.39688-0.52917-0.76729-1.0583-1.1642-1.561z" class="g122_1" display="block"/>
     <path d="m-33.589 284.69c0.15875-0.10584 0.3175-0.23813 0.50271-0.34396 0.26458 0.42333 0.52917 0.79375 0.79375 1.1906 0.23812-0.13229 0.47625-0.3175 0.71438-0.44979 0.07938 0.13229 0.18521 0.26458 0.26458 0.39688-0.37042 0.29104-0.79375 0.55562-1.2171 0.8202-0.34396-0.52916-0.71438-1.0848-1.0583-1.614z" class="g122_1" display="block"/>
     <path d="m-34.647 285.25c0.18521-0.0794 0.34396-0.18521 0.52917-0.26458 0.50271 0.47625 1.0054 0.92604 1.5081 1.4023-0.18521 0.10583-0.37042 0.18521-0.52917 0.29104-0.07938-0.0529-0.15875-0.13229-0.23812-0.21167-0.15875 0.10584-0.34396 0.18521-0.50271 0.29105 0 0.0794 0.05292 0.1852 0.02646 0.29104-0.18521 0.10583-0.34396 0.15875-0.50271 0.26458-0.13229-0.68792-0.21167-1.3758-0.29104-2.0638z" class="g122_1" display="block"/>
     <path d="m-43.458 285.49c0.50271 0.13229 0.9525 0.34395 1.4288 0.47625-0.05292 0.15875-0.10583 0.3175-0.15875 0.47625-0.29104-0.0794-0.55562-0.21167-0.84667-0.29105-0.02646 0.0529-0.05292 0.15875-0.07937 0.21167 0.23812 0.10583 0.47625 0.18521 0.71438 0.26458-0.05292 0.15875-0.10583 0.29105-0.15875 0.4498-0.23812-0.0794-0.47625-0.18521-0.71438-0.26459-0.07937 0.23813-0.15875 0.47625-0.23812 0.68792-0.21167-0.0529-0.39688-0.13229-0.58208-0.18521 0.21167-0.60854 0.44979-1.2171 0.635-1.8256z" class="g122_1" display="block"/>
    </g>
    <path d="m-35.864 285.78c0.21167-0.0529 0.42333-0.15875 0.635-0.0794 0.29104 0.0794 0.42333 0.47625 0.18521 0.71438 0.42333-0.0265 0.635 0.50271 0.42333 0.84666-0.10583 0.18521-0.3175 0.26459-0.52917 0.34396-0.29104 0.0794-0.58208 0.21167-0.89958 0.3175-0.21167-0.60854-0.42333-1.2171-0.66146-1.8256 0.29104-0.13229 0.58208-0.21167 0.84667-0.3175z" class="g58_1" display="block" fill="#8cd4f5"/>
    <path d="m-34.092 285.73c0.15875 0.13229 0.29104 0.29104 0.42333 0.42333-0.10583 0.0529-0.21167 0.10584-0.3175 0.15875-0.02646-0.1852-0.05292-0.39687-0.10583-0.58208z" class="g59_1" display="block" fill="#0d0e23"/>
    <path d="m-41.712 286.15c0.42333-0.13229 0.97896 0 1.2171 0.37042 0.23812 0.39688 0.18521 0.9525-0.13229 1.2965-0.42333 0.52917-1.3494 0.37042-1.614-0.23813-0.21167-0.5027 0-1.2171 0.52917-1.4288z" class="g122_1" display="block" fill="#8bd3f5"/>
    <path d="m-38.404 286.36c0.55562-0.0529 1.1112-0.18521 1.6669-0.26458 0.02646 0.18521 0.05292 0.34396 0.07937 0.50271-0.18521 0.0264-0.34396 0.0529-0.52917 0.0794 0.05292 0.47625 0.15875 0.9525 0.23812 1.4288-0.21167 0.0265-0.39688 0.0529-0.60854 0.10583-0.07937-0.47625-0.13229-0.9525-0.23812-1.4288-0.18521 0.0265-0.37042 0.0529-0.52917 0.0794-0.02646-0.15875-0.05292-0.3175-0.07937-0.50271z" class="g58_1" display="block" fill="#8cd4f5"/>
    <path d="m-35.97 286.34c0.13229-0.0529 0.26458-0.13229 0.39688-0.13229 0.13229 0 0.18521 0.15875 0.07937 0.23813-0.10583 0.0529-0.23812 0.10583-0.37042 0.15875-0.05292-0.10584-0.07937-0.18521-0.10583-0.26459z" class="g59_1" display="block" fill="#0d0e23"/>
    <path d="m-39.542 286.34c0.29104-0.0529 0.60854-0.0265 0.84667 0.18521 0.44979 0.3175 0.47625 1.0054 0.18521 1.4288-0.34396 0.55563-1.27 0.52917-1.614 0-0.37042-0.55562-0.10583-1.4817 0.58208-1.614z" class="g58_1" display="block" fill="#8cd4f5"/>
    <g fill="#0d0e23">
     <path d="m-41.421 286.6c0.21167-0.0794 0.47625 0.10583 0.47625 0.34395 0 0.23813-0.05292 0.55563-0.29104 0.66146-0.21167 0.10584-0.47625-0.0794-0.47625-0.3175-0.02646-0.23812 0.02646-0.55562 0.29104-0.68791z" class="g59_1" display="block"/>
     <path d="m-39.436 286.84c0.18521-0.10583 0.44979 0.0529 0.47625 0.26458 0.07937 0.26459 0.05292 0.635-0.23812 0.74084-0.21167 0.0794-0.44979-0.10584-0.47625-0.3175-0.02646-0.23813 0-0.55563 0.23812-0.68792z" class="g59_1" display="block"/>
     <path d="m-35.758 286.94c0.15875-0.0529 0.3175-0.13229 0.47625-0.15875 0.13229 0.0529 0.21167 0.26459 0.05292 0.3175-0.13229 0.0794-0.26458 0.10584-0.39688 0.15875-0.05292-0.10583-0.07937-0.21166-0.13229-0.3175z" class="g59_1" display="block"/>
    </g>
   </g>
  </g>
 </g>
</svg>
