<svg xmlns="http://www.w3.org/2000/svg" height="220" width="220" version="1.1" viewBox="0 0 58.208332 58.208335">
 <g transform="translate(0 -238.79)">
  <g transform="translate(-5.8333e-8 -.0000018318)">
   <g transform="translate(.37798 -10.961)">
    <g stroke-width=".26458">
     <path d="m52.333 289.35h-0.02646l-2.3548-2.0638-0.50271-0.47625c-0.47625-0.47625-1.2171-1.0583-2.4871-1.0054-0.21167 0-0.42333 0-0.60854 0.0529 0.21167-1.0054 0.37042-2.0638 0.47625-3.175 0.05292-0.79375 0.10583-1.561 0.10583-2.2754v-0.3175l-0.02646-0.58208v0.0265-29.316h-36.408v29.316-0.0265l-0.02646 0.58208v0.3175c0.02646 0.71438 0.05292 1.4817 0.13229 2.2754 0.07937 1.1112 0.23812 2.1696 0.44979 3.175-0.18521-0.0529-0.37042-0.0529-0.58208-0.0529-1.27-0.0529-1.9844 0.52917-2.4606 1.0054l-0.50271 0.47625-2.3812 2.0638c-0.82021 0.82021-0.89958 1.614-0.82021 2.1431 0.21167 1.4817 2.0902 2.5665 2.2754 2.6723l1.1112-0.87312c0.79375-0.29104 1.2435 0.13229 1.2435 0.13229 0.079375 0.0529 0.34396 0.26458 0.50271 1.1377l0.079375 0.47625c-0.60854 0.55562-1.0319 0.92604-1.0319 0.92604l0.37042 0.52917c1.0848 1.5875 1.5081 2.0902 2.2225 2.884 4.7096 5.3181 10.795 8.1227 17.568 8.1227h0.10583c6.7998 0 12.859-2.8046 17.595-8.1227 0.68792-0.79375 1.1112-1.2965 2.196-2.884l0.39688-0.52917s-0.44979-0.37042-1.0319-0.89958l0.07937-0.50271c0.18521-0.87313 0.44979-1.0848 0.52917-1.1377 0 0 0.44979-0.42333 1.2171-0.13229l1.1112 0.87312c0.18521-0.10583 2.0638-1.1906 2.3019-2.6723 0.05292-0.52916-0.02646-1.3229-0.82021-2.1431z" class="g7_1" display="block" fill="#fff"/>
     <path d="m49.475 287.68s1.1906 2.5665-2.4342 2.831l3.7571 2.9104s2.9898-1.7462 1.1112-3.6248z" class="g8_1" display="block" fill="#1d479b"/>
     <path d="m48.734 289.35c0.66146-0.71438 0.02646-1.8785 0.02646-1.8785s-0.58208-1.0848-1.7462-1.0319c-0.26458 0-0.55562 0.0529-0.84667 0.15875-0.23812 0.92604-0.52917 1.8256-0.87312 2.6458-0.05292 0.1323-0.44979 1.1112-1.27 2.4606 0.10583 0.10583 0.23812 0.21167 0.44979 0.39687l2.8046 2.4077c0.34396-2.3812 1.6669-1.7992 1.6669-1.7992l-3.1485-2.5136c2.4077-0.0794 2.9369-0.84666 2.9369-0.84666z" class="g9_1" display="block" fill="#e1393e"/>
     <path d="m7.9355 287.71s-1.1906 2.5665 2.4342 2.831l-3.7306 2.9369s-3.0162-1.7727-1.1112-3.6512z" class="g8_1" display="block" fill="#1d479b"/>
     <path d="m8.6764 289.37c-0.66146-0.68792-0.026458-1.8786-0.026458-1.8786s0.58208-1.0848 1.7462-1.0319c0.26458 0 0.55562 0.0529 0.84667 0.15875 0.23812 0.92604 0.52917 1.8256 0.87312 2.6458 0.05292 0.13229 0.44979 1.1112 1.27 2.4606-0.10583 0.10583-0.23812 0.23812-0.42333 0.39687l-2.8046 2.4077c-0.37042-2.3812-1.6933-1.7992-1.6933-1.7992l3.1485-2.4871c-2.4075-0.1-2.9366-0.87-2.9366-0.87z" class="g9_1" display="block" fill="#e1393e"/>
     <path d="m43.072 291.86c1.0319-1.614 1.5081-2.8046 1.5346-2.884v0.0265c0.76729-1.8256 1.27-3.9688 1.4817-6.4029 0.05292-0.74083 0.10583-1.4817 0.10583-2.2225v-0.29104c0-0.21167 0-0.37042-0.02646-0.55562v-28.575h-34.925v28.575c-0.02646 0.1852-0.02646 0.34395-0.02646 0.55562v0.29104c0 0.74084 0.05292 1.4817 0.10583 2.2225 0.21167 2.4077 0.71438 4.5508 1.4817 6.3765 0.05292 0.15875 0.55562 1.3494 1.5346 2.884l-4.8683 4.2333c1.0848 1.561 1.4817 2.0373 2.1431 2.7781 4.5773 5.1594 10.478 7.8846 17.039 7.8846h0.10583c6.5617 0 12.462-2.7252 17.039-7.8846 0.66146-0.74084 1.0583-1.2171 2.1431-2.7781z" class="g8_1" display="block" fill="#1d479b"/>
     <path d="m28.705 252.54h-15.875v27.014s-0.23812 4.789 1.4552 8.8106c0 0 4.0746 10.372 14.367 10.372h0.05292c10.292 0 14.42-10.372 14.42-10.372 1.7198-4.0217 1.4552-8.8106 1.4552-8.8106v-27.014z" class="g7_1" display="block" fill="#fff"/>
    </g>
    <g stroke-width=".26458" fill="#e1393e">
     <path d="m25.768 267.92h5.8473v22.886h-5.8473z" class="g9_1" display="block"/>
     <path d="m20.953 259.26v-3.8629c-0.79375 0.0265-1.5346 0.21166-2.249 0.55562l0.47625-1.4552h5.6885l-0.635 1.27c-0.47625-0.23812-1.0054-0.37041-1.6669-0.37041v3.8629c0 0.60854 0.07938 1.1377 0.3175 1.6669h-2.249c0.23812-0.52917 0.3175-1.0583 0.3175-1.6669z" class="g9_1" display="block"/>
     <path d="m31.907 259.26v-3.0956c0-0.60854-0.07938-1.1377-0.3175-1.6669h2.249c-0.23812 0.52917-0.3175 1.0583-0.3175 1.6669v1.2435l1.9579-2.2225c0.18521-0.21167 0.29104-0.39688 0.29104-0.60854 0-0.0265-0.02646-0.0529-0.02646-0.0794h2.54c-0.60854 0.39688-1.0583 0.71438-1.3758 1.0583l-1.6933 1.8256 2.3019 2.6723c0.21167 0.26459 0.50271 0.52917 0.87312 0.87313h-2.5135v-0.23813c0-0.23812-0.10583-0.44979-0.29104-0.68791l-2.0638-2.4871v1.7462c0 0.60854 0.07937 1.1377 0.3175 1.6669h-2.249c0.23812-0.52917 0.3175-1.0583 0.3175-1.6669z" class="g9_1" display="block"/>
     <path d="m39.024 259.26v-3.0956c0-0.60854-0.07937-1.1377-0.34396-1.6669h4.3656l-0.71438 1.27c-0.44979-0.18521-1.0054-0.26458-1.7198-0.29104v1.7727h2.2225l-0.82021 1.1642c-0.3175-0.21167-0.74083-0.29105-1.2435-0.29105h-0.15875v1.8256c0.23812 0.0265 0.44979 0.0265 0.635 0.0265 0.92604 0 1.6933-0.10584 2.3283-0.34396l-0.60854 1.2965h-4.2862c0.26458-0.52917 0.34396-1.0583 0.34396-1.6669z" class="g9_1" display="block"/>
     <path d="m23.916 263c-0.87312 0-1.5081 0.58208-1.5081 1.4817 0 0.92605 0.66146 1.5346 1.614 1.5346 0.55562 0 0.9525-0.18521 1.3229-0.58209l-0.13229 0.97896c-0.47625 0.15875-0.97896 0.26459-1.5081 0.26459-0.58208 0-1.0848-0.1323-1.5081-0.42334-0.60854-0.39687-0.89958-0.92604-0.89958-1.614 0-0.71437 0.3175-1.3229 0.92604-1.7462 0.52917-0.37041 1.1906-0.58208 1.8785-0.58208 0.37042 0 0.74083 0.0529 1.1642 0.18521v1.0583c-0.42333-0.37041-0.87312-0.55562-1.3494-0.55562z" class="g9_1" display="block"/>
    </g>
    <path d="m23.916 263c-0.87312 0-1.5081 0.58208-1.5081 1.4817 0 0.92605 0.66146 1.5346 1.614 1.5346 0.55562 0 0.9525-0.18521 1.3229-0.58209l-0.13229 0.97896c-0.47625 0.15875-0.97896 0.26459-1.5081 0.26459-0.58208 0-1.0848-0.1323-1.5081-0.42334-0.60854-0.39687-0.89958-0.92604-0.89958-1.614 0-0.71437 0.3175-1.3229 0.92604-1.7462 0.52917-0.37041 1.1906-0.58208 1.8785-0.58208 0.37042 0 0.74083 0.0529 1.1642 0.18521v1.0583c-0.42333-0.37041-0.87312-0.55562-1.3494-0.55562z" display="block" class="g10_1" stroke="#e1393e" stroke-width=".26517" fill="none"/>
    <path d="m26.165 265.51v-2.0373c0-0.42334-0.05292-0.76729-0.21167-1.1112h1.4552c-0.15875 0.34396-0.21167 0.68791-0.21167 1.1112v2.0373c0 0.39687 0.05292 0.76729 0.21167 1.1112h-1.4552c0.15875-0.34396 0.21167-0.71438 0.21167-1.1112z" class="g9_1" stroke-width=".26458" display="block" fill="#e1393e"/>
    <path d="m26.165 265.51v-2.0373c0-0.42334-0.05292-0.76729-0.21167-1.1112h1.4552c-0.15875 0.34396-0.21167 0.68791-0.21167 1.1112v2.0373c0 0.39687 0.05292 0.76729 0.21167 1.1112h-1.4552c0.15875-0.34396 0.21167-0.71438 0.21167-1.1112z" display="block" class="g10_1" stroke="#e1393e" stroke-width=".26517" fill="none"/>
    <path d="m29.208 265.51v-2.5665c-0.50271 0.0265-0.97896 0.15875-1.4288 0.37042l0.29104-0.9525h3.6512l-0.39688 0.84666c-0.3175-0.15875-0.66146-0.26458-1.0583-0.26458v2.5665c0 0.39687 0.05292 0.76729 0.18521 1.1112h-1.4288c0.13229-0.34396 0.18521-0.71438 0.18521-1.1112z" class="g9_1" stroke-width=".26458" display="block" fill="#e1393e"/>
    <path d="m29.208 265.51v-2.5665c-0.50271 0.0265-0.97896 0.15875-1.4288 0.37042l0.29104-0.9525h3.6512l-0.39688 0.84666c-0.3175-0.15875-0.66146-0.26458-1.0583-0.26458v2.5665c0 0.39687 0.05292 0.76729 0.18521 1.1112h-1.4288c0.13229-0.34396 0.18521-0.71438 0.18521-1.1112z" display="block" class="g10_1" stroke="#e1393e" stroke-width=".26517" fill="none"/>
    <path d="m34.923 266.62h-1.455c0.15875-0.34396 0.21167-0.71438 0.21167-1.1112v-0.87313l-1.0848-1.561c-0.18521-0.26458-0.37042-0.50271-0.60854-0.71437h1.4552v0.0794c0 0.10584 0.02646 0.21167 0.05292 0.29104l0.74083 1.0848 0.635-1.0054c0.05292-0.10583 0.07937-0.21167 0.07937-0.3175v-0.13229h1.3229c-0.26458 0.21166-0.47625 0.44979-0.635 0.71437l-0.92604 1.3758v1.0583c0 0.39687 0.05292 0.76729 0.21167 1.1112z" class="g9_1" stroke-width=".26458" display="block" fill="#e1393e"/>
    <path d="m34.923 266.62h-1.455c0.15875-0.34396 0.21167-0.71438 0.21167-1.1112v-0.87313l-1.0848-1.561c-0.18521-0.26458-0.37042-0.50271-0.60854-0.71437h1.4552v0.0794c0 0.10584 0.02646 0.21167 0.05292 0.29104l0.74083 1.0848 0.635-1.0054c0.05292-0.10583 0.07937-0.21167 0.07937-0.3175v-0.13229h1.3229c-0.26458 0.21166-0.47625 0.44979-0.635 0.71437l-0.92604 1.3758v1.0583c0 0.39687 0.05292 0.76729 0.21167 1.1112z" display="block" class="g10_1" stroke="#e1393e" stroke-width=".26517" fill="none"/>
    <path d="m31.166 257.73c0 2.1167-1.5081 3.2544-3.3602 3.2544-1.8256 0-3.3338-1.0848-3.3338-3.2544 0-1.7992 1.5081-3.2544 3.3338-3.2544 1.8521 0 3.3602 1.4552 3.3602 3.2544m-3.3602-2.4871c-1.0319 0-1.5081 1.1906-1.5081 2.4606 0 1.2435 0.47625 2.4606 1.5081 2.4606 1.0319 0 1.5081-1.2171 1.5081-2.4606 0-1.27-0.47625-2.4606-1.5081-2.4606z" class="g9_1" stroke-width=".26458" display="block" fill="#e1393e"/>
    <path d="m26.218 293.13c0-0.55563 0.15875-0.84667 0.47625-0.84667 0.37042 0 0.50271 0.26459 0.50271 0.84667s-0.15875 0.84667-0.50271 0.84667c-0.3175 0-0.47625-0.26459-0.47625-0.84667m1.1112 0.97896c0.47625-0.13229 0.71438-0.52917 0.71438-1.0319 0-0.76729-0.44979-1.1906-1.2965-1.1906-0.87312 0-1.3758 0.47625-1.3758 1.1906 0 0.52917 0.23812 0.89959 0.71438 1.0319v0.0529c-0.58208 0.15875-0.89958 0.635-0.89958 1.3494 0 0.89958 0.55562 1.2965 1.5081 1.4817 0.97896 0.1852 1.5081-0.29105 1.5081-1.1906 0-0.66146-0.3175-1.4817-0.87312-1.6404zm-1.1377 1.3494c0-0.71437 0.15875-1.0848 0.50271-1.0848 0.37042 0 0.52917 0.37042 0.52917 1.0848 0 0.74084-0.18521 1.1112-0.52917 1.1112-0.37042 0-0.50271-0.37041-0.50271-1.1112z" class="g8_1" stroke-width=".26458" display="block" fill="#1d479b"/>
    <path d="m26.218 293.13c0-0.55563 0.15875-0.84667 0.47625-0.84667 0.37042 0 0.50271 0.26459 0.50271 0.84667s-0.15875 0.84667-0.50271 0.84667c-0.3175 0-0.47625-0.26459-0.47625-0.84667zm1.1112 0.97896c0.47625-0.13229 0.71438-0.52917 0.71438-1.0319 0-0.76729-0.44979-1.1906-1.2965-1.1906-0.87312 0-1.3758 0.47625-1.3758 1.1906 0 0.52917 0.23812 0.89959 0.71438 1.0319v0.0529c-0.58208 0.15875-0.89958 0.635-0.89958 1.3494 0 0.89958 0.55562 1.2965 1.5081 1.4817 0.97896 0.1852 1.5081-0.29105 1.5081-1.1906 0-0.66146-0.3175-1.4817-0.87312-1.6404zm-1.1377 1.3494c0-0.71437 0.15875-1.0848 0.50271-1.0848 0.37042 0 0.52917 0.37042 0.52917 1.0848 0 0.74084-0.18521 1.1112-0.52917 1.1112-0.37042 0-0.50271-0.37041-0.50271-1.1112z" display="block" class="g11_1" stroke="#1d479b" stroke-width=".30276" fill="none"/>
    <path d="m30.637 295.57c0 0.76729-0.15875 1.1377-0.44979 1.1377-0.3175 0-0.47625-0.39687-0.47625-1.1906 0-0.68792 0.13229-1.0319 0.44979-1.0319 0.34396 0 0.47625 0.34396 0.47625 1.0848m-0.9525-1.2436v-0.0265c0-1.2171 0.26458-1.9315 0.82021-1.9315 0.26458 0 0.44979 0.15875 0.635 0.44979l0.05292-0.0265c0-0.21167 0.02646-0.44979 0.07937-0.71437-0.26458-0.1323-0.76729-0.18521-1.0319-0.18521-1.1906 0-1.614 1.3758-1.614 3.2544 0 1.4288 0.52917 2.1167 1.561 1.9579 0.89958-0.13229 1.4552-0.66146 1.4552-1.7462 0-0.89958-0.42333-1.4288-1.1112-1.4288-0.37042 0-0.68792 0.15875-0.84667 0.39687z" class="g8_1" stroke-width=".26458" display="block" fill="#1d479b"/>
    <path d="m30.637 295.57c0 0.76729-0.15875 1.1377-0.44979 1.1377-0.3175 0-0.47625-0.39687-0.47625-1.1906 0-0.68792 0.13229-1.0319 0.44979-1.0319 0.34396 0 0.47625 0.34396 0.47625 1.0848zm-0.9525-1.2436v-0.0265c0-1.2171 0.26458-1.9315 0.82021-1.9315 0.26458 0 0.44979 0.15875 0.635 0.44979l0.05292-0.0265c0-0.21167 0.02646-0.44979 0.07937-0.71437-0.26458-0.1323-0.76729-0.18521-1.0319-0.18521-1.1906 0-1.614 1.3758-1.614 3.2544 0 1.4288 0.52917 2.1167 1.561 1.9579 0.89958-0.13229 1.4552-0.66146 1.4552-1.7462 0-0.89958-0.42333-1.4288-1.1112-1.4288-0.37042 0-0.68792 0.15875-0.84667 0.39687z" display="block" class="g12_1" stroke="#1d479b" stroke-width="0.306" fill="none"/>
    <path d="m32.277 295.75c0.15875 0.3175 0.58208 0.34396 0.58208 0.34396 0.89958-0.0529 0.79375-1.4552 0.79375-1.4552-0.10583-0.71437-0.635-0.635-1.0848-0.58208-0.07938 0-0.18521 0-0.23812 0.0265v-0.52917h0.15875c0.47625-0.0529 0.79375-0.18521 0.87312-0.635 0.05292-0.29104 0-0.74083-0.47625-0.71437-0.52917 0-0.635 0.39687-0.79375 0.60854l-0.05292-0.0265-0.05292-0.635c0.26458-0.3175 0.97896-0.37042 0.97896-0.37042 0.74083-0.0794 1.2965 0.34396 1.3494 0.89959 0.02646 0.42333-0.13229 0.60854-0.635 0.84666v0.0265c0.60854-0.0265 0.84667 0.18521 0.97896 0.60854 0.23812 0.66146 0.15875 2.4077-2.8046 2.5665 0 0 0.23812-0.29104 0.3175-0.9525z" class="g8_1" stroke-width=".26458" display="block" fill="#1d479b"/>
    <path d="m32.277 295.75c0.15875 0.3175 0.58208 0.34396 0.58208 0.34396 0.89958-0.0529 0.79375-1.4552 0.79375-1.4552-0.10583-0.71437-0.635-0.635-1.0848-0.58208-0.07938 0-0.18521 0-0.23812 0.0265v-0.52917h0.15875c0.47625-0.0529 0.79375-0.18521 0.87312-0.635 0.05292-0.29104 0-0.74083-0.47625-0.71437-0.52917 0-0.635 0.39687-0.79375 0.60854l-0.05292-0.0265-0.05292-0.635c0.26458-0.3175 0.97896-0.37042 0.97896-0.37042 0.74083-0.0794 1.2965 0.34396 1.3494 0.89959 0.02646 0.42333-0.13229 0.60854-0.635 0.84666v0.0265c0.60854-0.0265 0.84667 0.18521 0.97896 0.60854 0.23812 0.66146 0.15875 2.4077-2.8046 2.5665 0 0 0.23812-0.29104 0.3175-0.9525z" display="block" class="g13_1" stroke="#1d479b" stroke-width=".25345" fill="none"/>
    <path d="m24.71 296.47c-0.50271-0.18521-1.2435-0.60854-1.2435-0.60854 0.02646-0.39688 0.13229-1.2435 0.13229-2.6723 0-0.15875-0.02646-0.26459-0.02646-0.50271-0.23812 0.10583-0.15875 0.0265-0.39688 0.15875l-0.26458-0.39688c0.635-0.21166 0.89958-0.23812 1.5346-0.58208l0.13229 0.0794c-0.02646 1.27-0.02646 1.9844-0.02646 2.4077 0 0.52917 0.07938 1.3758 0.13229 1.905 0 0.10584 0.02646 0.21167 0.02646 0.21167z" class="g8_1" stroke-width=".26458" display="block" fill="#1d479b"/>
    <path d="m24.71 296.47c-0.50271-0.18521-1.2435-0.60854-1.2435-0.60854 0.02646-0.39688 0.13229-1.2435 0.13229-2.6723 0-0.15875-0.02646-0.26459-0.02646-0.50271-0.23812 0.10583-0.15875 0.0265-0.39688 0.15875l-0.26458-0.39688c0.635-0.21166 0.89958-0.23812 1.5346-0.58208l0.13229 0.0794c-0.02646 1.27-0.02646 1.9844-0.02646 2.4077 0 0.52917 0.07938 1.3758 0.13229 1.905 0 0.10584 0.02646 0.21167 0.02646 0.21167z" display="block" class="g14_1" stroke="#1d479b" stroke-width=".27326" fill="none"/>
    <path d="m20.212 293.9c-0.44979-0.39687-0.89958-0.84667-1.3229-1.3229-2.1167-2.3548-3.0956-4.7625-3.0956-4.789l-0.02646-0.0265c-1.1906-2.8575-1.3229-6.1912-1.3229-7.5142v-0.58208-17.383h5.7415z" class="g9_1" stroke-width=".26458" display="block" fill="#e1393e"/>
    <path d="m37.198 293.9c0.47625-0.39687 0.89958-0.84667 1.3494-1.3229 2.1167-2.3548 3.0692-4.7625 3.0956-4.789v-0.0265c1.2171-2.8575 1.3494-6.1912 1.3494-7.5142 0-0.37042-0.02646-0.58208-0.02646-0.58208v-17.383h-5.7415z" class="g9_1" stroke-width=".26458" display="block" fill="#e1393e"/>
    <g stroke-width=".26458" fill="#fff">
     <path d="m23.943 302.34 0.18521-0.82021c0.05292-0.13229 0.07938-0.21167 0.07938-0.29104 0.02646-0.0265 0.02646-0.10583 0.07937-0.23813 0.07937 0.0265 0.13229 0.0265 0.15875 0.0265 0.34396 0.10584 0.47625 0.34396 0.37042 0.76729-0.13229 0.52917-0.39688 0.66146-0.87312 0.55563m-0.10583 0.37042c0.05292 0 0.10583 0.0265 0.18521 0.0529 0.84667 0.21167 1.3758-0.0529 1.561-0.82021 0.18521-0.66145-0.10583-1.0319-0.82021-1.2171-0.29104-0.0794-0.58208-0.13229-0.84667-0.21167-0.10583 0-0.23812-0.0529-0.37042-0.10583-0.13229 0.66146-0.26458 1.27-0.39688 1.7992-0.13229 0.47625-0.29104 1.0583-0.52917 1.7727 0.18521 0.0265 0.34396 0.0529 0.44979 0.0794 0.13229 0.0265 0.26458 0.0794 0.42333 0.15875 0.07937-0.44979 0.13229-0.71437 0.15875-0.79375z" class="g7_1" display="block"/>
     <path d="m27.091 303c0-1.0054 0.39688-1.561 0.97896-1.561s0.97896 0.55562 0.97896 1.561-0.39688 1.561-0.97896 1.561-0.97896-0.55563-0.97896-1.561m-0.87312 0.0529c0 1.1906 0.66146 1.8521 1.7992 1.8521 1.2171 0 1.905-0.71438 1.8785-1.9844 0-1.1906-0.66146-1.8521-1.7727-1.8256-1.1906 0-1.905 0.71437-1.905 1.9579z" class="g7_1" display="block"/>
     <path d="m32.013 301.33c0.02646 0.29104 0.05292 0.55563 0.10583 0.74084 0 0.0794 0.02646 0.15875 0.02646 0.23812 0.13229 0.76729 0.26458 1.5081 0.44979 2.196-0.21167 0.0265-0.37042 0.0265-0.44979 0.0529-0.13229 0.0265-0.26458 0.0529-0.44979 0.10583-0.05292-0.66146-0.15875-1.27-0.23812-1.8256-0.05292-0.29104-0.15875-0.74084-0.29104-1.3758-0.26458 0.0529-0.55562 0.1323-0.82021 0.21167-0.02646-0.10583-0.02646-0.18521-0.02646-0.26458-0.02646-0.0529-0.05292-0.13229-0.07937-0.23813 0.52917-0.0794 0.9525-0.13229 1.27-0.18521 0.3175-0.0529 0.74083-0.13229 1.27-0.23812 0 0.10583 0 0.18521 0.02646 0.21167 0 0.0794 0.02646 0.1852 0.05292 0.29104-0.29104 0-0.58208 0.0265-0.84667 0.0794z" class="g7_1" display="block"/>
     <path d="m35.055 300.43c0.07937 0.29104 0.18521 0.52917 0.23812 0.71437 0.02646 0.0794 0.05292 0.15875 0.07937 0.21167 0.26458 0.74083 0.50271 1.4552 0.79375 2.1167-0.21167 0.0529-0.34396 0.0794-0.42333 0.13229-0.13229 0.0265-0.26458 0.0794-0.42333 0.15875-0.18521-0.635-0.37042-1.2171-0.55562-1.7462-0.10583-0.29104-0.26458-0.71438-0.47625-1.3229-0.29104 0.10584-0.55562 0.21167-0.79375 0.34396-0.02646-0.0794-0.05292-0.18521-0.07937-0.26458-0.02646-0.0529-0.05292-0.10584-0.10583-0.21167 0.50271-0.15875 0.92604-0.29104 1.2171-0.39687 0.3175-0.10584 0.71438-0.23813 1.1906-0.4498 0.05292 0.10584 0.05292 0.18521 0.07937 0.23813 0.02646 0.0794 0.05292 0.15875 0.10583 0.26458-0.29104 0.0529-0.55562 0.10584-0.84667 0.21167z" class="g7_1" display="block"/>
     <path d="m37.437 301.23c-0.05292-0.13229-0.10583-0.23813-0.18521-0.34396-0.02646-0.0529-0.05292-0.13229-0.10583-0.18521-0.23812-0.47625-0.50271-0.9525-0.82021-1.4023 0.39688-0.21167 0.68792-0.34396 0.82021-0.42333 0.23812-0.13229 0.52917-0.29104 0.87312-0.50271 0.05292 0.0794 0.07937 0.15875 0.10583 0.21167 0.02646 0.0529 0.07937 0.13229 0.13229 0.21166-0.23812 0.10584-0.47625 0.21167-0.68792 0.3175-0.07937 0.0529-0.18521 0.10584-0.26458 0.15875 0.13229 0.23813 0.23812 0.47625 0.37042 0.71438l0.13229 0.23812c0.23812-0.13229 0.52917-0.3175 0.89958-0.55562 0.05292 0.13229 0.07937 0.18521 0.10583 0.23812 0.02646 0.0529 0.07937 0.10584 0.13229 0.21167-0.3175 0.15875-0.635 0.3175-0.92604 0.47625l0.26458 0.50271c0.13229 0.23812 0.26458 0.44979 0.37042 0.60854 0.29104-0.15875 0.58208-0.3175 0.87312-0.52917 0.05292 0.0794 0.07937 0.15875 0.13229 0.21167 0 0.0529 0.05292 0.13229 0.13229 0.21167-0.50271 0.26458-0.84667 0.44979-1.0848 0.55562-0.15875 0.10583-0.37042 0.21167-0.60854 0.37042-0.21167-0.47625-0.42333-0.89959-0.66146-1.2965z" class="g7_1" display="block"/>
     <path d="m40.321 298.66-0.47625-0.58208c-0.07937-0.13229-0.21167-0.29104-0.34396-0.50271 0.05292-0.0265 0.07937-0.0529 0.07937-0.0529 0.34396-0.29104 0.635-0.26458 0.89958 0.10584 0.3175 0.39687 0.26458 0.68791-0.15875 1.0319m0.58208 2.0902c0.13229-0.13229 0.23812-0.21167 0.3175-0.29104 0.07937-0.0529 0.21167-0.13229 0.34396-0.23813-0.21167-0.23812-0.44979-0.50271-0.66146-0.79375l-0.42333-0.55562c0.84667 0.34396 1.4288 0.60854 1.7727 0.82021 0.13229-0.1323 0.26458-0.23813 0.37042-0.3175 0.07938-0.0794 0.23812-0.15875 0.42333-0.29105-0.55562-0.1852-1.2171-0.44979-1.9844-0.79375 0.34396-0.3175 0.37042-0.76729 0.05292-1.1906-0.42333-0.52917-0.87312-0.52917-1.4552-0.0794-0.26458 0.21167-0.50271 0.42334-0.71438 0.60855-0.10583 0.0794-0.21167 0.13229-0.3175 0.21166 0.47625 0.50271 0.84667 1.0054 1.1906 1.4288 0.02646 0.0265 0.07937 0.0794 0.10583 0.13229 0.29104 0.37042 0.635 0.79375 0.97896 1.3494z" class="g7_1" display="block"/>
     <path d="m43.046 297.5 0.05292-0.0529c0.39688 0.23812 0.71438 0.21166 1.0054-0.0794 0.23812-0.29104 0.21167-0.58208-0.02646-0.79375-0.23812-0.21166-0.47625-0.13229-0.89958 0.0265-0.60854 0.23813-1.0054 0.3175-1.4288-0.0529-0.52917-0.47625-0.58208-1.1112-0.05292-1.6933 0.21167-0.23812 0.44979-0.39687 0.74083-0.50271 0.13229 0.21167 0.26458 0.42334 0.39688 0.60854l-0.02646 0.0529c-0.39688-0.15875-0.66146-0.13229-0.87312 0.13229-0.23812 0.23813-0.21167 0.52917 0 0.71438 0.23812 0.21166 0.47625 0.0794 0.9525-0.10584 0.58208-0.21166 0.92604-0.3175 1.4023 0.0794 0.58208 0.50271 0.58208 1.1906 0.02646 1.8521-0.21167 0.23813-0.44979 0.42334-0.71438 0.50271-0.18521-0.23812-0.37042-0.47625-0.55562-0.68792z" class="g7_1" display="block"/>
    </g>
    <path d="m18.016 257.65c-0.21167-0.15875-0.76729-0.42333-1.3758-0.76729-0.50271-0.29104-0.89958-0.52916-0.87312-0.89958 0-0.37042 0.34396-0.68792 0.92604-0.66146 0.58208 0.0265 1.1906 0.39688 1.6404 0.9525l-0.02646-1.5875c-0.39688-0.13229-0.79375-0.21167-1.2171-0.21167-1.7462-0.0529-2.831 0.66146-2.8575 1.7992-0.02646 0.74083 0.44979 1.2171 1.3494 1.7198 0.82021 0.44979 1.5081 0.66146 1.5346 1.2435-0.02646 0.42334-0.39688 0.7673-1.0054 0.74084-0.635 0-1.2435-0.42334-1.7198-1.0583l0.02646 1.7992c0.42333 0.15875 0.9525 0.21167 1.4023 0.23813 1.7992 0.0529 2.9104-0.74084 2.9633-2.0373 0-0.5027-0.23812-0.89958-0.76729-1.27z" class="g9_1" stroke-width=".26458" display="block" fill="#e1393e"/>
    <g stroke-width=".26458" fill="#fff">
     <path d="m15.423 295.41c-0.23812 0.21166-0.42333 0.39687-0.55562 0.52916-0.05292 0.0529-0.10583 0.10584-0.15875 0.15875-0.55562 0.52917-1.1112 1.0583-1.5875 1.614-0.13229-0.18521-0.21167-0.29104-0.29104-0.34396-0.07937-0.10583-0.18521-0.18521-0.34396-0.3175 0.52917-0.42333 0.97896-0.84666 1.3758-1.2435l0.97896-0.97896c-0.21167-0.21166-0.42333-0.39687-0.66146-0.58208 0.10583-0.0529 0.15875-0.13229 0.23813-0.18521 0.02646-0.0265 0.07938-0.0794 0.15875-0.18521 0.34396 0.39688 0.635 0.71438 0.84667 0.9525 0.23812 0.23813 0.52917 0.52917 0.92604 0.89959-0.07938 0.0529-0.13229 0.10583-0.18521 0.15875-0.05292 0.0529-0.10583 0.10583-0.18521 0.1852-0.15875-0.21166-0.34396-0.44979-0.55562-0.66145z" class="g7_1" display="block"/>
     <path d="m15.582 297.92c0.05292-0.0529 0.10583-0.10584 0.13229-0.15875 0.34396-0.42334 0.74083-0.89959 1.1377-1.4552 0.13229 0.13229 0.23812 0.23812 0.3175 0.29104 0.10583 0.0794 0.21167 0.15875 0.37042 0.26458-0.21167 0.21167-0.39688 0.42334-0.58208 0.66146l-0.37042 0.44979c0.23812 0.21167 0.39688 0.34396 0.47625 0.42334 0.15875 0.10583 0.34396 0.23812 0.55562 0.39687l0.37042-0.44979c0.18521-0.21167 0.34396-0.44979 0.50271-0.68792 0.15875 0.15875 0.26458 0.26459 0.34396 0.3175 0.07937 0.0794 0.18521 0.1323 0.37042 0.26459-0.47625 0.47625-0.87312 0.9525-1.2171 1.3758-0.05292 0.0529-0.07938 0.10583-0.13229 0.15875-0.29104 0.34396-0.635 0.76729-1.0054 1.2965-0.13229-0.13229-0.23812-0.21167-0.3175-0.29104-0.10583-0.0794-0.21167-0.15875-0.37042-0.26459 0.18521-0.21166 0.37042-0.39687 0.52917-0.60854l0.60854-0.74083c-0.18521-0.18521-0.37042-0.3175-0.50271-0.44979-0.10583-0.0794-0.26458-0.21167-0.50271-0.39688l-0.60854 0.76729c-0.18521 0.18521-0.34396 0.39688-0.47625 0.635-0.13229-0.13229-0.26458-0.23812-0.34396-0.3175-0.07938-0.0794-0.21167-0.15875-0.34396-0.26458 0.44979-0.47625 0.79375-0.87312 1.0583-1.2171z" class="g7_1" display="block"/>
     <path d="m18.942 300.67c0.05292-0.10583 0.10583-0.21166 0.15875-0.3175 0.05292-0.0794 0.07938-0.13229 0.10583-0.21166 0.26458-0.47625 0.52917-0.92604 0.74083-1.4552 0.37042 0.23812 0.66146 0.39687 0.79375 0.47625 0.23812 0.13229 0.52917 0.29104 0.89958 0.44979-0.05292 0.10583-0.10583 0.15875-0.13229 0.21167-0.02646 0.0529-0.05292 0.13229-0.07938 0.21166-0.23812-0.13229-0.44979-0.26458-0.66146-0.39687-0.07937-0.0265-0.18521-0.0794-0.26458-0.13229-0.15875 0.23812-0.26458 0.47625-0.39688 0.68791l-0.13229 0.26459c0.23812 0.10583 0.55562 0.26458 0.92604 0.44979-0.05292 0.0794-0.10583 0.15875-0.13229 0.21167-0.02646 0.0529-0.05292 0.13229-0.10583 0.23812-0.29104-0.21167-0.58208-0.39687-0.89958-0.55562l-0.26458 0.52916c-0.13229 0.23813-0.23812 0.44979-0.3175 0.635 0.29104 0.15875 0.58208 0.3175 0.92604 0.44979-0.05292 0.0794-0.07938 0.15875-0.13229 0.21167-0.02646 0.0529-0.05292 0.13229-0.10583 0.23813-0.47625-0.29105-0.82021-0.47625-1.0319-0.60855-0.15875-0.0794-0.37042-0.1852-0.66146-0.3175 0.29104-0.42333 0.52917-0.84666 0.76729-1.27z" class="g7_1" display="block"/>
    </g>
   </g>
  </g>
 </g>
</svg>
