<svg xmlns="http://www.w3.org/2000/svg" height="220" width="220" version="1.1" viewBox="0 0 58.208332 58.208335">
 <g transform="translate(0 -238.79)">
  <g transform="translate(-5.8333e-8 -.0000018318)">
   <g stroke-width=".26458" transform="translate(65.201 -17.009)">
    <path d="m-8.1071 292.35c-0.02646-0.0265-0.05292-0.0529-0.07937-0.0529l-3.4925-1.3229c0.07937-0.26459 0.21167-0.58209 0.44979-0.9525l1.7992 0.79375c0.05292 0.0529 0.10583 0.0529 0.18521 0.0529 0.15875 0 0.3175-0.0794 0.39688-0.23812 0.02646-0.0794 0.18521-0.29104 0.29104-0.58209 0.18521-0.47625 0.21167-0.89958 0.10583-1.2435-0.10583-0.37041-0.37042-0.635-0.74083-0.82021l-4.8154-2.196-0.02646-0.0265c-0.18521-0.0794-0.52917-0.1852-0.9525-0.0265v-0.4498c0-0.37041 0-0.76729-0.02646-1.1642-0.02646-0.39688-0.05292-0.82021-0.10583-1.2171-0.29104-2.4342-0.84667-4.2333-1.0848-4.8683l-0.07938-0.23812c-0.92604-2.6194-1.6669-4.6831-1.6404-7.1702 0-1.8785 2.3283-4.4979 3.2279-5.3446l0.84667-0.8202-8.8635-8.0962-0.71438 0.47625c-1.614 1.0583-3.7306 1.6669-5.9267 1.6669-2.3019 0-4.4715-0.66146-6.1383-1.7992l-0.60854-0.44979-0.60854 0.44979c-1.6669 1.1377-3.8365 1.7992-6.1383 1.7992-2.196 0-4.3127-0.60854-5.9267-1.6669l-0.71438-0.47625-8.0169 7.329-0.84667 0.7673 0.82021 0.8202c0.89958 0.84667 3.2544 3.466 3.2808 5.3446 0 2.4871-0.74083 4.5508-1.6669 7.1702l-0.07937 0.23812c-0.23812 0.635-0.82021 2.4342-1.0848 4.8683-0.02646 0.39688-0.07937 0.82021-0.07937 1.2171-0.02646 0.39687-0.05292 0.79375-0.05292 1.1642v0.4498c-0.42333-0.15875-0.76729-0.0529-0.92604 0.0265h-0.02646l-0.02646 0.0265-4.789 2.196c-0.39688 0.18521-0.66146 0.4498-0.76729 0.82021-0.10583 0.34396-0.07937 0.76729 0.10583 1.2435 0.13229 0.29105 0.26458 0.50271 0.3175 0.58209 0.07937 0.15875 0.23812 0.23812 0.39688 0.23812 0.05292 0 0.10583 0 0.18521-0.0529l1.7992-0.79375c0.23812 0.37041 0.34396 0.68791 0.42333 0.9525l-3.4925 1.3229c-0.02646 0-0.05292 0.0265-0.05292 0.0529-0.02646 0.0529-0.02646 0.0794 0 0.10583l0.18521 0.52917c2.196 5.424 5.9002 10.107 10.716 13.467 4.4979 3.1221 9.7367 4.9477 15.187 5.2917l1.7992 1.7727c0.02646 0.0265 0.05292 0.0265 0.07937 0.0265 0.02646 0 0.05292 0 0.07938-0.0265l1.7992-1.7727c5.4504-0.34396 10.716-2.1696 15.187-5.2917 4.8154-3.3602 8.546-8.0433 10.716-13.467l0.21167-0.52917v-0.10583z" class="g7_1" display="block" fill="#fff"/>
    <g fill="#21468a">
     <path d="m-58.563 288.25c-0.15875-0.44979-0.21167-0.92604-0.15875-1.3229 0-0.0265 0-0.0529 0.02646-0.10583l0.05292-0.21167-4.1275 1.8785c-0.23812 0.10584-0.37042 0.26459-0.44979 0.47625-0.10583 0.42334 0.15875 1.0054 0.26458 1.2171l0.05292 0.10583 4.3921-1.9315z" class="g164_1" display="block"/>
     <path d="m-13.637 288.25c0.18521-0.44979 0.23812-0.92604 0.15875-1.3229 0-0.0265 0-0.0529-0.02646-0.10583l-0.05292-0.21167 4.1275 1.8785c0.23812 0.10584 0.39688 0.26459 0.44979 0.47625 0.13229 0.42334-0.15875 1.0054-0.26458 1.2171l-0.05292 0.10583-4.3921-1.9315z" class="g164_1" display="block"/>
     <path d="m-50.282 303.78-0.635 0.52917 0.55562 0.34395 0.21167-0.76729c0.02646-0.10583 0.05292-0.18521 0.07937-0.23812-0.07937 0.0265-0.13229 0.0794-0.21167 0.13229z" class="g164_1" display="block"/>
     <path d="m-27.977 306.22c-0.3175 0.10583-0.44979 0.47625-0.26458 1.0319 0.18521 0.60854 0.47625 0.79375 0.84667 0.66146 0.34396-0.10583 0.47625-0.44979 0.26458-1.0319-0.21167-0.60854-0.50271-0.76729-0.84667-0.66145z" class="g164_1" display="block"/>
     <path d="m-25.464 305.24-0.15875 0.0794 0.34396 0.76729c0.05292 0 0.18521-0.0529 0.21167-0.0794 0.26458-0.10583 0.34396-0.3175 0.23812-0.58208-0.13229-0.26459-0.34396-0.3175-0.635-0.18521z" class="g164_1" display="block"/>
     <path d="m-31.39 282.7s-0.50271-0.13229-0.87312-0.21167c-0.44979-0.0794-0.71438-0.0794-0.82021-0.10583-0.07938 0-0.34396 0-0.3175-0.15875 0-0.0794 0.10583-0.10584 0.21167-0.13229 0.15875 0 0.58208 0.0529 0.82021 0.0794 0.60854 0.0794 0.97896 0.21167 0.97896 0.18521v-0.76729s-0.82021-0.29104-1.7198-0.39688c-0.60854-0.0529-0.89958-0.0265-1.2435-0.0529-0.07937 0-0.21167 0.0265-0.21167-0.0794 0-0.13229 0.13229-0.13229 0.15875-0.15875 0.47625-0.0265 1.0583-0.0529 1.6669 0 0.66146 0.0265 1.3494 0.29104 1.3494 0.26458v-0.8202c-0.26458-0.10584-0.635-0.23813-0.9525-0.29105-0.39688-0.0529-0.92604-0.0794-1.0054-0.0794-0.07937 0-0.10583-0.0529-0.13229-0.0794 0-0.0529 0.02646-0.10583 0.10583-0.13229 0.10583-0.0265 0.42333-0.0265 0.76729-0.0265 0.26458 0.0265 0.89958 0.0794 1.2171 0.1323l-0.02646-0.60855c-0.58208-0.3175-1.5081-0.47625-2.1167-0.55562-0.89958-0.15875-1.7198-0.15875-1.8521-0.15875-0.07937-0.0265-0.15875-0.0265-0.15875-0.10583 0-0.0529 0.02646-0.10584 0.15875-0.10584 0.10583 0 0.82021-0.0265 1.905 0.0794 0.52917 0.0265 1.5875 0.23812 2.0638 0.34396v-0.60855c-0.52917-0.26458-1.3758-0.44979-2.5665-0.635-1.4817-0.21166-4.3127-0.10583-4.445-0.10583-0.21167 0.0265-0.23812-0.0265-0.26458-0.10583 0-0.0794 0.07938-0.10584 0.21167-0.13229 0.15875-0.0265 2.0902-0.21167 3.6512-0.1323 1.1906 0.0529 2.884 0.37042 3.4131 0.47625l-0.02646-0.47625c-0.87312-0.60854-2.3548-0.66145-2.4342-0.66145-0.10583-0.0265-0.15875-0.0529-0.18521-0.10584 0-0.0529 0.05292-0.10583 0.13229-0.13229 0.07937 0 0.29104-0.0265 0.74083 0 0.37042 0.0265 1.3758 0.23813 1.7462 0.3175v-0.47625c-0.66146-0.37042-2.196-0.60854-3.3602-0.71437 0 0-0.15875-0.0265-0.42333-0.0265v0.3175c0 0.10583-0.07937 0.15875-0.18521 0.15875-0.68792-0.0265-0.9525-0.0265-1.6404 0-0.10583 0-0.15875-0.0529-0.15875-0.15875l-0.02646-0.3175c-0.635 0.0265-1.3758 0.0794-2.196 0.15875-0.10583 0.0265-0.23812 0.0529-0.23812-0.0265-0.02646-0.0529 0-0.10583 0.15875-0.15875 0.10583-0.0265 1.7462-0.23813 2.1696-0.29104h0.07937l-0.10583-2.0108c0-0.0529 0.02646-0.0794 0.02646-0.13229 0.05292-0.0265 0.07937-0.0529 0.13229-0.0529 0.84667-0.0265 1.1377-0.0265 1.9579 0 0.05292 0 0.07938 0.0265 0.13229 0.0529 0 0.0265 0.02646 0.0794 0.02646 0.10584 0.39688 0.0265 0.76729 0.0265 1.0583 0.0529 0.66146 0.0265 2.1696 0.26459 2.5665 0.3175v-0.47625c-0.07937-0.0529-0.18521-0.0794-0.29104-0.13229-0.42333-0.15875-2.0373-0.44979-4.3656-0.44979-2.3548 0-3.7571 0.3175-3.9688 0.37042-0.23812 0.0529-0.50271 0.15875-0.47625 0.29104l0.02646 5.2917c-0.02646 0.34396 0 1.7727 0.02646 2.1167 0 0.55563 0.87312 0.89958 2.7781 1.561 1.9579 0.71438 4.4715 1.5081 6.35 2.0108z" class="g164_1" display="block"/>
     <path d="m-33.057 283.81c-0.37042-0.10584-0.55562-0.18521-0.9525-0.29104-0.02646-0.0265-0.05292 0-0.05292 0.0529v1.6404c0 0.0529 0.02646 0.0794 0.05292 0.10583 0.37042 0.10584 0.58208 0.18521 0.9525 0.3175 0.05292 0.0265 0.07937-0.0265 0.07937-0.0529v-1.6933c0-0.0265-0.02646-0.0794-0.07937-0.0794z" class="g164_1" display="block"/>
     <path d="m-34.645 283.3c-0.39688-0.10583-0.58208-0.15875-0.9525-0.29104-0.05292-0.0265-0.07937 0-0.07937 0.0265v1.614c0 0.0265 0.02646 0.0794 0.07937 0.0794 0.37042 0.13229 0.55562 0.21167 0.9525 0.34396 0.02646 0 0.05292 0 0.05292-0.0529v-1.6404c0-0.0265-0.02646-0.0529-0.05292-0.0794z" class="g164_1" display="block"/>
     <path d="m-37.846 282.25c-0.39688-0.1323-0.58208-0.18521-0.97896-0.34396-0.02646 0-0.05292 0-0.05292 0.0529v1.561c0 0.0265 0.02646 0.0794 0.05292 0.0794 0.37042 0.13229 0.58208 0.21167 0.97896 0.34396 0.02646 0.0265 0.05292 0 0.05292-0.0265v-1.5875c0-0.0265-0.02646-0.0529-0.05292-0.0794z" class="g164_1" display="block"/>
     <path d="m-32.343 270.63c-0.05292-0.0529-0.07937-0.10584-0.10583-0.21167-0.39688-0.13229-1.3494-0.37042-2.0108-0.42333-0.13229-0.0265-0.34396-0.0265-0.34396-0.13229 0-0.0794 0.07937-0.10584 0.29104-0.10584 0.55562 0 1.4552 0.13229 1.8521 0.21167-0.10583-0.23813-0.23812-0.50271-0.39688-0.82021-0.74083-0.29104-2.1167-0.37042-2.3812-0.39687-0.26458-0.0265-0.34396-0.0529-0.3175-0.1323 0-0.10583 0.15875-0.0794 0.58208-0.10583 0.50271 0 1.561 0.0794 1.8785 0.10583-0.10583-0.21166-0.21167-0.42333-0.3175-0.68791-0.42333-0.26459-1.1906-0.3175-1.4023-0.34396-0.21167 0-0.29104-0.0794-0.26458-0.15875 0-0.0529 0.10583-0.0794 0.18521-0.10583h1.0583c0.05292 0 0.10583-0.0529 0.05292-0.1323-0.07938-0.1852-0.13229-0.29104-0.23812-0.5027-0.13229-0.0529-0.3175-0.10584-0.47625-0.1323-0.10583-0.0265-0.52917-0.0529-0.76729-0.0794-0.10583-0.0265-0.13229-0.0529-0.13229-0.0794 0-0.0529 0.02646-0.10583 0.13229-0.10583 0.29104-0.0265 0.76729 0 0.89958 0 0.05292 0 0.15875-0.0529 0.10583-0.10583-0.05292-0.13229-0.10583-0.23813-0.15875-0.37042-0.10583-0.0529-0.29104-0.0794-0.44979-0.10583-0.18521-0.0529-0.55562-0.0794-0.87312-0.0794-0.07937 0-0.13229-0.0529-0.13229-0.10583 0-0.0265 0.02646-0.0794 0.13229-0.0794 0.18521-0.0529 0.635-0.0529 0.79375-0.0529s0.3175-0.0265 0.26458-0.15875c-0.10583-0.18521-0.15875-0.3175-0.23812-0.50271-0.13229 0-0.37042-0.0265-0.52917-0.0529-0.05292 0-0.15875 0-0.15875-0.0529 0-0.0794 0.07937-0.10584 0.15875-0.1323 0.05292-0.0265 0.23812-0.0794 0.37042-0.10583-0.07937-0.13229-0.10583-0.23812-0.15875-0.34396-0.18521-0.0265-0.52917-0.0265-0.79375-0.0265-0.10583 0-0.15875-0.0529-0.15875-0.10583 0-0.0529 0.02646-0.0794 0.13229-0.10583 0.21167-0.0529 0.50271-0.0794 0.66146-0.0794-0.15875-0.37041-0.34396-0.71437-0.47625-1.0583-1.1906 2.54-3.3867 7.2496-3.7571 7.9904 1.2435-0.29105 2.9104-0.39688 3.7042-0.39688 0.76729 0 2.5135 0.10583 3.7835 0.37042z" class="g164_1" display="block"/>
     <path d="m-39.46 281.66c-0.39688-0.13229-0.58208-0.18521-0.97896-0.34396-0.02646-0.0265-0.05292 0-0.05292 0.0265v1.614c0 0.0265 0.02646 0.0794 0.05292 0.0794 0.39688 0.13229 0.58208 0.21166 0.97896 0.34395 0.02646 0 0.05292 0 0.05292-0.0529v-1.561c0-0.0529-0.02646-0.0794-0.05292-0.10584z" class="g164_1" display="block"/>
     <path d="m-36.259 282.8c-0.37042-0.13229-0.55562-0.21167-0.9525-0.3175-0.02646-0.0265-0.07937 0-0.07937 0.0265v1.5875c0 0.0265 0.05292 0.0529 0.07937 0.0794 0.37042 0.1323 0.58208 0.21167 0.9525 0.34396 0.05292 0 0.07937 0 0.07937-0.0529v-1.5875c0-0.0265-0.02646-0.0794-0.07937-0.0794z" class="g164_1" display="block"/>
     <path d="m-39.354 290.79c0-0.42334-0.3175-0.71438-0.71438-0.71438-0.55562 0-0.79375 0.42334-0.84667 1.1377l1.0319-0.0265c0.37042 0 0.52917-0.10583 0.52917-0.39687z" class="g164_1" display="block"/>
     <path d="m-28.983 290.05c-0.74083 0-1.0054 0.68792-1.0054 1.7198 0 1.2435 0.37042 1.905 1.0319 1.905 0.68792 0 1.0583-0.58209 1.0583-1.7198 0-1.2171-0.39688-1.905-1.0848-1.905z" class="g164_1" display="block"/>
     <path d="m-33.639 273.94c0.07938 0 0.47625 0 0.97896 0.0529 0.39688 0.0529 0.9525 0.1852 1.1906 0.23812v-0.44979c-0.52917-0.21167-1.7198-0.42333-2.3548-0.50271-0.39688-0.0529-0.84667-0.10583-1.2965-0.13229l-0.07938 1.7198h0.39688c0.29104 0.0265 0.58208 0.0265 0.87312 0.0529 1.1112 0.13229 2.0638 0.34396 2.4606 0.42333v-0.60854c-0.635-0.52917-2.0902-0.58208-2.196-0.58208-0.07938 0-0.15875 0-0.15875-0.10584 0-0.0794 0.10583-0.0794 0.18521-0.10583z" class="g164_1" display="block"/>
     <path d="m-40.571 272.17c0.21167-0.0265 1.6933-0.58208 4.445-0.58208 2.6988 0 4.3392 0.60854 4.5244 0.68791 0.21167 0.10584 0.42333 0.15875 0.50271 0 0.10583-0.15875 0-0.37041-0.15875-0.44979-0.60854-0.39687-2.6988-0.87312-4.8683-0.84666-2.2225 0.0265-4.4185 0.5027-4.7096 0.635-0.3175 0.13229-0.44979 0.3175-0.34396 0.47625 0.15875 0.29104 0.42333 0.15875 0.60854 0.0794z" class="g164_1" display="block"/>
     <path d="m-31.443 284.28c-0.37042-0.13229-0.58208-0.18521-0.9525-0.29104-0.05292 0-0.07937 0-0.07937 0.0529v1.7198c0 0.0265 0.02646 0.0794 0.05292 0.0794 0.39688 0.13229 0.60854 0.21167 0.97896 0.34396 0.02646 0 0.05292 0 0.05292-0.0529v-1.7727c0-0.0265-0.02646-0.0794-0.05292-0.0794z" class="g164_1" display="block"/>
     <path d="m-36.709 275.37c0.50271-0.0265 1.1377 0 1.1377 0l0.13229-2.196c-0.52917-0.0265-1.4023 0-1.4023 0z" class="g164_1" display="block"/>
     <path d="m-8.1071 292.35c-0.02646 0-0.05292-0.0265-0.05292-0.0529l-3.4925-1.3229c0.05292-0.23813 0.18521-0.60855 0.42333-0.9525l1.7992 0.8202c0.05292 0 0.10583 0.0265 0.18521 0.0265 0.15875 0 0.29104-0.0794 0.39688-0.23812 0.02646-0.0794 0.18521-0.29104 0.29104-0.58209 0.18521-0.47625 0.21167-0.87312 0.10583-1.2435-0.10583-0.37041-0.37042-0.66146-0.74083-0.82021l-4.8154-2.196s0-0.0265-0.02646-0.0265c-0.18521-0.0794-0.52917-0.1852-0.9525-0.0265v-0.4498c0-0.37041 0-0.76729-0.02646-1.1642-0.02646-0.39688-0.05292-0.82021-0.10583-1.2171-0.29104-2.4342-0.84667-4.2333-1.0848-4.8683l-0.07938-0.21167c-0.92604-2.6458-1.6669-4.7096-1.6404-7.1967 0-1.8785 2.3283-4.4979 3.2279-5.371l0.84667-0.79375-8.8635-8.0698-0.71438 0.4498c-1.614 1.0583-3.7306 1.6404-5.9267 1.6404-2.3019 0-4.4715-0.635-6.1383-1.7992l-0.60854-0.42334-0.60854 0.42334c-1.6669 1.1642-3.8365 1.7992-6.1383 1.7992-2.196 0-4.3127-0.58208-5.9267-1.6404l-0.71438-0.4498-8.0169 7.3025-0.84667 0.7673 0.82021 0.79375c0.89958 0.87312 3.2544 3.4925 3.2808 5.371 0 2.4871-0.74083 4.5508-1.6669 7.1967l-0.07938 0.21167c-0.23812 0.635-0.82021 2.4342-1.0848 4.8683-0.02646 0.39688-0.07937 0.82021-0.07937 1.2171-0.02646 0.39687-0.05292 0.79375-0.05292 1.1642v0.4498c-0.42333-0.15875-0.76729-0.0529-0.92604 0.0265h-0.02646l-0.02646 0.0265-4.789 2.196c-0.39688 0.15875-0.66146 0.4498-0.76729 0.82021-0.10583 0.37042-0.07937 0.76729 0.10583 1.2435 0.10583 0.29105 0.26458 0.50271 0.3175 0.58209 0.07938 0.15875 0.21167 0.23812 0.39688 0.23812 0.05292 0 0.10583-0.0265 0.18521-0.0265l1.7992-0.8202c0.23812 0.34395 0.34396 0.71437 0.42333 0.9525l-3.4925 1.3229c-0.02646 0.0265-0.05292 0.0529-0.05292 0.0529-0.02646 0.0529-0.02646 0.0794 0 0.10583l0.18521 0.52917c2.196 5.4504 5.9002 10.107 10.716 13.467 4.4979 3.1221 9.7367 4.9477 15.187 5.2917l1.7992 1.7727c0.02646 0.0265 0.05292 0.0265 0.07937 0.0265 0.02646 0 0.07938 0 0.07938-0.0265l1.7992-1.7727c5.4504-0.34396 10.716-2.1696 15.187-5.2917 4.8154-3.3602 8.5196-8.0169 10.716-13.467l0.21167-0.52917v-0.10583m-6.8807-6.38c0.15875-0.0529 0.29104-0.10583 0.42333-0.10583 0.18521 0 0.34396 0.0529 0.42333 0.10583 0.02646 0 0.02646 0.0265 0.05292 0.0265l4.789 2.196c0.34396 0.13229 0.55562 0.37042 0.635 0.66146 0.13229 0.39687 0 0.82021-0.10583 1.1112-0.10583 0.26458-0.23812 0.50271-0.29104 0.55562-0.05292 0.10584-0.18521 0.1323-0.29104 0.10584l-1.9579-0.87313-0.05292 0.0794c-0.29104 0.37041-0.44979 0.76729-0.52917 1.0583l-0.29104-0.13229c0.05292-0.29104 0.21167-0.66146 0.47625-1.0319l0.07937-0.10583-2.3019-1.0054c-0.10583-0.0529-0.15875-0.1852-0.10583-0.29104l0.02646-0.0794c0.21167-0.44979 0.26458-0.87313 0.21167-1.27-0.05292-0.3175-0.23812-0.58209-0.44979-0.68792h-0.02646c-0.07937-0.0529-0.18521-0.0794-0.29104-0.0794-0.13229 0-0.29104 0.0529-0.44979 0.15875 0.02646-0.1323 0.02646-0.26459 0.02646-0.39688m-41.857-1.8256c0.02646-0.39688 0.05292-0.79375 0.10583-1.2171 0.26458-2.4077 0.82021-4.154 1.0583-4.789l0.07938-0.21166c0.9525-2.6723 1.6933-4.7625 1.6669-7.3025 0-1.9844-2.4077-4.7096-3.3602-5.6092l-0.55562-0.52917 0.58208-0.55562 7.8317-7.1173 0.47625 0.29104c1.6669 1.1112 3.8365 1.7462 6.1119 1.7462 2.3548 0 4.6038-0.68792 6.3235-1.8785l0.42333-0.29104 0.42333 0.29104c1.7198 1.1906 3.9688 1.8785 6.3235 1.8785 2.249 0 4.445-0.635 6.1119-1.7462l0.47625-0.29104 8.4138 7.6729-0.55562 0.52917c-0.92604 0.89958-3.3602 3.6248-3.3602 5.6092-0.02646 2.54 0.71438 4.6302 1.6669 7.3025l0.07937 0.21166c0.23812 0.635 0.79375 2.3812 1.0583 4.789 0.05292 0.42334 0.07937 0.82021 0.10583 1.2171 0 0.37041 0.02646 0.76729 0.02646 1.1377 0.02646 2.7781-0.52917 5.1858-1.614 7.1702-0.18521 0.3175-0.39688 0.66146-0.60854 0.9525-0.02646 0.0529-0.05292 0.10584-0.07937 0.15875l-0.02646 0.0265c-3.81 5.715-9.4456 9.2869-15.822 10.028h-0.05292l-2.5665 2.5665-2.5665-2.5665h-0.05292c-6.3765-0.74087-12.012-4.3128-15.822-10.028v-0.0265c-0.05292-0.0529-0.07937-0.10583-0.10583-0.13229-0.21167-0.3175-0.42333-0.66146-0.60854-0.97896-1.0848-1.9844-1.614-4.3921-1.614-7.1702 0-0.37041 0-0.76729 0.02646-1.1377m40.296 8.3079 0.84667 0.3175c-1.7198 3.2279-4.1804 6.0325-7.2496 8.1492-3.3867 2.3812-7.329 3.7571-11.456 4.0746l1.0054-1.0319c6.4823-0.79375 12.171-4.3921 16.007-10.186l0.02646-0.0265c0.02646-0.0529 0.07938-0.10583 0.10583-0.13229 0.21167-0.3175 0.42333-0.66146 0.60854-1.0054 0.02646-0.0529 0.07937-0.10583 0.10583-0.15875m-19.42 16.96c0.05292 0 0.10583 0.0529 0.10583 0.10584v0.21166c0 0.0529-0.05292 0.0794-0.10583 0.0794h-1.0054c-0.07937 0-0.10583-0.0529-0.10583-0.10583v-0.21167c0-0.0794 0.02646-0.0794 0.10583-0.0794h0.18521l0.02646-1.9579h-0.21167c-0.07937 0-0.10583-0.0529-0.10583-0.10584v-0.21166c0-0.0529 0.02646-0.0794 0.10583-0.0794l1.0583 0.0265c0.07937 0 0.10583 0.0265 0.10583 0.0794v0.21166c0 0.0529-0.05292 0.10584-0.10583 0.10584h-0.21167l-0.02646 1.9314zm-1.7992-4.4185c-4.154-0.3175-8.0962-1.6933-11.483-4.0746-3.0427-2.1167-5.5298-4.9212-7.2496-8.1492l0.87312-0.3175c0 0.0529 0.05292 0.10584 0.07937 0.15875 0.18521 0.34396 0.39688 0.68792 0.60854 1.0054 0.02646 0.0265 0.05292 0.0794 0.10583 0.13229v0.0265c3.8894 5.7944 9.5515 9.3927 16.034 10.186zm-23.072-15.161-0.05292-0.0794-1.9579 0.87313c-0.10583 0.0265-0.23812 0-0.29104-0.10584-0.02646-0.0529-0.18521-0.29104-0.29104-0.55562-0.10583-0.29104-0.21167-0.71438-0.10583-1.1112 0.07937-0.29104 0.3175-0.52917 0.635-0.66146l4.8154-2.196 0.02646-0.0265c0.07937-0.0529 0.23812-0.10583 0.42333-0.10583 0.13229 0 0.29104 0.0529 0.42333 0.10583 0.02646 0.13229 0.02646 0.26458 0.02646 0.37042-0.15875-0.0794-0.29104-0.13229-0.44979-0.13229-0.10583 0-0.18521 0.0265-0.29104 0.0794h-0.02646c-0.21167 0.10583-0.37042 0.37042-0.42333 0.68792-0.07937 0.39687 0 0.82021 0.18521 1.27l0.02646 0.0794c0.05292 0.10584 0 0.23813-0.10583 0.29104l-2.3019 1.0054 0.07937 0.10583c0.26458 0.37042 0.42333 0.74084 0.50271 1.0319l-0.3175 0.13229c-0.07937-0.29104-0.23812-0.68792-0.52917-1.0583m52.308 3.0427c-2.1696 5.424-5.8473 10.054-10.636 13.388-4.445 3.0956-9.6838 4.9212-15.108 5.2388-0.02646 0-0.05292 0.0265-0.07938 0.0529l-1.7462 1.7198-1.7462-1.7198c-0.02646-0.0265-0.02646-0.0529-0.07937-0.0529-5.3975-0.3175-10.636-2.1431-15.108-5.2388-4.789-3.3338-8.4667-7.964-10.61-13.388l-0.18521-0.42334 6.6146-2.5135c0.15875-0.0794 0.34396-0.0265 0.44979 0.13229 0.05292 0.0794 0.13229 0.21167 0.26458 0.3175 0.05292 0.18521 0.10583 0.34396 0.18521 0.50271-0.34396-0.10583-0.60854-0.44979-0.68792-0.58208l-0.02646-0.0529c-0.02646 0-0.02646-0.0265-0.05292-0.0265h-0.02646l-0.47625 0.18521-0.18521 0.10583 0.02646 0.0794c0.02646 0.0529 0.02646 0.0794 0.02646 0.10583 0.21167 0.50271 0.42333 0.9525 0.635 1.4288 0.05292 0.0529 0.07937 0.13229 0.10583 0.21167l0.21167-0.0794 0.87312-0.3175c0.05292 0.10584 0.10583 0.21167 0.15875 0.29105l-0.87312 0.3175-0.21167 0.0794c0.02646 0.0529 0.05292 0.13229 0.10583 0.18521 1.7462 3.3073 4.2333 6.1383 7.329 8.3079 3.519 2.4342 7.5671 3.8364 11.853 4.101l0.37042 0.34396c-4.4979-0.18521-8.7577-1.614-12.409-4.1804-3.8365-2.6723-6.7733-6.35-8.4931-10.663l-0.05292-0.10583-5.2652 2.0373 0.05292 0.10583c2.1431 5.3446 5.7679 9.9219 10.504 13.229 4.445 3.0956 9.6573 4.8948 15.108 5.1858l1.5346 1.5346 0.07937 0.0794 1.6404-1.614c5.424-0.29104 10.636-2.0902 15.081-5.1858 4.736-3.3073 8.3873-7.8846 10.53-13.229l0.02646-0.10583-5.2652-2.0373-0.02646 0.10583c-1.7462 4.3127-4.6831 7.9904-8.4931 10.663-3.6777 2.5665-7.9375 3.9952-12.409 4.1804l0.37042-0.34396c4.2598-0.26459 8.3344-1.6669 11.827-4.101 3.0956-2.1696 5.6092-5.0006 7.329-8.3079 0.05292-0.0529 0.07937-0.13229 0.10583-0.18521l-0.21167-0.0794-0.84667-0.3175c0.02646-0.0794 0.07937-0.18521 0.13229-0.29105l0.87312 0.3175 0.21167 0.0794c0.02646-0.0794 0.07937-0.15875 0.10583-0.21167 0.21167-0.47625 0.42333-0.92604 0.635-1.4288 0-0.0265 0.02646-0.0529 0.02646-0.10583l0.05292-0.0794-0.21167-0.10583-0.47625-0.18521h-0.02646s-0.02646 0.0265-0.05292 0.0265v0.0529c-0.10583 0.13229-0.37042 0.47625-0.71438 0.60854 0.05292-0.18521 0.13229-0.34396 0.18521-0.52917 0.10583-0.10583 0.21167-0.23812 0.26458-0.3175 0.10583-0.15875 0.29104-0.21166 0.44979-0.13229l6.6146 2.5135zm-29.422 14.261-0.3175 2.4871c0 0.10583-0.05292 0.13229-0.13229 0.10583l-0.3175-0.0265c-0.07937-0.0265-0.13229-0.0529-0.18521-0.10584l-0.97896-1.7198-0.21167 1.5346c0 0.0794-0.05292 0.10584-0.13229 0.10584l-0.34396-0.0529c-0.10583 0-0.13229-0.0265-0.13229-0.13229l0.3175-2.4871c0-0.10584 0.05292-0.1323 0.15875-0.10584l0.3175 0.0265c0.07937 0.0265 0.10583 0.0529 0.15875 0.13229l0.97896 1.6933 0.21167-1.5346c0-0.0794 0.05292-0.10583 0.13229-0.10583l0.37042 0.0529c0.10583 0 0.10583 0.0794 0.10583 0.13229m-5.6356-0.18521 0.39688 0.3175c0.26458 0.21167 0.39688 0.50271 0.26458 0.84667-0.15875 0.52916-0.68792 0.71437-1.2171 0.58208-0.23812-0.0794-0.52917-0.23813-0.74083-0.39688-0.07937-0.0265-0.07937-0.0529-0.07937-0.0794s0.02646-0.0529 0.05292-0.0794l0.18521-0.26458c0.02646-0.0529 0.05292-0.0794 0.10583-0.0529 0.02646 0 0.02646 0 0.05292 0.0265 0.18521 0.13229 0.37042 0.23813 0.58208 0.29104 0.15875 0.0529 0.37042 0.0265 0.42333-0.15875 0.05292-0.13229-0.02646-0.23812-0.13229-0.3175l-0.44979-0.39687c-0.23812-0.21167-0.37042-0.50271-0.26458-0.82021 0.15875-0.50271 0.71438-0.635 1.1642-0.47625 0.26458 0.0794 0.50271 0.18521 0.71438 0.37042 0.05292 0.0529 0.05292 0.0794 0.05292 0.10583 0 0.0265-0.02646 0.0265-0.02646 0.0529l-0.21167 0.26458c-0.02646 0.0529-0.05292 0.0529-0.10583 0.0529 0-0.0265-0.02646-0.0265-0.05292-0.0529-0.13229-0.10583-0.34396-0.23812-0.47625-0.26458-0.15875-0.0529-0.34396-0.0529-0.39688 0.13229-0.05292 0.13229 0.07937 0.23812 0.15875 0.3175m-2.249 0.68792c0.05292 0.0265 0.07937 0.0794 0.05292 0.13229l-0.07937 0.18521c0 0.0529-0.05292 0.0794-0.10583 0.0529l-0.9525-0.37041c-0.05292-0.0265-0.07937-0.0794-0.07937-0.1323l0.10583-0.1852c0.02646-0.0794 0.05292-0.0794 0.13229-0.0794l0.15875 0.0794 0.74083-1.7992-0.21167-0.0794c-0.05292-0.0265-0.07938-0.0794-0.05292-0.13229l0.10583-0.18521c0-0.0529 0.05292-0.0794 0.10583-0.0529l0.97896 0.39687c0.05292 0.0265 0.07938 0.0529 0.07938 0.10584l-0.10583 0.21166c-0.02646 0.0529-0.05292 0.0794-0.10583 0.0529l-0.21167-0.0794-0.74083 1.7992zm-2.9633-3.4131c-0.05292-0.0265-0.07937-0.0794-0.05292-0.15875l0.15875-0.26458c0.02646-0.0529 0.07938-0.0794 0.13229-0.0265l1.7198 0.89958 0.18521 0.0794c0.07937 0.0529 0.07937 0.0794 0.05292 0.13229l-0.18521 0.26458c-0.05292 0.0794-0.10583 0.0529-0.15875 0.0265l-0.635-0.3175-1.0054 1.8785c-0.02646 0.0794-0.05292 0.10584-0.13229 0.0529l-0.39688-0.21167c-0.07938-0.0265-0.07938-0.0529-0.02646-0.10583l1.0054-1.905zm-1.7992 0.84667-0.58208-0.39688-0.13229-0.0529-0.39688 0.29104c-0.02646 0.0529-0.07938 0.0529-0.15875 0.0265l-0.37042-0.26459c-0.02646 0-0.02646-0.0529-0.02646-0.0794l0.02646-0.0265 2.196-1.614c0.05292-0.0265 0.10583-0.0529 0.18521-0.0265l0.34396 0.23813c0.07937 0.0529 0.07937 0.10583 0.07937 0.15875l-0.58208 2.6194c-0.02646 0.0529-0.02646 0.0529-0.02646 0.0529-0.02646 0.0529-0.05292 0.0794-0.13229 0.0529l-0.34396-0.26459c-0.10583-0.0529-0.10583-0.10583-0.07937-0.15875l0.10583-0.47625zm-2.196-2.1431-0.23812-0.52916c-0.15875-0.29105-0.15875-0.60855 0.05292-0.87313 0.3175-0.39687 0.89958-0.29104 1.27 0 0.21167 0.18521 0.37042 0.37042 0.50271 0.60854 0.02646 0.0794 0.02646 0.10584 0.02646 0.13229-0.02646 0.0265-0.05292 0.0265-0.05292 0.0265l-0.3175 0.15875c-0.02646 0.0265-0.05292 0.0265-0.10583 0 0 0 0-0.0265-0.02646-0.0529-0.07937-0.15875-0.21167-0.3175-0.34396-0.42334-0.10583-0.10583-0.29104-0.18521-0.42333-0.0265-0.07938 0.10584 0 0.26459 0.05292 0.37042l0.21167 0.44979c0.15875 0.29104 0.18521 0.58209-0.05292 0.87313-0.34396 0.42333-0.92604 0.39687-1.3494 0.0794-0.18521-0.18521-0.42333-0.42333-0.55562-0.635-0.02646-0.0794-0.02646-0.10583 0-0.13229 0-0.0265 0.02646-0.0265 0.05292-0.0265l0.26458-0.18521c0.05292-0.0264 0.07938-0.0529 0.13229-0.0264 0 0.0264 0.02646 0.0529 0.02646 0.0529 0.10583 0.18521 0.26458 0.37042 0.42333 0.50271 0.13229 0.10583 0.34396 0.15875 0.47625 0.0265 0.07938-0.13229 0.02646-0.26458-0.02646-0.37042m-2.7252-1.7462c0.05292 0.0529 0.02646 0.10584-0.02646 0.15875l-0.21167 0.21167c-0.05292 0.0529-0.10583 0.0529-0.15875 0l-1.0319-1.1112c-0.05292-0.0794-0.07937-0.10583 0-0.18521l1.8785-1.6933c0.05292-0.0529 0.10583-0.0529 0.15875 0l0.26458 0.29104c0.05292 0.0794 0.05292 0.10583 0 0.15875l-1.561 1.4288zm-1.9844-2.0373c0.02646 0.0529 0.02646 0.10583-0.02646 0.13229l-0.15875 0.13229c-0.02646 0.0265-0.10583 0.0265-0.13229 0l-0.60854-0.8202c-0.05292-0.0529-0.02646-0.10584 0-0.1323l0.15875-0.13229c0.05292-0.0265 0.10583-0.0265 0.13229 0.0265l0.13229 0.15875 1.561-1.1906-0.13229-0.18521c-0.05292-0.0529-0.02646-0.10584 0-0.13229l0.18521-0.10584c0.02646-0.0529 0.07937-0.0529 0.10583 0l0.66146 0.84667c0.05292 0.0529 0.02646 0.10583 0 0.13229l-0.15875 0.10583c-0.07937 0.0529-0.13229 0.0529-0.15875 0l-0.13229-0.15875-1.561 1.1642zm-1.1642-3.8894-1.3229 0.79375c-0.07937 0.0529-0.10583 0.0265-0.15875-0.0265l-0.21167-0.3175c-0.05292-0.0794-0.05292-0.13229 0.02646-0.18521l2.1696-1.2965c0.10583-0.0529 0.13229-0.0265 0.18521 0.0265l0.15875 0.29104c0.05292 0.0794 0.05292 0.13229 0.02646 0.18521l-0.74083 1.8521 1.3229-0.82021c0.07937-0.0529 0.13229-0.0265 0.15875 0.0529l0.21167 0.3175c0.05292 0.10583 0.02646 0.13229-0.02646 0.15875l-2.1696 1.3229c-0.07937 0.0529-0.10583 0.0265-0.15875-0.0529l-0.18521-0.29104c-0.02646-0.0529-0.02646-0.10583 0-0.18521zm24.315 12.488c0.02646 0.10583 0.18521 0.15875 0.29104 0.21167l0.47625 0.1852c0.3175 0.10584 0.55562 0.29105 0.58208 0.66146 0.02646 0.55563-0.39688 0.92604-0.92604 0.97896-0.26458 0.0265-0.58208 0-0.84667-0.0794-0.07937 0-0.10583-0.0529-0.10583-0.0794s0-0.0265 0.02646-0.0529l0.07937-0.34395c0-0.0265 0.02646-0.0794 0.07938-0.0794 0 0 0.05292 0 0.05292 0.0265 0.21167 0.0529 0.44979 0.0794 0.635 0.0529 0.18521 0 0.37042-0.10584 0.37042-0.29105-0.02646-0.15875-0.15875-0.21166-0.29104-0.26458l-0.52917-0.21167c-0.3175-0.10583-0.52917-0.34395-0.55562-0.66145-0.05292-0.50271 0.44979-0.84667 0.89958-0.87313 0.3175-0.0265 0.55562 0 0.82021 0.0794 0.05292 0.0264 0.07937 0.0529 0.07937 0.10583v0.0529l-0.10583 0.3175c0 0.0529-0.02646 0.0794-0.07938 0.0794h-0.05292c-0.18521-0.0794-0.39688-0.13229-0.55562-0.10583-0.15875 0.0265-0.34396 0.10583-0.34396 0.29104m3.2279 1.1906 0.21167-0.0265c0.05292 0 0.10583 0.0265 0.10583 0.0794l0.05292 0.21167c0 0.0529-0.02646 0.10583-0.07937 0.10583l-1.0054 0.18521c-0.05292 0-0.10583-0.0265-0.10583-0.0794l-0.05292-0.21166c0-0.0529 0.02646-0.10584 0.07937-0.10584l0.18521-0.0529-0.34396-1.905-0.21167 0.0529c-0.05292 0-0.07938-0.0529-0.10583-0.10583l-0.02646-0.18521c0-0.0529 0-0.10583 0.05292-0.10583l1.0848-0.18521c0.05292 0 0.07937 0.0265 0.10583 0.0529l0.02646 0.23812c0 0.0529-0.02646 0.10584-0.07937 0.10584l-0.21167 0.0264zm2.9898-3.2279c0.79375-0.26459 1.4023 0.18521 1.6404 0.9525 0.29104 0.82021-0.02646 1.5346-0.74083 1.7727-0.76729 0.23812-1.3758-0.15875-1.6404-0.9525-0.29104-0.82021-0.02646-1.5346 0.74083-1.7727m6.4558-0.0265c0.05292 0.0794 0.02646 0.0794-0.02646 0.13229l-0.39688 0.23813c-0.05292 0.0265-0.07937 0.0265-0.13229-0.0529l-1.0848-1.8256-0.635 0.37042c-0.07937 0.0265-0.13229 0.0265-0.15875-0.0529l-0.15875-0.23812c-0.02646-0.0794 0-0.10583 0.05292-0.15875l1.6669-0.97896 0.18521-0.10583c0.05292-0.0265 0.07938-0.0265 0.13229 0.0265l0.13229 0.29104c0.02646 0.0794 0 0.10583-0.07937 0.15875l-0.60854 0.34396zm2.0373-1.7462 0.15875-0.10583c0.05292-0.0529 0.10583-0.0265 0.13229 0l0.13229 0.1852c0.02646 0.0265 0.02646 0.0794-0.02646 0.1323l-0.82021 0.58208c-0.05292 0.0529-0.10583 0.0265-0.13229 0l-0.13229-0.15875c-0.02646-0.0794-0.02646-0.13229 0.02646-0.15875l0.15875-0.10583-1.1642-1.561-0.18521 0.1323c-0.05292 0.0264-0.10583 0-0.13229-0.0265l-0.13229-0.15875c-0.02646-0.0529-0.02646-0.10584 0.02646-0.13229l0.87312-0.635c0.02646-0.0265 0.07938-0.0265 0.10583 0l0.13229 0.1852c0.05292 0.0529 0.05292 0.10584 0 0.1323l-0.18521 0.13229zm1.1642-3.9423c0-0.0794 0-0.13229 0.07937-0.21167l0.18521-0.18521c0.05292-0.0529 0.10583-0.0265 0.15875 0l1.8256 1.7727v0.0265c0.05292 0.0529 0.05292 0.10583 0 0.13229l-0.29104 0.26458c-0.07937 0.0794-0.13229 0.0794-0.21167-0.0265l-0.9525-0.9525 0.52917 1.4552c0.02646 0.0794 0 0.1323-0.05292 0.15875l-0.10583 0.10584c-0.05292 0.0529-0.07937 0.0529-0.18521 0.0265l-1.4817-0.58209 0.92604 1.0583c0.07937 0.0794 0.05292 0.10583 0 0.1852l-0.23812 0.21167c-0.07937 0.0529-0.13229 0.0794-0.18521 0l-1.6404-1.905c-0.05292-0.0794-0.05292-0.13229 0-0.18521l0.21167-0.18521c0.07938-0.0794 0.13229-0.0794 0.21167-0.0265l1.8521 0.71437h0.02646zm3.1221-1.4288-1.0583-0.84667c-0.05292-0.0529-0.05292-0.10583 0-0.15875l0.23812-0.3175c0.05292-0.0529 0.10583-0.0794 0.15875-0.0265l1.1112 0.89959c0.68792 0.58208 0.68792 1.1906 0.21167 1.7727-0.52917 0.60855-1.1112 0.60855-1.7727 0.0794l-1.0848-0.89958c-0.07937-0.0529-0.05292-0.10584 0-0.15875l0.23812-0.29105c0.05292-0.0794 0.10583-0.0794 0.15875-0.0264l1.0583 0.87312c0.50271 0.39688 0.76729 0.34396 1.0054 0.0529 0.21167-0.26459 0.21167-0.55563-0.26458-0.9525m1.0054-3.8629c-0.02646-0.0794-0.02646-0.13229 0-0.21167l0.15875-0.23812c0.02646-0.0529 0.07937-0.0529 0.15875-0.0265l2.2225 1.2171c0.07937 0.0529 0.07937 0.10584 0.05292 0.15875l-0.23812 0.34396c-0.02646 0.0794-0.10583 0.0794-0.18521 0.0265l-1.1906-0.68792 0.89958 1.27c0.05292 0.0794 0.02646 0.1323 0 0.15875l-0.07937 0.1323c-0.02646 0.0529-0.07937 0.10583-0.15875 0.0794l-1.5875-0.15875 1.1642 0.76729c0.10583 0.0529 0.10583 0.10584 0.05292 0.15875l-0.18521 0.29104c-0.05292 0.0794-0.10583 0.10584-0.18521 0.0529l-2.0638-1.4288c-0.07937-0.0529-0.07937-0.10583-0.05292-0.15875l0.15875-0.23812c0.05292-0.10584 0.10583-0.10584 0.18521-0.10584l1.9844 0.21167h0.02646zm-9.9219 10.425c0.26458 0.58209-0.02646 1.0583-0.58208 1.3229-0.05292 0.0265-0.15875 0.0794-0.21167 0.0794l0.34396 0.74083c0.02646 0.0529 0.02646 0.10583-0.05292 0.15875l-0.37042 0.15875c-0.05292 0.0265-0.10583 0.0265-0.15875-0.0529l-1.0583-2.2754c-0.05292-0.10584-0.02646-0.1323 0.05292-0.15875l0.58208-0.26459c0.39688-0.21166 0.71438-0.26458 1.0054-0.15875 0.21167 0.10584 0.37042 0.26459 0.44979 0.44979z" class="g164_1" display="block"/>
     <path d="m-37.582 298.01c0.23812-0.15875 0.47625-0.3175 0.47625-0.66146 0-0.29104-0.21167-0.52916-0.52917-0.52916-0.29104 0-0.50271 0.23812-0.50271 0.52916 0 0.3175 0.23812 0.47625 0.55562 0.66146z" class="g164_1" display="block"/>
     <path d="m-15.41 264.49-7.4083-6.7469c-1.7462 1.1377-4.0217 1.8256-6.5352 1.8256-2.5929 0-4.9742-0.74083-6.7469-1.9844-1.7727 1.2435-4.1275 1.9844-6.7469 1.9844-2.5135 0-4.789-0.68791-6.5088-1.8256l-7.4083 6.7469s3.5719 3.3867 3.5983 6.1383c0 2.7517-0.82021 4.9742-1.8256 7.7788-0.37042 1.0319-0.79375 2.6988-1.0054 4.6302-0.05292 0.34395-0.07937 0.76729-0.10583 1.1642-0.02646 0.34396-0.02646 0.71438-0.02646 1.0848-0.02646 2.2754 0.37042 4.7096 1.5346 6.7998 0.15875 0.3175 0.34396 0.635 0.55562 0.92604 0.58208 0.84666 5.424 8.8635 15.716 9.9219l0.05292 0.0265 2.1696 2.1696 2.196-2.1696 0.02646-0.0265c10.292-1.0583 15.134-9.0752 15.716-9.9219 0.21167-0.29104 0.39688-0.60854 0.58208-0.92604 1.1377-2.0902 1.5346-4.5244 1.5081-6.7998 0-0.37041 0-0.74083-0.02646-1.0848-0.02646-0.39687-0.05292-0.82021-0.10583-1.1642-0.21167-1.9315-0.635-3.5983-1.0054-4.6302-1.0054-2.8046-1.8256-5.0271-1.7992-7.7788 0-2.7517 3.5983-6.1383 3.5983-6.1383m-5.424-0.0265c0.05292 0.23812 0 0.55562-0.15875 0.87312s-0.37042 0.52917-0.55562 0.60854c-0.05292-0.23812-0.02646-0.55562 0.13229-0.87312s0.37042-0.52917 0.58208-0.60854m-1.3758 1.27c-0.15875-0.26459-0.21167-0.55563-0.18521-0.7673 0.18521 0.0529 0.39688 0.26459 0.55562 0.52917 0.13229 0.26458 0.21167 0.55563 0.15875 0.76729-0.18521-0.0529-0.39688-0.26458-0.52917-0.52916m0.18521 1.4023c-0.05292 0.34396-0.18521 0.635-0.37042 0.79375-0.10583-0.21167-0.15875-0.52917-0.10583-0.89959 0.05292-0.34395 0.18521-0.635 0.37042-0.76729 0.10583 0.18521 0.15875 0.52917 0.10583 0.87313m0.52917-0.87313c0.21167-0.26458 0.44979-0.44979 0.66146-0.47625 0.02646 0.23813-0.10583 0.52917-0.29104 0.82021-0.21167 0.26458-0.47625 0.44979-0.68792 0.47625 0-0.23812 0.10583-0.52917 0.3175-0.82021m0.05292-2.6458c0.10583 0.21167 0.15875 0.52917 0.10583 0.89958-0.05292 0.34396-0.21167 0.635-0.37042 0.76729-0.13229-0.1852-0.15875-0.52916-0.10583-0.87312s0.18521-0.635 0.37042-0.79375m-0.60854-1.0319c0.15875 0.15875 0.26458 0.47625 0.29104 0.84667 0 0.34396-0.07937 0.66146-0.21167 0.84667-0.15875-0.18521-0.26458-0.47625-0.29104-0.82021 0-0.37042 0.07937-0.68792 0.21167-0.87313m0.10583 2.3019c-0.18521 0-0.44979-0.10583-0.66146-0.29104-0.23812-0.21167-0.37042-0.44979-0.42333-0.68792 0.21167 0 0.44979 0.10583 0.68792 0.3175 0.21167 0.18521 0.37042 0.44979 0.39688 0.66146m-1.3229-2.3812c0.21167 0.0794 0.44979 0.26458 0.635 0.55562 0.18521 0.29105 0.26458 0.60855 0.23812 0.84667-0.21167-0.0529-0.44979-0.23812-0.635-0.52917-0.18521-0.29104-0.26458-0.60854-0.23812-0.87312m0.13229 5.8208c0.15875-0.3175 0.34396-0.55562 0.55562-0.635 0.05292 0.23813 0.02646 0.55563-0.13229 0.87313-0.13229 0.3175-0.37042 0.55562-0.55562 0.635-0.05292-0.23813-0.02646-0.55563 0.13229-0.87313m-0.02646 1.27c0.3175 0.0265 0.58208 0.18521 0.71438 0.34396-0.15875 0.13229-0.47625 0.21167-0.76729 0.18521-0.34396-0.0529-0.60854-0.18521-0.74083-0.37042 0.15875-0.15875 0.44979-0.21166 0.79375-0.15875m-1.0848-0.42333c0.26458-0.21167 0.55562-0.29104 0.76729-0.26458-0.05292 0.23812-0.23812 0.52916-0.50271 0.68791-0.26458 0.21167-0.55562 0.3175-0.76729 0.26459 0.05292-0.23813 0.23812-0.50271 0.50271-0.68792m-0.87312 0.97896c0.05292-0.0529 0.15875-0.0794 0.23812-0.13229h0.02646c0.18521-0.0794 0.44979-0.10584 0.68792-0.0265 0.3175 0.0794 0.58208 0.26458 0.71438 0.44979-0.18521 0.13229-0.50271 0.15875-0.79375 0.0794-0.3175-0.0794-0.55562-0.23812-0.68792-0.44979-0.05292 0.0529-0.07937 0.0794-0.13229 0.13229 0.37042 0.18521 0.66146 0.47625 0.92604 0.82021-0.10583 0.15875-0.15875 0.23813-0.26458 0.39688-0.18521-0.44979-0.42333-0.82021-0.71438-1.1377-0.29104 0.3175-0.50271 0.68792-0.71438 1.1377-0.10583-0.15875-0.15875-0.26459-0.26458-0.42334 0.26458-0.34395 0.55562-0.60854 0.87312-0.79375-0.02646-0.0529-0.07938-0.0794-0.10583-0.10583-0.13229 0.18521-0.37042 0.34396-0.68792 0.42333-0.3175 0.0794-0.60854 0.0529-0.79375-0.0794 0.13229-0.18521 0.37042-0.37042 0.68792-0.44979 0.26458-0.0794 0.52917-0.0529 0.71438 0.0265 0.15875 0.0529 0.29104 0.13229 0.29104 0.13229m-0.87312-0.97896c0.26458 0.18521 0.44979 0.44979 0.50271 0.68792-0.23812 0.0529-0.50271-0.0529-0.76729-0.26459-0.29104-0.15875-0.47625-0.44979-0.52917-0.68791 0.21167-0.0265 0.52917 0.0529 0.79375 0.26458m-0.29104 0.58208c-0.15875 0.18521-0.42333 0.3175-0.74083 0.37042-0.3175 0.0265-0.60854-0.0529-0.79375-0.18521 0.15875-0.15875 0.42333-0.3175 0.74083-0.34396 0.3175-0.0529 0.60854 0 0.79375 0.15875m-2.3019-3.4925c-0.02646-0.21166 0.02646-0.50271 0.18521-0.76729s0.34396-0.47625 0.55562-0.52917c0.02646 0.21167-0.02646 0.50271-0.18521 0.7673-0.15875 0.26458-0.37042 0.47625-0.55562 0.52916m0.13229 0.82021c-0.21167-0.0265-0.44979-0.21167-0.66146-0.47625-0.21167-0.29104-0.3175-0.58208-0.3175-0.82021 0.23812 0.0265 0.47625 0.21167 0.68792 0.47625 0.21167 0.29104 0.3175 0.58209 0.29104 0.82021m0.34396-0.82021c0.15875 0.13229 0.3175 0.42334 0.34396 0.76729 0.05292 0.37042 0.02646 0.68792-0.10583 0.89959-0.15875-0.15875-0.3175-0.44979-0.34396-0.79375-0.05292-0.34396-0.02646-0.68792 0.10583-0.87313m0.44979 2.5135c-0.21167 0.0529-0.50271-0.0265-0.79375-0.21166-0.26458-0.15875-0.47625-0.42334-0.52917-0.635 0.21167-0.0529 0.50271 0 0.76729 0.18521 0.29104 0.15875 0.47625 0.42333 0.55562 0.66145m-0.15875 0.15875c0.3175 0.0794 0.58208 0.23813 0.71438 0.42334-0.18521 0.13229-0.47625 0.18521-0.79375 0.10583-0.3175-0.0529-0.58208-0.21167-0.71438-0.39687 0.18521-0.1323 0.47625-0.18521 0.79375-0.1323m0.84667 0.26459c-0.21167-0.0794-0.42333-0.3175-0.55562-0.635-0.15875-0.3175-0.21167-0.635-0.15875-0.87313 0.21167 0.0794 0.42333 0.3175 0.58208 0.635 0.13229 0.3175 0.18521 0.635 0.13229 0.87313m-0.635-6.1383c0.18521-0.29104 0.42333-0.47625 0.635-0.55562 0.02646 0.26458-0.05292 0.58208-0.23812 0.87312-0.18521 0.29105-0.42333 0.47625-0.635 0.52917-0.02646-0.23812 0.05292-0.55562 0.23812-0.84667m-0.29104 1.1642c0.21167-0.21167 0.47625-0.3175 0.66146-0.3175-0.02646 0.23813-0.15875 0.47625-0.39688 0.68792-0.21167 0.18521-0.47625 0.29104-0.66146 0.29104 0.02646-0.21167 0.15875-0.47625 0.39688-0.66146m-0.58208-0.79375c0.02646-0.37042 0.13229-0.68792 0.29104-0.84667 0.13229 0.18521 0.21167 0.50271 0.18521 0.87313 0 0.34396-0.13229 0.635-0.26458 0.82021-0.15875-0.18521-0.21167-0.50271-0.21167-0.84667m-0.3175 0.18521c0.18521 0.15875 0.3175 0.44979 0.37042 0.79375s0 0.68792-0.10583 0.87312c-0.18521-0.13229-0.3175-0.42333-0.37042-0.76729-0.05292-0.37041 0-0.68791 0.10583-0.89958m-0.60854 0.84667c0.21167 0.0794 0.42333 0.29104 0.55562 0.60854 0.15875 0.3175 0.21167 0.635 0.15875 0.87312-0.21167-0.0794-0.42333-0.29104-0.58208-0.60854-0.13229-0.3175-0.18521-0.635-0.13229-0.87312m0.66146 2.6194c0.26458 0.18521 0.47625 0.42333 0.52917 0.66146-0.21167 0.0529-0.50271-0.0265-0.76729-0.18521-0.29104-0.18521-0.50271-0.42333-0.55562-0.66146 0.21167-0.0529 0.50271 0 0.79375 0.18521m-12.303 3.9952 4.445-9.4456c-0.15875-0.34395 0.10583-0.79375 0.44979-0.79375s0.66146 0.4498 0.50271 0.79375l4.4715 9.3927c0.76729 0.37042 1.1112 0.82021 1.0583 1.1377-0.02646 0.34396-0.26458 0.55563-0.55562 0.66146 0.02646 1.6933-0.05292 7.7258-0.02646 11.165 0.37042 0.10583 0.37042 0.5027 0.34396 1.7992-0.02646 1.2435 0.07937 1.6669-0.74083 1.6669h-0.3175v-0.42334c0-0.23812 0-0.29104-0.13229-0.34395-0.34396-0.1323-0.71438-0.23813-1.1112-0.42334-0.29104-0.0794-8.7577-3.1221-8.7577-3.1221s-0.39688-0.10583-0.39688-0.47625v-0.47625-1.2171c0-0.3175 0.21167-0.42334 0.39688-0.39688v-0.0529c0-1.1112-0.02646-6.9585-0.02646-7.5671-0.39688-0.13229-0.50271-0.39687-0.50271-0.39687-0.18521-0.39688 0.02646-1.0054 0.89958-1.4817m-2.6988-2.5135c-0.26458 0.18521-0.58208 0.26458-0.79375 0.21166 0.07937-0.23812 0.26458-0.5027 0.55562-0.66145 0.29104-0.18521 0.58208-0.23813 0.76729-0.18521-0.05292 0.21166-0.23812 0.47625-0.52917 0.635m0.15875 0.50271c-0.10583 0.1852-0.37042 0.34395-0.71438 0.39687-0.29104 0.0794-0.60854 0.0265-0.76729-0.10583 0.10583-0.18521 0.37042-0.34396 0.71438-0.42334 0.29104-0.0529 0.58208 0 0.76729 0.1323m-0.02646-2.8046c-0.18521-0.0529-0.39688-0.26458-0.55562-0.52916-0.13229-0.26459-0.18521-0.55563-0.15875-0.7673 0.18521 0.0529 0.39688 0.26459 0.52917 0.52917 0.15875 0.26458 0.21167 0.55563 0.18521 0.76729m0.15875 0c0.21167-0.26458 0.47625-0.44979 0.68792-0.47625 0 0.23813-0.10583 0.52917-0.3175 0.82021-0.18521 0.26458-0.44979 0.44979-0.66146 0.47625 0-0.23812 0.10583-0.52917 0.29104-0.82021m-0.60854 0c0.10583 0.18521 0.15875 0.52917 0.10583 0.87313s-0.21167 0.635-0.37042 0.79375c-0.10583-0.21167-0.15875-0.52917-0.10583-0.89959 0.05292-0.34395 0.18521-0.635 0.37042-0.76729m0.07937 1.4817c0.07938-0.23813 0.26458-0.47625 0.55562-0.66146 0.26458-0.18521 0.55562-0.23812 0.76729-0.18521-0.05292 0.23813-0.26458 0.47625-0.52917 0.66146-0.29104 0.15875-0.58208 0.23813-0.79375 0.18521m1.1906-3.2808c0.05292 0.23812 0.02646 0.55562-0.13229 0.87312s-0.37042 0.52917-0.58208 0.60854c-0.05292-0.23812 0-0.55562 0.15875-0.87312 0.13229-0.3175 0.37042-0.52917 0.55562-0.60854m-0.60854-0.84667c0.13229 0.21167 0.18521 0.52917 0.13229 0.89958-0.07937 0.34396-0.21167 0.635-0.37042 0.76729-0.13229-0.1852-0.18521-0.52916-0.13229-0.87312 0.07937-0.34396 0.21167-0.635 0.37042-0.79375m-0.60854-1.0319c0.15875 0.15875 0.26458 0.47625 0.29104 0.84667 0.02646 0.34396-0.05292 0.66146-0.18521 0.84667-0.15875-0.18521-0.26458-0.47625-0.29104-0.82021-0.02646-0.37042 0.05292-0.68792 0.18521-0.87313m0.13229 2.3019c-0.21167 0-0.44979-0.10583-0.68792-0.29104-0.21167-0.21167-0.37042-0.44979-0.39688-0.68792 0.18521 0 0.44979 0.10583 0.66146 0.3175 0.23812 0.18521 0.37042 0.44979 0.42333 0.66146m-1.3494-2.3812c0.21167 0.0794 0.44979 0.26458 0.635 0.55562 0.18521 0.29105 0.26458 0.60855 0.23812 0.84667-0.21167-0.0529-0.44979-0.23812-0.635-0.52917-0.18521-0.29104-0.26458-0.60854-0.23812-0.87312m0.15875 5.8208c0.13229-0.3175 0.34396-0.55562 0.55562-0.635 0.05292 0.23813 0 0.55563-0.13229 0.87313-0.15875 0.3175-0.37042 0.55562-0.58208 0.635-0.02646-0.23813 0-0.55563 0.15875-0.87313m-0.05292 1.27c0.3175 0.0265 0.58208 0.18521 0.74083 0.34396-0.18521 0.13229-0.47625 0.21167-0.79375 0.18521-0.3175-0.0529-0.58208-0.18521-0.74083-0.37042 0.18521-0.15875 0.47625-0.21166 0.79375-0.15875m-1.0583-0.42333c0.26458-0.21167 0.55562-0.29104 0.76729-0.26458-0.05292 0.23812-0.23812 0.52916-0.50271 0.68791-0.26458 0.21167-0.55562 0.3175-0.76729 0.26459 0.05292-0.23813 0.23812-0.50271 0.50271-0.68792m-1.1377 0.84667c0.07937 0.0529 0.18521 0.0794 0.26458 0.13229 0 0 0.10583-0.0794 0.29104-0.13229 0.18521-0.0794 0.42333-0.10584 0.68792-0.0265 0.3175 0.0794 0.55562 0.26458 0.68792 0.44979-0.18521 0.13229-0.47625 0.15875-0.79375 0.0794-0.29104-0.0794-0.55562-0.23812-0.68792-0.42333-0.02646 0.0265-0.07937 0.0529-0.10583 0.10583 0.34396 0.18521 0.60854 0.4498 0.87312 0.79375-0.10583 0.15875-0.15875 0.26459-0.26458 0.42334-0.21167-0.44979-0.39688-0.82021-0.68792-1.1377-0.29104 0.3175-0.52917 0.68792-0.74083 1.1377-0.10583-0.15875-0.15875-0.23813-0.26458-0.39688 0.26458-0.34396 0.58208-0.635 0.92604-0.82021-0.05292-0.0529-0.07937-0.0794-0.10583-0.13229-0.15875 0.21167-0.39688 0.37042-0.68792 0.44979-0.3175 0.0794-0.635 0.0529-0.79375-0.0794 0.10583-0.18521 0.37042-0.37042 0.68792-0.44979 0.26458-0.0794 0.50271-0.0529 0.68792 0.0265h0.02646m-0.635-0.84667c0.26458 0.18521 0.44979 0.44979 0.50271 0.68792-0.21167 0.0529-0.50271-0.0529-0.76729-0.26459-0.26458-0.15875-0.44979-0.44979-0.50271-0.68791 0.21167-0.0265 0.50271 0.0529 0.76729 0.26458m-0.26458 0.58208c-0.15875 0.18521-0.42333 0.3175-0.74083 0.37042-0.3175 0.0265-0.60854-0.0529-0.79375-0.18521 0.13229-0.15875 0.42333-0.3175 0.74083-0.34396 0.3175-0.0529 0.60854 0 0.79375 0.15875m-0.68792-0.55562c-0.21167-0.0794-0.42333-0.3175-0.58208-0.635-0.13229-0.3175-0.18521-0.635-0.13229-0.87313 0.21167 0.0794 0.42333 0.3175 0.58208 0.635 0.13229 0.3175 0.18521 0.635 0.13229 0.87313m-0.635-6.1383c0.18521-0.29104 0.42333-0.47625 0.635-0.55562 0.02646 0.26458-0.07938 0.58208-0.23812 0.87312-0.18521 0.29105-0.42333 0.47625-0.635 0.52917-0.02646-0.23812 0.05292-0.55562 0.23812-0.84667m-0.29104 1.1642c0.21167-0.21167 0.44979-0.3175 0.66146-0.3175-0.05292 0.23813-0.18521 0.47625-0.39688 0.68792-0.23812 0.18521-0.47625 0.29104-0.66146 0.29104 0.02646-0.21167 0.15875-0.47625 0.39688-0.66146m-0.68792 2.0373c-0.02646-0.21166 0.02646-0.50271 0.15875-0.76729 0.15875-0.26458 0.37042-0.47625 0.55562-0.52917 0.05292 0.21167-0.02646 0.50271-0.18521 0.7673-0.13229 0.26458-0.34396 0.47625-0.52917 0.52916m0.13229 0.82021c-0.21167-0.0265-0.47625-0.21167-0.68792-0.47625-0.18521-0.29104-0.29104-0.58208-0.29104-0.82021 0.21167 0.0265 0.47625 0.21167 0.66146 0.47625 0.21167 0.29104 0.3175 0.58209 0.3175 0.82021m0.34396-0.82021c0.15875 0.13229 0.29104 0.42334 0.34396 0.76729 0.05292 0.37042 0 0.68792-0.10583 0.89959-0.18521-0.15875-0.3175-0.44979-0.37042-0.79375s0-0.68792 0.13229-0.87313m-0.37042-2.831c0-0.37042 0.13229-0.68792 0.29104-0.84667 0.13229 0.18521 0.21167 0.50271 0.18521 0.87313-0.02646 0.34396-0.13229 0.635-0.29104 0.82021-0.13229-0.18521-0.21167-0.50271-0.18521-0.84667m-0.3175 0.18521c0.15875 0.15875 0.3175 0.44979 0.37042 0.79375s0 0.68792-0.10583 0.87312c-0.18521-0.13229-0.3175-0.42333-0.37042-0.76729-0.05292-0.37041-0.02646-0.68791 0.10583-0.89958m-0.635 0.84667c0.21167 0.0794 0.42333 0.29104 0.58208 0.60854s0.21167 0.635 0.15875 0.87312c-0.21167-0.0794-0.42333-0.29104-0.58208-0.60854s-0.21167-0.635-0.15875-0.87312m-0.13229 2.4342c0.23812-0.0529 0.52917 0 0.79375 0.18521 0.29104 0.18521 0.47625 0.42333 0.55562 0.66146-0.21167 0.0529-0.50271-0.0265-0.79375-0.18521-0.26458-0.18521-0.47625-0.42333-0.55562-0.66146m0.55562 1.0319c0.23812-0.0529 0.52917 0 0.79375 0.18521 0.26458 0.15875 0.47625 0.42333 0.52917 0.66145-0.18521 0.0529-0.50271-0.0265-0.76729-0.21166-0.26458-0.15875-0.47625-0.42334-0.55562-0.635m0.37042 1.1377c0.18521-0.1323 0.50271-0.18521 0.82021-0.1323 0.29104 0.0794 0.55562 0.23813 0.71438 0.42334-0.21167 0.13229-0.50271 0.18521-0.82021 0.10583-0.3175-0.0529-0.55562-0.21167-0.71438-0.39687m4.4185 24.051c-0.05292 0.21167-0.23812 0.89958-0.26458 0.9525-1.0054-0.0265-1.6669-0.0265-2.249-0.0265h-1.614c0.07938-0.47625 0.13229-1.0054 0.13229-1.6933v-2.7781c0-0.44979-0.02646-1.3229-0.18521-1.7198 0.29104 0.0265 0.52917 0.0265 0.74083 0.0265h1.6669c0.58208 0 0.82021-0.0265 1.4817-0.0265-0.13229 0.42334-0.23812 0.87313-0.29104 1.0319-0.05292 0.18521-0.13229 0.0529-0.15875 0.0265-0.26458-0.39688-0.82021-0.42334-1.2965-0.42334h-0.58208c-0.02646 0.15875-0.02646 0.58209-0.02646 0.9525v0.89959h0.71438c0.55562 0 1.0848-0.0265 1.3229-0.0794 0.07937 0 0.05292 0.0794 0.05292 0.0794-0.05292 0.23812-0.15875 0.55562-0.21167 0.76729-0.55562-0.0529-0.87312-0.0529-1.27-0.0529h-0.635v1.2435c0 0.82021 0.10583 1.0848 1.0583 1.0848 0.55562 0 0.84667 0 1.4552-0.44979 0.10583-0.0794 0.21167-0.0265 0.15875 0.18521m2.6723 0c-0.13229 0.3175-0.18521 0.55563-0.26458 0.92604-0.10583-0.0265-0.3175-0.0265-0.50271-0.0265s-0.39688 0.0265-0.58208 0.0265c-0.05292-0.39687-0.13229-0.635-0.26458-1.0319l-0.58208-1.7992c-0.18521-0.52917-0.39688-1.1112-0.76729-1.5875 0.58208 0.0265 1.0319 0 1.5875-0.0265 0.05292 0.42334 0.13229 0.84667 0.26458 1.27l0.3175 1.1112c0.10583 0.26459 0.26458 0.87313 0.26458 0.87313 0.05292-0.18521 0.13229-0.39688 0.18521-0.55563l0.52917-1.3229c0.07937-0.23813 0.18521-0.60855 0.23812-0.9525v-0.39688h0.55562c0.15875 0 0.44979 0 0.58208-0.0265s0.10583 0.0529 0.07937 0.10584c-0.3175 0.39687-0.55562 0.92604-0.79375 1.4552zm1.3494-1.2171c0-1.3758 0.87312-2.3548 2.1431-2.3548 1.0848 0 1.7727 0.66145 1.7727 1.7198 0 0.0794 0 0.47625-0.15875 0.47625h-1.1377c-0.44979 0-1.1112 0.0265-1.4023 0.0265 0.02646 1.0583 0.58208 1.6669 1.5346 1.6669 0.39688 0 0.60854-0.0794 0.92604-0.29104 0.07938-0.0529 0.15875 0 0.13229 0.13229-0.10583 0.3175-0.10583 0.39688-0.18521 0.66146-0.39688 0.13229-0.92604 0.26458-1.4023 0.26458-1.3758 0-2.2225-0.92604-2.2225-2.3019m2.9369 8.0962c-0.07937 0-0.18521-0.0265-0.29104-0.0265-0.07937 0-0.15875 0.0265-0.26458 0.0265h-0.05292v-0.0265c0.05292-0.26458 0.05292-0.52917 0.05292-0.84667v-1.5346c0-0.42333-0.02646-0.47625-0.15875-0.47625-0.02646 0-0.10583 0-0.18521 0.0265l-0.23812 0.0529c-0.07937 0.0265-0.10583 0.0265-0.15875 0.0529h-0.02646l-0.05292-0.0529v-0.0265c0.05292-0.0529 0.07937-0.15875 0.10583-0.26459v-0.0265h0.02646c0.13229 0 0.21167 0 0.34396-0.0529l0.52917-0.10584c0.07937-0.0265 0.18521-0.0265 0.29104-0.0794l0.07937 0.0529-0.02646 0.0265c-0.05292 0.29105-0.05292 0.60855-0.05292 0.79375v1.6669c0 0.34396 0.02646 0.60854 0.07937 0.79375l0.02646 0.0265zm1.4552 0.10583c-0.58208 0-1.0054-0.37042-1.0054-0.89958 0-0.42334 0.29104-0.68792 0.74083-0.9525-0.29104-0.15875-0.58208-0.39688-0.58208-0.82021 0-0.50271 0.42333-0.87313 0.97896-0.87313 0.52917 0 0.89958 0.34396 0.89958 0.79375 0 0.42334-0.29104 0.635-0.60854 0.82021 0.39688 0.18521 0.71438 0.44979 0.71438 0.92604 0 0.58209-0.47625 1.0054-1.1377 1.0054m1.4023-6.059c-0.13229 0-0.42333-0.0265-0.71438-0.0265-0.26458 0-0.55562 0.0265-0.71438 0.0265 0.07937-0.52916 0.10583-0.9525 0.10583-1.614v-1.0848c0-0.42333-0.05292-1.1906-0.18521-1.6669 0.3175 0 0.84667 0 1.2171-0.0265v1.0319l0.3175-0.42333c0.39688-0.55562 0.68792-0.71437 1.1112-0.71437 0.13229 0 0.21167 0 0.37042 0.0794-0.13229 0.47625-0.23812 0.9525-0.3175 1.2171-0.02646 0.0529-0.07937 0.15875-0.15875 0.0529-0.18521-0.18521-0.21167-0.26458-0.42333-0.26458-0.23812 0-0.44979 0.13229-0.60854 0.39687-0.13229 0.21167-0.18521 0.37042-0.18521 0.79375v0.74084c0 0.76729 0.05292 1.0848 0.18521 1.4817m0.74083 6.006h-0.02646s-0.39688 0-0.60854 0.0265h-0.02646l-0.02646-0.0794 1.6669-2.8575h-1.0583c-0.15875 0-0.37042 0.0265-0.52917 0.15875h-0.02646l-0.07937-0.0265v-0.0265c0.05292-0.15875 0.10583-0.42333 0.13229-0.50271v-0.0265h1.9844l0.02646-0.0265v0.0529c0 0.0265 0.02646 0.23813 0.05292 0.29104v0.0265c-0.26458 0.29104-0.58208 0.82021-0.84667 1.2965-0.42333 0.79375-0.58208 1.2435-0.635 1.6933m2.4606 0.10584c-0.58208 0-1.0054-0.34396-1.0054-0.87313 0-0.44979 0.26458-0.68791 0.74083-0.9525-0.29104-0.18521-0.58208-0.39687-0.58208-0.82021 0-0.5027 0.42333-0.87312 0.97896-0.87312 0.50271 0 0.89958 0.3175 0.89958 0.76729 0 0.42333-0.29104 0.66146-0.60854 0.82021 0.39688 0.21167 0.71438 0.47625 0.71438 0.9525 0 0.55562-0.47625 0.97896-1.1377 0.97896m1.7727-10.451c-0.02646 0.13229-0.13229 0.5027-0.18521 0.66145-0.34396-0.0265-0.55562-0.0529-0.79375-0.0529h-0.39688c0 0.3175-0.02646 0.66146-0.02646 0.92604v1.0054c0 0.68791 0.07937 1.2171 0.68792 1.2171 0.18521 0 0.3175-0.0529 0.55562-0.18521 0.05292 0 0.13229 0 0.10583 0.10583-0.05292 0.21167-0.10583 0.39688-0.15875 0.60855-0.55562 0.15875-0.76729 0.1852-1.0583 0.1852-0.76729 0-1.27-0.3175-1.27-1.4288v-1.3758c0-0.44979 0-0.76729-0.02646-1.0583-0.23812 0-0.47625 0.0265-0.60854 0.0529-0.02646 0-0.07937 0-0.05292-0.10583 0-0.0265 0.10583-0.44979 0.15875-0.58208 0.10583 0 0.3175 0.0265 0.55562 0.0265 0-0.37042-0.02646-0.55563-0.05292-0.82021 0.3175-0.10584 0.89958-0.34396 1.1377-0.50271 0.10583-0.0794 0.15875 0.0265 0.13229 0.10583 0 0.10584-0.07938 0.39688-0.07938 1.2171h0.635c0.21167 0 0.44979-0.0265 0.68792-0.0794 0.02646 0 0.07937 0.0265 0.05292 0.0794m2.3283 4.4714c-1.4023 0-2.2225-0.8202-2.2225-2.2225 0-1.3758 0.84667-2.4077 2.4077-2.4077 1.4288 0 2.2225 0.79375 2.2225 2.1696 0 1.5081-0.9525 2.4606-2.4077 2.4606m6.4558-0.15875c-0.29104 0-0.58208 0.0265-0.74083 0.0265 0.07938-0.50271 0.10583-1.0583 0.10583-1.7198v-0.79375c0-0.52917-0.05292-1.1377-0.79375-1.1377-0.26458 0-0.52917 0.10584-0.71438 0.29104-0.23812 0.23813-0.29104 0.42334-0.29104 1.0054v0.635c0 0.82021 0.05292 1.3229 0.18521 1.7198-0.15875 0-0.44979-0.0265-0.71438-0.0265-0.3175 0-0.60854 0.0265-0.74083 0.0265 0.07937-0.50271 0.10583-1.0583 0.10583-1.7198v-1.1112c0-0.44979-0.05292-1.1112-0.21167-1.5875 0.42333 0 0.9525 0 1.3494-0.0265l-0.02646 0.79375 0.37042-0.3175c0.44979-0.37041 0.79375-0.52916 1.2435-0.52916 1.0583 0 1.4023 0.58208 1.4023 1.614v1.1642c0 0.82021 0.05292 1.3229 0.18521 1.7198-0.15875 0-0.44979-0.0265-0.71438-0.0265m0.23812-24.553c-0.3175 0.0794-0.60854 0.0265-0.79375-0.10583 0.13229-0.18521 0.39688-0.34396 0.71438-0.42334 0.3175-0.0529 0.60854 0 0.79375 0.1323-0.13229 0.1852-0.39688 0.34395-0.71438 0.39687m0.52917-0.89958c-0.26458 0.18521-0.55562 0.26458-0.76729 0.21166 0.05292-0.23812 0.26458-0.5027 0.52917-0.66145 0.29104-0.18521 0.58208-0.23813 0.79375-0.18521-0.07938 0.21166-0.26458 0.47625-0.55562 0.635m0.55562-1.0054c-0.26458 0.15875-0.58208 0.23813-0.76729 0.18521 0.05292-0.23813 0.26458-0.47625 0.52917-0.66146 0.26458-0.18521 0.58208-0.23812 0.79375-0.18521-0.07937 0.23813-0.26458 0.47625-0.55562 0.66146z" class="g164_1" display="block"/>
     <path d="m-32.978 298.07c0.23812-0.13229 0.47625-0.3175 0.47625-0.635 0-0.29104-0.21167-0.52917-0.52917-0.52917-0.29104 0-0.50271 0.21167-0.50271 0.50271 0 0.3175 0.23812 0.50271 0.55562 0.66146z" class="g164_1" display="block"/>
     <path d="m-33.137 298.49c-0.39688 0.18521-0.58208 0.44979-0.58208 0.76729 0 0.34396 0.26458 0.60855 0.60854 0.60855 0.37042 0 0.66146-0.26459 0.66146-0.60855 0-0.34395-0.23812-0.52916-0.68792-0.76729z" class="g164_1" display="block"/>
     <path d="m-37.74 298.41c-0.39688 0.21166-0.58208 0.47625-0.58208 0.76729 0 0.37042 0.26458 0.60854 0.635 0.60854 0.34396 0 0.635-0.26458 0.635-0.60854 0-0.3175-0.23812-0.50271-0.68792-0.76729z" class="g164_1" display="block"/>
    </g>
   </g>
  </g>
 </g>
</svg>
