<svg xmlns="http://www.w3.org/2000/svg" height="220" width="220" version="1.1" viewBox="0 0 58.208332 58.208335">
 <g transform="translate(0 -238.79)">
  <g transform="translate(-5.8333e-8 -.0000018318)">
   <g stroke-width=".26458" transform="translate(64.823 -22.679)">
    <path d="m-35.732 261.93c-15.769 0-28.628 12.832-28.628 28.628s12.859 28.654 28.628 28.654c15.796 0 28.654-12.859 28.654-28.654 0-15.796-12.859-28.628-28.654-28.628z" class="g135_1" display="block" fill="#1c2c5c"/>
    <path d="m-10.067 290.56c0-14.155-11.483-25.638-25.665-25.638s-25.665 11.483-25.665 25.638c0 14.182 11.483 25.665 25.665 25.665s25.665-11.483 25.665-25.665z" class="g7_1" display="block" fill="#fff"/>
    <path d="m-19.381 290.56c0-9.0223-7.329-16.325-16.351-16.325-9.0223 0-16.325 7.3025-16.325 16.325 0 9.0223 7.3025 16.351 16.325 16.351 9.0223 0 16.351-7.329 16.351-16.351z" class="g136_1" display="block" fill="#6cadde"/>
    <path d="m-35.732 273.92c-9.1546 0-16.642 7.4877-16.642 16.642 0 9.181 7.4877 16.642 16.642 16.642 9.181 0 16.642-7.4612 16.642-16.642 0-9.1546-7.4612-16.642-16.642-16.642m0 34.264c-9.7102 0-17.621-7.911-17.621-17.621 0-9.7367 7.911-17.621 17.621-17.621 9.7367 0 17.648 7.8846 17.648 17.621-0.02646 9.7367-7.911 17.621-17.648 17.621z" class="g135_1" display="block" fill="#1c2c5c"/>
    <g fill="#6cadde">
     <path d="m-35.732 263.68c-14.817 0-26.855 12.065-26.855 26.882s12.065 26.882 26.855 26.882c14.817 0 26.882-12.065 26.882-26.882s-12.065-26.882-26.882-26.882m0 54.372c-15.134 0-27.464-12.33-27.464-27.49 0-15.134 12.33-27.464 27.464-27.464 15.161 0 27.49 12.33 27.49 27.464-0.02646 15.161-12.33 27.49-27.49 27.49z" class="g136_1" display="block"/>
     <path d="m-58.645 289.95-0.47625 0.10583-0.10583-0.47625 0.76729-0.23812h0.39688v2.6988h-0.58208z" class="g136_1" display="block"/>
     <path d="m-55.999 290.14c0-0.15875-0.13229-0.3175-0.37042-0.3175-0.23812 0-0.37042 0.13229-0.37042 0.29104v0.0265c0 0.1852 0.15875 0.3175 0.37042 0.3175 0.23812 0 0.37042-0.1323 0.37042-0.3175m0.07937 1.1112c0-0.21167-0.18521-0.3175-0.44979-0.3175s-0.47625 0.10583-0.47625 0.3175c0 0.1852 0.15875 0.3175 0.47625 0.3175 0.29104 0 0.44979-0.1323 0.44979-0.3175m-1.4817 0.0529c0-0.34396 0.15875-0.52916 0.42333-0.66146-0.21167-0.10583-0.3175-0.29104-0.3175-0.58208 0-0.42333 0.37042-0.74083 0.92604-0.74083s0.92604 0.3175 0.92604 0.74083c0 0.29104-0.10583 0.47625-0.3175 0.58208 0.26458 0.15875 0.42333 0.3175 0.42333 0.635v0.0265c0 0.47625-0.42333 0.76729-1.0054 0.76729-0.60854 0-1.0583-0.3175-1.0583-0.76729z" class="g136_1" display="block"/>
     <path d="m-15.174 290.24c0-0.23813-0.15875-0.42333-0.44979-0.42333s-0.44979 0.15875-0.44979 0.39687v0.0265c0 0.23812 0.18521 0.39687 0.47625 0.39687 0.26458-0.0265 0.42333-0.1852 0.42333-0.39687m0 0.68792c-0.13229 0.10583-0.3175 0.1852-0.55562 0.1852-0.55562 0-0.9525-0.3175-0.9525-0.84666v-0.0265c0-0.52917 0.42333-0.92604 1.0319-0.92604 0.37042 0 0.55562 0.0794 0.76729 0.29104 0.18521 0.18521 0.3175 0.47625 0.3175 1.0054 0 0.87312-0.42333 1.4552-1.1642 1.4552-0.39688 0-0.66146-0.10583-0.89958-0.3175l0.3175-0.44979c0.21167 0.15875 0.37042 0.23813 0.58208 0.23813 0.42333 0 0.52917-0.37042 0.55562-0.60854z" class="g136_1" display="block"/>
     <path d="m-12.687 290.98v-0.84666l-0.71438 0.84666zm0 0.47625h-1.3229l-0.07937-0.42333 1.4552-1.6933h0.47625v1.6404h0.37042v0.47625h-0.37042v0.55563h-0.55562v-0.55563z" class="g136_1" display="block"/>
    </g>
    <path d="m-35.732 274.53c-8.8371 0-16.007 7.1967-16.007 16.034 0 8.8371 7.1702 16.034 16.007 16.034 8.8371 0 16.034-7.1967 16.034-16.034 0-8.8371-7.1967-16.034-16.034-16.034m0 32.676c-9.1546 0-16.642-7.4612-16.642-16.642 0-9.1546 7.4877-16.642 16.642-16.642 9.181 0 16.642 7.4877 16.642 16.642 0 9.181-7.4612 16.642-16.642 16.642z" class="g7_1" display="block" fill="#fff"/>
    <path d="m-36.023 276.22c-8.2285 0-12.965 1.0848-12.965 1.0848s-1.8785 7.1967-0.79375 16.431c0.42333 3.8629 3.5719 12.197 14.023 15.055 10.425-2.8575 13.573-11.192 14.023-15.055 1.0848-9.234-0.82021-16.431-0.82021-16.431s-4.736-1.0848-12.938-1.0848z" class="g135_1" display="block" fill="#1c2c5c"/>
    <path d="m-23.164 291.59c-0.10583 2.8046-0.55562 11.165-12.621 15.769-11.959-4.4715-12.594-13.15-12.594-15.769z" class="g137_1" display="block" fill="#99c1e7"/>
    <path d="m-23.535 291.12c0.3175-6.9321-0.84667-12.541-0.84667-12.541s-4.5244-0.87312-11.377-0.87312c-6.8792 0-11.456 0.9525-11.456 0.9525s-1.2435 5.6356-0.92604 12.462z" class="g7_1" display="block" fill="#fff"/>
    <g fill="#6cadde">
     <path d="m-35.388 307.1-12.753-15.399c-0.47625 3.175 2.1167 12.541 12.753 15.399z" class="g136_1" display="block"/>
     <path d="m-44.331 291.59 11.774 14.235c1.1906-0.58209 2.0902-1.1377 2.9104-1.7992l-10.292-12.435z" class="g136_1" display="block"/>
     <path d="m-36.155 291.62 8.7048 10.504c0.87312-0.9525 1.5875-1.8521 2.1167-2.7781l-6.4029-7.7258z" class="g136_1" display="block"/>
     <path d="m-23.376 291.62-4.3656-0.0265 3.6512 4.4186c0.635-1.3494 0.71438-3.6248 0.71438-4.3921z" class="g136_1" display="block"/>
    </g>
    <path d="m-30.626 297.39c-0.02646-0.10583-0.10583-0.18521-0.21167-0.23813l-0.74083-0.23812c-0.05292-0.0265-0.10583-0.0265-0.18521 0-0.05292-0.26458-0.18521-0.47625-0.39688-0.635-0.02646-0.0265-0.05292-0.0529-0.10583-0.0529-0.02646-0.0265-0.07937-0.0529-0.13229-0.0794-0.10583-0.0529-0.21167-0.0794-0.29104-0.10584-0.21167-0.0794-0.42333-0.13229-0.68792-0.3175-0.23812-0.1852-0.37042-0.34395-0.47625-0.5027-0.02646-0.0529-0.05292-0.0794-0.07937-0.10584-0.07937-0.13229-0.15875-0.21166-0.26458-0.29104-0.18521-0.13229-0.39688-0.21167-0.635-0.21167-0.05292 0-0.10583 0.0265-0.15875 0.0265v-0.0265c0.02646-0.0794 0-0.1852-0.05292-0.23812l-0.44979-0.60854c-0.05292-0.0794-0.15875-0.13229-0.26458-0.13229s-0.21167 0.0265-0.26458 0.10583l-0.47625 0.60854c-0.05292 0.0794-0.07937 0.15875-0.07937 0.26458h-0.10583c-0.23812 0-0.44979 0.0529-0.635 0.18521-0.02646 0.0265-0.05292 0.0529-0.07938 0.0529-0.02646 0.0529-0.07937 0.0794-0.10583 0.13229-0.07938 0.0794-0.13229 0.15875-0.18521 0.23813-0.13229 0.1852-0.26458 0.34395-0.52917 0.52916-0.26458 0.18521-0.44979 0.23813-0.635 0.3175-0.05292 0-0.07937 0.0265-0.13229 0.0265-0.13229 0.0265-0.23812 0.0794-0.37042 0.15875-0.21167 0.15875-0.34396 0.39688-0.39688 0.66146-0.07937-0.0265-0.15875-0.0265-0.23812 0l-0.71438 0.23812c-0.10583 0.0265-0.18521 0.10584-0.23812 0.21167-0.02646 0.0794 0 0.21167 0.05292 0.29104l0.42333 0.635c0.05292 0.0529 0.13229 0.10584 0.21167 0.13229-0.10583 0.23813-0.13229 0.52917-0.05292 0.7673 0.02646 0.0529 0.02646 0.0794 0.02646 0.10583 0.02646 0.0529 0.05292 0.10583 0.07938 0.15875 0.05292 0.0794 0.10583 0.15875 0.18521 0.23812 0.13229 0.18521 0.26458 0.34396 0.34396 0.66146 0.10583 0.29104 0.07937 0.50271 0.07937 0.68792v0.15875c0 0.13229 0 0.26458 0.07937 0.37042 0.07937 0.26458 0.26458 0.47625 0.47625 0.60854-0.05292 0.0529-0.07937 0.10583-0.05292 0.15875v0.74083c0 0.13229 0.05292 0.21167 0.13229 0.29104 0.07938 0.0529 0.21167 0.0794 0.29104 0.0529l0.74083-0.21167c0.07937-0.0265 0.13229-0.0794 0.15875-0.13229 0.23812 0.21167 0.52917 0.3175 0.82021 0.3175 0.05292 0 0.13229-0.0265 0.18521-0.0265 0.10583-0.0529 0.21167-0.0794 0.29104-0.10583 0.21167-0.0529 0.42333-0.13229 0.74083-0.13229s0.50271 0.0794 0.68792 0.13229c0.05292 0 0.07937 0.0265 0.13229 0.0265 0.13229 0.0794 0.26458 0.0794 0.39688 0.0794 0.26458 0 0.52917-0.10583 0.71438-0.29104 0.05292 0.0529 0.07938 0.0794 0.15875 0.10583l0.74083 0.23813c0.07938 0.0265 0.21167 0 0.29104-0.0529s0.15875-0.15875 0.15875-0.26458v-0.76729c0-0.0529 0-0.10584-0.05292-0.15875 0.23812-0.13229 0.42333-0.34396 0.47625-0.58209 0.02646-0.0265 0.02646-0.0529 0.05292-0.10583 0-0.0529 0.02646-0.10583 0.02646-0.18521v-0.29104c0-0.21167 0-0.42333 0.10583-0.74083 0.10583-0.29104 0.21167-0.44979 0.3175-0.60854 0.05292-0.0529 0.07937-0.0794 0.10583-0.10584 0.07938-0.10583 0.13229-0.23812 0.18521-0.37041 0.07937-0.26459 0.05292-0.55563-0.07937-0.79375 0.07937-0.0265 0.13229-0.0529 0.18521-0.10584l0.44979-0.635c0.05292-0.0529 0.07937-0.15875 0.05292-0.26458z" class="g135_1" display="block" fill="#1c2c5c"/>
    <path d="m-36.182 299.03c0-0.23813 0.21167-0.42334 0.44979-0.42334s0.42333 0.18521 0.42333 0.42334c0 0.23812-0.18521 0.39687-0.42333 0.39687s-0.44979-0.18521-0.44979-0.39687z" class="g138_1" display="block" fill="#fec859"/>
    <path d="m-38.14 298.5c-0.26458 0.0794-0.39688 0.34396-0.3175 0.60854 0 0.0265 0.02646 0.0529 0.05292 0.0794 0 0 0 0.0265 0.02646 0.0265v0.0265c0.10583 0.13229 0.23812 0.26459 0.34396 0.52917 0.07937 0.26458 0.05292 0.42333 0.05292 0.58208 0 0.0794 0 0.13229 0.02646 0.18521 0.07937 0.23813 0.37042 0.39688 0.60854 0.29104 0.07938 0 0.13229-0.0529 0.15875-0.0794s0.05292-0.0529 0.05292-0.0529 0.82021-1.1112 0.84667-1.1642c0.02646-0.0529 0-0.10583-0.02646-0.13229-0.02646-0.0265-0.10583-0.10583-0.10583-0.15875-0.02646-0.0794-0.02646-0.15875-0.02646-0.21166 0-0.0529 0-0.10584-0.05292-0.10584-0.05292-0.0265-1.0054-0.3175-1.2965-0.42333-0.10583-0.0265-0.21167-0.0529-0.34396 0m-0.635 0.60854c-0.10583-0.3175 0.07937-0.635 0.37042-0.74083 0.02646 0 0.02646-0.0529 0-0.0529-0.29104-0.13229-0.55562-0.21167-0.82021-0.13229-0.37042 0.10583-0.58208 0.52917-0.44979 0.89958 0 0.0265 0 0.0529 0.02646 0.0794 0 0.0265 0.02646 0.0794 0.05292 0.10583 0.15875 0.26458 0.37042 0.44979 0.50271 0.89958 0.13229 0.37042 0.10583 0.60855 0.10583 0.84667-0.02646 0.0794 0 0.18521 0.02646 0.26458 0.10583 0.39688 0.52917 0.58209 0.89958 0.47625 0.26458-0.0794 0.42333-0.3175 0.60854-0.58208 0-0.0529-0.02646-0.0794-0.05292-0.0529-0.29104 0.10584-0.635-0.0794-0.71438-0.37041-0.07938-0.21167 0.02646-0.55563-0.07938-0.87313-0.07937-0.26458-0.39688-0.55562-0.47625-0.76729m2.8046-2.5135c-0.15875-0.21167-0.47625-0.26458-0.68792-0.10583-0.02646 0-0.02646 0.0264-0.05292 0.0529l-0.02646 0.0265-0.02646 0.0265c-0.07937 0.13229-0.18521 0.29104-0.42333 0.44979s-0.39688 0.18521-0.55562 0.26458c-0.05292 0-0.10583 0.0265-0.15875 0.0529-0.21167 0.15875-0.26458 0.44979-0.10583 0.68792 0.05292 0.0529 0.10583 0.0794 0.15875 0.10583 0.02646 0.0265 0.05292 0.0265 0.07937 0.0265 0 0 1.2965 0.42333 1.3494 0.44979 0.07937 0 0.10583-0.0265 0.10583-0.0529 0.02646-0.0265 0.07938-0.13229 0.13229-0.15875 0.07937-0.0529 0.13229-0.0794 0.18521-0.0794 0.05292-0.0265 0.10583-0.0265 0.10583-0.0794v-1.3494c0.02646-0.10583-0.02646-0.21167-0.07937-0.3175m-0.79375-0.42333c0.26458-0.18521 0.635-0.10584 0.82021 0.13229 0.02646 0.0265 0.07937 0.0265 0.07937 0 0-0.34396 0-0.60854-0.15875-0.84667-0.21167-0.3175-0.68792-0.37042-1.0054-0.13229-0.02646 0-0.02646 0.0265-0.05292 0.0265-0.02646 0.0265-0.05292 0.0529-0.07938 0.0794-0.18521 0.23813-0.3175 0.47625-0.71438 0.76729-0.3175 0.23813-0.55562 0.26459-0.76729 0.34396-0.07938 0.0265-0.15875 0.0529-0.23812 0.10584-0.3175 0.23812-0.39688 0.68791-0.15875 1.0054 0.15875 0.21167 0.42333 0.29104 0.74083 0.39688 0.02646 0 0.05292-0.0265 0.02646-0.0529-0.18521-0.26458-0.13229-0.635 0.13229-0.82021 0.18521-0.13229 0.55562-0.13229 0.82021-0.3175 0.18521-0.15875 0.37042-0.52916 0.55562-0.68791m3.2544 1.8785c0.15875-0.21167 0.13229-0.50271-0.10583-0.66146 0-0.0265-0.02646-0.0529-0.07937-0.0529-0.02646 0-0.02646-0.0265-0.05292-0.0265-0.15875-0.0529-0.34396-0.0794-0.58208-0.23812-0.23812-0.18521-0.29104-0.34396-0.39688-0.44979-0.02646-0.0529-0.07937-0.0794-0.10583-0.13229-0.21167-0.15875-0.52917-0.10584-0.68792 0.10583-0.02646 0.0529-0.05292 0.10583-0.07938 0.18521v0.0794 1.4288c0 0.0529 0.05292 0.0529 0.07938 0.0794 0.05292 0 0.15875 0.0529 0.18521 0.0794 0.05292 0.0529 0.10583 0.10584 0.13229 0.13229 0.05292 0.0529 0.07937 0.0794 0.13229 0.0529s0.97896-0.3175 1.27-0.42333c0.13229 0 0.23812-0.0794 0.29104-0.15875m0.15875-0.87313c0.26458 0.18521 0.3175 0.55563 0.13229 0.82021-0.02646 0.0265 0 0.0529 0.05292 0.0529 0.3175-0.10584 0.55562-0.18521 0.74083-0.39688 0.23812-0.3175 0.15875-0.76729-0.15875-1.0054-0.02646-0.0265-0.05292-0.0265-0.07938-0.0529-0.02646-0.0265-0.05292-0.0265-0.10583-0.0529-0.26458-0.10583-0.55562-0.13229-0.9525-0.42333-0.3175-0.23813-0.42333-0.44979-0.55562-0.635-0.05292-0.0529-0.10583-0.13229-0.21167-0.21167-0.3175-0.23812-0.76729-0.15875-1.0054 0.15875-0.13229 0.23813-0.13229 0.50271-0.13229 0.82021 0 0.0529 0.05292 0.0529 0.05292 0 0.18521-0.23812 0.55562-0.29104 0.82021-0.10583 0.18521 0.13229 0.3175 0.47625 0.58208 0.66146 0.21167 0.21166 0.635 0.23812 0.82021 0.37041m-0.76729 3.6777c0.23812 0.0794 0.52917-0.0529 0.60854-0.3175v-0.0794-0.0794c0-0.15875-0.02646-0.34396 0.07937-0.60854 0.07938-0.26458 0.18521-0.39688 0.29104-0.52917 0.02646-0.0529 0.05292-0.10583 0.07938-0.15875 0.10583-0.23812-0.05292-0.50271-0.29104-0.58208-0.07938-0.0265-0.15875-0.0529-0.21167-0.0265-0.02646 0-0.05292 0-0.07937 0.0265 0 0-1.3229 0.39687-1.3494 0.42333-0.05292 0.0265-0.05292 0.0794-0.05292 0.10584 0 0.0529-0.02646 0.13229-0.02646 0.21166-0.02646 0.0529-0.05292 0.13229-0.10583 0.18521-0.05292 0.0529-0.07937 0.0794-0.02646 0.13229 0.05292 0.0265 0.60854 0.82021 0.79375 1.0848 0.07937 0.10584 0.15875 0.15875 0.29104 0.21167m0.84667-0.10583c-0.07937 0.29104-0.39688 0.44979-0.71438 0.34396-0.05292 0-0.07937 0.0265-0.05292 0.0794 0.18521 0.26458 0.34396 0.47625 0.60854 0.58208 0.37042 0.10584 0.79375-0.0794 0.89958-0.47625 0.02646-0.0265 0.02646-0.0265 0.02646-0.0529 0-0.0265 0-0.0794 0.02646-0.13229 0.02646-0.29105-0.05292-0.55563 0.10583-1.0054 0.13229-0.37042 0.29104-0.55563 0.42333-0.74083 0.05292-0.0529 0.10583-0.15875 0.13229-0.23813 0.13229-0.37042-0.07938-0.79375-0.44979-0.89958-0.26458-0.0794-0.52917 0-0.84667 0.13229-0.02646 0-0.02646 0.0265 0.02646 0.0529 0.29104 0.10583 0.47625 0.42333 0.37042 0.71437-0.07937 0.23813-0.37042 0.44979-0.44979 0.74083-0.10583 0.23813 0 0.66146-0.10583 0.89959m-3.7306 0.34396c0 0.26458 0.21167 0.47625 0.47625 0.47625h0.10583s0.02646 0 0.05292-0.0265c0.15875-0.0529 0.3175-0.10584 0.60854-0.10584s0.44979 0.0794 0.60854 0.10584c0.05292 0.0265 0.10583 0.0265 0.15875 0.0265 0.26458 0 0.47625-0.21167 0.47625-0.47625 0-0.0529 0-0.1323-0.02646-0.18521-0.02646-0.0265-0.02646-0.0529-0.05292-0.0794 0 0-0.79375-1.0848-0.84667-1.1112-0.02646-0.0794-0.07937-0.0529-0.10583-0.0265-0.05292 0.0265-0.15875 0.0529-0.21167 0.0529-0.07938 0-0.15875-0.0265-0.21167-0.0529-0.05292-0.0265-0.07937-0.0529-0.10583 0.0265-0.02646 0.0265-0.635 0.82021-0.82021 1.0848-0.05292 0.0794-0.10583 0.18521-0.10583 0.29105m0.39688 0.79375c-0.34396 0-0.58208-0.26459-0.58208-0.58209 0-0.0265-0.05292-0.0529-0.07937-0.0265-0.21167 0.26459-0.37042 0.47625-0.37042 0.74084-0.02646 0.39687 0.3175 0.71437 0.71438 0.71437h0.07938 0.13229c0.26458-0.0794 0.52917-0.21166 1.0054-0.21166 0.39688 0 0.60854 0.10583 0.82021 0.15875 0.07938 0.0265 0.18521 0.0529 0.29104 0.0529 0.39688 0 0.71438-0.3175 0.71438-0.71437 0-0.26459-0.15875-0.47625-0.37042-0.74084-0.02646-0.0265-0.05292 0-0.05292 0.0265 0 0.3175-0.26458 0.58209-0.58208 0.58209-0.23812 0-0.55562-0.21167-0.84667-0.21167-0.26458 0-0.635 0.21167-0.87312 0.21167m4.2598-3.9688c0.26458-0.0265 0.50271 0.0529 0.71438 0.21166l0.42333-0.58208-0.68792-0.23813c-0.05292 0.23813-0.23812 0.4498-0.44979 0.60855m-1.2965 3.9423c0.07937 0.26458 0.07937 0.52916 0 0.74083l0.68792 0.21167 0.02646-0.71438c-0.23812 0.0265-0.50271-0.0529-0.71438-0.23812m-4.2069 0c-0.21167 0.15875-0.44979 0.23812-0.71438 0.23812v0.71438l0.68792-0.21167c-0.07937-0.21167-0.07937-0.47625 0.02646-0.74083m-1.3229-3.9688c-0.23812-0.13229-0.37042-0.34396-0.47625-0.58209l-0.66146 0.23813 0.39688 0.58208c0.21167-0.13229 0.47625-0.23812 0.74083-0.23812m3.4131-2.4871c-0.05292-0.26458-0.23812-0.47625-0.44979-0.60854l0.44979-0.58208 0.42333 0.58208c-0.21167 0.13229-0.34396 0.34396-0.42333 0.60854z" class="g139_1" display="block" fill="#ee3225"/>
    <path d="m-31.71 284.21 2.9369-1.0054s-0.23812 1.2171-0.18521 2.1696c0.07938 1.2435 0.79375 2.1696 0.79375 2.1696l-3.6248 1.27z" class="g138_1" display="block" fill="#fec859"/>
    <path d="m-28.165 287.54s-0.635-0.92604-0.74083-1.9844c-0.07937-0.8202 0-1.5346 0.13229-2.3548-0.13229 0.55563-0.60854 2.1431-1.9315 3.5983-0.52917 0.58208-0.76729 1.1112-0.87312 1.4817l-0.05292-6.9585s-0.68792 0.23813-0.76729 0.26458c-0.07937 0.0265-0.13229 0.0794-0.13229 0.10584 0 0.0265-0.02646 0.0529-0.07937 0.0794-0.05292 0-0.44979 0.15875-0.74083 0.23813-0.05292 0.0265-0.02646 0.0794 0 0.0794 0.34396-0.0265 0.82021-0.0529 0.84667-0.0529 0.07937-0.0265 0.10583-0.0529 0.10583-0.0794v-0.0265c0.02646-0.0529 0.05292-0.10583 0.10583-0.10583 0.05292 0 0.3175-0.0265 0.44979-0.0529l-0.05292 7.4877h0.3175v-0.52917z" class="g140_1" display="block" fill="#d4a228"/>
    <path d="m-41.235 289s-0.55562-0.39688-0.68792-1.1642c-0.15875-0.79375 0.23812-1.2435 0.23812-1.2435l3.5719-1.2171s-0.21167 0.71437-0.02646 1.5081c0.26458 1.0319 0.82021 1.7198 0.82021 1.7198s-1.3229-0.26458-2.5929-0.0794c-1.1906 0.13229-1.3229 0.47625-1.3229 0.47625z" class="g138_1" display="block" fill="#fec859"/>
    <path d="m-45.336 288.1s0.44979-1.2171 1.7462-2.54c0.97896-1.0054 1.6404-1.2964 1.6404-1.2964s-0.58208 0.8202-0.82021 2.1696c-0.15875 0.84667 0 1.905 0 1.905s-0.66146-0.13229-1.4288-0.21167c-0.635-0.0794-1.1377-0.0265-1.1377-0.0265z" class="g138_1" display="block" fill="#fec859"/>
    <g fill="#d4a228">
     <path d="m-41.95 284.26s-0.58208 0.8202-0.82021 2.1696c-0.13229 0.84667 0.02646 1.905 0.02646 1.905s-0.15875-0.0265-0.55562-0.10583c-1.5875-0.37042 1.3494-3.9688 1.3494-3.9688z" class="g140_1" display="block"/>
     <path d="m-39.859 285.24-0.02646-3.2279c-0.07937 0.0265-0.71438 0.23812-0.76729 0.26458-0.07937 0.0265-0.13229 0.10583-0.13229 0.13229 0 0.0265-0.02646 0.0529-0.07937 0.0794-0.05292 0-0.47625 0.15875-0.74083 0.23812-0.05292 0.0265-0.02646 0.0794 0 0.0794 0.3175-0.0265 0.79375-0.0529 0.84667-0.0529 0.07937-0.0265 0.10583-0.0529 0.10583-0.0794v-0.0265c0.02646-0.0529 0.05292-0.10584 0.13229-0.10584 0.02646 0 0.26458-0.0265 0.42333-0.0265l-0.02646 2.7252z" class="g140_1" display="block"/>
     <path d="m-35.706 282.33h0.26458v-3.0956s-0.68792 0.26459-0.76729 0.26459c-0.07937 0.0265-0.13229 0.0794-0.13229 0.10583 0 0.0265-0.02646 0.0794-0.07937 0.0794-0.05292 0.0265-0.47625 0.15875-0.74083 0.26459-0.05292 0-0.02646 0.0529 0 0.0529 0.34396 0 0.82021-0.0529 0.84667-0.0529 0.07938 0 0.10583-0.0529 0.10583-0.0794 0.02646-0.0529 0.07937-0.10583 0.13229-0.10583 0.02646 0 0.26458-0.0265 0.42333-0.0265z" class="g140_1" display="block"/>
    </g>
    <g fill="#fec859">
     <path d="m-36.314 279.98c0.07938-0.0265 0.10583-0.0529 0.10583-0.10584 0-0.0265 0.02646-0.0529 0.07937-0.0794l-0.10583-0.26459c-0.07938 0.0265-0.10583 0.0794-0.10583 0.10584 0 0.0265-0.02646 0.0529-0.07937 0.0794z" class="g138_1" display="block"/>
     <path d="m-40.759 282.73c0.07937 0 0.10583-0.0265 0.10583-0.0794 0-0.0265 0.02646-0.0794 0.05292-0.0794l-0.07937-0.26458c-0.07937 0.0265-0.10583 0.0794-0.10583 0.10583 0 0.0265-0.02646 0.0529-0.07937 0.0529z" class="g138_1" display="block"/>
     <path d="m-32.531 282.04h0.02646c0.07937-0.0265 0.10583-0.0529 0.10583-0.0794 0-0.0529 0.02646-0.0794 0.05292-0.0794l-0.07938-0.29105c-0.07937 0.0529-0.10583 0.10584-0.10583 0.10584 0 0.0529-0.02646 0.0529-0.07937 0.0794z" class="g138_1" display="block"/>
    </g>
    <path d="m-37.319 288.6s-0.58208-0.84666-0.79375-1.7462c-0.18521-0.76729 0-1.4817 0-1.4817s-0.37042 1.2964-1.2965 2.0108c-0.60854 0.50271-2.1696 0.97896-1.7992 1.614 0.05292-0.0794 0.21167-0.23813 0.82021-0.39688 0.07937-0.0265 0.15875-0.0265 0.23812-0.0529v1.0583h0.34396v-1.0848c1.1642-0.13229 2.4871 0.0794 2.4871 0.0794z" class="g140_1" display="block" fill="#d4a228"/>
    <path d="m-41.606 286.38s-0.42333-0.26458-0.37042-1.0583c0.05292-0.84667 0.47625-1.2171 0.47625-1.2435l2.7781-0.9525s-0.21167 0.42333-0.05292 1.0583c0.15875 0.74083 0.66146 1.1906 0.66146 1.1906s-1.4023 0-2.6458 0.44979c-0.635 0.21166-0.84667 0.55562-0.84667 0.55562z" class="g138_1" display="block" fill="#fec859"/>
    <path d="m-39.965 284.63c0.79375-0.66146 1.2435-1.5081 1.2435-1.5081s-0.13229 0.52916-0.02646 1.0054c0.13229 0.82021 0.60854 1.2436 0.60854 1.2436s-1.1112 0-2.3283 0.34395c-0.82021 0.23813-1.0848 0.55563-1.1377 0.66146-0.26458-0.60854 0.84667-1.0848 1.6404-1.7462z" class="g140_1" display="block" fill="#d4a228"/>
    <path d="m-36.79 289.21s-0.76729-0.58208-0.9525-1.6404c-0.15875-0.87313 0.42333-1.4817 0.42333-1.4817l4.3656-1.4817s-0.23812 0.9525-0.02646 1.8786c0.23812 1.0319 1.1906 2.3283 1.1906 2.3283s-1.7992-0.52917-3.3602-0.3175c-1.5081 0.18521-1.6404 0.71437-1.6404 0.71437z" class="g138_1" display="block" fill="#fec859"/>
    <path d="m-37.663 282.31c-0.02646-0.635 0.42333-1.1906 0.44979-1.2171l3.1221-1.0848s-0.21167 0.50271-0.15875 0.92605c0.10583 0.79375 0.52917 1.2171 0.52917 1.2171s-1.2171-0.0794-2.6458 0.42333c-0.82021 0.29104-0.89958 0.66146-0.89958 0.66146s-0.37042-0.10583-0.39688-0.92604z" class="g138_1" display="block" fill="#fec859"/>
    <path d="m-35.203 281.49c0.55562-0.50271 1.1112-1.4552 1.1112-1.4552s-0.21167 0.47625-0.15875 0.89959c0.10583 0.79375 0.52917 1.2171 0.52917 1.2171s-1.3229 0-2.5929 0.42333c-0.52917 0.21167-0.89958 0.50271-0.92604 0.66146-0.18521-0.60854 1.27-1.0848 2.0373-1.7462z" class="g140_1" display="block" fill="#d4a228"/>
    <path d="m-37.214 285.9s-0.44979-0.50271-0.52917-1.3229c-0.07938-0.84667 0.39688-1.1642 0.44979-1.1906l3.5983-1.2435s-0.10583 0.26458-0.02646 0.97896c0.10583 0.60854 0.68792 1.4552 0.68792 1.4552s-1.9315 0.0529-3.1221 0.52916c-0.74083 0.29104-1.0583 0.79375-1.0583 0.79375z" class="g138_1" display="block" fill="#fec859"/>
    <path d="m-34.832 283.84c0.79375-0.68791 1.1377-1.6933 1.1377-1.6933s-0.10583 0.58208 0 1.0319c0.18521 0.7673 0.74083 1.4288 0.74083 1.4288s-1.6669 0.0265-2.884 0.4498c-0.82021 0.26458-1.2965 0.74083-1.3758 0.87312-0.18521-0.68792 1.614-1.4288 2.3812-2.0902z" class="g140_1" display="block" fill="#d4a228"/>
    <path d="m-31.71 288.87s-0.97896-1.27-1.27-2.3812c-0.18521-0.74084-0.05292-1.5875 0.02646-1.8786-0.13229 0.39688-0.52917 1.6669-1.4817 2.5665-0.92604 0.84667-2.7517 1.2435-2.3548 2.0638 0.07937-0.13229 0.29104-0.44979 1.0319-0.635l-0.02646 1.0319h0.34396v-1.0848c1.614-0.26459 3.7306 0.3175 3.7306 0.3175z" class="g140_1" display="block" fill="#d4a228"/>
    <path d="m-30.017 291.28c0.21167-0.0529 0.42333-0.10583 0.76729-0.1852 0-0.0265-0.02646-0.0265-0.05292-0.0529-0.37042-0.39688-0.3175-0.82021-0.07937-1.0319 0.82021-0.76729 0.79375-1.3229 0.79375-1.3229s-1.9844 0.39687-4.5773 0.55562c-0.15875 0-0.76729 0.26459-0.9525 0.26459-0.37042 0.0265-0.71438 0.0265-1.1112 0.0265-4.8948 0.0529-6.2706-0.29104-7.8846-0.60854-1.6404-0.29104-2.3548-0.60854-2.3548-0.60854l-0.05292 0.15875s1.2965 0.50271 2.2225 0.9525c0.18521 0.10583 0.9525 1.2435 1.2171 1.6404h-5.8473c-0.3175-6.694 0.97896-12.171 0.97896-12.171s4.445-0.9525 11.165-0.9525v-0.68791c-7.1173 0-11.853 1.0054-11.853 1.0054s-2.0638 7.3025-0.97896 15.981c0.44979 3.6248 3.466 10.425 12.806 13.573l0.42333-0.58208-0.42333-0.58208c-8.8106-2.9369-11.377-8.9165-11.827-12.303-0.10583-0.76729-0.15875-1.5346-0.21167-2.249h12.091v-1.0319h-6.2177c0.13229-0.44979 0.58208-0.55563 1.1112-0.42334 0.58208 0.1323 1.1377 0.29105 1.6669 0.23813 1.3229-0.0529 1.1377-0.39688 1.2435-0.39688 1.3758 0.0794 1.905 0.39688 3.0956 0.37042 1.0848 0 1.4552-0.29104 1.561-0.29104 1.3229-0.0265 1.8256 0.60854 3.1485 0.71437z" class="g138_1" display="block" fill="#fec859"/>
    <path d="m-23.932 278.26s-4.736-1.0054-11.853-1.0054v0.68791c6.7204 0 11.165 0.9525 11.165 0.9525s1.2965 5.4769 0.97896 12.171h-5.8473c-0.47625-0.44979-0.21167-1.0319-0.05292-1.1906 0.68792-0.60854 0.68792-1.0319 0.68792-1.0319s-1.5875 0.39687-4.1804 0.50271c-0.15875 0-0.89958 0.34395-1.0848 0.34395-0.37042 0.0265-0.87312 0.0265-1.2435 0.0265-3.3867 0-5.0535-0.0794-7.9904-0.68791 0.05292 0.0529 0.07938 0.0794 0.15875 0.1852 0 0.0265 1.27 0.34396 1.2965 0.37042 0.18521 0.26458 0.44979 0.44979 0.74083 0.60854 0.47625 0.26459 1.1906 0.47625 1.7462 0.50271 1.3494 0.0794 1.0848-0.42333 1.2171-0.42333 1.3494-0.0265 2.2225 0.47625 3.4131 0.44979 1.1112 0 1.1377-0.37042 1.2435-0.37042 1.0848-0.0529 2.1696 0.42334 3.0956 0.71438h-5.3446v1.0319h12.065c-0.05292 0.74084-0.13229 1.4817-0.23812 2.249-0.42333 3.4131-3.0162 9.3662-11.827 12.303v1.1642c9.3662-3.1485 12.382-9.9219 12.806-13.573 1.1112-8.6783-0.9525-15.981-0.9525-15.981z" class="g140_1" display="block" fill="#d4a228"/>
    <g fill="#1c2c5c">
     <path d="m-57.639 281.41 0.50271-0.9525 2.2225-0.15875-1.1377-1.905 0.50271-0.92605 3.9158 2.0638-0.44979 0.84667-2.5665-1.3229 1.1112 1.9844h-0.02646l-2.2225 0.23812 2.54 1.3494-0.44979 0.84667z" class="g135_1" display="block"/>
     <path d="m-50.522 275.45-1.4552-0.55562 0.635 1.4023zm-2.6194-1.0583 0.60854-0.66146 4.5773 1.6933-0.71438 0.74084-1.0054-0.39688-1.27 1.3758 0.44979 0.97896-0.68792 0.71438z" class="g135_1" display="block"/>
     <path d="m-49.623 271.17 0.76729-0.44979 3.2279 1.2435-1.4288-2.3283 0.82021-0.50271 2.3019 3.7835-0.71438 0.44979-3.3073-1.3229 1.4817 2.4342-0.82021 0.50271z" class="g135_1" display="block"/>
     <path d="m-43.643 270.4c-0.34396-1.2435 0.26458-2.4871 1.5875-2.8575 0.79375-0.23813 1.3758-0.10583 1.8785 0.15875l-0.42333 0.87312c-0.39688-0.21166-0.79375-0.29104-1.2171-0.1852-0.71438 0.21166-1.0583 0.9525-0.84667 1.6933v0.0265c0.21167 0.71437 0.87312 1.1906 1.614 0.97896 0.47625-0.1323 0.71438-0.42334 0.97896-0.82021l0.76729 0.42333c-0.3175 0.60854-0.71438 1.0319-1.5346 1.27-1.2435 0.37042-2.4606-0.3175-2.8046-1.561z" class="g135_1" display="block"/>
     <path d="m-38.298 266.83 0.9525-0.0265 0.05292 1.7727 1.7992-0.0529-0.05292-1.7462 0.97896-0.0265 0.10583 4.445-0.97896 0.0265-0.02646-1.7992-1.7992 0.0529 0.05292 1.7727-0.97896 0.0265z" class="g135_1" display="block"/>
     <path d="m-28.8 271.78 0.79375-0.37041c0.23812 0.44979 0.52917 0.8202 0.97896 1.0319 0.37042 0.18521 0.66146 0.13229 0.76729-0.10583v-0.0265c0.10583-0.21167 0-0.39688-0.58208-0.87313-0.71438-0.58208-1.1377-1.0583-0.76729-1.8521 0.34396-0.74083 1.1377-0.9525 1.9844-0.55562 0.58208 0.26458 1.0054 0.68791 1.2435 1.1906l-0.76729 0.47625c-0.23812-0.42333-0.52917-0.74083-0.87312-0.89958-0.3175-0.15875-0.58208-0.0794-0.68792 0.13229-0.10583 0.26458 0.02646 0.42333 0.635 0.92604 0.71438 0.60854 1.0583 1.1112 0.71438 1.8256-0.37042 0.79375-1.1906 0.97895-2.0638 0.58208-0.58208-0.3175-1.0848-0.82021-1.3758-1.4817z" class="g135_1" display="block"/>
     <path d="m-22.318 272.04-1.0848-0.82021 0.55562-0.71438 2.9104 2.2225-0.52917 0.74084-1.0848-0.82021-2.1431 2.8046-0.79375-0.58208z" class="g135_1" display="block"/>
     <path d="m-16.338 281.09c0.18521 0.42333 0.55562 0.55562 0.87312 0.39687h0.02646c0.37042-0.18521 0.42333-0.55562 0.21167-0.97896l-0.42333-0.87312-1.1377 0.58208zm1.0319-2.7252 0.92604 1.8256c0.23812 0.50271 0.29104 0.9525 0.15875 1.3494-0.10583 0.34396-0.34396 0.60854-0.74083 0.79375-0.635 0.3175-1.2171 0.18521-1.6669-0.23813l-0.92604 1.6669-0.52917-1.0054 0.84667-1.5081-0.37042-0.68792-1.27 0.66146-0.42333-0.87313z" class="g135_1" display="block"/>
     <path d="m-31.79 269.82 1.6404 0.34395 0.47625-0.79375-1.905-0.39687 0.18521-0.89958 2.3019 0.5027 0.21167-0.8202-3.2808-0.71438-0.9525 4.3127 3.3338 0.74083 0.15875-0.84666-2.3548-0.52917z" class="g135_1" display="block"/>
     <path d="m-18.587 274.08-3.4131 2.831 2.1696 2.5929 0.66146-0.55563-1.5346-1.8521 0.71438-0.58209 1.0848 1.2965 0.89958-0.29104-1.3229-1.5875 0.68792-0.55562 1.5346 1.7992 0.66146-0.55562z" class="g135_1" display="block"/>
     <path d="m-43.273 311.94c0-1.2965 0.97896-2.3548 2.3812-2.3548 0.84667 0 1.3494 0.29104 1.7727 0.71438l-0.60854 0.71437c-0.37042-0.3175-0.71438-0.50271-1.1642-0.50271-0.76729 0-1.3229 0.635-1.3229 1.4288 0 0.76729 0.52917 1.4288 1.3229 1.4288 0.50271 0 0.82021-0.21166 1.1906-0.52916l0.60854 0.635c-0.44979 0.5027-0.97896 0.8202-1.8521 0.8202-1.3229-0.0265-2.3283-1.0583-2.3283-2.3548z" class="g135_1" display="block"/>
     <path d="m-38.113 309.66h1.0054v4.5244h-1.0054z" class="g135_1" display="block"/>
     <path d="m-34.806 310.59h-1.3758v-0.92604h3.7571v0.92604h-1.3758v3.5983h-1.0054z" class="g135_1" display="block"/>
     <path d="m-30.282 312.42-1.7462-2.7517h1.1642l1.0848 1.8256 1.0848-1.8256h1.1377l-1.7198 2.6988v1.8256h-1.0054z" class="g135_1" display="block"/>
    </g>
   </g>
  </g>
 </g>
</svg>
